<?xml version="1.0" encoding="utf-8" standalone="no"?>
<!DOCTYPE svg PUBLIC "-//W3C//DTD SVG 1.1//EN"
  "http://www.w3.org/Graphics/SVG/1.1/DTD/svg11.dtd">
<svg xmlns:xlink="http://www.w3.org/1999/xlink" width="576pt" height="360pt" viewBox="0 0 576 360" xmlns="http://www.w3.org/2000/svg" version="1.1">
 <metadata>
  <rdf:RDF xmlns:dc="http://purl.org/dc/elements/1.1/" xmlns:cc="http://creativecommons.org/ns#" xmlns:rdf="http://www.w3.org/1999/02/22-rdf-syntax-ns#">
   <cc:Work>
    <dc:type rdf:resource="http://purl.org/dc/dcmitype/StillImage"/>
    <dc:date>2026-08-11T10:04:16.587163</dc:date>
    <dc:format>image/svg+xml</dc:format>
    <dc:creator>
     <cc:Agent>
      <dc:title>Matplotlib v3.10.9, https://matplotlib.org/</dc:title>
     </cc:Agent>
    </dc:creator>
   </cc:Work>
  </rdf:RDF>
 </metadata>
 <defs>
  <style type="text/css">*{stroke-linejoin: round; stroke-linecap: butt}</style>
 </defs>
 <g id="figure_1">
  <g id="patch_1">
   <path d="M 0 360 
L 576 360 
L 576 0 
L 0 0 
z
" style="fill: #ffffff"/>
  </g>
  <g id="axes_1">
   <g id="patch_2">
    <path d="M 56.99 315.16 
L 378.36 315.16 
L 378.36 10.8 
L 56.99 10.8 
z
" style="fill: #ffffff"/>
   </g>
   <g id="PathCollection_1">
    <defs>
     <path id="C0_0_6ac97f16f6" d="M 0 5 
C 1.326016 5 2.597899 4.473168 3.535534 3.535534 
C 4.473168 2.597899 5 1.326016 5 -0 
C 5 -1.326016 4.473168 -2.597899 3.535534 -3.535534 
C 2.597899 -4.473168 1.326016 -5 0 -5 
C -1.326016 -5 -2.597899 -4.473168 -3.535534 -3.535534 
C -4.473168 -2.597899 -5 -1.326016 -5 0 
C -5 1.326016 -4.473168 2.597899 -3.535534 3.535534 
C -2.597899 4.473168 -1.326016 5 0 5 
z
"/>
    </defs>
    <g clip-path="url(#p4bad2f49ac)">
     <use xlink:href="#C0_0_6ac97f16f6" x="312.593052" y="159.741143" style="fill: #1b9e77; fill-opacity: 0.9; stroke: #ffffff; stroke-opacity: 0.9; stroke-width: 0.8"/>
    </g>
    <g clip-path="url(#p4bad2f49ac)">
     <use xlink:href="#C0_0_6ac97f16f6" x="336.832012" y="240.249869" style="fill: #1b9e77; fill-opacity: 0.9; stroke: #ffffff; stroke-opacity: 0.9; stroke-width: 0.8"/>
    </g>
    <g clip-path="url(#p4bad2f49ac)">
     <use xlink:href="#C0_0_6ac97f16f6" x="308.03484" y="209.018036" style="fill: #1b9e77; fill-opacity: 0.9; stroke: #ffffff; stroke-opacity: 0.9; stroke-width: 0.8"/>
    </g>
    <g clip-path="url(#p4bad2f49ac)">
     <use xlink:href="#C0_0_6ac97f16f6" x="355.761996" y="289.526762" style="fill: #d95f02; fill-opacity: 0.9; stroke: #ffffff; stroke-opacity: 0.9; stroke-width: 0.8"/>
    </g>
    <g clip-path="url(#p4bad2f49ac)">
     <use xlink:href="#C0_0_6ac97f16f6" x="363.752273" y="301.325455" style="fill: #1b9e77; fill-opacity: 0.9; stroke: #ffffff; stroke-opacity: 0.9; stroke-width: 0.8"/>
    </g>
    <g clip-path="url(#p4bad2f49ac)">
     <use xlink:href="#C0_0_6ac97f16f6" x="319.242678" y="253.436643" style="fill: #d95f02; fill-opacity: 0.9; stroke: #ffffff; stroke-opacity: 0.9; stroke-width: 0.8"/>
    </g>
    <g clip-path="url(#p4bad2f49ac)">
     <use xlink:href="#C0_0_6ac97f16f6" x="318.867296" y="250.197787" style="fill: #d95f02; fill-opacity: 0.9; stroke: #ffffff; stroke-opacity: 0.9; stroke-width: 0.8"/>
    </g>
    <g clip-path="url(#p4bad2f49ac)">
     <use xlink:href="#C0_0_6ac97f16f6" x="329.109865" y="262.227826" style="fill: #1b9e77; fill-opacity: 0.9; stroke: #ffffff; stroke-opacity: 0.9; stroke-width: 0.8"/>
    </g>
    <g clip-path="url(#p4bad2f49ac)">
     <use xlink:href="#C0_0_6ac97f16f6" x="337.850906" y="264.309948" style="fill: #1b9e77; fill-opacity: 0.9; stroke: #ffffff; stroke-opacity: 0.9; stroke-width: 0.8"/>
    </g>
    <g clip-path="url(#p4bad2f49ac)">
     <use xlink:href="#C0_0_6ac97f16f6" x="337.046516" y="240.249869" style="fill: #7570b3; fill-opacity: 0.9; stroke: #ffffff; stroke-opacity: 0.9; stroke-width: 0.8"/>
    </g>
    <g clip-path="url(#p4bad2f49ac)">
     <use xlink:href="#C0_0_6ac97f16f6" x="347.181833" y="252.048562" style="fill: #7570b3; fill-opacity: 0.9; stroke: #ffffff; stroke-opacity: 0.9; stroke-width: 0.8"/>
    </g>
    <g clip-path="url(#p4bad2f49ac)">
     <use xlink:href="#C0_0_6ac97f16f6" x="341.068467" y="226.831748" style="fill: #7570b3; fill-opacity: 0.9; stroke: #ffffff; stroke-opacity: 0.9; stroke-width: 0.8"/>
    </g>
    <g clip-path="url(#p4bad2f49ac)">
     <use xlink:href="#C0_0_6ac97f16f6" x="354.743102" y="257.832235" style="fill: #7570b3; fill-opacity: 0.9; stroke: #ffffff; stroke-opacity: 0.9; stroke-width: 0.8"/>
    </g>
    <g clip-path="url(#p4bad2f49ac)">
     <use xlink:href="#C0_0_6ac97f16f6" x="294.521084" y="190.972977" style="fill: #7570b3; fill-opacity: 0.9; stroke: #ffffff; stroke-opacity: 0.9; stroke-width: 0.8"/>
    </g>
    <g clip-path="url(#p4bad2f49ac)">
     <use xlink:href="#C0_0_6ac97f16f6" x="247.759196" y="150.718614" style="fill: #d95f02; fill-opacity: 0.9; stroke: #ffffff; stroke-opacity: 0.9; stroke-width: 0.8"/>
    </g>
    <g clip-path="url(#p4bad2f49ac)">
     <use xlink:href="#C0_0_6ac97f16f6" x="278.862286" y="138.22588" style="fill: #d95f02; fill-opacity: 0.9; stroke: #ffffff; stroke-opacity: 0.9; stroke-width: 0.8"/>
    </g>
    <g clip-path="url(#p4bad2f49ac)">
     <use xlink:href="#C0_0_6ac97f16f6" x="299.401051" y="191.204324" style="fill: #7570b3; fill-opacity: 0.9; stroke: #ffffff; stroke-opacity: 0.9; stroke-width: 0.8"/>
    </g>
    <g clip-path="url(#p4bad2f49ac)">
     <use xlink:href="#C0_0_6ac97f16f6" x="327.822841" y="213.644974" style="fill: #7570b3; fill-opacity: 0.9; stroke: #ffffff; stroke-opacity: 0.9; stroke-width: 0.8"/>
    </g>
    <g clip-path="url(#p4bad2f49ac)">
     <use xlink:href="#C0_0_6ac97f16f6" x="114.873924" y="72.29201" style="fill: #7570b3; fill-opacity: 0.9; stroke: #ffffff; stroke-opacity: 0.9; stroke-width: 0.8"/>
    </g>
    <g clip-path="url(#p4bad2f49ac)">
     <use xlink:href="#C0_0_6ac97f16f6" x="84.253467" y="91.493804" style="fill: #d95f02; fill-opacity: 0.9; stroke: #ffffff; stroke-opacity: 0.9; stroke-width: 0.8"/>
    </g>
    <g clip-path="url(#p4bad2f49ac)">
     <use xlink:href="#C0_0_6ac97f16f6" x="327.822841" y="222.667504" style="fill: #7570b3; fill-opacity: 0.9; stroke: #ffffff; stroke-opacity: 0.9; stroke-width: 0.8"/>
    </g>
    <g clip-path="url(#p4bad2f49ac)">
     <use xlink:href="#C0_0_6ac97f16f6" x="111.01285" y="113.240413" style="fill: #d95f02; fill-opacity: 0.9; stroke: #ffffff; stroke-opacity: 0.9; stroke-width: 0.8"/>
    </g>
    <g clip-path="url(#p4bad2f49ac)">
     <use xlink:href="#C0_0_6ac97f16f6" x="311.037897" y="189.816242" style="fill: #7570b3; fill-opacity: 0.9; stroke: #ffffff; stroke-opacity: 0.9; stroke-width: 0.8"/>
    </g>
    <g clip-path="url(#p4bad2f49ac)">
     <use xlink:href="#C0_0_6ac97f16f6" x="86.23763" y="119.48678" style="fill: #d95f02; fill-opacity: 0.9; stroke: #ffffff; stroke-opacity: 0.9; stroke-width: 0.8"/>
    </g>
    <g clip-path="url(#p4bad2f49ac)">
     <use xlink:href="#C0_0_6ac97f16f6" x="71.597727" y="48.231931" style="fill: #7570b3; fill-opacity: 0.9; stroke: #ffffff; stroke-opacity: 0.9; stroke-width: 0.8"/>
    </g>
    <g clip-path="url(#p4bad2f49ac)">
     <use xlink:href="#C0_0_6ac97f16f6" x="125.116493" y="103.75519" style="fill: #d95f02; fill-opacity: 0.9; stroke: #ffffff; stroke-opacity: 0.9; stroke-width: 0.8"/>
    </g>
    <g clip-path="url(#p4bad2f49ac)">
     <use xlink:href="#C0_0_6ac97f16f6" x="95.568557" y="38.978054" style="fill: #7570b3; fill-opacity: 0.9; stroke: #ffffff; stroke-opacity: 0.9; stroke-width: 0.8"/>
    </g>
    <g clip-path="url(#p4bad2f49ac)">
     <use xlink:href="#C0_0_6ac97f16f6" x="223.681114" y="161.129225" style="fill: #d95f02; fill-opacity: 0.9; stroke: #ffffff; stroke-opacity: 0.9; stroke-width: 0.8"/>
    </g>
    <g clip-path="url(#p4bad2f49ac)">
     <use xlink:href="#C0_0_6ac97f16f6" x="270.711132" y="177.323509" style="fill: #e7298a; fill-opacity: 0.9; stroke: #ffffff; stroke-opacity: 0.9; stroke-width: 0.8"/>
    </g>
    <g clip-path="url(#p4bad2f49ac)">
     <use xlink:href="#C0_0_6ac97f16f6" x="73.957272" y="75.29952" style="fill: #d95f02; fill-opacity: 0.9; stroke: #ffffff; stroke-opacity: 0.9; stroke-width: 0.8"/>
    </g>
    <g clip-path="url(#p4bad2f49ac)">
     <use xlink:href="#C0_0_6ac97f16f6" x="277.521636" y="186.114691" style="fill: #d95f02; fill-opacity: 0.9; stroke: #ffffff; stroke-opacity: 0.9; stroke-width: 0.8"/>
    </g>
    <g clip-path="url(#p4bad2f49ac)">
     <use xlink:href="#C0_0_6ac97f16f6" x="282.884238" y="167.144244" style="fill: #e7298a; fill-opacity: 0.9; stroke: #ffffff; stroke-opacity: 0.9; stroke-width: 0.8"/>
    </g>
    <g clip-path="url(#p4bad2f49ac)">
     <use xlink:href="#C0_0_6ac97f16f6" x="217.031488" y="154.651511" style="fill: #e7298a; fill-opacity: 0.9; stroke: #ffffff; stroke-opacity: 0.9; stroke-width: 0.8"/>
    </g>
    <g clip-path="url(#p4bad2f49ac)">
     <use xlink:href="#C0_0_6ac97f16f6" x="147.317665" y="120.412168" style="fill: #d95f02; fill-opacity: 0.9; stroke: #ffffff; stroke-opacity: 0.9; stroke-width: 0.8"/>
    </g>
    <g clip-path="url(#p4bad2f49ac)">
     <use xlink:href="#C0_0_6ac97f16f6" x="289.480238" y="194.905874" style="fill: #e7298a; fill-opacity: 0.9; stroke: #ffffff; stroke-opacity: 0.9; stroke-width: 0.8"/>
    </g>
    <g clip-path="url(#p4bad2f49ac)">
     <use xlink:href="#C0_0_6ac97f16f6" x="175.632202" y="97.508823" style="fill: #7570b3; fill-opacity: 0.9; stroke: #ffffff; stroke-opacity: 0.9; stroke-width: 0.8"/>
    </g>
    <g clip-path="url(#p4bad2f49ac)">
     <use xlink:href="#C0_0_6ac97f16f6" x="310.984271" y="200.920894" style="fill: #e7298a; fill-opacity: 0.9; stroke: #ffffff; stroke-opacity: 0.9; stroke-width: 0.8"/>
    </g>
    <g clip-path="url(#p4bad2f49ac)">
     <use xlink:href="#C0_0_6ac97f16f6" x="237.892009" y="158.353062" style="fill: #e7298a; fill-opacity: 0.9; stroke: #ffffff; stroke-opacity: 0.9; stroke-width: 0.8"/>
    </g>
    <g clip-path="url(#p4bad2f49ac)">
     <use xlink:href="#C0_0_6ac97f16f6" x="331.094028" y="212.950933" style="fill: #e7298a; fill-opacity: 0.9; stroke: #ffffff; stroke-opacity: 0.9; stroke-width: 0.8"/>
    </g>
    <g clip-path="url(#p4bad2f49ac)">
     <use xlink:href="#C0_0_6ac97f16f6" x="181.531064" y="97.971517" style="fill: #7570b3; fill-opacity: 0.9; stroke: #ffffff; stroke-opacity: 0.9; stroke-width: 0.8"/>
    </g>
    <g clip-path="url(#p4bad2f49ac)">
     <use xlink:href="#C0_0_6ac97f16f6" x="339.513313" y="218.965953" style="fill: #e7298a; fill-opacity: 0.9; stroke: #ffffff; stroke-opacity: 0.9; stroke-width: 0.8"/>
    </g>
    <g clip-path="url(#p4bad2f49ac)">
     <use xlink:href="#C0_0_6ac97f16f6" x="141.526055" y="58.873889" style="fill: #e7298a; fill-opacity: 0.9; stroke: #ffffff; stroke-opacity: 0.9; stroke-width: 0.8"/>
    </g>
    <g clip-path="url(#p4bad2f49ac)">
     <use xlink:href="#C0_0_6ac97f16f6" x="172.200137" y="68.359112" style="fill: #7570b3; fill-opacity: 0.9; stroke: #ffffff; stroke-opacity: 0.9; stroke-width: 0.8"/>
    </g>
    <g clip-path="url(#p4bad2f49ac)">
     <use xlink:href="#C0_0_6ac97f16f6" x="308.785604" y="191.898364" style="fill: #d95f02; fill-opacity: 0.9; stroke: #ffffff; stroke-opacity: 0.9; stroke-width: 0.8"/>
    </g>
    <g clip-path="url(#p4bad2f49ac)">
     <use xlink:href="#C0_0_6ac97f16f6" x="225.129016" y="154.188817" style="fill: #66a61e; fill-opacity: 0.9; stroke: #ffffff; stroke-opacity: 0.9; stroke-width: 0.8"/>
    </g>
    <g clip-path="url(#p4bad2f49ac)">
     <use xlink:href="#C0_0_6ac97f16f6" x="241.753082" y="163.674041" style="fill: #e7298a; fill-opacity: 0.9; stroke: #ffffff; stroke-opacity: 0.9; stroke-width: 0.8"/>
    </g>
    <g clip-path="url(#p4bad2f49ac)">
     <use xlink:href="#C0_0_6ac97f16f6" x="106.347387" y="24.634545" style="fill: #e7298a; fill-opacity: 0.9; stroke: #ffffff; stroke-opacity: 0.9; stroke-width: 0.8"/>
    </g>
    <g clip-path="url(#p4bad2f49ac)">
     <use xlink:href="#C0_0_6ac97f16f6" x="178.635259" y="108.150781" style="fill: #7570b3; fill-opacity: 0.9; stroke: #ffffff; stroke-opacity: 0.9; stroke-width: 0.8"/>
    </g>
    <g clip-path="url(#p4bad2f49ac)">
     <use xlink:href="#C0_0_6ac97f16f6" x="122.59607" y="56.097726" style="fill: #e7298a; fill-opacity: 0.9; stroke: #ffffff; stroke-opacity: 0.9; stroke-width: 0.8"/>
    </g>
    <g clip-path="url(#p4bad2f49ac)">
     <use xlink:href="#C0_0_6ac97f16f6" x="256.553863" y="168.763673" style="fill: #e7298a; fill-opacity: 0.9; stroke: #ffffff; stroke-opacity: 0.9; stroke-width: 0.8"/>
    </g>
    <g clip-path="url(#p4bad2f49ac)">
     <use xlink:href="#C0_0_6ac97f16f6" x="131.283485" y="78.307029" style="fill: #e7298a; fill-opacity: 0.9; stroke: #ffffff; stroke-opacity: 0.9; stroke-width: 0.8"/>
    </g>
    <g clip-path="url(#p4bad2f49ac)">
     <use xlink:href="#C0_0_6ac97f16f6" x="191.130121" y="142.852818" style="fill: #d95f02; fill-opacity: 0.9; stroke: #ffffff; stroke-opacity: 0.9; stroke-width: 0.8"/>
    </g>
    <g clip-path="url(#p4bad2f49ac)">
     <use xlink:href="#C0_0_6ac97f16f6" x="250.708627" y="166.218857" style="fill: #66a61e; fill-opacity: 0.9; stroke: #ffffff; stroke-opacity: 0.9; stroke-width: 0.8"/>
    </g>
    <g clip-path="url(#p4bad2f49ac)">
     <use xlink:href="#C0_0_6ac97f16f6" x="225.07539" y="152.569389" style="fill: #66a61e; fill-opacity: 0.9; stroke: #ffffff; stroke-opacity: 0.9; stroke-width: 0.8"/>
    </g>
    <g clip-path="url(#p4bad2f49ac)">
     <use xlink:href="#C0_0_6ac97f16f6" x="110.47659" y="61.650052" style="fill: #e7298a; fill-opacity: 0.9; stroke: #ffffff; stroke-opacity: 0.9; stroke-width: 0.8"/>
    </g>
    <g clip-path="url(#p4bad2f49ac)">
     <use xlink:href="#C0_0_6ac97f16f6" x="200.192918" y="126.889881" style="fill: #66a61e; fill-opacity: 0.9; stroke: #ffffff; stroke-opacity: 0.9; stroke-width: 0.8"/>
    </g>
    <g clip-path="url(#p4bad2f49ac)">
     <use xlink:href="#C0_0_6ac97f16f6" x="145.22625" y="57.717154" style="fill: #7570b3; fill-opacity: 0.9; stroke: #ffffff; stroke-opacity: 0.9; stroke-width: 0.8"/>
    </g>
    <g clip-path="url(#p4bad2f49ac)">
     <use xlink:href="#C0_0_6ac97f16f6" x="229.419098" y="156.039593" style="fill: #66a61e; fill-opacity: 0.9; stroke: #ffffff; stroke-opacity: 0.9; stroke-width: 0.8"/>
    </g>
    <g clip-path="url(#p4bad2f49ac)">
     <use xlink:href="#C0_0_6ac97f16f6" x="145.279876" y="40.597483" style="fill: #66a61e; fill-opacity: 0.9; stroke: #ffffff; stroke-opacity: 0.9; stroke-width: 0.8"/>
    </g>
    <g clip-path="url(#p4bad2f49ac)">
     <use xlink:href="#C0_0_6ac97f16f6" x="198.42326" y="127.815269" style="fill: #e6ab02; fill-opacity: 0.9; stroke: #ffffff; stroke-opacity: 0.9; stroke-width: 0.8"/>
    </g>
    <g clip-path="url(#p4bad2f49ac)">
     <use xlink:href="#C0_0_6ac97f16f6" x="204.429374" y="131.51682" style="fill: #7570b3; fill-opacity: 0.9; stroke: #ffffff; stroke-opacity: 0.9; stroke-width: 0.8"/>
    </g>
    <g clip-path="url(#p4bad2f49ac)">
     <use xlink:href="#C0_0_6ac97f16f6" x="147.317665" y="67.896418" style="fill: #7570b3; fill-opacity: 0.9; stroke: #ffffff; stroke-opacity: 0.9; stroke-width: 0.8"/>
    </g>
    <g clip-path="url(#p4bad2f49ac)">
     <use xlink:href="#C0_0_6ac97f16f6" x="222.66222" y="141.464737" style="fill: #7570b3; fill-opacity: 0.9; stroke: #ffffff; stroke-opacity: 0.9; stroke-width: 0.8"/>
    </g>
   </g>
   <g id="matplotlib.axis_1">
    <g id="xtick_1">
     <g id="line2d_1">
      <path d="M 76.906703 315.16 
L 76.906703 10.8 
" clip-path="url(#p4bad2f49ac)" style="fill: none; stroke-dasharray: 2.96,1.28; stroke-dashoffset: 0; stroke: #b0b0b0; stroke-opacity: 0.5; stroke-width: 0.8"/>
     </g>
     <g id="line2d_2">
      <defs>
       <path id="m6286f39d92" d="M 0 0 
L 0 3.5 
" style="stroke: #000000; stroke-width: 0.8"/>
      </defs>
      <g>
       <use xlink:href="#m6286f39d92" x="76.906703" y="315.16" style="stroke: #000000; stroke-width: 0.8"/>
      </g>
     </g>
     <g id="text_1">
      <!-- 0.1 -->
      <g transform="translate(68.955141 329.758438) scale(0.1 -0.1)">
       <defs>
        <path id="DejaVuSans-30" d="M 2034 4250 
Q 1547 4250 1301 3770 
Q 1056 3291 1056 2328 
Q 1056 1369 1301 889 
Q 1547 409 2034 409 
Q 2525 409 2770 889 
Q 3016 1369 3016 2328 
Q 3016 3291 2770 3770 
Q 2525 4250 2034 4250 
z
M 2034 4750 
Q 2819 4750 3233 4129 
Q 3647 3509 3647 2328 
Q 3647 1150 3233 529 
Q 2819 -91 2034 -91 
Q 1250 -91 836 529 
Q 422 1150 422 2328 
Q 422 3509 836 4129 
Q 1250 4750 2034 4750 
z
" transform="scale(0.015625)"/>
        <path id="DejaVuSans-2e" d="M 684 794 
L 1344 794 
L 1344 0 
L 684 0 
L 684 794 
z
" transform="scale(0.015625)"/>
        <path id="DejaVuSans-31" d="M 794 531 
L 1825 531 
L 1825 4091 
L 703 3866 
L 703 4441 
L 1819 4666 
L 2450 4666 
L 2450 531 
L 3481 531 
L 3481 0 
L 794 0 
L 794 531 
z
" transform="scale(0.015625)"/>
       </defs>
       <use xlink:href="#DejaVuSans-30"/>
       <use xlink:href="#DejaVuSans-2e" transform="translate(63.623047 0)"/>
       <use xlink:href="#DejaVuSans-31" transform="translate(95.410156 0)"/>
      </g>
     </g>
    </g>
    <g id="xtick_2">
     <g id="line2d_3">
      <path d="M 130.532721 315.16 
L 130.532721 10.8 
" clip-path="url(#p4bad2f49ac)" style="fill: none; stroke-dasharray: 2.96,1.28; stroke-dashoffset: 0; stroke: #b0b0b0; stroke-opacity: 0.5; stroke-width: 0.8"/>
     </g>
     <g id="line2d_4">
      <g>
       <use xlink:href="#m6286f39d92" x="130.532721" y="315.16" style="stroke: #000000; stroke-width: 0.8"/>
      </g>
     </g>
     <g id="text_2">
      <!-- 0.2 -->
      <g transform="translate(122.581158 329.758438) scale(0.1 -0.1)">
       <defs>
        <path id="DejaVuSans-32" d="M 1228 531 
L 3431 531 
L 3431 0 
L 469 0 
L 469 531 
Q 828 903 1448 1529 
Q 2069 2156 2228 2338 
Q 2531 2678 2651 2914 
Q 2772 3150 2772 3378 
Q 2772 3750 2511 3984 
Q 2250 4219 1831 4219 
Q 1534 4219 1204 4116 
Q 875 4013 500 3803 
L 500 4441 
Q 881 4594 1212 4672 
Q 1544 4750 1819 4750 
Q 2544 4750 2975 4387 
Q 3406 4025 3406 3419 
Q 3406 3131 3298 2873 
Q 3191 2616 2906 2266 
Q 2828 2175 2409 1742 
Q 1991 1309 1228 531 
z
" transform="scale(0.015625)"/>
       </defs>
       <use xlink:href="#DejaVuSans-30"/>
       <use xlink:href="#DejaVuSans-2e" transform="translate(63.623047 0)"/>
       <use xlink:href="#DejaVuSans-32" transform="translate(95.410156 0)"/>
      </g>
     </g>
    </g>
    <g id="xtick_3">
     <g id="line2d_5">
      <path d="M 184.158739 315.16 
L 184.158739 10.8 
" clip-path="url(#p4bad2f49ac)" style="fill: none; stroke-dasharray: 2.96,1.28; stroke-dashoffset: 0; stroke: #b0b0b0; stroke-opacity: 0.5; stroke-width: 0.8"/>
     </g>
     <g id="line2d_6">
      <g>
       <use xlink:href="#m6286f39d92" x="184.158739" y="315.16" style="stroke: #000000; stroke-width: 0.8"/>
      </g>
     </g>
     <g id="text_3">
      <!-- 0.3 -->
      <g transform="translate(176.207176 329.758438) scale(0.1 -0.1)">
       <defs>
        <path id="DejaVuSans-33" d="M 2597 2516 
Q 3050 2419 3304 2112 
Q 3559 1806 3559 1356 
Q 3559 666 3084 287 
Q 2609 -91 1734 -91 
Q 1441 -91 1130 -33 
Q 819 25 488 141 
L 488 750 
Q 750 597 1062 519 
Q 1375 441 1716 441 
Q 2309 441 2620 675 
Q 2931 909 2931 1356 
Q 2931 1769 2642 2001 
Q 2353 2234 1838 2234 
L 1294 2234 
L 1294 2753 
L 1863 2753 
Q 2328 2753 2575 2939 
Q 2822 3125 2822 3475 
Q 2822 3834 2567 4026 
Q 2313 4219 1838 4219 
Q 1578 4219 1281 4162 
Q 984 4106 628 3988 
L 628 4550 
Q 988 4650 1302 4700 
Q 1616 4750 1894 4750 
Q 2613 4750 3031 4423 
Q 3450 4097 3450 3541 
Q 3450 3153 3228 2886 
Q 3006 2619 2597 2516 
z
" transform="scale(0.015625)"/>
       </defs>
       <use xlink:href="#DejaVuSans-30"/>
       <use xlink:href="#DejaVuSans-2e" transform="translate(63.623047 0)"/>
       <use xlink:href="#DejaVuSans-33" transform="translate(95.410156 0)"/>
      </g>
     </g>
    </g>
    <g id="xtick_4">
     <g id="line2d_7">
      <path d="M 237.784757 315.16 
L 237.784757 10.8 
" clip-path="url(#p4bad2f49ac)" style="fill: none; stroke-dasharray: 2.96,1.28; stroke-dashoffset: 0; stroke: #b0b0b0; stroke-opacity: 0.5; stroke-width: 0.8"/>
     </g>
     <g id="line2d_8">
      <g>
       <use xlink:href="#m6286f39d92" x="237.784757" y="315.16" style="stroke: #000000; stroke-width: 0.8"/>
      </g>
     </g>
     <g id="text_4">
      <!-- 0.4 -->
      <g transform="translate(229.833194 329.758438) scale(0.1 -0.1)">
       <defs>
        <path id="DejaVuSans-34" d="M 2419 4116 
L 825 1625 
L 2419 1625 
L 2419 4116 
z
M 2253 4666 
L 3047 4666 
L 3047 1625 
L 3713 1625 
L 3713 1100 
L 3047 1100 
L 3047 0 
L 2419 0 
L 2419 1100 
L 313 1100 
L 313 1709 
L 2253 4666 
z
" transform="scale(0.015625)"/>
       </defs>
       <use xlink:href="#DejaVuSans-30"/>
       <use xlink:href="#DejaVuSans-2e" transform="translate(63.623047 0)"/>
       <use xlink:href="#DejaVuSans-34" transform="translate(95.410156 0)"/>
      </g>
     </g>
    </g>
    <g id="xtick_5">
     <g id="line2d_9">
      <path d="M 291.410775 315.16 
L 291.410775 10.8 
" clip-path="url(#p4bad2f49ac)" style="fill: none; stroke-dasharray: 2.96,1.28; stroke-dashoffset: 0; stroke: #b0b0b0; stroke-opacity: 0.5; stroke-width: 0.8"/>
     </g>
     <g id="line2d_10">
      <g>
       <use xlink:href="#m6286f39d92" x="291.410775" y="315.16" style="stroke: #000000; stroke-width: 0.8"/>
      </g>
     </g>
     <g id="text_5">
      <!-- 0.5 -->
      <g transform="translate(283.459212 329.758438) scale(0.1 -0.1)">
       <defs>
        <path id="DejaVuSans-35" d="M 691 4666 
L 3169 4666 
L 3169 4134 
L 1269 4134 
L 1269 2991 
Q 1406 3038 1543 3061 
Q 1681 3084 1819 3084 
Q 2600 3084 3056 2656 
Q 3513 2228 3513 1497 
Q 3513 744 3044 326 
Q 2575 -91 1722 -91 
Q 1428 -91 1123 -41 
Q 819 9 494 109 
L 494 744 
Q 775 591 1075 516 
Q 1375 441 1709 441 
Q 2250 441 2565 725 
Q 2881 1009 2881 1497 
Q 2881 1984 2565 2268 
Q 2250 2553 1709 2553 
Q 1456 2553 1204 2497 
Q 953 2441 691 2322 
L 691 4666 
z
" transform="scale(0.015625)"/>
       </defs>
       <use xlink:href="#DejaVuSans-30"/>
       <use xlink:href="#DejaVuSans-2e" transform="translate(63.623047 0)"/>
       <use xlink:href="#DejaVuSans-35" transform="translate(95.410156 0)"/>
      </g>
     </g>
    </g>
    <g id="xtick_6">
     <g id="line2d_11">
      <path d="M 345.036792 315.16 
L 345.036792 10.8 
" clip-path="url(#p4bad2f49ac)" style="fill: none; stroke-dasharray: 2.96,1.28; stroke-dashoffset: 0; stroke: #b0b0b0; stroke-opacity: 0.5; stroke-width: 0.8"/>
     </g>
     <g id="line2d_12">
      <g>
       <use xlink:href="#m6286f39d92" x="345.036792" y="315.16" style="stroke: #000000; stroke-width: 0.8"/>
      </g>
     </g>
     <g id="text_6">
      <!-- 0.6 -->
      <g transform="translate(337.08523 329.758438) scale(0.1 -0.1)">
       <defs>
        <path id="DejaVuSans-36" d="M 2113 2584 
Q 1688 2584 1439 2293 
Q 1191 2003 1191 1497 
Q 1191 994 1439 701 
Q 1688 409 2113 409 
Q 2538 409 2786 701 
Q 3034 994 3034 1497 
Q 3034 2003 2786 2293 
Q 2538 2584 2113 2584 
z
M 3366 4563 
L 3366 3988 
Q 3128 4100 2886 4159 
Q 2644 4219 2406 4219 
Q 1781 4219 1451 3797 
Q 1122 3375 1075 2522 
Q 1259 2794 1537 2939 
Q 1816 3084 2150 3084 
Q 2853 3084 3261 2657 
Q 3669 2231 3669 1497 
Q 3669 778 3244 343 
Q 2819 -91 2113 -91 
Q 1303 -91 875 529 
Q 447 1150 447 2328 
Q 447 3434 972 4092 
Q 1497 4750 2381 4750 
Q 2619 4750 2861 4703 
Q 3103 4656 3366 4563 
z
" transform="scale(0.015625)"/>
       </defs>
       <use xlink:href="#DejaVuSans-30"/>
       <use xlink:href="#DejaVuSans-2e" transform="translate(63.623047 0)"/>
       <use xlink:href="#DejaVuSans-36" transform="translate(95.410156 0)"/>
      </g>
     </g>
    </g>
    <g id="text_7">
     <!-- MCC -->
     <g transform="translate(202.897188 344.95625) scale(0.12 -0.12)">
      <defs>
       <path id="DejaVuSans-BoldOblique-4d" d="M 1044 4666 
L 2522 4666 
L 3122 2188 
L 4697 4666 
L 6234 4666 
L 5325 0 
L 4184 0 
L 4850 3444 
L 3231 897 
L 2584 897 
L 1941 3444 
L 1275 0 
L 134 0 
L 1044 4666 
z
" transform="scale(0.015625)"/>
       <path id="DejaVuSans-BoldOblique-43" d="M 3878 219 
Q 3447 66 3050 -12 
Q 2653 -91 2297 -91 
Q 1356 -91 793 425 
Q 231 941 231 1791 
Q 231 2350 409 2845 
Q 588 3341 934 3750 
Q 1344 4231 1920 4490 
Q 2497 4750 3163 4750 
Q 3525 4750 3890 4664 
Q 4256 4578 4634 4403 
L 4441 3438 
Q 4141 3666 3837 3772 
Q 3534 3878 3188 3878 
Q 2466 3878 1978 3322 
Q 1491 2766 1491 1931 
Q 1491 1394 1791 1087 
Q 2091 781 2619 781 
Q 2934 781 3289 895 
Q 3644 1009 4084 1253 
L 3878 219 
z
" transform="scale(0.015625)"/>
      </defs>
      <use xlink:href="#DejaVuSans-BoldOblique-4d"/>
      <use xlink:href="#DejaVuSans-BoldOblique-43" transform="translate(99.511719 0)"/>
      <use xlink:href="#DejaVuSans-BoldOblique-43" transform="translate(172.900391 0)"/>
     </g>
    </g>
   </g>
   <g id="matplotlib.axis_2">
    <g id="ytick_1">
     <g id="line2d_13">
      <path d="M 56.99 284.43713 
L 378.36 284.43713 
" clip-path="url(#p4bad2f49ac)" style="fill: none; stroke-dasharray: 2.96,1.28; stroke-dashoffset: 0; stroke: #b0b0b0; stroke-opacity: 0.5; stroke-width: 0.8"/>
     </g>
     <g id="line2d_14">
      <defs>
       <path id="m65705dbed4" d="M 0 0 
L -3.5 0 
" style="stroke: #000000; stroke-width: 0.8"/>
      </defs>
      <g>
       <use xlink:href="#m65705dbed4" x="56.99" y="284.43713" style="stroke: #000000; stroke-width: 0.8"/>
      </g>
     </g>
     <g id="text_8">
      <!-- 0.14 -->
      <g transform="translate(27.724375 288.236349) scale(0.1 -0.1)">
       <use xlink:href="#DejaVuSans-30"/>
       <use xlink:href="#DejaVuSans-2e" transform="translate(63.623047 0)"/>
       <use xlink:href="#DejaVuSans-31" transform="translate(95.410156 0)"/>
       <use xlink:href="#DejaVuSans-34" transform="translate(159.033203 0)"/>
      </g>
     </g>
    </g>
    <g id="ytick_2">
     <g id="line2d_15">
      <path d="M 56.99 238.167747 
L 378.36 238.167747 
" clip-path="url(#p4bad2f49ac)" style="fill: none; stroke-dasharray: 2.96,1.28; stroke-dashoffset: 0; stroke: #b0b0b0; stroke-opacity: 0.5; stroke-width: 0.8"/>
     </g>
     <g id="line2d_16">
      <g>
       <use xlink:href="#m65705dbed4" x="56.99" y="238.167747" style="stroke: #000000; stroke-width: 0.8"/>
      </g>
     </g>
     <g id="text_9">
      <!-- 0.16 -->
      <g transform="translate(27.724375 241.966966) scale(0.1 -0.1)">
       <use xlink:href="#DejaVuSans-30"/>
       <use xlink:href="#DejaVuSans-2e" transform="translate(63.623047 0)"/>
       <use xlink:href="#DejaVuSans-31" transform="translate(95.410156 0)"/>
       <use xlink:href="#DejaVuSans-36" transform="translate(159.033203 0)"/>
      </g>
     </g>
    </g>
    <g id="ytick_3">
     <g id="line2d_17">
      <path d="M 56.99 191.898364 
L 378.36 191.898364 
" clip-path="url(#p4bad2f49ac)" style="fill: none; stroke-dasharray: 2.96,1.28; stroke-dashoffset: 0; stroke: #b0b0b0; stroke-opacity: 0.5; stroke-width: 0.8"/>
     </g>
     <g id="line2d_18">
      <g>
       <use xlink:href="#m65705dbed4" x="56.99" y="191.898364" style="stroke: #000000; stroke-width: 0.8"/>
      </g>
     </g>
     <g id="text_10">
      <!-- 0.18 -->
      <g transform="translate(27.724375 195.697583) scale(0.1 -0.1)">
       <defs>
        <path id="DejaVuSans-38" d="M 2034 2216 
Q 1584 2216 1326 1975 
Q 1069 1734 1069 1313 
Q 1069 891 1326 650 
Q 1584 409 2034 409 
Q 2484 409 2743 651 
Q 3003 894 3003 1313 
Q 3003 1734 2745 1975 
Q 2488 2216 2034 2216 
z
M 1403 2484 
Q 997 2584 770 2862 
Q 544 3141 544 3541 
Q 544 4100 942 4425 
Q 1341 4750 2034 4750 
Q 2731 4750 3128 4425 
Q 3525 4100 3525 3541 
Q 3525 3141 3298 2862 
Q 3072 2584 2669 2484 
Q 3125 2378 3379 2068 
Q 3634 1759 3634 1313 
Q 3634 634 3220 271 
Q 2806 -91 2034 -91 
Q 1263 -91 848 271 
Q 434 634 434 1313 
Q 434 1759 690 2068 
Q 947 2378 1403 2484 
z
M 1172 3481 
Q 1172 3119 1398 2916 
Q 1625 2713 2034 2713 
Q 2441 2713 2670 2916 
Q 2900 3119 2900 3481 
Q 2900 3844 2670 4047 
Q 2441 4250 2034 4250 
Q 1625 4250 1398 4047 
Q 1172 3844 1172 3481 
z
" transform="scale(0.015625)"/>
       </defs>
       <use xlink:href="#DejaVuSans-30"/>
       <use xlink:href="#DejaVuSans-2e" transform="translate(63.623047 0)"/>
       <use xlink:href="#DejaVuSans-31" transform="translate(95.410156 0)"/>
       <use xlink:href="#DejaVuSans-38" transform="translate(159.033203 0)"/>
      </g>
     </g>
    </g>
    <g id="ytick_4">
     <g id="line2d_19">
      <path d="M 56.99 145.628981 
L 378.36 145.628981 
" clip-path="url(#p4bad2f49ac)" style="fill: none; stroke-dasharray: 2.96,1.28; stroke-dashoffset: 0; stroke: #b0b0b0; stroke-opacity: 0.5; stroke-width: 0.8"/>
     </g>
     <g id="line2d_20">
      <g>
       <use xlink:href="#m65705dbed4" x="56.99" y="145.628981" style="stroke: #000000; stroke-width: 0.8"/>
      </g>
     </g>
     <g id="text_11">
      <!-- 0.20 -->
      <g transform="translate(27.724375 149.4282) scale(0.1 -0.1)">
       <use xlink:href="#DejaVuSans-30"/>
       <use xlink:href="#DejaVuSans-2e" transform="translate(63.623047 0)"/>
       <use xlink:href="#DejaVuSans-32" transform="translate(95.410156 0)"/>
       <use xlink:href="#DejaVuSans-30" transform="translate(159.033203 0)"/>
      </g>
     </g>
    </g>
    <g id="ytick_5">
     <g id="line2d_21">
      <path d="M 56.99 99.359599 
L 378.36 99.359599 
" clip-path="url(#p4bad2f49ac)" style="fill: none; stroke-dasharray: 2.96,1.28; stroke-dashoffset: 0; stroke: #b0b0b0; stroke-opacity: 0.5; stroke-width: 0.8"/>
     </g>
     <g id="line2d_22">
      <g>
       <use xlink:href="#m65705dbed4" x="56.99" y="99.359599" style="stroke: #000000; stroke-width: 0.8"/>
      </g>
     </g>
     <g id="text_12">
      <!-- 0.22 -->
      <g transform="translate(27.724375 103.158817) scale(0.1 -0.1)">
       <use xlink:href="#DejaVuSans-30"/>
       <use xlink:href="#DejaVuSans-2e" transform="translate(63.623047 0)"/>
       <use xlink:href="#DejaVuSans-32" transform="translate(95.410156 0)"/>
       <use xlink:href="#DejaVuSans-32" transform="translate(159.033203 0)"/>
      </g>
     </g>
    </g>
    <g id="ytick_6">
     <g id="line2d_23">
      <path d="M 56.99 53.090216 
L 378.36 53.090216 
" clip-path="url(#p4bad2f49ac)" style="fill: none; stroke-dasharray: 2.96,1.28; stroke-dashoffset: 0; stroke: #b0b0b0; stroke-opacity: 0.5; stroke-width: 0.8"/>
     </g>
     <g id="line2d_24">
      <g>
       <use xlink:href="#m65705dbed4" x="56.99" y="53.090216" style="stroke: #000000; stroke-width: 0.8"/>
      </g>
     </g>
     <g id="text_13">
      <!-- 0.24 -->
      <g transform="translate(27.724375 56.889435) scale(0.1 -0.1)">
       <use xlink:href="#DejaVuSans-30"/>
       <use xlink:href="#DejaVuSans-2e" transform="translate(63.623047 0)"/>
       <use xlink:href="#DejaVuSans-32" transform="translate(95.410156 0)"/>
       <use xlink:href="#DejaVuSans-34" transform="translate(159.033203 0)"/>
      </g>
     </g>
    </g>
    <g id="text_14">
     <!-- Brier score -->
     <g transform="translate(21.22875 199.964375) rotate(-90) scale(0.12 -0.12)">
      <defs>
       <path id="DejaVuSans-BoldOblique-42" d="M 2559 2859 
Q 2881 2859 3062 3021 
Q 3244 3184 3244 3469 
Q 3244 3653 3117 3750 
Q 2991 3847 2753 3847 
L 2081 3847 
L 1888 2859 
L 2559 2859 
z
M 2203 819 
Q 2616 819 2837 1016 
Q 3059 1213 3059 1581 
Q 3059 1816 2906 1928 
Q 2753 2041 2438 2041 
L 1728 2041 
L 1491 819 
L 2203 819 
z
M 3628 2497 
Q 3934 2409 4101 2176 
Q 4269 1944 4269 1600 
Q 4269 847 3708 423 
Q 3147 0 2131 0 
L 134 0 
L 1044 4666 
L 2847 4666 
Q 3678 4666 4076 4422 
Q 4475 4178 4475 3669 
Q 4475 3241 4240 2917 
Q 4006 2594 3628 2497 
z
" transform="scale(0.015625)"/>
       <path id="DejaVuSans-BoldOblique-72" d="M 3291 2547 
Q 3175 2613 3034 2647 
Q 2894 2681 2731 2681 
Q 2303 2681 2020 2406 
Q 1738 2131 1638 1613 
L 1319 0 
L 197 0 
L 878 3500 
L 2003 3500 
L 1881 2900 
Q 2103 3231 2436 3407 
Q 2769 3584 3175 3584 
Q 3234 3584 3309 3578 
Q 3384 3572 3488 3559 
L 3291 2547 
z
" transform="scale(0.015625)"/>
       <path id="DejaVuSans-BoldOblique-69" d="M 878 3500 
L 2003 3500 
L 1319 0 
L 197 0 
L 878 3500 
z
M 1141 4863 
L 2266 4863 
L 2088 3950 
L 959 3950 
L 1141 4863 
z
" transform="scale(0.015625)"/>
       <path id="DejaVuSans-BoldOblique-65" d="M 4025 1619 
L 3988 1441 
L 1369 1441 
Q 1369 1422 1366 1386 
Q 1363 1350 1363 1331 
Q 1363 991 1567 822 
Q 1772 653 2181 653 
Q 2534 653 2926 759 
Q 3319 866 3750 1075 
L 3578 206 
Q 3169 56 2764 -17 
Q 2359 -91 1941 -91 
Q 1122 -91 676 287 
Q 231 666 231 1356 
Q 231 1756 373 2132 
Q 516 2509 788 2822 
Q 1109 3197 1557 3390 
Q 2006 3584 2553 3584 
Q 3263 3584 3680 3206 
Q 4097 2828 4097 2188 
Q 4097 2063 4080 1923 
Q 4063 1784 4025 1619 
z
M 2969 2131 
Q 2978 2172 2983 2214 
Q 2988 2256 2988 2297 
Q 2988 2547 2838 2694 
Q 2688 2841 2431 2841 
Q 2103 2841 1873 2661 
Q 1644 2481 1522 2131 
L 2969 2131 
z
" transform="scale(0.015625)"/>
       <path id="DejaVuSans-BoldOblique-20" transform="scale(0.015625)"/>
       <path id="DejaVuSans-BoldOblique-73" d="M 3584 3391 
L 3419 2522 
Q 3091 2678 2766 2759 
Q 2441 2841 2150 2841 
Q 1819 2841 1639 2755 
Q 1459 2669 1459 2509 
Q 1459 2416 1559 2359 
Q 1659 2303 1953 2241 
L 2156 2203 
Q 2834 2059 3106 1832 
Q 3378 1606 3378 1203 
Q 3378 594 2900 251 
Q 2422 -91 1563 -91 
Q 1203 -91 828 -34 
Q 453 22 63 134 
L 231 1013 
Q 534 834 879 743 
Q 1225 653 1588 653 
Q 1941 653 2119 737 
Q 2297 822 2297 984 
Q 2297 1097 2197 1159 
Q 2097 1222 1784 1288 
L 1581 1325 
Q 981 1450 725 1694 
Q 469 1938 469 2369 
Q 469 2953 911 3268 
Q 1353 3584 2175 3584 
Q 2534 3584 2882 3536 
Q 3231 3488 3584 3391 
z
" transform="scale(0.015625)"/>
       <path id="DejaVuSans-BoldOblique-63" d="M 3719 3391 
L 3541 2478 
Q 3316 2628 3097 2706 
Q 2878 2784 2669 2784 
Q 2122 2784 1775 2417 
Q 1428 2050 1428 1478 
Q 1428 1113 1643 911 
Q 1859 709 2253 709 
Q 2516 709 2769 787 
Q 3022 866 3250 1019 
L 3078 103 
Q 2800 6 2519 -42 
Q 2238 -91 1953 -91 
Q 1128 -91 683 279 
Q 238 650 238 1331 
Q 238 1759 402 2162 
Q 566 2566 872 2888 
Q 1213 3241 1653 3412 
Q 2094 3584 2669 3584 
Q 2934 3584 3196 3536 
Q 3459 3488 3719 3391 
z
" transform="scale(0.015625)"/>
       <path id="DejaVuSans-BoldOblique-6f" d="M 2400 2784 
Q 1966 2784 1684 2390 
Q 1403 1997 1403 1388 
Q 1403 1056 1554 882 
Q 1706 709 1997 709 
Q 2431 709 2712 1104 
Q 2994 1500 2994 2113 
Q 2994 2441 2842 2612 
Q 2691 2784 2400 2784 
z
M 2491 3584 
Q 3272 3584 3719 3187 
Q 4166 2791 4166 2106 
Q 4166 1709 4025 1336 
Q 3884 963 3616 653 
Q 3297 284 2862 96 
Q 2428 -91 1894 -91 
Q 1122 -91 676 306 
Q 231 703 231 1388 
Q 231 1781 375 2157 
Q 519 2534 788 2847 
Q 1100 3209 1533 3396 
Q 1966 3584 2491 3584 
z
" transform="scale(0.015625)"/>
      </defs>
      <use xlink:href="#DejaVuSans-BoldOblique-42"/>
      <use xlink:href="#DejaVuSans-BoldOblique-72" transform="translate(76.220703 0)"/>
      <use xlink:href="#DejaVuSans-BoldOblique-69" transform="translate(125.537109 0)"/>
      <use xlink:href="#DejaVuSans-BoldOblique-65" transform="translate(159.814453 0)"/>
      <use xlink:href="#DejaVuSans-BoldOblique-72" transform="translate(227.636719 0)"/>
      <use xlink:href="#DejaVuSans-BoldOblique-20" transform="translate(276.953125 0)"/>
      <use xlink:href="#DejaVuSans-BoldOblique-73" transform="translate(311.767578 0)"/>
      <use xlink:href="#DejaVuSans-BoldOblique-63" transform="translate(371.289062 0)"/>
      <use xlink:href="#DejaVuSans-BoldOblique-6f" transform="translate(430.566406 0)"/>
      <use xlink:href="#DejaVuSans-BoldOblique-72" transform="translate(499.267578 0)"/>
      <use xlink:href="#DejaVuSans-BoldOblique-65" transform="translate(548.583984 0)"/>
     </g>
    </g>
   </g>
   <g id="line2d_25"/>
   <g id="line2d_26"/>
   <g id="line2d_27"/>
   <g id="line2d_28"/>
   <g id="line2d_29"/>
   <g id="line2d_30"/>
   <g id="line2d_31">
    <path d="M 184.158739 315.16 
L 184.158739 10.8 
" clip-path="url(#p4bad2f49ac)" style="fill: none; stroke-dasharray: 4.44,1.92; stroke-dashoffset: 0; stroke: #13578b; stroke-width: 1.2"/>
   </g>
   <g id="line2d_32">
    <path d="M 56.99 29.955524 
L 378.36 29.955524 
" clip-path="url(#p4bad2f49ac)" style="fill: none; stroke-dasharray: 7.68,1.92,1.2,1.92; stroke-dashoffset: 0; stroke: #942a7f; stroke-width: 1.2"/>
   </g>
   <g id="patch_3">
    <path d="M 56.99 315.16 
L 56.99 10.8 
" style="fill: none; stroke: #000000; stroke-width: 0.8; stroke-linejoin: miter; stroke-linecap: square"/>
   </g>
   <g id="patch_4">
    <path d="M 378.36 315.16 
L 378.36 10.8 
" style="fill: none; stroke: #000000; stroke-width: 0.8; stroke-linejoin: miter; stroke-linecap: square"/>
   </g>
   <g id="patch_5">
    <path d="M 56.99 315.16 
L 378.36 315.16 
" style="fill: none; stroke: #000000; stroke-width: 0.8; stroke-linejoin: miter; stroke-linecap: square"/>
   </g>
   <g id="patch_6">
    <path d="M 56.99 10.8 
L 378.36 10.8 
" style="fill: none; stroke: #000000; stroke-width: 0.8; stroke-linejoin: miter; stroke-linecap: square"/>
   </g>
   <g id="legend_1">
    <g id="patch_7">
     <path d="M 400.7285 123.6825 
L 556.722406 123.6825 
Q 558.522406 123.6825 558.522406 121.8825 
L 558.522406 17.1 
Q 558.522406 15.3 556.722406 15.3 
L 400.7285 15.3 
Q 398.9285 15.3 398.9285 17.1 
L 398.9285 121.8825 
Q 398.9285 123.6825 400.7285 123.6825 
z
" style="fill: #ffffff; opacity: 0.8; stroke: #cccccc; stroke-linejoin: miter"/>
    </g>
    <g id="line2d_33">
     <defs>
      <path id="m92c288f6f9" d="M 0 5 
C 1.326016 5 2.597899 4.473168 3.535534 3.535534 
C 4.473168 2.597899 5 1.326016 5 0 
C 5 -1.326016 4.473168 -2.597899 3.535534 -3.535534 
C 2.597899 -4.473168 1.326016 -5 0 -5 
C -1.326016 -5 -2.597899 -4.473168 -3.535534 -3.535534 
C -4.473168 -2.597899 -5 -1.326016 -5 0 
C -5 1.326016 -4.473168 2.597899 -3.535534 3.535534 
C -2.597899 4.473168 -1.326016 5 0 5 
z
" style="stroke: #ffffff; stroke-opacity: 0.9; stroke-width: 0.8"/>
     </defs>
     <g>
      <use xlink:href="#m92c288f6f9" x="411.5285" y="22.588594" style="fill: #1b9e77; fill-opacity: 0.9; stroke: #ffffff; stroke-opacity: 0.9; stroke-width: 0.8"/>
     </g>
    </g>
    <g id="text_15">
     <!-- Single Model -->
     <g transform="translate(427.7285 25.738594) scale(0.09 -0.09)">
      <defs>
       <path id="DejaVuSans-53" d="M 3425 4513 
L 3425 3897 
Q 3066 4069 2747 4153 
Q 2428 4238 2131 4238 
Q 1616 4238 1336 4038 
Q 1056 3838 1056 3469 
Q 1056 3159 1242 3001 
Q 1428 2844 1947 2747 
L 2328 2669 
Q 3034 2534 3370 2195 
Q 3706 1856 3706 1288 
Q 3706 609 3251 259 
Q 2797 -91 1919 -91 
Q 1588 -91 1214 -16 
Q 841 59 441 206 
L 441 856 
Q 825 641 1194 531 
Q 1563 422 1919 422 
Q 2459 422 2753 634 
Q 3047 847 3047 1241 
Q 3047 1584 2836 1778 
Q 2625 1972 2144 2069 
L 1759 2144 
Q 1053 2284 737 2584 
Q 422 2884 422 3419 
Q 422 4038 858 4394 
Q 1294 4750 2059 4750 
Q 2388 4750 2728 4690 
Q 3069 4631 3425 4513 
z
" transform="scale(0.015625)"/>
       <path id="DejaVuSans-69" d="M 603 3500 
L 1178 3500 
L 1178 0 
L 603 0 
L 603 3500 
z
M 603 4863 
L 1178 4863 
L 1178 4134 
L 603 4134 
L 603 4863 
z
" transform="scale(0.015625)"/>
       <path id="DejaVuSans-6e" d="M 3513 2113 
L 3513 0 
L 2938 0 
L 2938 2094 
Q 2938 2591 2744 2837 
Q 2550 3084 2163 3084 
Q 1697 3084 1428 2787 
Q 1159 2491 1159 1978 
L 1159 0 
L 581 0 
L 581 3500 
L 1159 3500 
L 1159 2956 
Q 1366 3272 1645 3428 
Q 1925 3584 2291 3584 
Q 2894 3584 3203 3211 
Q 3513 2838 3513 2113 
z
" transform="scale(0.015625)"/>
       <path id="DejaVuSans-67" d="M 2906 1791 
Q 2906 2416 2648 2759 
Q 2391 3103 1925 3103 
Q 1463 3103 1205 2759 
Q 947 2416 947 1791 
Q 947 1169 1205 825 
Q 1463 481 1925 481 
Q 2391 481 2648 825 
Q 2906 1169 2906 1791 
z
M 3481 434 
Q 3481 -459 3084 -895 
Q 2688 -1331 1869 -1331 
Q 1566 -1331 1297 -1286 
Q 1028 -1241 775 -1147 
L 775 -588 
Q 1028 -725 1275 -790 
Q 1522 -856 1778 -856 
Q 2344 -856 2625 -561 
Q 2906 -266 2906 331 
L 2906 616 
Q 2728 306 2450 153 
Q 2172 0 1784 0 
Q 1141 0 747 490 
Q 353 981 353 1791 
Q 353 2603 747 3093 
Q 1141 3584 1784 3584 
Q 2172 3584 2450 3431 
Q 2728 3278 2906 2969 
L 2906 3500 
L 3481 3500 
L 3481 434 
z
" transform="scale(0.015625)"/>
       <path id="DejaVuSans-6c" d="M 603 4863 
L 1178 4863 
L 1178 0 
L 603 0 
L 603 4863 
z
" transform="scale(0.015625)"/>
       <path id="DejaVuSans-65" d="M 3597 1894 
L 3597 1613 
L 953 1613 
Q 991 1019 1311 708 
Q 1631 397 2203 397 
Q 2534 397 2845 478 
Q 3156 559 3463 722 
L 3463 178 
Q 3153 47 2828 -22 
Q 2503 -91 2169 -91 
Q 1331 -91 842 396 
Q 353 884 353 1716 
Q 353 2575 817 3079 
Q 1281 3584 2069 3584 
Q 2775 3584 3186 3129 
Q 3597 2675 3597 1894 
z
M 3022 2063 
Q 3016 2534 2758 2815 
Q 2500 3097 2075 3097 
Q 1594 3097 1305 2825 
Q 1016 2553 972 2059 
L 3022 2063 
z
" transform="scale(0.015625)"/>
       <path id="DejaVuSans-20" transform="scale(0.015625)"/>
       <path id="DejaVuSans-4d" d="M 628 4666 
L 1569 4666 
L 2759 1491 
L 3956 4666 
L 4897 4666 
L 4897 0 
L 4281 0 
L 4281 4097 
L 3078 897 
L 2444 897 
L 1241 4097 
L 1241 0 
L 628 0 
L 628 4666 
z
" transform="scale(0.015625)"/>
       <path id="DejaVuSans-6f" d="M 1959 3097 
Q 1497 3097 1228 2736 
Q 959 2375 959 1747 
Q 959 1119 1226 758 
Q 1494 397 1959 397 
Q 2419 397 2687 759 
Q 2956 1122 2956 1747 
Q 2956 2369 2687 2733 
Q 2419 3097 1959 3097 
z
M 1959 3584 
Q 2709 3584 3137 3096 
Q 3566 2609 3566 1747 
Q 3566 888 3137 398 
Q 2709 -91 1959 -91 
Q 1206 -91 779 398 
Q 353 888 353 1747 
Q 353 2609 779 3096 
Q 1206 3584 1959 3584 
z
" transform="scale(0.015625)"/>
       <path id="DejaVuSans-64" d="M 2906 2969 
L 2906 4863 
L 3481 4863 
L 3481 0 
L 2906 0 
L 2906 525 
Q 2725 213 2448 61 
Q 2172 -91 1784 -91 
Q 1150 -91 751 415 
Q 353 922 353 1747 
Q 353 2572 751 3078 
Q 1150 3584 1784 3584 
Q 2172 3584 2448 3432 
Q 2725 3281 2906 2969 
z
M 947 1747 
Q 947 1113 1208 752 
Q 1469 391 1925 391 
Q 2381 391 2643 752 
Q 2906 1113 2906 1747 
Q 2906 2381 2643 2742 
Q 2381 3103 1925 3103 
Q 1469 3103 1208 2742 
Q 947 2381 947 1747 
z
" transform="scale(0.015625)"/>
      </defs>
      <use xlink:href="#DejaVuSans-53"/>
      <use xlink:href="#DejaVuSans-69" transform="translate(63.476562 0)"/>
      <use xlink:href="#DejaVuSans-6e" transform="translate(91.259766 0)"/>
      <use xlink:href="#DejaVuSans-67" transform="translate(154.638672 0)"/>
      <use xlink:href="#DejaVuSans-6c" transform="translate(218.115234 0)"/>
      <use xlink:href="#DejaVuSans-65" transform="translate(245.898438 0)"/>
      <use xlink:href="#DejaVuSans-20" transform="translate(307.421875 0)"/>
      <use xlink:href="#DejaVuSans-4d" transform="translate(339.208984 0)"/>
      <use xlink:href="#DejaVuSans-6f" transform="translate(425.488281 0)"/>
      <use xlink:href="#DejaVuSans-64" transform="translate(486.669922 0)"/>
      <use xlink:href="#DejaVuSans-65" transform="translate(550.146484 0)"/>
      <use xlink:href="#DejaVuSans-6c" transform="translate(611.669922 0)"/>
     </g>
    </g>
    <g id="line2d_34">
     <defs>
      <path id="m75b7b04e55" d="M 0 5 
C 1.326016 5 2.597899 4.473168 3.535534 3.535534 
C 4.473168 2.597899 5 1.326016 5 0 
C 5 -1.326016 4.473168 -2.597899 3.535534 -3.535534 
C 2.597899 -4.473168 1.326016 -5 0 -5 
C -1.326016 -5 -2.597899 -4.473168 -3.535534 -3.535534 
C -4.473168 -2.597899 -5 -1.326016 -5 0 
C -5 1.326016 -4.473168 2.597899 -3.535534 3.535534 
C -2.597899 4.473168 -1.326016 5 0 5 
z
" style="stroke: #ffffff; stroke-opacity: 0.9; stroke-width: 0.8"/>
     </defs>
     <g>
      <use xlink:href="#m75b7b04e55" x="411.5285" y="35.798906" style="fill: #d95f02; fill-opacity: 0.9; stroke: #ffffff; stroke-opacity: 0.9; stroke-width: 0.8"/>
     </g>
    </g>
    <g id="text_16">
     <!-- Combo 2 -->
     <g transform="translate(427.7285 38.948906) scale(0.09 -0.09)">
      <defs>
       <path id="DejaVuSans-43" d="M 4122 4306 
L 4122 3641 
Q 3803 3938 3442 4084 
Q 3081 4231 2675 4231 
Q 1875 4231 1450 3742 
Q 1025 3253 1025 2328 
Q 1025 1406 1450 917 
Q 1875 428 2675 428 
Q 3081 428 3442 575 
Q 3803 722 4122 1019 
L 4122 359 
Q 3791 134 3420 21 
Q 3050 -91 2638 -91 
Q 1578 -91 968 557 
Q 359 1206 359 2328 
Q 359 3453 968 4101 
Q 1578 4750 2638 4750 
Q 3056 4750 3426 4639 
Q 3797 4528 4122 4306 
z
" transform="scale(0.015625)"/>
       <path id="DejaVuSans-6d" d="M 3328 2828 
Q 3544 3216 3844 3400 
Q 4144 3584 4550 3584 
Q 5097 3584 5394 3201 
Q 5691 2819 5691 2113 
L 5691 0 
L 5113 0 
L 5113 2094 
Q 5113 2597 4934 2840 
Q 4756 3084 4391 3084 
Q 3944 3084 3684 2787 
Q 3425 2491 3425 1978 
L 3425 0 
L 2847 0 
L 2847 2094 
Q 2847 2600 2669 2842 
Q 2491 3084 2119 3084 
Q 1678 3084 1418 2786 
Q 1159 2488 1159 1978 
L 1159 0 
L 581 0 
L 581 3500 
L 1159 3500 
L 1159 2956 
Q 1356 3278 1631 3431 
Q 1906 3584 2284 3584 
Q 2666 3584 2933 3390 
Q 3200 3197 3328 2828 
z
" transform="scale(0.015625)"/>
       <path id="DejaVuSans-62" d="M 3116 1747 
Q 3116 2381 2855 2742 
Q 2594 3103 2138 3103 
Q 1681 3103 1420 2742 
Q 1159 2381 1159 1747 
Q 1159 1113 1420 752 
Q 1681 391 2138 391 
Q 2594 391 2855 752 
Q 3116 1113 3116 1747 
z
M 1159 2969 
Q 1341 3281 1617 3432 
Q 1894 3584 2278 3584 
Q 2916 3584 3314 3078 
Q 3713 2572 3713 1747 
Q 3713 922 3314 415 
Q 2916 -91 2278 -91 
Q 1894 -91 1617 61 
Q 1341 213 1159 525 
L 1159 0 
L 581 0 
L 581 4863 
L 1159 4863 
L 1159 2969 
z
" transform="scale(0.015625)"/>
      </defs>
      <use xlink:href="#DejaVuSans-43"/>
      <use xlink:href="#DejaVuSans-6f" transform="translate(69.824219 0)"/>
      <use xlink:href="#DejaVuSans-6d" transform="translate(131.005859 0)"/>
      <use xlink:href="#DejaVuSans-62" transform="translate(228.417969 0)"/>
      <use xlink:href="#DejaVuSans-6f" transform="translate(291.894531 0)"/>
      <use xlink:href="#DejaVuSans-20" transform="translate(353.076172 0)"/>
      <use xlink:href="#DejaVuSans-32" transform="translate(384.863281 0)"/>
     </g>
    </g>
    <g id="line2d_35">
     <defs>
      <path id="m4ca41e18c1" d="M 0 5 
C 1.326016 5 2.597899 4.473168 3.535534 3.535534 
C 4.473168 2.597899 5 1.326016 5 0 
C 5 -1.326016 4.473168 -2.597899 3.535534 -3.535534 
C 2.597899 -4.473168 1.326016 -5 0 -5 
C -1.326016 -5 -2.597899 -4.473168 -3.535534 -3.535534 
C -4.473168 -2.597899 -5 -1.326016 -5 0 
C -5 1.326016 -4.473168 2.597899 -3.535534 3.535534 
C -2.597899 4.473168 -1.326016 5 0 5 
z
" style="stroke: #ffffff; stroke-opacity: 0.9; stroke-width: 0.8"/>
     </defs>
     <g>
      <use xlink:href="#m4ca41e18c1" x="411.5285" y="49.009219" style="fill: #7570b3; fill-opacity: 0.9; stroke: #ffffff; stroke-opacity: 0.9; stroke-width: 0.8"/>
     </g>
    </g>
    <g id="text_17">
     <!-- Combo 3 -->
     <g transform="translate(427.7285 52.159219) scale(0.09 -0.09)">
      <use xlink:href="#DejaVuSans-43"/>
      <use xlink:href="#DejaVuSans-6f" transform="translate(69.824219 0)"/>
      <use xlink:href="#DejaVuSans-6d" transform="translate(131.005859 0)"/>
      <use xlink:href="#DejaVuSans-62" transform="translate(228.417969 0)"/>
      <use xlink:href="#DejaVuSans-6f" transform="translate(291.894531 0)"/>
      <use xlink:href="#DejaVuSans-20" transform="translate(353.076172 0)"/>
      <use xlink:href="#DejaVuSans-33" transform="translate(384.863281 0)"/>
     </g>
    </g>
    <g id="line2d_36">
     <defs>
      <path id="mbdf6f9c3d1" d="M 0 5 
C 1.326016 5 2.597899 4.473168 3.535534 3.535534 
C 4.473168 2.597899 5 1.326016 5 0 
C 5 -1.326016 4.473168 -2.597899 3.535534 -3.535534 
C 2.597899 -4.473168 1.326016 -5 0 -5 
C -1.326016 -5 -2.597899 -4.473168 -3.535534 -3.535534 
C -4.473168 -2.597899 -5 -1.326016 -5 0 
C -5 1.326016 -4.473168 2.597899 -3.535534 3.535534 
C -2.597899 4.473168 -1.326016 5 0 5 
z
" style="stroke: #ffffff; stroke-opacity: 0.9; stroke-width: 0.8"/>
     </defs>
     <g>
      <use xlink:href="#mbdf6f9c3d1" x="411.5285" y="62.219531" style="fill: #e7298a; fill-opacity: 0.9; stroke: #ffffff; stroke-opacity: 0.9; stroke-width: 0.8"/>
     </g>
    </g>
    <g id="text_18">
     <!-- Combo 4 -->
     <g transform="translate(427.7285 65.369531) scale(0.09 -0.09)">
      <use xlink:href="#DejaVuSans-43"/>
      <use xlink:href="#DejaVuSans-6f" transform="translate(69.824219 0)"/>
      <use xlink:href="#DejaVuSans-6d" transform="translate(131.005859 0)"/>
      <use xlink:href="#DejaVuSans-62" transform="translate(228.417969 0)"/>
      <use xlink:href="#DejaVuSans-6f" transform="translate(291.894531 0)"/>
      <use xlink:href="#DejaVuSans-20" transform="translate(353.076172 0)"/>
      <use xlink:href="#DejaVuSans-34" transform="translate(384.863281 0)"/>
     </g>
    </g>
    <g id="line2d_37">
     <defs>
      <path id="mceaf16090f" d="M 0 5 
C 1.326016 5 2.597899 4.473168 3.535534 3.535534 
C 4.473168 2.597899 5 1.326016 5 0 
C 5 -1.326016 4.473168 -2.597899 3.535534 -3.535534 
C 2.597899 -4.473168 1.326016 -5 0 -5 
C -1.326016 -5 -2.597899 -4.473168 -3.535534 -3.535534 
C -4.473168 -2.597899 -5 -1.326016 -5 0 
C -5 1.326016 -4.473168 2.597899 -3.535534 3.535534 
C -2.597899 4.473168 -1.326016 5 0 5 
z
" style="stroke: #ffffff; stroke-opacity: 0.9; stroke-width: 0.8"/>
     </defs>
     <g>
      <use xlink:href="#mceaf16090f" x="411.5285" y="75.429844" style="fill: #66a61e; fill-opacity: 0.9; stroke: #ffffff; stroke-opacity: 0.9; stroke-width: 0.8"/>
     </g>
    </g>
    <g id="text_19">
     <!-- Combo 5 -->
     <g transform="translate(427.7285 78.579844) scale(0.09 -0.09)">
      <use xlink:href="#DejaVuSans-43"/>
      <use xlink:href="#DejaVuSans-6f" transform="translate(69.824219 0)"/>
      <use xlink:href="#DejaVuSans-6d" transform="translate(131.005859 0)"/>
      <use xlink:href="#DejaVuSans-62" transform="translate(228.417969 0)"/>
      <use xlink:href="#DejaVuSans-6f" transform="translate(291.894531 0)"/>
      <use xlink:href="#DejaVuSans-20" transform="translate(353.076172 0)"/>
      <use xlink:href="#DejaVuSans-35" transform="translate(384.863281 0)"/>
     </g>
    </g>
    <g id="line2d_38">
     <defs>
      <path id="m5e7a71cddb" d="M 0 5 
C 1.326016 5 2.597899 4.473168 3.535534 3.535534 
C 4.473168 2.597899 5 1.326016 5 0 
C 5 -1.326016 4.473168 -2.597899 3.535534 -3.535534 
C 2.597899 -4.473168 1.326016 -5 0 -5 
C -1.326016 -5 -2.597899 -4.473168 -3.535534 -3.535534 
C -4.473168 -2.597899 -5 -1.326016 -5 0 
C -5 1.326016 -4.473168 2.597899 -3.535534 3.535534 
C -2.597899 4.473168 -1.326016 5 0 5 
z
" style="stroke: #ffffff; stroke-opacity: 0.9; stroke-width: 0.8"/>
     </defs>
     <g>
      <use xlink:href="#m5e7a71cddb" x="411.5285" y="88.640156" style="fill: #e6ab02; fill-opacity: 0.9; stroke: #ffffff; stroke-opacity: 0.9; stroke-width: 0.8"/>
     </g>
    </g>
    <g id="text_20">
     <!-- Combo 6 -->
     <g transform="translate(427.7285 91.790156) scale(0.09 -0.09)">
      <use xlink:href="#DejaVuSans-43"/>
      <use xlink:href="#DejaVuSans-6f" transform="translate(69.824219 0)"/>
      <use xlink:href="#DejaVuSans-6d" transform="translate(131.005859 0)"/>
      <use xlink:href="#DejaVuSans-62" transform="translate(228.417969 0)"/>
      <use xlink:href="#DejaVuSans-6f" transform="translate(291.894531 0)"/>
      <use xlink:href="#DejaVuSans-20" transform="translate(353.076172 0)"/>
      <use xlink:href="#DejaVuSans-36" transform="translate(384.863281 0)"/>
     </g>
    </g>
    <g id="line2d_39">
     <path d="M 402.5285 101.850469 
L 411.5285 101.850469 
L 420.5285 101.850469 
" style="fill: none; stroke-dasharray: 4.44,1.92; stroke-dashoffset: 0; stroke: #13578b; stroke-width: 1.2"/>
    </g>
    <g id="text_21">
     <!-- MCC threshold = 0.3 -->
     <g transform="translate(427.7285 105.000469) scale(0.09 -0.09)">
      <defs>
       <path id="DejaVuSans-74" d="M 1172 4494 
L 1172 3500 
L 2356 3500 
L 2356 3053 
L 1172 3053 
L 1172 1153 
Q 1172 725 1289 603 
Q 1406 481 1766 481 
L 2356 481 
L 2356 0 
L 1766 0 
Q 1100 0 847 248 
Q 594 497 594 1153 
L 594 3053 
L 172 3053 
L 172 3500 
L 594 3500 
L 594 4494 
L 1172 4494 
z
" transform="scale(0.015625)"/>
       <path id="DejaVuSans-68" d="M 3513 2113 
L 3513 0 
L 2938 0 
L 2938 2094 
Q 2938 2591 2744 2837 
Q 2550 3084 2163 3084 
Q 1697 3084 1428 2787 
Q 1159 2491 1159 1978 
L 1159 0 
L 581 0 
L 581 4863 
L 1159 4863 
L 1159 2956 
Q 1366 3272 1645 3428 
Q 1925 3584 2291 3584 
Q 2894 3584 3203 3211 
Q 3513 2838 3513 2113 
z
" transform="scale(0.015625)"/>
       <path id="DejaVuSans-72" d="M 2631 2963 
Q 2534 3019 2420 3045 
Q 2306 3072 2169 3072 
Q 1681 3072 1420 2755 
Q 1159 2438 1159 1844 
L 1159 0 
L 581 0 
L 581 3500 
L 1159 3500 
L 1159 2956 
Q 1341 3275 1631 3429 
Q 1922 3584 2338 3584 
Q 2397 3584 2469 3576 
Q 2541 3569 2628 3553 
L 2631 2963 
z
" transform="scale(0.015625)"/>
       <path id="DejaVuSans-73" d="M 2834 3397 
L 2834 2853 
Q 2591 2978 2328 3040 
Q 2066 3103 1784 3103 
Q 1356 3103 1142 2972 
Q 928 2841 928 2578 
Q 928 2378 1081 2264 
Q 1234 2150 1697 2047 
L 1894 2003 
Q 2506 1872 2764 1633 
Q 3022 1394 3022 966 
Q 3022 478 2636 193 
Q 2250 -91 1575 -91 
Q 1294 -91 989 -36 
Q 684 19 347 128 
L 347 722 
Q 666 556 975 473 
Q 1284 391 1588 391 
Q 1994 391 2212 530 
Q 2431 669 2431 922 
Q 2431 1156 2273 1281 
Q 2116 1406 1581 1522 
L 1381 1569 
Q 847 1681 609 1914 
Q 372 2147 372 2553 
Q 372 3047 722 3315 
Q 1072 3584 1716 3584 
Q 2034 3584 2315 3537 
Q 2597 3491 2834 3397 
z
" transform="scale(0.015625)"/>
       <path id="DejaVuSans-3d" d="M 678 2906 
L 4684 2906 
L 4684 2381 
L 678 2381 
L 678 2906 
z
M 678 1631 
L 4684 1631 
L 4684 1100 
L 678 1100 
L 678 1631 
z
" transform="scale(0.015625)"/>
      </defs>
      <use xlink:href="#DejaVuSans-4d"/>
      <use xlink:href="#DejaVuSans-43" transform="translate(86.279297 0)"/>
      <use xlink:href="#DejaVuSans-43" transform="translate(156.103516 0)"/>
      <use xlink:href="#DejaVuSans-20" transform="translate(225.927734 0)"/>
      <use xlink:href="#DejaVuSans-74" transform="translate(257.714844 0)"/>
      <use xlink:href="#DejaVuSans-68" transform="translate(296.923828 0)"/>
      <use xlink:href="#DejaVuSans-72" transform="translate(360.302734 0)"/>
      <use xlink:href="#DejaVuSans-65" transform="translate(399.166016 0)"/>
      <use xlink:href="#DejaVuSans-73" transform="translate(460.689453 0)"/>
      <use xlink:href="#DejaVuSans-68" transform="translate(512.789062 0)"/>
      <use xlink:href="#DejaVuSans-6f" transform="translate(576.167969 0)"/>
      <use xlink:href="#DejaVuSans-6c" transform="translate(637.349609 0)"/>
      <use xlink:href="#DejaVuSans-64" transform="translate(665.132812 0)"/>
      <use xlink:href="#DejaVuSans-20" transform="translate(728.609375 0)"/>
      <use xlink:href="#DejaVuSans-3d" transform="translate(760.396484 0)"/>
      <use xlink:href="#DejaVuSans-20" transform="translate(844.185547 0)"/>
      <use xlink:href="#DejaVuSans-30" transform="translate(875.972656 0)"/>
      <use xlink:href="#DejaVuSans-2e" transform="translate(939.595703 0)"/>
      <use xlink:href="#DejaVuSans-33" transform="translate(971.382812 0)"/>
     </g>
    </g>
    <g id="line2d_40">
     <path d="M 402.5285 115.060781 
L 411.5285 115.060781 
L 420.5285 115.060781 
" style="fill: none; stroke-dasharray: 7.68,1.92,1.2,1.92; stroke-dashoffset: 0; stroke: #942a7f; stroke-width: 1.2"/>
    </g>
    <g id="text_22">
     <!-- Brier score threshold = 0.25 -->
     <g transform="translate(427.7285 118.210781) scale(0.09 -0.09)">
      <defs>
       <path id="DejaVuSans-42" d="M 1259 2228 
L 1259 519 
L 2272 519 
Q 2781 519 3026 730 
Q 3272 941 3272 1375 
Q 3272 1813 3026 2020 
Q 2781 2228 2272 2228 
L 1259 2228 
z
M 1259 4147 
L 1259 2741 
L 2194 2741 
Q 2656 2741 2882 2914 
Q 3109 3088 3109 3444 
Q 3109 3797 2882 3972 
Q 2656 4147 2194 4147 
L 1259 4147 
z
M 628 4666 
L 2241 4666 
Q 2963 4666 3353 4366 
Q 3744 4066 3744 3513 
Q 3744 3084 3544 2831 
Q 3344 2578 2956 2516 
Q 3422 2416 3680 2098 
Q 3938 1781 3938 1306 
Q 3938 681 3513 340 
Q 3088 0 2303 0 
L 628 0 
L 628 4666 
z
" transform="scale(0.015625)"/>
       <path id="DejaVuSans-63" d="M 3122 3366 
L 3122 2828 
Q 2878 2963 2633 3030 
Q 2388 3097 2138 3097 
Q 1578 3097 1268 2742 
Q 959 2388 959 1747 
Q 959 1106 1268 751 
Q 1578 397 2138 397 
Q 2388 397 2633 464 
Q 2878 531 3122 666 
L 3122 134 
Q 2881 22 2623 -34 
Q 2366 -91 2075 -91 
Q 1284 -91 818 406 
Q 353 903 353 1747 
Q 353 2603 823 3093 
Q 1294 3584 2113 3584 
Q 2378 3584 2631 3529 
Q 2884 3475 3122 3366 
z
" transform="scale(0.015625)"/>
      </defs>
      <use xlink:href="#DejaVuSans-42"/>
      <use xlink:href="#DejaVuSans-72" transform="translate(68.603516 0)"/>
      <use xlink:href="#DejaVuSans-69" transform="translate(109.716797 0)"/>
      <use xlink:href="#DejaVuSans-65" transform="translate(137.5 0)"/>
      <use xlink:href="#DejaVuSans-72" transform="translate(199.023438 0)"/>
      <use xlink:href="#DejaVuSans-20" transform="translate(240.136719 0)"/>
      <use xlink:href="#DejaVuSans-73" transform="translate(271.923828 0)"/>
      <use xlink:href="#DejaVuSans-63" transform="translate(324.023438 0)"/>
      <use xlink:href="#DejaVuSans-6f" transform="translate(379.003906 0)"/>
      <use xlink:href="#DejaVuSans-72" transform="translate(440.185547 0)"/>
      <use xlink:href="#DejaVuSans-65" transform="translate(479.048828 0)"/>
      <use xlink:href="#DejaVuSans-20" transform="translate(540.572266 0)"/>
      <use xlink:href="#DejaVuSans-74" transform="translate(572.359375 0)"/>
      <use xlink:href="#DejaVuSans-68" transform="translate(611.568359 0)"/>
      <use xlink:href="#DejaVuSans-72" transform="translate(674.947266 0)"/>
      <use xlink:href="#DejaVuSans-65" transform="translate(713.810547 0)"/>
      <use xlink:href="#DejaVuSans-73" transform="translate(775.333984 0)"/>
      <use xlink:href="#DejaVuSans-68" transform="translate(827.433594 0)"/>
      <use xlink:href="#DejaVuSans-6f" transform="translate(890.8125 0)"/>
      <use xlink:href="#DejaVuSans-6c" transform="translate(951.994141 0)"/>
      <use xlink:href="#DejaVuSans-64" transform="translate(979.777344 0)"/>
      <use xlink:href="#DejaVuSans-20" transform="translate(1043.253906 0)"/>
      <use xlink:href="#DejaVuSans-3d" transform="translate(1075.041016 0)"/>
      <use xlink:href="#DejaVuSans-20" transform="translate(1158.830078 0)"/>
      <use xlink:href="#DejaVuSans-30" transform="translate(1190.617188 0)"/>
      <use xlink:href="#DejaVuSans-2e" transform="translate(1254.240234 0)"/>
      <use xlink:href="#DejaVuSans-32" transform="translate(1286.027344 0)"/>
      <use xlink:href="#DejaVuSans-35" transform="translate(1349.650391 0)"/>
     </g>
    </g>
   </g>
  </g>
 </g>
 <defs>
  <clipPath id="p4bad2f49ac">
   <rect x="56.99" y="10.8" width="321.37" height="304.36"/>
  </clipPath>
 </defs>
</svg>
