<?xml version="1.0" encoding="utf-8" standalone="no"?>
<!DOCTYPE svg PUBLIC "-//W3C//DTD SVG 1.1//EN"
  "http://www.w3.org/Graphics/SVG/1.1/DTD/svg11.dtd">
<svg xmlns:xlink="http://www.w3.org/1999/xlink" width="576pt" height="360pt" viewBox="0 0 576 360" xmlns="http://www.w3.org/2000/svg" version="1.1">
 <metadata>
  <rdf:RDF xmlns:dc="http://purl.org/dc/elements/1.1/" xmlns:cc="http://creativecommons.org/ns#" xmlns:rdf="http://www.w3.org/1999/02/22-rdf-syntax-ns#">
   <cc:Work>
    <dc:type rdf:resource="http://purl.org/dc/dcmitype/StillImage"/>
    <dc:date>2026-08-14T15:14:16.600549</dc:date>
    <dc:format>image/svg+xml</dc:format>
    <dc:creator>
     <cc:Agent>
      <dc:title>Matplotlib v3.10.9, https://matplotlib.org/</dc:title>
     </cc:Agent>
    </dc:creator>
   </cc:Work>
  </rdf:RDF>
 </metadata>
 <defs>
  <style type="text/css">*{stroke-linejoin: round; stroke-linecap: butt}</style>
 </defs>
 <g id="figure_1">
  <g id="patch_1">
   <path d="M 0 360 
L 576 360 
L 576 0 
L 0 0 
z
" style="fill: #ffffff"/>
  </g>
  <g id="axes_1">
   <g id="patch_2">
    <path d="M 56.99 315.16 
L 400.5 315.16 
L 400.5 11.299896 
L 56.99 11.299896 
z
" style="fill: #ffffff"/>
   </g>
   <g id="PathCollection_1">
    <defs>
     <path id="C0_0_30aff7eaef" d="M 0 5 
C 1.326016 5 2.597899 4.473168 3.535534 3.535534 
C 4.473168 2.597899 5 1.326016 5 -0 
C 5 -1.326016 4.473168 -2.597899 3.535534 -3.535534 
C 2.597899 -4.473168 1.326016 -5 0 -5 
C -1.326016 -5 -2.597899 -4.473168 -3.535534 -3.535534 
C -4.473168 -2.597899 -5 -1.326016 -5 0 
C -5 1.326016 -4.473168 2.597899 -3.535534 3.535534 
C -2.597899 4.473168 -1.326016 5 0 5 
z
"/>
    </defs>
    <g clip-path="url(#p2861de9ff6)">
     <use xlink:href="#C0_0_30aff7eaef" x="369.75331" y="33.699381" style="fill: #1b9e77; fill-opacity: 0.9; stroke: #ffffff; stroke-opacity: 0.9; stroke-width: 0.8"/>
    </g>
    <g clip-path="url(#p2861de9ff6)">
     <use xlink:href="#C0_0_30aff7eaef" x="300.624846" y="103.545698" style="fill: #1b9e77; fill-opacity: 0.9; stroke: #ffffff; stroke-opacity: 0.9; stroke-width: 0.8"/>
    </g>
    <g clip-path="url(#p2861de9ff6)">
     <use xlink:href="#C0_0_30aff7eaef" x="282.05302" y="108.125784" style="fill: #1b9e77; fill-opacity: 0.9; stroke: #ffffff; stroke-opacity: 0.9; stroke-width: 0.8"/>
    </g>
    <g clip-path="url(#p2861de9ff6)">
     <use xlink:href="#C0_0_30aff7eaef" x="281.709097" y="100.110633" style="fill: #1b9e77; fill-opacity: 0.9; stroke: #ffffff; stroke-opacity: 0.9; stroke-width: 0.8"/>
    </g>
    <g clip-path="url(#p2861de9ff6)">
     <use xlink:href="#C0_0_30aff7eaef" x="236.999145" y="136.751324" style="fill: #1b9e77; fill-opacity: 0.9; stroke: #ffffff; stroke-opacity: 0.9; stroke-width: 0.8"/>
    </g>
    <g clip-path="url(#p2861de9ff6)">
     <use xlink:href="#C0_0_30aff7eaef" x="194.008807" y="161.369288" style="fill: #1b9e77; fill-opacity: 0.9; stroke: #ffffff; stroke-opacity: 0.9; stroke-width: 0.8"/>
    </g>
    <g clip-path="url(#p2861de9ff6)">
     <use xlink:href="#C0_0_30aff7eaef" x="382.47845" y="28.546784" style="fill: #d95f02; fill-opacity: 0.9; stroke: #ffffff; stroke-opacity: 0.9; stroke-width: 0.8"/>
    </g>
    <g clip-path="url(#p2861de9ff6)">
     <use xlink:href="#C0_0_30aff7eaef" x="375.256073" y="31.409338" style="fill: #d95f02; fill-opacity: 0.9; stroke: #ffffff; stroke-opacity: 0.9; stroke-width: 0.8"/>
    </g>
    <g clip-path="url(#p2861de9ff6)">
     <use xlink:href="#C0_0_30aff7eaef" x="358.747783" y="43.432065" style="fill: #d95f02; fill-opacity: 0.9; stroke: #ffffff; stroke-opacity: 0.9; stroke-width: 0.8"/>
    </g>
    <g clip-path="url(#p2861de9ff6)">
     <use xlink:href="#C0_0_30aff7eaef" x="356.340324" y="37.420701" style="fill: #d95f02; fill-opacity: 0.9; stroke: #ffffff; stroke-opacity: 0.9; stroke-width: 0.8"/>
    </g>
    <g clip-path="url(#p2861de9ff6)">
     <use xlink:href="#C0_0_30aff7eaef" x="352.213252" y="48.584662" style="fill: #d95f02; fill-opacity: 0.9; stroke: #ffffff; stroke-opacity: 0.9; stroke-width: 0.8"/>
    </g>
    <g clip-path="url(#p2861de9ff6)">
     <use xlink:href="#C0_0_30aff7eaef" x="335.361039" y="70.053817" style="fill: #d95f02; fill-opacity: 0.9; stroke: #ffffff; stroke-opacity: 0.9; stroke-width: 0.8"/>
    </g>
    <g clip-path="url(#p2861de9ff6)">
     <use xlink:href="#C0_0_30aff7eaef" x="353.588943" y="52.878493" style="fill: #d95f02; fill-opacity: 0.9; stroke: #ffffff; stroke-opacity: 0.9; stroke-width: 0.8"/>
    </g>
    <g clip-path="url(#p2861de9ff6)">
     <use xlink:href="#C0_0_30aff7eaef" x="297.529541" y="105.26323" style="fill: #d95f02; fill-opacity: 0.9; stroke: #ffffff; stroke-opacity: 0.9; stroke-width: 0.8"/>
    </g>
    <g clip-path="url(#p2861de9ff6)">
     <use xlink:href="#C0_0_30aff7eaef" x="304.751918" y="91.522971" style="fill: #d95f02; fill-opacity: 0.9; stroke: #ffffff; stroke-opacity: 0.9; stroke-width: 0.8"/>
    </g>
    <g clip-path="url(#p2861de9ff6)">
     <use xlink:href="#C0_0_30aff7eaef" x="350.149716" y="52.592237" style="fill: #d95f02; fill-opacity: 0.9; stroke: #ffffff; stroke-opacity: 0.9; stroke-width: 0.8"/>
    </g>
    <g clip-path="url(#p2861de9ff6)">
     <use xlink:href="#C0_0_30aff7eaef" x="316.101368" y="74.061392" style="fill: #d95f02; fill-opacity: 0.9; stroke: #ffffff; stroke-opacity: 0.9; stroke-width: 0.8"/>
    </g>
    <g clip-path="url(#p2861de9ff6)">
     <use xlink:href="#C0_0_30aff7eaef" x="266.576498" y="116.999702" style="fill: #d95f02; fill-opacity: 0.9; stroke: #ffffff; stroke-opacity: 0.9; stroke-width: 0.8"/>
    </g>
    <g clip-path="url(#p2861de9ff6)">
     <use xlink:href="#C0_0_30aff7eaef" x="324.355513" y="64.328709" style="fill: #d95f02; fill-opacity: 0.9; stroke: #ffffff; stroke-opacity: 0.9; stroke-width: 0.8"/>
    </g>
    <g clip-path="url(#p2861de9ff6)">
     <use xlink:href="#C0_0_30aff7eaef" x="327.79474" y="68.62254" style="fill: #d95f02; fill-opacity: 0.9; stroke: #ffffff; stroke-opacity: 0.9; stroke-width: 0.8"/>
    </g>
    <g clip-path="url(#p2861de9ff6)">
     <use xlink:href="#C0_0_30aff7eaef" x="285.148324" y="89.805439" style="fill: #d95f02; fill-opacity: 0.9; stroke: #ffffff; stroke-opacity: 0.9; stroke-width: 0.8"/>
    </g>
    <g clip-path="url(#p2861de9ff6)">
     <use xlink:href="#C0_0_30aff7eaef" x="381.790605" y="29.40555" style="fill: #7570b3; fill-opacity: 0.9; stroke: #ffffff; stroke-opacity: 0.9; stroke-width: 0.8"/>
    </g>
    <g clip-path="url(#p2861de9ff6)">
     <use xlink:href="#C0_0_30aff7eaef" x="378.6953" y="29.978061" style="fill: #7570b3; fill-opacity: 0.9; stroke: #ffffff; stroke-opacity: 0.9; stroke-width: 0.8"/>
    </g>
    <g clip-path="url(#p2861de9ff6)">
     <use xlink:href="#C0_0_30aff7eaef" x="362.18701" y="42.859554" style="fill: #7570b3; fill-opacity: 0.9; stroke: #ffffff; stroke-opacity: 0.9; stroke-width: 0.8"/>
    </g>
    <g clip-path="url(#p2861de9ff6)">
     <use xlink:href="#C0_0_30aff7eaef" x="369.75331" y="38.851978" style="fill: #7570b3; fill-opacity: 0.9; stroke: #ffffff; stroke-opacity: 0.9; stroke-width: 0.8"/>
    </g>
    <g clip-path="url(#p2861de9ff6)">
     <use xlink:href="#C0_0_30aff7eaef" x="375.943919" y="30.836827" style="fill: #7570b3; fill-opacity: 0.9; stroke: #ffffff; stroke-opacity: 0.9; stroke-width: 0.8"/>
    </g>
    <g clip-path="url(#p2861de9ff6)">
     <use xlink:href="#C0_0_30aff7eaef" x="369.75331" y="32.268104" style="fill: #7570b3; fill-opacity: 0.9; stroke: #ffffff; stroke-opacity: 0.9; stroke-width: 0.8"/>
    </g>
    <g clip-path="url(#p2861de9ff6)">
     <use xlink:href="#C0_0_30aff7eaef" x="348.086179" y="53.164748" style="fill: #7570b3; fill-opacity: 0.9; stroke: #ffffff; stroke-opacity: 0.9; stroke-width: 0.8"/>
    </g>
    <g clip-path="url(#p2861de9ff6)">
     <use xlink:href="#C0_0_30aff7eaef" x="368.033696" y="30.836827" style="fill: #7570b3; fill-opacity: 0.9; stroke: #ffffff; stroke-opacity: 0.9; stroke-width: 0.8"/>
    </g>
    <g clip-path="url(#p2861de9ff6)">
     <use xlink:href="#C0_0_30aff7eaef" x="367.345851" y="37.706957" style="fill: #7570b3; fill-opacity: 0.9; stroke: #ffffff; stroke-opacity: 0.9; stroke-width: 0.8"/>
    </g>
    <g clip-path="url(#p2861de9ff6)">
     <use xlink:href="#C0_0_30aff7eaef" x="358.747783" y="38.565723" style="fill: #7570b3; fill-opacity: 0.9; stroke: #ffffff; stroke-opacity: 0.9; stroke-width: 0.8"/>
    </g>
    <g clip-path="url(#p2861de9ff6)">
     <use xlink:href="#C0_0_30aff7eaef" x="369.065465" y="40.855766" style="fill: #7570b3; fill-opacity: 0.9; stroke: #ffffff; stroke-opacity: 0.9; stroke-width: 0.8"/>
    </g>
    <g clip-path="url(#p2861de9ff6)">
     <use xlink:href="#C0_0_30aff7eaef" x="335.704962" y="66.046241" style="fill: #7570b3; fill-opacity: 0.9; stroke: #ffffff; stroke-opacity: 0.9; stroke-width: 0.8"/>
    </g>
    <g clip-path="url(#p2861de9ff6)">
     <use xlink:href="#C0_0_30aff7eaef" x="314.037831" y="84.652842" style="fill: #7570b3; fill-opacity: 0.9; stroke: #ffffff; stroke-opacity: 0.9; stroke-width: 0.8"/>
    </g>
    <g clip-path="url(#p2861de9ff6)">
     <use xlink:href="#C0_0_30aff7eaef" x="349.117948" y="54.882281" style="fill: #7570b3; fill-opacity: 0.9; stroke: #ffffff; stroke-opacity: 0.9; stroke-width: 0.8"/>
    </g>
    <g clip-path="url(#p2861de9ff6)">
     <use xlink:href="#C0_0_30aff7eaef" x="357.372093" y="50.58845" style="fill: #7570b3; fill-opacity: 0.9; stroke: #ffffff; stroke-opacity: 0.9; stroke-width: 0.8"/>
    </g>
    <g clip-path="url(#p2861de9ff6)">
     <use xlink:href="#C0_0_30aff7eaef" x="320.572363" y="76.06518" style="fill: #7570b3; fill-opacity: 0.9; stroke: #ffffff; stroke-opacity: 0.9; stroke-width: 0.8"/>
    </g>
    <g clip-path="url(#p2861de9ff6)">
     <use xlink:href="#C0_0_30aff7eaef" x="358.747783" y="42.573298" style="fill: #7570b3; fill-opacity: 0.9; stroke: #ffffff; stroke-opacity: 0.9; stroke-width: 0.8"/>
    </g>
    <g clip-path="url(#p2861de9ff6)">
     <use xlink:href="#C0_0_30aff7eaef" x="338.112421" y="61.466155" style="fill: #7570b3; fill-opacity: 0.9; stroke: #ffffff; stroke-opacity: 0.9; stroke-width: 0.8"/>
    </g>
    <g clip-path="url(#p2861de9ff6)">
     <use xlink:href="#C0_0_30aff7eaef" x="313.006063" y="75.492669" style="fill: #7570b3; fill-opacity: 0.9; stroke: #ffffff; stroke-opacity: 0.9; stroke-width: 0.8"/>
    </g>
    <g clip-path="url(#p2861de9ff6)">
     <use xlink:href="#C0_0_30aff7eaef" x="346.022643" y="49.443428" style="fill: #7570b3; fill-opacity: 0.9; stroke: #ffffff; stroke-opacity: 0.9; stroke-width: 0.8"/>
    </g>
    <g clip-path="url(#p2861de9ff6)">
     <use xlink:href="#C0_0_30aff7eaef" x="384.885909" y="26.542996" style="fill: #e7298a; fill-opacity: 0.9; stroke: #ffffff; stroke-opacity: 0.9; stroke-width: 0.8"/>
    </g>
    <g clip-path="url(#p2861de9ff6)">
     <use xlink:href="#C0_0_30aff7eaef" x="372.504692" y="34.844403" style="fill: #e7298a; fill-opacity: 0.9; stroke: #ffffff; stroke-opacity: 0.9; stroke-width: 0.8"/>
    </g>
    <g clip-path="url(#p2861de9ff6)">
     <use xlink:href="#C0_0_30aff7eaef" x="362.874856" y="45.149597" style="fill: #e7298a; fill-opacity: 0.9; stroke: #ffffff; stroke-opacity: 0.9; stroke-width: 0.8"/>
    </g>
    <g clip-path="url(#p2861de9ff6)">
     <use xlink:href="#C0_0_30aff7eaef" x="374.912151" y="31.409338" style="fill: #e7298a; fill-opacity: 0.9; stroke: #ffffff; stroke-opacity: 0.9; stroke-width: 0.8"/>
    </g>
    <g clip-path="url(#p2861de9ff6)">
     <use xlink:href="#C0_0_30aff7eaef" x="379.727068" y="30.550572" style="fill: #e7298a; fill-opacity: 0.9; stroke: #ffffff; stroke-opacity: 0.9; stroke-width: 0.8"/>
    </g>
    <g clip-path="url(#p2861de9ff6)">
     <use xlink:href="#C0_0_30aff7eaef" x="365.282315" y="39.424489" style="fill: #e7298a; fill-opacity: 0.9; stroke: #ffffff; stroke-opacity: 0.9; stroke-width: 0.8"/>
    </g>
    <g clip-path="url(#p2861de9ff6)">
     <use xlink:href="#C0_0_30aff7eaef" x="379.727068" y="25.111719" style="fill: #e7298a; fill-opacity: 0.9; stroke: #ffffff; stroke-opacity: 0.9; stroke-width: 0.8"/>
    </g>
    <g clip-path="url(#p2861de9ff6)">
     <use xlink:href="#C0_0_30aff7eaef" x="367.689774" y="37.420701" style="fill: #e7298a; fill-opacity: 0.9; stroke: #ffffff; stroke-opacity: 0.9; stroke-width: 0.8"/>
    </g>
    <g clip-path="url(#p2861de9ff6)">
     <use xlink:href="#C0_0_30aff7eaef" x="359.779551" y="40.283255" style="fill: #e7298a; fill-opacity: 0.9; stroke: #ffffff; stroke-opacity: 0.9; stroke-width: 0.8"/>
    </g>
    <g clip-path="url(#p2861de9ff6)">
     <use xlink:href="#C0_0_30aff7eaef" x="373.53646" y="27.974273" style="fill: #e7298a; fill-opacity: 0.9; stroke: #ffffff; stroke-opacity: 0.9; stroke-width: 0.8"/>
    </g>
    <g clip-path="url(#p2861de9ff6)">
     <use xlink:href="#C0_0_30aff7eaef" x="365.97016" y="41.142021" style="fill: #e7298a; fill-opacity: 0.9; stroke: #ffffff; stroke-opacity: 0.9; stroke-width: 0.8"/>
    </g>
    <g clip-path="url(#p2861de9ff6)">
     <use xlink:href="#C0_0_30aff7eaef" x="356.684247" y="50.58845" style="fill: #e7298a; fill-opacity: 0.9; stroke: #ffffff; stroke-opacity: 0.9; stroke-width: 0.8"/>
    </g>
    <g clip-path="url(#p2861de9ff6)">
     <use xlink:href="#C0_0_30aff7eaef" x="331.233967" y="67.191263" style="fill: #e7298a; fill-opacity: 0.9; stroke: #ffffff; stroke-opacity: 0.9; stroke-width: 0.8"/>
    </g>
    <g clip-path="url(#p2861de9ff6)">
     <use xlink:href="#C0_0_30aff7eaef" x="357.716015" y="47.153385" style="fill: #e7298a; fill-opacity: 0.9; stroke: #ffffff; stroke-opacity: 0.9; stroke-width: 0.8"/>
    </g>
    <g clip-path="url(#p2861de9ff6)">
     <use xlink:href="#C0_0_30aff7eaef" x="353.932865" y="45.149597" style="fill: #e7298a; fill-opacity: 0.9; stroke: #ffffff; stroke-opacity: 0.9; stroke-width: 0.8"/>
    </g>
    <g clip-path="url(#p2861de9ff6)">
     <use xlink:href="#C0_0_30aff7eaef" x="382.47845" y="26.829252" style="fill: #66a61e; fill-opacity: 0.9; stroke: #ffffff; stroke-opacity: 0.9; stroke-width: 0.8"/>
    </g>
    <g clip-path="url(#p2861de9ff6)">
     <use xlink:href="#C0_0_30aff7eaef" x="376.975687" y="33.413126" style="fill: #66a61e; fill-opacity: 0.9; stroke: #ffffff; stroke-opacity: 0.9; stroke-width: 0.8"/>
    </g>
    <g clip-path="url(#p2861de9ff6)">
     <use xlink:href="#C0_0_30aff7eaef" x="365.97016" y="39.997" style="fill: #66a61e; fill-opacity: 0.9; stroke: #ffffff; stroke-opacity: 0.9; stroke-width: 0.8"/>
    </g>
    <g clip-path="url(#p2861de9ff6)">
     <use xlink:href="#C0_0_30aff7eaef" x="378.007455" y="29.691806" style="fill: #66a61e; fill-opacity: 0.9; stroke: #ffffff; stroke-opacity: 0.9; stroke-width: 0.8"/>
    </g>
    <g clip-path="url(#p2861de9ff6)">
     <use xlink:href="#C0_0_30aff7eaef" x="374.912151" y="28.833039" style="fill: #66a61e; fill-opacity: 0.9; stroke: #ffffff; stroke-opacity: 0.9; stroke-width: 0.8"/>
    </g>
    <g clip-path="url(#p2861de9ff6)">
     <use xlink:href="#C0_0_30aff7eaef" x="361.155242" y="44.004575" style="fill: #66a61e; fill-opacity: 0.9; stroke: #ffffff; stroke-opacity: 0.9; stroke-width: 0.8"/>
    </g>
    <g clip-path="url(#p2861de9ff6)">
     <use xlink:href="#C0_0_30aff7eaef" x="378.351378" y="30.264316" style="fill: #e6ab02; fill-opacity: 0.9; stroke: #ffffff; stroke-opacity: 0.9; stroke-width: 0.8"/>
    </g>
   </g>
   <g id="matplotlib.axis_1">
    <g id="xtick_1">
     <g id="line2d_1">
      <path d="M 72.604091 315.16 
L 72.604091 11.299896 
" clip-path="url(#p2861de9ff6)" style="fill: none; stroke-dasharray: 2.96,1.28; stroke-dashoffset: 0; stroke: #b0b0b0; stroke-opacity: 0.5; stroke-width: 0.8"/>
     </g>
     <g id="line2d_2">
      <defs>
       <path id="m572b234b13" d="M 0 0 
L 0 3.5 
" style="stroke: #000000; stroke-width: 0.8"/>
      </defs>
      <g>
       <use xlink:href="#m572b234b13" x="72.604091" y="315.16" style="stroke: #000000; stroke-width: 0.8"/>
      </g>
     </g>
     <g id="text_1">
      <!-- 0.80 -->
      <g transform="translate(61.471278 329.758438) scale(0.1 -0.1)">
       <defs>
        <path id="DejaVuSans-30" d="M 2034 4250 
Q 1547 4250 1301 3770 
Q 1056 3291 1056 2328 
Q 1056 1369 1301 889 
Q 1547 409 2034 409 
Q 2525 409 2770 889 
Q 3016 1369 3016 2328 
Q 3016 3291 2770 3770 
Q 2525 4250 2034 4250 
z
M 2034 4750 
Q 2819 4750 3233 4129 
Q 3647 3509 3647 2328 
Q 3647 1150 3233 529 
Q 2819 -91 2034 -91 
Q 1250 -91 836 529 
Q 422 1150 422 2328 
Q 422 3509 836 4129 
Q 1250 4750 2034 4750 
z
" transform="scale(0.015625)"/>
        <path id="DejaVuSans-2e" d="M 684 794 
L 1344 794 
L 1344 0 
L 684 0 
L 684 794 
z
" transform="scale(0.015625)"/>
        <path id="DejaVuSans-38" d="M 2034 2216 
Q 1584 2216 1326 1975 
Q 1069 1734 1069 1313 
Q 1069 891 1326 650 
Q 1584 409 2034 409 
Q 2484 409 2743 651 
Q 3003 894 3003 1313 
Q 3003 1734 2745 1975 
Q 2488 2216 2034 2216 
z
M 1403 2484 
Q 997 2584 770 2862 
Q 544 3141 544 3541 
Q 544 4100 942 4425 
Q 1341 4750 2034 4750 
Q 2731 4750 3128 4425 
Q 3525 4100 3525 3541 
Q 3525 3141 3298 2862 
Q 3072 2584 2669 2484 
Q 3125 2378 3379 2068 
Q 3634 1759 3634 1313 
Q 3634 634 3220 271 
Q 2806 -91 2034 -91 
Q 1263 -91 848 271 
Q 434 634 434 1313 
Q 434 1759 690 2068 
Q 947 2378 1403 2484 
z
M 1172 3481 
Q 1172 3119 1398 2916 
Q 1625 2713 2034 2713 
Q 2441 2713 2670 2916 
Q 2900 3119 2900 3481 
Q 2900 3844 2670 4047 
Q 2441 4250 2034 4250 
Q 1625 4250 1398 4047 
Q 1172 3844 1172 3481 
z
" transform="scale(0.015625)"/>
       </defs>
       <use xlink:href="#DejaVuSans-30"/>
       <use xlink:href="#DejaVuSans-2e" transform="translate(63.623047 0)"/>
       <use xlink:href="#DejaVuSans-38" transform="translate(95.410156 0)"/>
       <use xlink:href="#DejaVuSans-30" transform="translate(159.033203 0)"/>
      </g>
     </g>
    </g>
    <g id="xtick_2">
     <g id="line2d_3">
      <path d="M 141.388632 315.16 
L 141.388632 11.299896 
" clip-path="url(#p2861de9ff6)" style="fill: none; stroke-dasharray: 2.96,1.28; stroke-dashoffset: 0; stroke: #b0b0b0; stroke-opacity: 0.5; stroke-width: 0.8"/>
     </g>
     <g id="line2d_4">
      <g>
       <use xlink:href="#m572b234b13" x="141.388632" y="315.16" style="stroke: #000000; stroke-width: 0.8"/>
      </g>
     </g>
     <g id="text_2">
      <!-- 0.82 -->
      <g transform="translate(130.25582 329.758438) scale(0.1 -0.1)">
       <defs>
        <path id="DejaVuSans-32" d="M 1228 531 
L 3431 531 
L 3431 0 
L 469 0 
L 469 531 
Q 828 903 1448 1529 
Q 2069 2156 2228 2338 
Q 2531 2678 2651 2914 
Q 2772 3150 2772 3378 
Q 2772 3750 2511 3984 
Q 2250 4219 1831 4219 
Q 1534 4219 1204 4116 
Q 875 4013 500 3803 
L 500 4441 
Q 881 4594 1212 4672 
Q 1544 4750 1819 4750 
Q 2544 4750 2975 4387 
Q 3406 4025 3406 3419 
Q 3406 3131 3298 2873 
Q 3191 2616 2906 2266 
Q 2828 2175 2409 1742 
Q 1991 1309 1228 531 
z
" transform="scale(0.015625)"/>
       </defs>
       <use xlink:href="#DejaVuSans-30"/>
       <use xlink:href="#DejaVuSans-2e" transform="translate(63.623047 0)"/>
       <use xlink:href="#DejaVuSans-38" transform="translate(95.410156 0)"/>
       <use xlink:href="#DejaVuSans-32" transform="translate(159.033203 0)"/>
      </g>
     </g>
    </g>
    <g id="xtick_3">
     <g id="line2d_5">
      <path d="M 210.173174 315.16 
L 210.173174 11.299896 
" clip-path="url(#p2861de9ff6)" style="fill: none; stroke-dasharray: 2.96,1.28; stroke-dashoffset: 0; stroke: #b0b0b0; stroke-opacity: 0.5; stroke-width: 0.8"/>
     </g>
     <g id="line2d_6">
      <g>
       <use xlink:href="#m572b234b13" x="210.173174" y="315.16" style="stroke: #000000; stroke-width: 0.8"/>
      </g>
     </g>
     <g id="text_3">
      <!-- 0.84 -->
      <g transform="translate(199.040361 329.758438) scale(0.1 -0.1)">
       <defs>
        <path id="DejaVuSans-34" d="M 2419 4116 
L 825 1625 
L 2419 1625 
L 2419 4116 
z
M 2253 4666 
L 3047 4666 
L 3047 1625 
L 3713 1625 
L 3713 1100 
L 3047 1100 
L 3047 0 
L 2419 0 
L 2419 1100 
L 313 1100 
L 313 1709 
L 2253 4666 
z
" transform="scale(0.015625)"/>
       </defs>
       <use xlink:href="#DejaVuSans-30"/>
       <use xlink:href="#DejaVuSans-2e" transform="translate(63.623047 0)"/>
       <use xlink:href="#DejaVuSans-38" transform="translate(95.410156 0)"/>
       <use xlink:href="#DejaVuSans-34" transform="translate(159.033203 0)"/>
      </g>
     </g>
    </g>
    <g id="xtick_4">
     <g id="line2d_7">
      <path d="M 278.957715 315.16 
L 278.957715 11.299896 
" clip-path="url(#p2861de9ff6)" style="fill: none; stroke-dasharray: 2.96,1.28; stroke-dashoffset: 0; stroke: #b0b0b0; stroke-opacity: 0.5; stroke-width: 0.8"/>
     </g>
     <g id="line2d_8">
      <g>
       <use xlink:href="#m572b234b13" x="278.957715" y="315.16" style="stroke: #000000; stroke-width: 0.8"/>
      </g>
     </g>
     <g id="text_4">
      <!-- 0.86 -->
      <g transform="translate(267.824903 329.758438) scale(0.1 -0.1)">
       <defs>
        <path id="DejaVuSans-36" d="M 2113 2584 
Q 1688 2584 1439 2293 
Q 1191 2003 1191 1497 
Q 1191 994 1439 701 
Q 1688 409 2113 409 
Q 2538 409 2786 701 
Q 3034 994 3034 1497 
Q 3034 2003 2786 2293 
Q 2538 2584 2113 2584 
z
M 3366 4563 
L 3366 3988 
Q 3128 4100 2886 4159 
Q 2644 4219 2406 4219 
Q 1781 4219 1451 3797 
Q 1122 3375 1075 2522 
Q 1259 2794 1537 2939 
Q 1816 3084 2150 3084 
Q 2853 3084 3261 2657 
Q 3669 2231 3669 1497 
Q 3669 778 3244 343 
Q 2819 -91 2113 -91 
Q 1303 -91 875 529 
Q 447 1150 447 2328 
Q 447 3434 972 4092 
Q 1497 4750 2381 4750 
Q 2619 4750 2861 4703 
Q 3103 4656 3366 4563 
z
" transform="scale(0.015625)"/>
       </defs>
       <use xlink:href="#DejaVuSans-30"/>
       <use xlink:href="#DejaVuSans-2e" transform="translate(63.623047 0)"/>
       <use xlink:href="#DejaVuSans-38" transform="translate(95.410156 0)"/>
       <use xlink:href="#DejaVuSans-36" transform="translate(159.033203 0)"/>
      </g>
     </g>
    </g>
    <g id="xtick_5">
     <g id="line2d_9">
      <path d="M 347.742257 315.16 
L 347.742257 11.299896 
" clip-path="url(#p2861de9ff6)" style="fill: none; stroke-dasharray: 2.96,1.28; stroke-dashoffset: 0; stroke: #b0b0b0; stroke-opacity: 0.5; stroke-width: 0.8"/>
     </g>
     <g id="line2d_10">
      <g>
       <use xlink:href="#m572b234b13" x="347.742257" y="315.16" style="stroke: #000000; stroke-width: 0.8"/>
      </g>
     </g>
     <g id="text_5">
      <!-- 0.88 -->
      <g transform="translate(336.609444 329.758438) scale(0.1 -0.1)">
       <use xlink:href="#DejaVuSans-30"/>
       <use xlink:href="#DejaVuSans-2e" transform="translate(63.623047 0)"/>
       <use xlink:href="#DejaVuSans-38" transform="translate(95.410156 0)"/>
       <use xlink:href="#DejaVuSans-38" transform="translate(159.033203 0)"/>
      </g>
     </g>
    </g>
    <g id="text_6">
     <!-- AUROC -->
     <g transform="translate(205.375 344.95625) scale(0.12 -0.12)">
      <defs>
       <path id="DejaVuSans-BoldOblique-41" d="M 3144 850 
L 1281 850 
L 819 0 
L -416 0 
L 2222 4666 
L 3597 4666 
L 4422 0 
L 3278 0 
L 3144 850 
z
M 1734 1697 
L 2988 1697 
L 2706 3494 
L 1734 1697 
z
" transform="scale(0.015625)"/>
       <path id="DejaVuSans-BoldOblique-55" d="M 1044 4666 
L 2247 4666 
L 1703 1872 
Q 1672 1722 1658 1606 
Q 1644 1491 1644 1403 
Q 1644 1097 1808 945 
Q 1972 794 2297 794 
Q 2734 794 2968 1039 
Q 3203 1284 3316 1869 
L 3859 4666 
L 5063 4666 
L 4519 1869 
Q 4316 838 3748 373 
Q 3181 -91 2125 -91 
Q 1297 -91 865 264 
Q 434 619 434 1294 
Q 434 1406 450 1545 
Q 466 1684 500 1869 
L 1044 4666 
z
" transform="scale(0.015625)"/>
       <path id="DejaVuSans-BoldOblique-52" d="M 2350 2597 
Q 2759 2597 2970 2787 
Q 3181 2978 3181 3347 
Q 3181 3578 3036 3686 
Q 2891 3794 2578 3794 
L 2081 3794 
L 1844 2597 
L 2350 2597 
z
M 1684 1766 
L 1338 0 
L 134 0 
L 1044 4666 
L 2822 4666 
Q 3591 4666 3987 4378 
Q 4384 4091 4384 3531 
Q 4384 2966 4071 2600 
Q 3759 2234 3225 2181 
Q 3469 2131 3631 1932 
Q 3794 1734 3916 1325 
L 4313 0 
L 3116 0 
L 2766 1159 
Q 2659 1506 2507 1636 
Q 2356 1766 2069 1766 
L 1684 1766 
z
" transform="scale(0.015625)"/>
       <path id="DejaVuSans-BoldOblique-4f" d="M 3938 2753 
Q 3938 3303 3689 3590 
Q 3441 3878 2969 3878 
Q 2344 3878 1920 3317 
Q 1497 2756 1497 1913 
Q 1497 1375 1744 1078 
Q 1991 781 2431 781 
Q 2791 781 3070 932 
Q 3350 1084 3547 1381 
Q 3734 1666 3836 2022 
Q 3938 2378 3938 2753 
z
M 3144 4750 
Q 4075 4750 4642 4233 
Q 5209 3716 5209 2881 
Q 5209 2313 5036 1806 
Q 4863 1300 4531 897 
Q 4125 400 3570 154 
Q 3016 -91 2291 -91 
Q 1363 -91 797 425 
Q 231 941 231 1778 
Q 231 2350 403 2856 
Q 575 3363 909 3769 
Q 1309 4263 1864 4506 
Q 2419 4750 3144 4750 
z
" transform="scale(0.015625)"/>
       <path id="DejaVuSans-BoldOblique-43" d="M 3878 219 
Q 3447 66 3050 -12 
Q 2653 -91 2297 -91 
Q 1356 -91 793 425 
Q 231 941 231 1791 
Q 231 2350 409 2845 
Q 588 3341 934 3750 
Q 1344 4231 1920 4490 
Q 2497 4750 3163 4750 
Q 3525 4750 3890 4664 
Q 4256 4578 4634 4403 
L 4441 3438 
Q 4141 3666 3837 3772 
Q 3534 3878 3188 3878 
Q 2466 3878 1978 3322 
Q 1491 2766 1491 1931 
Q 1491 1394 1791 1087 
Q 2091 781 2619 781 
Q 2934 781 3289 895 
Q 3644 1009 4084 1253 
L 3878 219 
z
" transform="scale(0.015625)"/>
      </defs>
      <use xlink:href="#DejaVuSans-BoldOblique-41"/>
      <use xlink:href="#DejaVuSans-BoldOblique-55" transform="translate(72.892578 0)"/>
      <use xlink:href="#DejaVuSans-BoldOblique-52" transform="translate(154.09375 0)"/>
      <use xlink:href="#DejaVuSans-BoldOblique-4f" transform="translate(231.095703 0)"/>
      <use xlink:href="#DejaVuSans-BoldOblique-43" transform="translate(316.105469 0)"/>
     </g>
    </g>
   </g>
   <g id="matplotlib.axis_2">
    <g id="ytick_1">
     <g id="line2d_11">
      <path d="M 56.99 301.348177 
L 400.5 301.348177 
" clip-path="url(#p2861de9ff6)" style="fill: none; stroke-dasharray: 2.96,1.28; stroke-dashoffset: 0; stroke: #b0b0b0; stroke-opacity: 0.5; stroke-width: 0.8"/>
     </g>
     <g id="line2d_12">
      <defs>
       <path id="md9b59bf04c" d="M 0 0 
L -3.5 0 
" style="stroke: #000000; stroke-width: 0.8"/>
      </defs>
      <g>
       <use xlink:href="#md9b59bf04c" x="56.99" y="301.348177" style="stroke: #000000; stroke-width: 0.8"/>
      </g>
     </g>
     <g id="text_7">
      <!-- 0.80 -->
      <g transform="translate(27.724375 305.147396) scale(0.1 -0.1)">
       <use xlink:href="#DejaVuSans-30"/>
       <use xlink:href="#DejaVuSans-2e" transform="translate(63.623047 0)"/>
       <use xlink:href="#DejaVuSans-38" transform="translate(95.410156 0)"/>
       <use xlink:href="#DejaVuSans-30" transform="translate(159.033203 0)"/>
      </g>
     </g>
    </g>
    <g id="ytick_2">
     <g id="line2d_13">
      <path d="M 56.99 244.097098 
L 400.5 244.097098 
" clip-path="url(#p2861de9ff6)" style="fill: none; stroke-dasharray: 2.96,1.28; stroke-dashoffset: 0; stroke: #b0b0b0; stroke-opacity: 0.5; stroke-width: 0.8"/>
     </g>
     <g id="line2d_14">
      <g>
       <use xlink:href="#md9b59bf04c" x="56.99" y="244.097098" style="stroke: #000000; stroke-width: 0.8"/>
      </g>
     </g>
     <g id="text_8">
      <!-- 0.82 -->
      <g transform="translate(27.724375 247.896317) scale(0.1 -0.1)">
       <use xlink:href="#DejaVuSans-30"/>
       <use xlink:href="#DejaVuSans-2e" transform="translate(63.623047 0)"/>
       <use xlink:href="#DejaVuSans-38" transform="translate(95.410156 0)"/>
       <use xlink:href="#DejaVuSans-32" transform="translate(159.033203 0)"/>
      </g>
     </g>
    </g>
    <g id="ytick_3">
     <g id="line2d_15">
      <path d="M 56.99 186.846018 
L 400.5 186.846018 
" clip-path="url(#p2861de9ff6)" style="fill: none; stroke-dasharray: 2.96,1.28; stroke-dashoffset: 0; stroke: #b0b0b0; stroke-opacity: 0.5; stroke-width: 0.8"/>
     </g>
     <g id="line2d_16">
      <g>
       <use xlink:href="#md9b59bf04c" x="56.99" y="186.846018" style="stroke: #000000; stroke-width: 0.8"/>
      </g>
     </g>
     <g id="text_9">
      <!-- 0.84 -->
      <g transform="translate(27.724375 190.645237) scale(0.1 -0.1)">
       <use xlink:href="#DejaVuSans-30"/>
       <use xlink:href="#DejaVuSans-2e" transform="translate(63.623047 0)"/>
       <use xlink:href="#DejaVuSans-38" transform="translate(95.410156 0)"/>
       <use xlink:href="#DejaVuSans-34" transform="translate(159.033203 0)"/>
      </g>
     </g>
    </g>
    <g id="ytick_4">
     <g id="line2d_17">
      <path d="M 56.99 129.594939 
L 400.5 129.594939 
" clip-path="url(#p2861de9ff6)" style="fill: none; stroke-dasharray: 2.96,1.28; stroke-dashoffset: 0; stroke: #b0b0b0; stroke-opacity: 0.5; stroke-width: 0.8"/>
     </g>
     <g id="line2d_18">
      <g>
       <use xlink:href="#md9b59bf04c" x="56.99" y="129.594939" style="stroke: #000000; stroke-width: 0.8"/>
      </g>
     </g>
     <g id="text_10">
      <!-- 0.86 -->
      <g transform="translate(27.724375 133.394158) scale(0.1 -0.1)">
       <use xlink:href="#DejaVuSans-30"/>
       <use xlink:href="#DejaVuSans-2e" transform="translate(63.623047 0)"/>
       <use xlink:href="#DejaVuSans-38" transform="translate(95.410156 0)"/>
       <use xlink:href="#DejaVuSans-36" transform="translate(159.033203 0)"/>
      </g>
     </g>
    </g>
    <g id="ytick_5">
     <g id="line2d_19">
      <path d="M 56.99 72.34386 
L 400.5 72.34386 
" clip-path="url(#p2861de9ff6)" style="fill: none; stroke-dasharray: 2.96,1.28; stroke-dashoffset: 0; stroke: #b0b0b0; stroke-opacity: 0.5; stroke-width: 0.8"/>
     </g>
     <g id="line2d_20">
      <g>
       <use xlink:href="#md9b59bf04c" x="56.99" y="72.34386" style="stroke: #000000; stroke-width: 0.8"/>
      </g>
     </g>
     <g id="text_11">
      <!-- 0.88 -->
      <g transform="translate(27.724375 76.143078) scale(0.1 -0.1)">
       <use xlink:href="#DejaVuSans-30"/>
       <use xlink:href="#DejaVuSans-2e" transform="translate(63.623047 0)"/>
       <use xlink:href="#DejaVuSans-38" transform="translate(95.410156 0)"/>
       <use xlink:href="#DejaVuSans-38" transform="translate(159.033203 0)"/>
      </g>
     </g>
    </g>
    <g id="ytick_6">
     <g id="line2d_21">
      <path d="M 56.99 15.09278 
L 400.5 15.09278 
" clip-path="url(#p2861de9ff6)" style="fill: none; stroke-dasharray: 2.96,1.28; stroke-dashoffset: 0; stroke: #b0b0b0; stroke-opacity: 0.5; stroke-width: 0.8"/>
     </g>
     <g id="line2d_22">
      <g>
       <use xlink:href="#md9b59bf04c" x="56.99" y="15.09278" style="stroke: #000000; stroke-width: 0.8"/>
      </g>
     </g>
     <g id="text_12">
      <!-- 0.90 -->
      <g transform="translate(27.724375 18.891999) scale(0.1 -0.1)">
       <defs>
        <path id="DejaVuSans-39" d="M 703 97 
L 703 672 
Q 941 559 1184 500 
Q 1428 441 1663 441 
Q 2288 441 2617 861 
Q 2947 1281 2994 2138 
Q 2813 1869 2534 1725 
Q 2256 1581 1919 1581 
Q 1219 1581 811 2004 
Q 403 2428 403 3163 
Q 403 3881 828 4315 
Q 1253 4750 1959 4750 
Q 2769 4750 3195 4129 
Q 3622 3509 3622 2328 
Q 3622 1225 3098 567 
Q 2575 -91 1691 -91 
Q 1453 -91 1209 -44 
Q 966 3 703 97 
z
M 1959 2075 
Q 2384 2075 2632 2365 
Q 2881 2656 2881 3163 
Q 2881 3666 2632 3958 
Q 2384 4250 1959 4250 
Q 1534 4250 1286 3958 
Q 1038 3666 1038 3163 
Q 1038 2656 1286 2365 
Q 1534 2075 1959 2075 
z
" transform="scale(0.015625)"/>
       </defs>
       <use xlink:href="#DejaVuSans-30"/>
       <use xlink:href="#DejaVuSans-2e" transform="translate(63.623047 0)"/>
       <use xlink:href="#DejaVuSans-39" transform="translate(95.410156 0)"/>
       <use xlink:href="#DejaVuSans-30" transform="translate(159.033203 0)"/>
      </g>
     </g>
    </g>
    <g id="text_13">
     <!-- AUPRC -->
     <g transform="translate(21.22875 185.896823) rotate(-90) scale(0.12 -0.12)">
      <defs>
       <path id="DejaVuSans-BoldOblique-50" d="M 1044 4666 
L 3041 4666 
Q 3775 4666 4189 4330 
Q 4603 3994 4603 3397 
Q 4603 3031 4465 2701 
Q 4328 2372 4072 2125 
Q 3794 1859 3409 1739 
Q 3025 1619 2444 1619 
L 1650 1619 
L 1338 0 
L 134 0 
L 1044 4666 
z
M 2081 3794 
L 1825 2491 
L 2491 2491 
Q 2916 2491 3141 2691 
Q 3366 2891 3366 3272 
Q 3366 3525 3205 3659 
Q 3044 3794 2741 3794 
L 2081 3794 
z
" transform="scale(0.015625)"/>
      </defs>
      <use xlink:href="#DejaVuSans-BoldOblique-41"/>
      <use xlink:href="#DejaVuSans-BoldOblique-55" transform="translate(72.892578 0)"/>
      <use xlink:href="#DejaVuSans-BoldOblique-50" transform="translate(154.09375 0)"/>
      <use xlink:href="#DejaVuSans-BoldOblique-52" transform="translate(227.384766 0)"/>
      <use xlink:href="#DejaVuSans-BoldOblique-43" transform="translate(304.386719 0)"/>
     </g>
    </g>
   </g>
   <g id="line2d_23"/>
   <g id="line2d_24"/>
   <g id="line2d_25"/>
   <g id="line2d_26"/>
   <g id="line2d_27"/>
   <g id="line2d_28"/>
   <g id="line2d_29">
    <path d="M 72.604091 315.16 
L 72.604091 11.299896 
" clip-path="url(#p2861de9ff6)" style="fill: none; stroke-dasharray: 4.44,1.92; stroke-dashoffset: 0; stroke: #13578b; stroke-width: 1.2"/>
   </g>
   <g id="line2d_30">
    <path d="M 56.99 301.348177 
L 400.5 301.348177 
" clip-path="url(#p2861de9ff6)" style="fill: none; stroke-dasharray: 7.68,1.92,1.2,1.92; stroke-dashoffset: 0; stroke: #942a7f; stroke-width: 1.2"/>
   </g>
   <g id="patch_3">
    <path d="M 56.99 315.16 
L 56.99 11.299896 
" style="fill: none; stroke: #000000; stroke-width: 0.8; stroke-linejoin: miter; stroke-linecap: square"/>
   </g>
   <g id="patch_4">
    <path d="M 400.5 315.16 
L 400.5 11.299896 
" style="fill: none; stroke: #000000; stroke-width: 0.8; stroke-linejoin: miter; stroke-linecap: square"/>
   </g>
   <g id="patch_5">
    <path d="M 56.99 315.16 
L 400.5 315.16 
" style="fill: none; stroke: #000000; stroke-width: 0.8; stroke-linejoin: miter; stroke-linecap: square"/>
   </g>
   <g id="patch_6">
    <path d="M 56.99 11.299896 
L 400.5 11.299896 
" style="fill: none; stroke: #000000; stroke-width: 0.8; stroke-linejoin: miter; stroke-linecap: square"/>
   </g>
   <g id="legend_1">
    <g id="patch_7">
     <path d="M 423.9755 124.182396 
L 557.957375 124.182396 
Q 559.757375 124.182396 559.757375 122.382396 
L 559.757375 17.599896 
Q 559.757375 15.799896 557.957375 15.799896 
L 423.9755 15.799896 
Q 422.1755 15.799896 422.1755 17.599896 
L 422.1755 122.382396 
Q 422.1755 124.182396 423.9755 124.182396 
z
" style="fill: #ffffff; opacity: 0.8; stroke: #cccccc; stroke-linejoin: miter"/>
    </g>
    <g id="line2d_31">
     <defs>
      <path id="mdbb5505297" d="M 0 5 
C 1.326016 5 2.597899 4.473168 3.535534 3.535534 
C 4.473168 2.597899 5 1.326016 5 0 
C 5 -1.326016 4.473168 -2.597899 3.535534 -3.535534 
C 2.597899 -4.473168 1.326016 -5 0 -5 
C -1.326016 -5 -2.597899 -4.473168 -3.535534 -3.535534 
C -4.473168 -2.597899 -5 -1.326016 -5 0 
C -5 1.326016 -4.473168 2.597899 -3.535534 3.535534 
C -2.597899 4.473168 -1.326016 5 0 5 
z
" style="stroke: #ffffff; stroke-opacity: 0.9; stroke-width: 0.8"/>
     </defs>
     <g>
      <use xlink:href="#mdbb5505297" x="434.7755" y="23.08849" style="fill: #1b9e77; fill-opacity: 0.9; stroke: #ffffff; stroke-opacity: 0.9; stroke-width: 0.8"/>
     </g>
    </g>
    <g id="text_14">
     <!-- Single model -->
     <g transform="translate(450.9755 26.23849) scale(0.09 -0.09)">
      <defs>
       <path id="DejaVuSans-53" d="M 3425 4513 
L 3425 3897 
Q 3066 4069 2747 4153 
Q 2428 4238 2131 4238 
Q 1616 4238 1336 4038 
Q 1056 3838 1056 3469 
Q 1056 3159 1242 3001 
Q 1428 2844 1947 2747 
L 2328 2669 
Q 3034 2534 3370 2195 
Q 3706 1856 3706 1288 
Q 3706 609 3251 259 
Q 2797 -91 1919 -91 
Q 1588 -91 1214 -16 
Q 841 59 441 206 
L 441 856 
Q 825 641 1194 531 
Q 1563 422 1919 422 
Q 2459 422 2753 634 
Q 3047 847 3047 1241 
Q 3047 1584 2836 1778 
Q 2625 1972 2144 2069 
L 1759 2144 
Q 1053 2284 737 2584 
Q 422 2884 422 3419 
Q 422 4038 858 4394 
Q 1294 4750 2059 4750 
Q 2388 4750 2728 4690 
Q 3069 4631 3425 4513 
z
" transform="scale(0.015625)"/>
       <path id="DejaVuSans-69" d="M 603 3500 
L 1178 3500 
L 1178 0 
L 603 0 
L 603 3500 
z
M 603 4863 
L 1178 4863 
L 1178 4134 
L 603 4134 
L 603 4863 
z
" transform="scale(0.015625)"/>
       <path id="DejaVuSans-6e" d="M 3513 2113 
L 3513 0 
L 2938 0 
L 2938 2094 
Q 2938 2591 2744 2837 
Q 2550 3084 2163 3084 
Q 1697 3084 1428 2787 
Q 1159 2491 1159 1978 
L 1159 0 
L 581 0 
L 581 3500 
L 1159 3500 
L 1159 2956 
Q 1366 3272 1645 3428 
Q 1925 3584 2291 3584 
Q 2894 3584 3203 3211 
Q 3513 2838 3513 2113 
z
" transform="scale(0.015625)"/>
       <path id="DejaVuSans-67" d="M 2906 1791 
Q 2906 2416 2648 2759 
Q 2391 3103 1925 3103 
Q 1463 3103 1205 2759 
Q 947 2416 947 1791 
Q 947 1169 1205 825 
Q 1463 481 1925 481 
Q 2391 481 2648 825 
Q 2906 1169 2906 1791 
z
M 3481 434 
Q 3481 -459 3084 -895 
Q 2688 -1331 1869 -1331 
Q 1566 -1331 1297 -1286 
Q 1028 -1241 775 -1147 
L 775 -588 
Q 1028 -725 1275 -790 
Q 1522 -856 1778 -856 
Q 2344 -856 2625 -561 
Q 2906 -266 2906 331 
L 2906 616 
Q 2728 306 2450 153 
Q 2172 0 1784 0 
Q 1141 0 747 490 
Q 353 981 353 1791 
Q 353 2603 747 3093 
Q 1141 3584 1784 3584 
Q 2172 3584 2450 3431 
Q 2728 3278 2906 2969 
L 2906 3500 
L 3481 3500 
L 3481 434 
z
" transform="scale(0.015625)"/>
       <path id="DejaVuSans-6c" d="M 603 4863 
L 1178 4863 
L 1178 0 
L 603 0 
L 603 4863 
z
" transform="scale(0.015625)"/>
       <path id="DejaVuSans-65" d="M 3597 1894 
L 3597 1613 
L 953 1613 
Q 991 1019 1311 708 
Q 1631 397 2203 397 
Q 2534 397 2845 478 
Q 3156 559 3463 722 
L 3463 178 
Q 3153 47 2828 -22 
Q 2503 -91 2169 -91 
Q 1331 -91 842 396 
Q 353 884 353 1716 
Q 353 2575 817 3079 
Q 1281 3584 2069 3584 
Q 2775 3584 3186 3129 
Q 3597 2675 3597 1894 
z
M 3022 2063 
Q 3016 2534 2758 2815 
Q 2500 3097 2075 3097 
Q 1594 3097 1305 2825 
Q 1016 2553 972 2059 
L 3022 2063 
z
" transform="scale(0.015625)"/>
       <path id="DejaVuSans-20" transform="scale(0.015625)"/>
       <path id="DejaVuSans-6d" d="M 3328 2828 
Q 3544 3216 3844 3400 
Q 4144 3584 4550 3584 
Q 5097 3584 5394 3201 
Q 5691 2819 5691 2113 
L 5691 0 
L 5113 0 
L 5113 2094 
Q 5113 2597 4934 2840 
Q 4756 3084 4391 3084 
Q 3944 3084 3684 2787 
Q 3425 2491 3425 1978 
L 3425 0 
L 2847 0 
L 2847 2094 
Q 2847 2600 2669 2842 
Q 2491 3084 2119 3084 
Q 1678 3084 1418 2786 
Q 1159 2488 1159 1978 
L 1159 0 
L 581 0 
L 581 3500 
L 1159 3500 
L 1159 2956 
Q 1356 3278 1631 3431 
Q 1906 3584 2284 3584 
Q 2666 3584 2933 3390 
Q 3200 3197 3328 2828 
z
" transform="scale(0.015625)"/>
       <path id="DejaVuSans-6f" d="M 1959 3097 
Q 1497 3097 1228 2736 
Q 959 2375 959 1747 
Q 959 1119 1226 758 
Q 1494 397 1959 397 
Q 2419 397 2687 759 
Q 2956 1122 2956 1747 
Q 2956 2369 2687 2733 
Q 2419 3097 1959 3097 
z
M 1959 3584 
Q 2709 3584 3137 3096 
Q 3566 2609 3566 1747 
Q 3566 888 3137 398 
Q 2709 -91 1959 -91 
Q 1206 -91 779 398 
Q 353 888 353 1747 
Q 353 2609 779 3096 
Q 1206 3584 1959 3584 
z
" transform="scale(0.015625)"/>
       <path id="DejaVuSans-64" d="M 2906 2969 
L 2906 4863 
L 3481 4863 
L 3481 0 
L 2906 0 
L 2906 525 
Q 2725 213 2448 61 
Q 2172 -91 1784 -91 
Q 1150 -91 751 415 
Q 353 922 353 1747 
Q 353 2572 751 3078 
Q 1150 3584 1784 3584 
Q 2172 3584 2448 3432 
Q 2725 3281 2906 2969 
z
M 947 1747 
Q 947 1113 1208 752 
Q 1469 391 1925 391 
Q 2381 391 2643 752 
Q 2906 1113 2906 1747 
Q 2906 2381 2643 2742 
Q 2381 3103 1925 3103 
Q 1469 3103 1208 2742 
Q 947 2381 947 1747 
z
" transform="scale(0.015625)"/>
      </defs>
      <use xlink:href="#DejaVuSans-53"/>
      <use xlink:href="#DejaVuSans-69" transform="translate(63.476562 0)"/>
      <use xlink:href="#DejaVuSans-6e" transform="translate(91.259766 0)"/>
      <use xlink:href="#DejaVuSans-67" transform="translate(154.638672 0)"/>
      <use xlink:href="#DejaVuSans-6c" transform="translate(218.115234 0)"/>
      <use xlink:href="#DejaVuSans-65" transform="translate(245.898438 0)"/>
      <use xlink:href="#DejaVuSans-20" transform="translate(307.421875 0)"/>
      <use xlink:href="#DejaVuSans-6d" transform="translate(339.208984 0)"/>
      <use xlink:href="#DejaVuSans-6f" transform="translate(436.621094 0)"/>
      <use xlink:href="#DejaVuSans-64" transform="translate(497.802734 0)"/>
      <use xlink:href="#DejaVuSans-65" transform="translate(561.279297 0)"/>
      <use xlink:href="#DejaVuSans-6c" transform="translate(622.802734 0)"/>
     </g>
    </g>
    <g id="line2d_32">
     <defs>
      <path id="mb0afb5c034" d="M 0 5 
C 1.326016 5 2.597899 4.473168 3.535534 3.535534 
C 4.473168 2.597899 5 1.326016 5 0 
C 5 -1.326016 4.473168 -2.597899 3.535534 -3.535534 
C 2.597899 -4.473168 1.326016 -5 0 -5 
C -1.326016 -5 -2.597899 -4.473168 -3.535534 -3.535534 
C -4.473168 -2.597899 -5 -1.326016 -5 0 
C -5 1.326016 -4.473168 2.597899 -3.535534 3.535534 
C -2.597899 4.473168 -1.326016 5 0 5 
z
" style="stroke: #ffffff; stroke-opacity: 0.9; stroke-width: 0.8"/>
     </defs>
     <g>
      <use xlink:href="#mb0afb5c034" x="434.7755" y="36.298803" style="fill: #d95f02; fill-opacity: 0.9; stroke: #ffffff; stroke-opacity: 0.9; stroke-width: 0.8"/>
     </g>
    </g>
    <g id="text_15">
     <!-- Combo 2 -->
     <g transform="translate(450.9755 39.448803) scale(0.09 -0.09)">
      <defs>
       <path id="DejaVuSans-43" d="M 4122 4306 
L 4122 3641 
Q 3803 3938 3442 4084 
Q 3081 4231 2675 4231 
Q 1875 4231 1450 3742 
Q 1025 3253 1025 2328 
Q 1025 1406 1450 917 
Q 1875 428 2675 428 
Q 3081 428 3442 575 
Q 3803 722 4122 1019 
L 4122 359 
Q 3791 134 3420 21 
Q 3050 -91 2638 -91 
Q 1578 -91 968 557 
Q 359 1206 359 2328 
Q 359 3453 968 4101 
Q 1578 4750 2638 4750 
Q 3056 4750 3426 4639 
Q 3797 4528 4122 4306 
z
" transform="scale(0.015625)"/>
       <path id="DejaVuSans-62" d="M 3116 1747 
Q 3116 2381 2855 2742 
Q 2594 3103 2138 3103 
Q 1681 3103 1420 2742 
Q 1159 2381 1159 1747 
Q 1159 1113 1420 752 
Q 1681 391 2138 391 
Q 2594 391 2855 752 
Q 3116 1113 3116 1747 
z
M 1159 2969 
Q 1341 3281 1617 3432 
Q 1894 3584 2278 3584 
Q 2916 3584 3314 3078 
Q 3713 2572 3713 1747 
Q 3713 922 3314 415 
Q 2916 -91 2278 -91 
Q 1894 -91 1617 61 
Q 1341 213 1159 525 
L 1159 0 
L 581 0 
L 581 4863 
L 1159 4863 
L 1159 2969 
z
" transform="scale(0.015625)"/>
      </defs>
      <use xlink:href="#DejaVuSans-43"/>
      <use xlink:href="#DejaVuSans-6f" transform="translate(69.824219 0)"/>
      <use xlink:href="#DejaVuSans-6d" transform="translate(131.005859 0)"/>
      <use xlink:href="#DejaVuSans-62" transform="translate(228.417969 0)"/>
      <use xlink:href="#DejaVuSans-6f" transform="translate(291.894531 0)"/>
      <use xlink:href="#DejaVuSans-20" transform="translate(353.076172 0)"/>
      <use xlink:href="#DejaVuSans-32" transform="translate(384.863281 0)"/>
     </g>
    </g>
    <g id="line2d_33">
     <defs>
      <path id="m5a41be1c40" d="M 0 5 
C 1.326016 5 2.597899 4.473168 3.535534 3.535534 
C 4.473168 2.597899 5 1.326016 5 0 
C 5 -1.326016 4.473168 -2.597899 3.535534 -3.535534 
C 2.597899 -4.473168 1.326016 -5 0 -5 
C -1.326016 -5 -2.597899 -4.473168 -3.535534 -3.535534 
C -4.473168 -2.597899 -5 -1.326016 -5 0 
C -5 1.326016 -4.473168 2.597899 -3.535534 3.535534 
C -2.597899 4.473168 -1.326016 5 0 5 
z
" style="stroke: #ffffff; stroke-opacity: 0.9; stroke-width: 0.8"/>
     </defs>
     <g>
      <use xlink:href="#m5a41be1c40" x="434.7755" y="49.509115" style="fill: #7570b3; fill-opacity: 0.9; stroke: #ffffff; stroke-opacity: 0.9; stroke-width: 0.8"/>
     </g>
    </g>
    <g id="text_16">
     <!-- Combo 3 -->
     <g transform="translate(450.9755 52.659115) scale(0.09 -0.09)">
      <defs>
       <path id="DejaVuSans-33" d="M 2597 2516 
Q 3050 2419 3304 2112 
Q 3559 1806 3559 1356 
Q 3559 666 3084 287 
Q 2609 -91 1734 -91 
Q 1441 -91 1130 -33 
Q 819 25 488 141 
L 488 750 
Q 750 597 1062 519 
Q 1375 441 1716 441 
Q 2309 441 2620 675 
Q 2931 909 2931 1356 
Q 2931 1769 2642 2001 
Q 2353 2234 1838 2234 
L 1294 2234 
L 1294 2753 
L 1863 2753 
Q 2328 2753 2575 2939 
Q 2822 3125 2822 3475 
Q 2822 3834 2567 4026 
Q 2313 4219 1838 4219 
Q 1578 4219 1281 4162 
Q 984 4106 628 3988 
L 628 4550 
Q 988 4650 1302 4700 
Q 1616 4750 1894 4750 
Q 2613 4750 3031 4423 
Q 3450 4097 3450 3541 
Q 3450 3153 3228 2886 
Q 3006 2619 2597 2516 
z
" transform="scale(0.015625)"/>
      </defs>
      <use xlink:href="#DejaVuSans-43"/>
      <use xlink:href="#DejaVuSans-6f" transform="translate(69.824219 0)"/>
      <use xlink:href="#DejaVuSans-6d" transform="translate(131.005859 0)"/>
      <use xlink:href="#DejaVuSans-62" transform="translate(228.417969 0)"/>
      <use xlink:href="#DejaVuSans-6f" transform="translate(291.894531 0)"/>
      <use xlink:href="#DejaVuSans-20" transform="translate(353.076172 0)"/>
      <use xlink:href="#DejaVuSans-33" transform="translate(384.863281 0)"/>
     </g>
    </g>
    <g id="line2d_34">
     <defs>
      <path id="m532be26c3f" d="M 0 5 
C 1.326016 5 2.597899 4.473168 3.535534 3.535534 
C 4.473168 2.597899 5 1.326016 5 0 
C 5 -1.326016 4.473168 -2.597899 3.535534 -3.535534 
C 2.597899 -4.473168 1.326016 -5 0 -5 
C -1.326016 -5 -2.597899 -4.473168 -3.535534 -3.535534 
C -4.473168 -2.597899 -5 -1.326016 -5 0 
C -5 1.326016 -4.473168 2.597899 -3.535534 3.535534 
C -2.597899 4.473168 -1.326016 5 0 5 
z
" style="stroke: #ffffff; stroke-opacity: 0.9; stroke-width: 0.8"/>
     </defs>
     <g>
      <use xlink:href="#m532be26c3f" x="434.7755" y="62.719428" style="fill: #e7298a; fill-opacity: 0.9; stroke: #ffffff; stroke-opacity: 0.9; stroke-width: 0.8"/>
     </g>
    </g>
    <g id="text_17">
     <!-- Combo 4 -->
     <g transform="translate(450.9755 65.869428) scale(0.09 -0.09)">
      <use xlink:href="#DejaVuSans-43"/>
      <use xlink:href="#DejaVuSans-6f" transform="translate(69.824219 0)"/>
      <use xlink:href="#DejaVuSans-6d" transform="translate(131.005859 0)"/>
      <use xlink:href="#DejaVuSans-62" transform="translate(228.417969 0)"/>
      <use xlink:href="#DejaVuSans-6f" transform="translate(291.894531 0)"/>
      <use xlink:href="#DejaVuSans-20" transform="translate(353.076172 0)"/>
      <use xlink:href="#DejaVuSans-34" transform="translate(384.863281 0)"/>
     </g>
    </g>
    <g id="line2d_35">
     <defs>
      <path id="m911a393e63" d="M 0 5 
C 1.326016 5 2.597899 4.473168 3.535534 3.535534 
C 4.473168 2.597899 5 1.326016 5 0 
C 5 -1.326016 4.473168 -2.597899 3.535534 -3.535534 
C 2.597899 -4.473168 1.326016 -5 0 -5 
C -1.326016 -5 -2.597899 -4.473168 -3.535534 -3.535534 
C -4.473168 -2.597899 -5 -1.326016 -5 0 
C -5 1.326016 -4.473168 2.597899 -3.535534 3.535534 
C -2.597899 4.473168 -1.326016 5 0 5 
z
" style="stroke: #ffffff; stroke-opacity: 0.9; stroke-width: 0.8"/>
     </defs>
     <g>
      <use xlink:href="#m911a393e63" x="434.7755" y="75.92974" style="fill: #66a61e; fill-opacity: 0.9; stroke: #ffffff; stroke-opacity: 0.9; stroke-width: 0.8"/>
     </g>
    </g>
    <g id="text_18">
     <!-- Combo 5 -->
     <g transform="translate(450.9755 79.07974) scale(0.09 -0.09)">
      <defs>
       <path id="DejaVuSans-35" d="M 691 4666 
L 3169 4666 
L 3169 4134 
L 1269 4134 
L 1269 2991 
Q 1406 3038 1543 3061 
Q 1681 3084 1819 3084 
Q 2600 3084 3056 2656 
Q 3513 2228 3513 1497 
Q 3513 744 3044 326 
Q 2575 -91 1722 -91 
Q 1428 -91 1123 -41 
Q 819 9 494 109 
L 494 744 
Q 775 591 1075 516 
Q 1375 441 1709 441 
Q 2250 441 2565 725 
Q 2881 1009 2881 1497 
Q 2881 1984 2565 2268 
Q 2250 2553 1709 2553 
Q 1456 2553 1204 2497 
Q 953 2441 691 2322 
L 691 4666 
z
" transform="scale(0.015625)"/>
      </defs>
      <use xlink:href="#DejaVuSans-43"/>
      <use xlink:href="#DejaVuSans-6f" transform="translate(69.824219 0)"/>
      <use xlink:href="#DejaVuSans-6d" transform="translate(131.005859 0)"/>
      <use xlink:href="#DejaVuSans-62" transform="translate(228.417969 0)"/>
      <use xlink:href="#DejaVuSans-6f" transform="translate(291.894531 0)"/>
      <use xlink:href="#DejaVuSans-20" transform="translate(353.076172 0)"/>
      <use xlink:href="#DejaVuSans-35" transform="translate(384.863281 0)"/>
     </g>
    </g>
    <g id="line2d_36">
     <defs>
      <path id="m936e06a361" d="M 0 5 
C 1.326016 5 2.597899 4.473168 3.535534 3.535534 
C 4.473168 2.597899 5 1.326016 5 0 
C 5 -1.326016 4.473168 -2.597899 3.535534 -3.535534 
C 2.597899 -4.473168 1.326016 -5 0 -5 
C -1.326016 -5 -2.597899 -4.473168 -3.535534 -3.535534 
C -4.473168 -2.597899 -5 -1.326016 -5 0 
C -5 1.326016 -4.473168 2.597899 -3.535534 3.535534 
C -2.597899 4.473168 -1.326016 5 0 5 
z
" style="stroke: #ffffff; stroke-opacity: 0.9; stroke-width: 0.8"/>
     </defs>
     <g>
      <use xlink:href="#m936e06a361" x="434.7755" y="89.140053" style="fill: #e6ab02; fill-opacity: 0.9; stroke: #ffffff; stroke-opacity: 0.9; stroke-width: 0.8"/>
     </g>
    </g>
    <g id="text_19">
     <!-- Combo 6 -->
     <g transform="translate(450.9755 92.290053) scale(0.09 -0.09)">
      <use xlink:href="#DejaVuSans-43"/>
      <use xlink:href="#DejaVuSans-6f" transform="translate(69.824219 0)"/>
      <use xlink:href="#DejaVuSans-6d" transform="translate(131.005859 0)"/>
      <use xlink:href="#DejaVuSans-62" transform="translate(228.417969 0)"/>
      <use xlink:href="#DejaVuSans-6f" transform="translate(291.894531 0)"/>
      <use xlink:href="#DejaVuSans-20" transform="translate(353.076172 0)"/>
      <use xlink:href="#DejaVuSans-36" transform="translate(384.863281 0)"/>
     </g>
    </g>
    <g id="line2d_37">
     <path d="M 425.7755 102.350365 
L 434.7755 102.350365 
L 443.7755 102.350365 
" style="fill: none; stroke-dasharray: 4.44,1.92; stroke-dashoffset: 0; stroke: #13578b; stroke-width: 1.2"/>
    </g>
    <g id="text_20">
     <!-- AUROC threshold = 0.8 -->
     <g transform="translate(450.9755 105.500365) scale(0.09 -0.09)">
      <defs>
       <path id="DejaVuSans-41" d="M 2188 4044 
L 1331 1722 
L 3047 1722 
L 2188 4044 
z
M 1831 4666 
L 2547 4666 
L 4325 0 
L 3669 0 
L 3244 1197 
L 1141 1197 
L 716 0 
L 50 0 
L 1831 4666 
z
" transform="scale(0.015625)"/>
       <path id="DejaVuSans-55" d="M 556 4666 
L 1191 4666 
L 1191 1831 
Q 1191 1081 1462 751 
Q 1734 422 2344 422 
Q 2950 422 3222 751 
Q 3494 1081 3494 1831 
L 3494 4666 
L 4128 4666 
L 4128 1753 
Q 4128 841 3676 375 
Q 3225 -91 2344 -91 
Q 1459 -91 1007 375 
Q 556 841 556 1753 
L 556 4666 
z
" transform="scale(0.015625)"/>
       <path id="DejaVuSans-52" d="M 2841 2188 
Q 3044 2119 3236 1894 
Q 3428 1669 3622 1275 
L 4263 0 
L 3584 0 
L 2988 1197 
Q 2756 1666 2539 1819 
Q 2322 1972 1947 1972 
L 1259 1972 
L 1259 0 
L 628 0 
L 628 4666 
L 2053 4666 
Q 2853 4666 3247 4331 
Q 3641 3997 3641 3322 
Q 3641 2881 3436 2590 
Q 3231 2300 2841 2188 
z
M 1259 4147 
L 1259 2491 
L 2053 2491 
Q 2509 2491 2742 2702 
Q 2975 2913 2975 3322 
Q 2975 3731 2742 3939 
Q 2509 4147 2053 4147 
L 1259 4147 
z
" transform="scale(0.015625)"/>
       <path id="DejaVuSans-4f" d="M 2522 4238 
Q 1834 4238 1429 3725 
Q 1025 3213 1025 2328 
Q 1025 1447 1429 934 
Q 1834 422 2522 422 
Q 3209 422 3611 934 
Q 4013 1447 4013 2328 
Q 4013 3213 3611 3725 
Q 3209 4238 2522 4238 
z
M 2522 4750 
Q 3503 4750 4090 4092 
Q 4678 3434 4678 2328 
Q 4678 1225 4090 567 
Q 3503 -91 2522 -91 
Q 1538 -91 948 565 
Q 359 1222 359 2328 
Q 359 3434 948 4092 
Q 1538 4750 2522 4750 
z
" transform="scale(0.015625)"/>
       <path id="DejaVuSans-74" d="M 1172 4494 
L 1172 3500 
L 2356 3500 
L 2356 3053 
L 1172 3053 
L 1172 1153 
Q 1172 725 1289 603 
Q 1406 481 1766 481 
L 2356 481 
L 2356 0 
L 1766 0 
Q 1100 0 847 248 
Q 594 497 594 1153 
L 594 3053 
L 172 3053 
L 172 3500 
L 594 3500 
L 594 4494 
L 1172 4494 
z
" transform="scale(0.015625)"/>
       <path id="DejaVuSans-68" d="M 3513 2113 
L 3513 0 
L 2938 0 
L 2938 2094 
Q 2938 2591 2744 2837 
Q 2550 3084 2163 3084 
Q 1697 3084 1428 2787 
Q 1159 2491 1159 1978 
L 1159 0 
L 581 0 
L 581 4863 
L 1159 4863 
L 1159 2956 
Q 1366 3272 1645 3428 
Q 1925 3584 2291 3584 
Q 2894 3584 3203 3211 
Q 3513 2838 3513 2113 
z
" transform="scale(0.015625)"/>
       <path id="DejaVuSans-72" d="M 2631 2963 
Q 2534 3019 2420 3045 
Q 2306 3072 2169 3072 
Q 1681 3072 1420 2755 
Q 1159 2438 1159 1844 
L 1159 0 
L 581 0 
L 581 3500 
L 1159 3500 
L 1159 2956 
Q 1341 3275 1631 3429 
Q 1922 3584 2338 3584 
Q 2397 3584 2469 3576 
Q 2541 3569 2628 3553 
L 2631 2963 
z
" transform="scale(0.015625)"/>
       <path id="DejaVuSans-73" d="M 2834 3397 
L 2834 2853 
Q 2591 2978 2328 3040 
Q 2066 3103 1784 3103 
Q 1356 3103 1142 2972 
Q 928 2841 928 2578 
Q 928 2378 1081 2264 
Q 1234 2150 1697 2047 
L 1894 2003 
Q 2506 1872 2764 1633 
Q 3022 1394 3022 966 
Q 3022 478 2636 193 
Q 2250 -91 1575 -91 
Q 1294 -91 989 -36 
Q 684 19 347 128 
L 347 722 
Q 666 556 975 473 
Q 1284 391 1588 391 
Q 1994 391 2212 530 
Q 2431 669 2431 922 
Q 2431 1156 2273 1281 
Q 2116 1406 1581 1522 
L 1381 1569 
Q 847 1681 609 1914 
Q 372 2147 372 2553 
Q 372 3047 722 3315 
Q 1072 3584 1716 3584 
Q 2034 3584 2315 3537 
Q 2597 3491 2834 3397 
z
" transform="scale(0.015625)"/>
       <path id="DejaVuSans-3d" d="M 678 2906 
L 4684 2906 
L 4684 2381 
L 678 2381 
L 678 2906 
z
M 678 1631 
L 4684 1631 
L 4684 1100 
L 678 1100 
L 678 1631 
z
" transform="scale(0.015625)"/>
      </defs>
      <use xlink:href="#DejaVuSans-41"/>
      <use xlink:href="#DejaVuSans-55" transform="translate(68.408203 0)"/>
      <use xlink:href="#DejaVuSans-52" transform="translate(141.601562 0)"/>
      <use xlink:href="#DejaVuSans-4f" transform="translate(211.083984 0)"/>
      <use xlink:href="#DejaVuSans-43" transform="translate(289.794922 0)"/>
      <use xlink:href="#DejaVuSans-20" transform="translate(359.619141 0)"/>
      <use xlink:href="#DejaVuSans-74" transform="translate(391.40625 0)"/>
      <use xlink:href="#DejaVuSans-68" transform="translate(430.615234 0)"/>
      <use xlink:href="#DejaVuSans-72" transform="translate(493.994141 0)"/>
      <use xlink:href="#DejaVuSans-65" transform="translate(532.857422 0)"/>
      <use xlink:href="#DejaVuSans-73" transform="translate(594.380859 0)"/>
      <use xlink:href="#DejaVuSans-68" transform="translate(646.480469 0)"/>
      <use xlink:href="#DejaVuSans-6f" transform="translate(709.859375 0)"/>
      <use xlink:href="#DejaVuSans-6c" transform="translate(771.041016 0)"/>
      <use xlink:href="#DejaVuSans-64" transform="translate(798.824219 0)"/>
      <use xlink:href="#DejaVuSans-20" transform="translate(862.300781 0)"/>
      <use xlink:href="#DejaVuSans-3d" transform="translate(894.087891 0)"/>
      <use xlink:href="#DejaVuSans-20" transform="translate(977.876953 0)"/>
      <use xlink:href="#DejaVuSans-30" transform="translate(1009.664062 0)"/>
      <use xlink:href="#DejaVuSans-2e" transform="translate(1073.287109 0)"/>
      <use xlink:href="#DejaVuSans-38" transform="translate(1105.074219 0)"/>
     </g>
    </g>
    <g id="line2d_38">
     <path d="M 425.7755 115.560678 
L 434.7755 115.560678 
L 443.7755 115.560678 
" style="fill: none; stroke-dasharray: 7.68,1.92,1.2,1.92; stroke-dashoffset: 0; stroke: #942a7f; stroke-width: 1.2"/>
    </g>
    <g id="text_21">
     <!-- AUPRC threshold = 0.8 -->
     <g transform="translate(450.9755 118.710678) scale(0.09 -0.09)">
      <defs>
       <path id="DejaVuSans-50" d="M 1259 4147 
L 1259 2394 
L 2053 2394 
Q 2494 2394 2734 2622 
Q 2975 2850 2975 3272 
Q 2975 3691 2734 3919 
Q 2494 4147 2053 4147 
L 1259 4147 
z
M 628 4666 
L 2053 4666 
Q 2838 4666 3239 4311 
Q 3641 3956 3641 3272 
Q 3641 2581 3239 2228 
Q 2838 1875 2053 1875 
L 1259 1875 
L 1259 0 
L 628 0 
L 628 4666 
z
" transform="scale(0.015625)"/>
      </defs>
      <use xlink:href="#DejaVuSans-41"/>
      <use xlink:href="#DejaVuSans-55" transform="translate(68.408203 0)"/>
      <use xlink:href="#DejaVuSans-50" transform="translate(141.601562 0)"/>
      <use xlink:href="#DejaVuSans-52" transform="translate(201.904297 0)"/>
      <use xlink:href="#DejaVuSans-43" transform="translate(266.386719 0)"/>
      <use xlink:href="#DejaVuSans-20" transform="translate(336.210938 0)"/>
      <use xlink:href="#DejaVuSans-74" transform="translate(367.998047 0)"/>
      <use xlink:href="#DejaVuSans-68" transform="translate(407.207031 0)"/>
      <use xlink:href="#DejaVuSans-72" transform="translate(470.585938 0)"/>
      <use xlink:href="#DejaVuSans-65" transform="translate(509.449219 0)"/>
      <use xlink:href="#DejaVuSans-73" transform="translate(570.972656 0)"/>
      <use xlink:href="#DejaVuSans-68" transform="translate(623.072266 0)"/>
      <use xlink:href="#DejaVuSans-6f" transform="translate(686.451172 0)"/>
      <use xlink:href="#DejaVuSans-6c" transform="translate(747.632812 0)"/>
      <use xlink:href="#DejaVuSans-64" transform="translate(775.416016 0)"/>
      <use xlink:href="#DejaVuSans-20" transform="translate(838.892578 0)"/>
      <use xlink:href="#DejaVuSans-3d" transform="translate(870.679688 0)"/>
      <use xlink:href="#DejaVuSans-20" transform="translate(954.46875 0)"/>
      <use xlink:href="#DejaVuSans-30" transform="translate(986.255859 0)"/>
      <use xlink:href="#DejaVuSans-2e" transform="translate(1049.878906 0)"/>
      <use xlink:href="#DejaVuSans-38" transform="translate(1081.666016 0)"/>
     </g>
    </g>
   </g>
  </g>
 </g>
 <defs>
  <clipPath id="p2861de9ff6">
   <rect x="56.99" y="11.299896" width="343.51" height="303.860104"/>
  </clipPath>
 </defs>
</svg>
