<?xml version='1.0' encoding='ASCII' standalone='yes'?>
<svg xmlns="http://www.w3.org/2000/svg" xmlns:xlink="http://www.w3.org/1999/xlink" version="1.1">
  <g>
    <g transform="translate(0, 0) scale(1 1) translate(0, 0) scale(0.65 0.65) "><!-- END OF HEADER -->
<path class="bond-1 atom-1 atom-2" d="M 92.5,113.1 L 125.9,151.3 L 123.1,159.3 L 84.2,114.7 Z" style="fill:#3F68E0;fill-rule:evenodd;fill-opacity:1;stroke:#3F68E0;stroke-width:0.0px;stroke-linecap:butt;stroke-linejoin:miter;stroke-opacity:1;"/>
<path class="bond-15 atom-1 atom-15" d="M 175.7,141.5 L 181.3,147.9 L 123.1,159.3 L 125.9,151.3 Z" style="fill:#3F68E0;fill-rule:evenodd;fill-opacity:1;stroke:#3F68E0;stroke-width:0.0px;stroke-linecap:butt;stroke-linejoin:miter;stroke-opacity:1;"/>
<path class="bond-2 atom-2 atom-3" d="M 103.4,58.6 L 108.9,65.0 L 92.5,113.1 L 84.2,114.7 Z" style="fill:#3F68E0;fill-rule:evenodd;fill-opacity:1;stroke:#3F68E0;stroke-width:0.0px;stroke-linecap:butt;stroke-linejoin:miter;stroke-opacity:1;"/>
<path class="bond-4 atom-3 atom-5" d="M 161.5,47.2 L 158.8,55.2 L 108.9,65.0 L 103.4,58.6 Z" style="fill:#3F68E0;fill-rule:evenodd;fill-opacity:1;stroke:#3F68E0;stroke-width:0.0px;stroke-linecap:butt;stroke-linejoin:miter;stroke-opacity:1;"/>
<path class="bond-5 atom-5 atom-6" d="M 161.5,47.2 L 197.7,88.7 L 196.3,92.7 L 192.1,93.5 L 158.8,55.2 Z" style="fill:#3F68E0;fill-rule:evenodd;fill-opacity:1;stroke:#3F68E0;stroke-width:0.0px;stroke-linecap:butt;stroke-linejoin:miter;stroke-opacity:1;"/>
<path class="bond-6 atom-6 atom-7" d="M 251.7,78.1 L 248.9,86.1 L 199.1,95.9 L 196.3,92.7 L 197.7,88.7 Z" style="fill:#3F68E0;fill-rule:evenodd;fill-opacity:1;stroke:#3F68E0;stroke-width:0.0px;stroke-linecap:butt;stroke-linejoin:miter;stroke-opacity:1;"/>
<path class="bond-14 atom-6 atom-15" d="M 196.3,92.7 L 199.1,95.9 L 181.3,147.9 L 175.7,141.5 L 192.1,93.5 Z" style="fill:#3F68E0;fill-rule:evenodd;fill-opacity:1;stroke:#3F68E0;stroke-width:0.0px;stroke-linecap:butt;stroke-linejoin:miter;stroke-opacity:1;"/>
<path class="bond-7 atom-7 atom-8" d="M 251.7,78.1 L 287.8,119.5 L 285.1,127.6 L 248.9,86.1 Z" style="fill:#3F68E0;fill-rule:evenodd;fill-opacity:1;stroke:#3F68E0;stroke-width:0.0px;stroke-linecap:butt;stroke-linejoin:miter;stroke-opacity:1;"/>
<path class="bond-8 atom-8 atom-9" d="M 337.6,109.8 L 340.4,113.0 L 339.1,117.0 L 285.1,127.6 L 287.8,119.5 Z" style="fill:#3F68E0;fill-rule:evenodd;fill-opacity:1;stroke:#3F68E0;stroke-width:0.0px;stroke-linecap:butt;stroke-linejoin:miter;stroke-opacity:1;"/>
<path class="bond-9 atom-9 atom-10" d="M 344.6,112.1 L 378.0,150.4 L 375.2,158.4 L 339.1,117.0 L 340.4,113.0 Z" style="fill:#3F68E0;fill-rule:evenodd;fill-opacity:1;stroke:#3F68E0;stroke-width:0.0px;stroke-linecap:butt;stroke-linejoin:miter;stroke-opacity:1;"/>
<path class="bond-16 atom-9 atom-14" d="M 355.5,57.7 L 361.0,64.1 L 344.6,112.1 L 340.4,113.0 L 337.6,109.8 Z" style="fill:#3F68E0;fill-rule:evenodd;fill-opacity:1;stroke:#3F68E0;stroke-width:0.0px;stroke-linecap:butt;stroke-linejoin:miter;stroke-opacity:1;"/>
<path class="bond-10 atom-10 atom-11" d="M 427.8,140.6 L 433.4,147.0 L 375.2,158.4 L 378.0,150.4 Z" style="fill:#3F68E0;fill-rule:evenodd;fill-opacity:1;stroke:#3F68E0;stroke-width:0.0px;stroke-linecap:butt;stroke-linejoin:miter;stroke-opacity:1;"/>
<path class="bond-11 atom-11 atom-12" d="M 452.6,91.0 L 433.4,147.0 L 427.8,140.6 L 444.2,92.6 Z" style="fill:#3F68E0;fill-rule:evenodd;fill-opacity:1;stroke:#3F68E0;stroke-width:0.0px;stroke-linecap:butt;stroke-linejoin:miter;stroke-opacity:1;"/>
<path class="bond-12 atom-12 atom-13" d="M 413.6,46.3 L 452.6,91.0 L 444.2,92.6 L 410.9,54.3 Z" style="fill:#3F68E0;fill-rule:evenodd;fill-opacity:1;stroke:#3F68E0;stroke-width:0.0px;stroke-linecap:butt;stroke-linejoin:miter;stroke-opacity:1;"/>
<path class="bond-13 atom-13 atom-14" d="M 413.6,46.3 L 410.9,54.3 L 361.0,64.1 L 355.5,57.7 Z" style="fill:#3F68E0;fill-rule:evenodd;fill-opacity:1;stroke:#3F68E0;stroke-width:0.0px;stroke-linecap:butt;stroke-linejoin:miter;stroke-opacity:1;"/>
<path class="bond-0 atom-0 atom-1" d="M 110.0,197.7 L 117.3,176.5" style="fill:none;fill-rule:evenodd;stroke:#FF0000;stroke-width:2.0px;stroke-linecap:butt;stroke-linejoin:miter;stroke-opacity:1"/>
<path class="bond-0 atom-0 atom-1" d="M 117.3,176.5 L 124.5,155.3" style="fill:none;fill-rule:evenodd;stroke:#000000;stroke-width:2.0px;stroke-linecap:butt;stroke-linejoin:miter;stroke-opacity:1"/>
<path class="bond-1 atom-1 atom-2" d="M 124.5,155.3 L 88.3,113.9" style="fill:none;fill-rule:evenodd;stroke:#000000;stroke-width:2.0px;stroke-linecap:butt;stroke-linejoin:miter;stroke-opacity:1"/>
<path class="bond-1 atom-1 atom-2" d="M 127.6,146.3 L 97.7,112.0" style="fill:none;fill-rule:evenodd;stroke:#000000;stroke-width:2.0px;stroke-linecap:butt;stroke-linejoin:miter;stroke-opacity:1"/>
<path class="bond-2 atom-2 atom-3" d="M 88.3,113.9 L 106.2,61.8" style="fill:none;fill-rule:evenodd;stroke:#000000;stroke-width:2.0px;stroke-linecap:butt;stroke-linejoin:miter;stroke-opacity:1"/>
<path class="bond-3 atom-3 atom-4" d="M 106.2,61.8 L 92.4,46.1" style="fill:none;fill-rule:evenodd;stroke:#000000;stroke-width:2.0px;stroke-linecap:butt;stroke-linejoin:miter;stroke-opacity:1"/>
<path class="bond-3 atom-3 atom-4" d="M 92.4,46.1 L 78.7,30.3" style="fill:none;fill-rule:evenodd;stroke:#FF0000;stroke-width:2.0px;stroke-linecap:butt;stroke-linejoin:miter;stroke-opacity:1"/>
<path class="bond-4 atom-3 atom-5" d="M 106.2,61.8 L 160.1,51.2" style="fill:none;fill-rule:evenodd;stroke:#000000;stroke-width:2.0px;stroke-linecap:butt;stroke-linejoin:miter;stroke-opacity:1"/>
<path class="bond-4 atom-3 atom-5" d="M 112.4,69.0 L 157.0,60.3" style="fill:none;fill-rule:evenodd;stroke:#000000;stroke-width:2.0px;stroke-linecap:butt;stroke-linejoin:miter;stroke-opacity:1"/>
<path class="bond-5 atom-5 atom-6" d="M 160.1,51.2 L 196.3,92.7" style="fill:none;fill-rule:evenodd;stroke:#000000;stroke-width:2.0px;stroke-linecap:butt;stroke-linejoin:miter;stroke-opacity:1"/>
<path class="bond-6 atom-6 atom-7" d="M 196.3,92.7 L 250.3,82.1" style="fill:none;fill-rule:evenodd;stroke:#000000;stroke-width:2.0px;stroke-linecap:butt;stroke-linejoin:miter;stroke-opacity:1"/>
<path class="bond-7 atom-7 atom-8" d="M 250.3,82.1 L 286.4,123.6" style="fill:none;fill-rule:evenodd;stroke:#000000;stroke-width:2.0px;stroke-linecap:butt;stroke-linejoin:miter;stroke-opacity:1"/>
<path class="bond-7 atom-7 atom-8" d="M 247.2,91.1 L 280.2,129.0" style="fill:none;fill-rule:evenodd;stroke:#000000;stroke-width:2.0px;stroke-linecap:butt;stroke-linejoin:miter;stroke-opacity:1"/>
<path class="bond-8 atom-8 atom-9" d="M 286.4,123.6 L 340.4,113.0" style="fill:none;fill-rule:evenodd;stroke:#000000;stroke-width:2.0px;stroke-linecap:butt;stroke-linejoin:miter;stroke-opacity:1"/>
<path class="bond-9 atom-9 atom-10" d="M 340.4,113.0 L 376.6,154.4" style="fill:none;fill-rule:evenodd;stroke:#000000;stroke-width:2.0px;stroke-linecap:butt;stroke-linejoin:miter;stroke-opacity:1"/>
<path class="bond-9 atom-9 atom-10" d="M 349.8,111.1 L 379.7,145.4" style="fill:none;fill-rule:evenodd;stroke:#000000;stroke-width:2.0px;stroke-linecap:butt;stroke-linejoin:miter;stroke-opacity:1"/>
<path class="bond-10 atom-10 atom-11" d="M 376.6,154.4 L 430.6,143.8" style="fill:none;fill-rule:evenodd;stroke:#000000;stroke-width:2.0px;stroke-linecap:butt;stroke-linejoin:miter;stroke-opacity:1"/>
<path class="bond-11 atom-11 atom-12" d="M 430.6,143.8 L 448.4,91.8" style="fill:none;fill-rule:evenodd;stroke:#000000;stroke-width:2.0px;stroke-linecap:butt;stroke-linejoin:miter;stroke-opacity:1"/>
<path class="bond-11 atom-11 atom-12" d="M 424.3,136.6 L 439.0,93.6" style="fill:none;fill-rule:evenodd;stroke:#000000;stroke-width:2.0px;stroke-linecap:butt;stroke-linejoin:miter;stroke-opacity:1"/>
<path class="bond-12 atom-12 atom-13" d="M 448.4,91.8 L 412.2,50.3" style="fill:none;fill-rule:evenodd;stroke:#000000;stroke-width:2.0px;stroke-linecap:butt;stroke-linejoin:miter;stroke-opacity:1"/>
<path class="bond-13 atom-13 atom-14" d="M 412.2,50.3 L 358.2,60.9" style="fill:none;fill-rule:evenodd;stroke:#000000;stroke-width:2.0px;stroke-linecap:butt;stroke-linejoin:miter;stroke-opacity:1"/>
<path class="bond-13 atom-13 atom-14" d="M 409.1,59.3 L 364.5,68.1" style="fill:none;fill-rule:evenodd;stroke:#000000;stroke-width:2.0px;stroke-linecap:butt;stroke-linejoin:miter;stroke-opacity:1"/>
<path class="bond-14 atom-6 atom-15" d="M 196.3,92.7 L 178.5,144.7" style="fill:none;fill-rule:evenodd;stroke:#000000;stroke-width:2.0px;stroke-linecap:butt;stroke-linejoin:miter;stroke-opacity:1"/>
<path class="bond-14 atom-6 atom-15" d="M 186.9,94.5 L 172.2,137.6" style="fill:none;fill-rule:evenodd;stroke:#000000;stroke-width:2.0px;stroke-linecap:butt;stroke-linejoin:miter;stroke-opacity:1"/>
<path class="bond-15 atom-15 atom-1" d="M 178.5,144.7 L 124.5,155.3" style="fill:none;fill-rule:evenodd;stroke:#000000;stroke-width:2.0px;stroke-linecap:butt;stroke-linejoin:miter;stroke-opacity:1"/>
<path class="bond-16 atom-14 atom-9" d="M 358.2,60.9 L 340.4,113.0" style="fill:none;fill-rule:evenodd;stroke:#000000;stroke-width:2.0px;stroke-linecap:butt;stroke-linejoin:miter;stroke-opacity:1"/>
<path d="M 90.1,116.0 L 88.3,113.9 L 89.2,111.3" style="fill:none;stroke:#000000;stroke-width:2.0px;stroke-linecap:butt;stroke-linejoin:miter;stroke-opacity:1;"/>
<path d="M 157.4,51.8 L 160.1,51.2 L 161.9,53.3" style="fill:none;stroke:#000000;stroke-width:2.0px;stroke-linecap:butt;stroke-linejoin:miter;stroke-opacity:1;"/>
<path d="M 247.6,82.6 L 250.3,82.1 L 252.1,84.2" style="fill:none;stroke:#000000;stroke-width:2.0px;stroke-linecap:butt;stroke-linejoin:miter;stroke-opacity:1;"/>
<path d="M 284.6,121.5 L 286.4,123.6 L 289.1,123.0" style="fill:none;stroke:#000000;stroke-width:2.0px;stroke-linecap:butt;stroke-linejoin:miter;stroke-opacity:1;"/>
<path d="M 374.8,152.3 L 376.6,154.4 L 379.3,153.9" style="fill:none;stroke:#000000;stroke-width:2.0px;stroke-linecap:butt;stroke-linejoin:miter;stroke-opacity:1;"/>
<path d="M 427.9,144.3 L 430.6,143.8 L 431.5,141.2" style="fill:none;stroke:#000000;stroke-width:2.0px;stroke-linecap:butt;stroke-linejoin:miter;stroke-opacity:1;"/>
<path d="M 447.5,94.4 L 448.4,91.8 L 446.6,89.7" style="fill:none;stroke:#000000;stroke-width:2.0px;stroke-linecap:butt;stroke-linejoin:miter;stroke-opacity:1;"/>
<path d="M 414.0,52.4 L 412.2,50.3 L 409.5,50.8" style="fill:none;stroke:#000000;stroke-width:2.0px;stroke-linecap:butt;stroke-linejoin:miter;stroke-opacity:1;"/>
<path d="M 360.9,60.4 L 358.2,60.9 L 357.4,63.5" style="fill:none;stroke:#000000;stroke-width:2.0px;stroke-linecap:butt;stroke-linejoin:miter;stroke-opacity:1;"/>
<path d="M 179.4,142.1 L 178.5,144.7 L 175.8,145.3" style="fill:none;stroke:#000000;stroke-width:2.0px;stroke-linecap:butt;stroke-linejoin:miter;stroke-opacity:1;"/>
<path class="atom-0" d="M 99.5 207.4 Q 99.5 203.7, 101.4 201.6 Q 103.2 199.5, 106.7 199.5 Q 110.1 199.5, 112.0 201.6 Q 113.8 203.7, 113.8 207.4 Q 113.8 211.2, 112.0 213.4 Q 110.1 215.5, 106.7 215.5 Q 103.3 215.5, 101.4 213.4 Q 99.5 211.2, 99.5 207.4 M 106.7 213.7 Q 109.1 213.7, 110.3 212.2 Q 111.6 210.5, 111.6 207.4 Q 111.6 204.4, 110.3 202.8 Q 109.1 201.3, 106.7 201.3 Q 104.3 201.3, 103.0 202.8 Q 101.7 204.3, 101.7 207.4 Q 101.7 210.6, 103.0 212.2 Q 104.3 213.7, 106.7 213.7 " fill="#FF0000"/>
<path class="atom-0" d="M 116.3 199.7 L 118.4 199.7 L 118.4 206.3 L 126.3 206.3 L 126.3 199.7 L 128.5 199.7 L 128.5 215.3 L 126.3 215.3 L 126.3 208.1 L 118.4 208.1 L 118.4 215.3 L 116.3 215.3 L 116.3 199.7 " fill="#FF0000"/>
<path class="atom-4" d="M 47.4 12.7 L 49.6 12.7 L 49.6 19.3 L 57.5 19.3 L 57.5 12.7 L 59.6 12.7 L 59.6 28.3 L 57.5 28.3 L 57.5 21.1 L 49.6 21.1 L 49.6 28.3 L 47.4 28.3 L 47.4 12.7 " fill="#FF0000"/>
<path class="atom-4" d="M 62.8 20.4 Q 62.8 16.7, 64.7 14.6 Q 66.5 12.5, 70.0 12.5 Q 73.4 12.5, 75.3 14.6 Q 77.1 16.7, 77.1 20.4 Q 77.1 24.2, 75.3 26.4 Q 73.4 28.5, 70.0 28.5 Q 66.6 28.5, 64.7 26.4 Q 62.8 24.2, 62.8 20.4 M 70.0 26.7 Q 72.4 26.7, 73.6 25.2 Q 74.9 23.5, 74.9 20.4 Q 74.9 17.4, 73.6 15.8 Q 72.4 14.3, 70.0 14.3 Q 67.6 14.3, 66.3 15.8 Q 65.0 17.3, 65.0 20.4 Q 65.0 23.6, 66.3 25.2 Q 67.6 26.7, 70.0 26.7 " fill="#FF0000"/>
<path class="legend" d="M 186.3 218.4 Q 188.8 218.4, 190.0 219.5 Q 191.2 220.6, 191.2 222.6 Q 191.2 224.5, 189.9 225.7 Q 188.7 226.8, 186.3 226.8 L 184.1 226.8 L 184.1 232.6 L 182.2 232.6 L 182.2 218.4 L 186.3 218.4 M 186.3 225.2 Q 187.7 225.2, 188.5 224.5 Q 189.2 223.8, 189.2 222.6 Q 189.2 221.3, 188.5 220.7 Q 187.7 220.0, 186.3 220.0 L 184.1 220.0 L 184.1 225.2 L 186.3 225.2 " fill="#000000"/>
<path class="legend" d="M 192.8 218.4 L 194.6 218.4 L 194.6 220.2 L 192.8 220.2 L 192.8 218.4 M 192.8 222.3 L 194.6 222.3 L 194.6 232.6 L 192.8 232.6 L 192.8 222.3 " fill="#000000"/>
<path class="legend" d="M 202.4 222.1 Q 204.0 222.1, 204.9 223.1 Q 205.8 224.0, 205.8 225.8 L 205.8 232.6 L 203.9 232.6 L 203.9 225.9 Q 203.9 224.7, 203.4 224.2 Q 202.9 223.6, 201.9 223.6 Q 201.0 223.6, 200.2 224.0 Q 199.4 224.5, 198.9 225.2 L 198.9 232.6 L 197.0 232.6 L 197.0 222.3 L 198.6 222.3 L 198.8 223.7 Q 200.2 222.1, 202.4 222.1 " fill="#000000"/>
<path class="legend" d="M 208.0 227.4 Q 208.0 224.9, 209.2 223.5 Q 210.5 222.1, 212.8 222.1 Q 215.2 222.1, 216.4 223.5 Q 217.7 224.9, 217.7 227.4 Q 217.7 229.9, 216.4 231.3 Q 215.2 232.7, 212.8 232.7 Q 210.5 232.7, 209.2 231.3 Q 208.0 229.9, 208.0 227.4 M 209.9 227.4 Q 209.9 229.3, 210.6 230.3 Q 211.4 231.3, 212.8 231.3 Q 214.3 231.3, 215.0 230.3 Q 215.8 229.3, 215.8 227.4 Q 215.8 225.5, 215.0 224.6 Q 214.3 223.6, 212.8 223.6 Q 211.4 223.6, 210.6 224.6 Q 209.9 225.5, 209.9 227.4 " fill="#000000"/>
<path class="legend" d="M 219.9 230.5 Q 220.8 230.8, 221.4 231.0 Q 222.1 231.2, 222.8 231.2 Q 223.7 231.2, 224.2 230.8 Q 224.7 230.4, 224.7 229.7 Q 224.7 229.2, 224.4 229.0 Q 224.2 228.7, 223.8 228.5 Q 223.5 228.4, 222.6 228.1 Q 222.5 228.0, 221.5 227.7 Q 220.6 227.4, 220.1 226.7 Q 219.6 226.0, 219.6 225.0 Q 219.6 223.8, 220.6 223.0 Q 221.6 222.1, 223.4 222.1 Q 224.2 222.1, 224.9 222.3 Q 225.6 222.5, 226.3 222.8 L 225.8 224.3 Q 225.2 224.0, 224.6 223.8 Q 224.0 223.7, 223.4 223.7 Q 222.5 223.7, 222.0 224.1 Q 221.5 224.4, 221.5 225.0 Q 221.5 225.6, 221.9 225.9 Q 222.3 226.1, 223.1 226.4 Q 223.3 226.5, 223.5 226.6 L 224.0 226.7 Q 224.8 227.0, 225.3 227.3 Q 225.9 227.6, 226.2 228.2 Q 226.6 228.7, 226.6 229.7 Q 226.6 231.1, 225.5 232.0 Q 224.5 232.8, 222.8 232.8 Q 221.8 232.8, 221.0 232.6 Q 220.1 232.3, 219.3 232.0 L 219.9 230.5 " fill="#000000"/>
<path class="legend" d="M 236.2 222.3 L 238.0 222.3 L 232.7 237.5 L 231.0 237.5 L 232.7 232.6 L 231.9 232.6 L 228.3 222.3 L 230.2 222.3 L 233.3 231.0 L 236.2 222.3 " fill="#000000"/>
<path class="legend" d="M 238.9 217.4 L 240.7 217.4 L 240.7 232.6 L 238.9 232.6 L 238.9 217.4 " fill="#000000"/>
<path class="legend" d="M 250.9 222.3 L 252.7 222.3 L 249.1 232.6 L 246.8 232.6 L 243.1 222.3 L 245.1 222.3 L 248.0 230.9 L 250.9 222.3 " fill="#000000"/>
<path class="legend" d="M 253.6 218.4 L 255.4 218.4 L 255.4 220.2 L 253.6 220.2 L 253.6 218.4 M 253.6 222.3 L 255.4 222.3 L 255.4 232.6 L 253.6 232.6 L 253.6 222.3 " fill="#000000"/>
<path class="legend" d="M 263.2 222.1 Q 264.8 222.1, 265.7 223.1 Q 266.6 224.0, 266.6 225.8 L 266.6 232.6 L 264.7 232.6 L 264.7 225.9 Q 264.7 224.7, 264.2 224.2 Q 263.7 223.6, 262.7 223.6 Q 261.8 223.6, 261.0 224.0 Q 260.2 224.5, 259.7 225.2 L 259.7 232.6 L 257.8 232.6 L 257.8 222.3 L 259.4 222.3 L 259.6 223.7 Q 261.0 222.1, 263.2 222.1 " fill="#000000"/>
<path class="legend" d="" fill="#000000"/>
<path class="legend" d="M 276.1 226.9 Q 276.1 224.0, 276.9 221.7 Q 277.8 219.3, 279.4 216.7 L 280.5 217.5 Q 279.2 219.8, 278.5 222.0 Q 277.9 224.1, 277.9 226.9 Q 277.9 229.6, 278.5 231.7 Q 279.2 233.8, 280.5 236.3 L 279.4 237.0 Q 277.8 234.5, 276.9 232.1 Q 276.1 229.8, 276.1 226.9 " fill="#000000"/>
<path class="legend" d="M 286.0 220.0 L 281.7 220.0 L 281.7 218.4 L 292.1 218.4 L 292.1 220.0 L 288.0 220.0 L 288.0 232.6 L 286.0 232.6 L 286.0 220.0 " fill="#000000"/>
<path class="legend" d="M 293.5 231.0 L 296.6 231.0 L 296.6 220.4 L 293.2 221.5 L 292.8 220.3 L 297.1 218.3 L 298.5 218.6 L 298.5 231.0 L 301.3 231.0 L 301.3 232.6 L 293.5 232.6 L 293.5 231.0 " fill="#000000"/>
<path class="legend" d="M 310.2 220.0 L 302.8 220.0 L 302.8 218.4 L 312.2 218.4 L 312.2 219.8 L 306.5 232.6 L 304.6 232.6 L 310.2 220.0 " fill="#000000"/>
<path class="legend" d="M 317.8 226.9 Q 317.8 229.8, 317.0 232.1 Q 316.2 234.5, 314.6 237.0 L 313.4 236.3 Q 314.7 233.8, 315.4 231.7 Q 316.0 229.6, 316.0 226.9 Q 316.0 224.1, 315.4 222.0 Q 314.7 219.8, 313.4 217.5 L 314.6 216.7 Q 316.2 219.3, 317.0 221.7 Q 317.8 224.0, 317.8 226.9 " fill="#000000"/>
</g>
    <g transform="translate(300, 0) scale(1 1) translate(0, 0) scale(0.65 0.65) "><!-- END OF HEADER -->
<path class="bond-2 atom-2 atom-3" d="M 95.5,113.4 L 125.4,153.8 L 122.0,161.5 L 87.2,114.4 Z" style="fill:#3F68E0;fill-rule:evenodd;fill-opacity:1;stroke:#3F68E0;stroke-width:0.0px;stroke-linecap:butt;stroke-linejoin:miter;stroke-opacity:1;"/>
<path class="bond-16 atom-2 atom-16" d="M 175.2,148.1 L 180.2,154.9 L 122.0,161.5 L 125.4,153.8 Z" style="fill:#3F68E0;fill-rule:evenodd;fill-opacity:1;stroke:#3F68E0;stroke-width:0.0px;stroke-linecap:butt;stroke-linejoin:miter;stroke-opacity:1;"/>
<path class="bond-3 atom-3 atom-4" d="M 110.6,60.7 L 115.6,67.4 L 95.5,113.4 L 87.2,114.4 Z" style="fill:#3F68E0;fill-rule:evenodd;fill-opacity:1;stroke:#3F68E0;stroke-width:0.0px;stroke-linecap:butt;stroke-linejoin:miter;stroke-opacity:1;"/>
<path class="bond-5 atom-4 atom-6" d="M 168.8,54.1 L 165.5,61.7 L 115.6,67.4 L 110.6,60.7 Z" style="fill:#3F68E0;fill-rule:evenodd;fill-opacity:1;stroke:#3F68E0;stroke-width:0.0px;stroke-linecap:butt;stroke-linejoin:miter;stroke-opacity:1;"/>
<path class="bond-6 atom-6 atom-7" d="M 168.8,54.1 L 201.1,97.8 L 199.4,101.6 L 195.3,102.1 L 165.5,61.7 Z" style="fill:#3F68E0;fill-rule:evenodd;fill-opacity:1;stroke:#3F68E0;stroke-width:0.0px;stroke-linecap:butt;stroke-linejoin:miter;stroke-opacity:1;"/>
<path class="bond-7 atom-7 atom-8" d="M 255.2,91.7 L 251.8,99.4 L 201.9,105.0 L 199.4,101.6 L 201.1,97.8 Z" style="fill:#3F68E0;fill-rule:evenodd;fill-opacity:1;stroke:#3F68E0;stroke-width:0.0px;stroke-linecap:butt;stroke-linejoin:miter;stroke-opacity:1;"/>
<path class="bond-15 atom-7 atom-16" d="M 199.4,101.6 L 201.9,105.0 L 180.2,154.9 L 175.2,148.1 L 195.3,102.1 Z" style="fill:#3F68E0;fill-rule:evenodd;fill-opacity:1;stroke:#3F68E0;stroke-width:0.0px;stroke-linecap:butt;stroke-linejoin:miter;stroke-opacity:1;"/>
<path class="bond-8 atom-8 atom-9" d="M 255.2,91.7 L 287.5,135.4 L 284.1,143.1 L 251.8,99.4 Z" style="fill:#3F68E0;fill-rule:evenodd;fill-opacity:1;stroke:#3F68E0;stroke-width:0.0px;stroke-linecap:butt;stroke-linejoin:miter;stroke-opacity:1;"/>
<path class="bond-9 atom-9 atom-10" d="M 337.3,129.8 L 339.8,133.1 L 338.2,137.0 L 284.1,143.1 L 287.5,135.4 Z" style="fill:#3F68E0;fill-rule:evenodd;fill-opacity:1;stroke:#3F68E0;stroke-width:0.0px;stroke-linecap:butt;stroke-linejoin:miter;stroke-opacity:1;"/>
<path class="bond-10 atom-10 atom-11" d="M 344.0,132.7 L 373.8,173.0 L 370.5,180.7 L 338.2,137.0 L 339.8,133.1 Z" style="fill:#3F68E0;fill-rule:evenodd;fill-opacity:1;stroke:#3F68E0;stroke-width:0.0px;stroke-linecap:butt;stroke-linejoin:miter;stroke-opacity:1;"/>
<path class="bond-17 atom-10 atom-15" d="M 359.1,79.9 L 364.0,86.6 L 344.0,132.7 L 339.8,133.1 L 337.3,129.8 Z" style="fill:#3F68E0;fill-rule:evenodd;fill-opacity:1;stroke:#3F68E0;stroke-width:0.0px;stroke-linecap:butt;stroke-linejoin:miter;stroke-opacity:1;"/>
<path class="bond-11 atom-11 atom-12" d="M 423.7,167.4 L 428.7,174.1 L 370.5,180.7 L 373.8,173.0 Z" style="fill:#3F68E0;fill-rule:evenodd;fill-opacity:1;stroke:#3F68E0;stroke-width:0.0px;stroke-linecap:butt;stroke-linejoin:miter;stroke-opacity:1;"/>
<path class="bond-12 atom-12 atom-13" d="M 452.1,120.4 L 428.7,174.1 L 423.7,167.4 L 443.7,121.4 Z" style="fill:#3F68E0;fill-rule:evenodd;fill-opacity:1;stroke:#3F68E0;stroke-width:0.0px;stroke-linecap:butt;stroke-linejoin:miter;stroke-opacity:1;"/>
<path class="bond-13 atom-13 atom-14" d="M 417.3,73.3 L 452.1,120.4 L 443.7,121.4 L 413.9,81.0 Z" style="fill:#3F68E0;fill-rule:evenodd;fill-opacity:1;stroke:#3F68E0;stroke-width:0.0px;stroke-linecap:butt;stroke-linejoin:miter;stroke-opacity:1;"/>
<path class="bond-14 atom-14 atom-15" d="M 417.3,73.3 L 413.9,81.0 L 364.0,86.6 L 359.1,79.9 Z" style="fill:#3F68E0;fill-rule:evenodd;fill-opacity:1;stroke:#3F68E0;stroke-width:0.0px;stroke-linecap:butt;stroke-linejoin:miter;stroke-opacity:1;"/>
<path class="bond-0 atom-0 atom-1" d="M 47.9,213.6 L 70.5,211.0" style="fill:none;fill-rule:evenodd;stroke:#000000;stroke-width:2.0px;stroke-linecap:butt;stroke-linejoin:miter;stroke-opacity:1"/>
<path class="bond-0 atom-0 atom-1" d="M 70.5,211.0 L 93.1,208.5" style="fill:none;fill-rule:evenodd;stroke:#FF0000;stroke-width:2.0px;stroke-linecap:butt;stroke-linejoin:miter;stroke-opacity:1"/>
<path class="bond-1 atom-1 atom-2" d="M 106.1,197.9 L 114.9,177.8" style="fill:none;fill-rule:evenodd;stroke:#FF0000;stroke-width:2.0px;stroke-linecap:butt;stroke-linejoin:miter;stroke-opacity:1"/>
<path class="bond-1 atom-1 atom-2" d="M 114.9,177.8 L 123.7,157.6" style="fill:none;fill-rule:evenodd;stroke:#000000;stroke-width:2.0px;stroke-linecap:butt;stroke-linejoin:miter;stroke-opacity:1"/>
<path class="bond-2 atom-2 atom-3" d="M 123.7,157.6 L 91.4,113.9" style="fill:none;fill-rule:evenodd;stroke:#000000;stroke-width:2.0px;stroke-linecap:butt;stroke-linejoin:miter;stroke-opacity:1"/>
<path class="bond-2 atom-2 atom-3" d="M 127.5,149.0 L 100.7,112.8" style="fill:none;fill-rule:evenodd;stroke:#000000;stroke-width:2.0px;stroke-linecap:butt;stroke-linejoin:miter;stroke-opacity:1"/>
<path class="bond-3 atom-3 atom-4" d="M 91.4,113.9 L 113.1,64.0" style="fill:none;fill-rule:evenodd;stroke:#000000;stroke-width:2.0px;stroke-linecap:butt;stroke-linejoin:miter;stroke-opacity:1"/>
<path class="bond-4 atom-4 atom-5" d="M 113.1,64.0 L 100.6,47.1" style="fill:none;fill-rule:evenodd;stroke:#000000;stroke-width:2.0px;stroke-linecap:butt;stroke-linejoin:miter;stroke-opacity:1"/>
<path class="bond-4 atom-4 atom-5" d="M 100.6,47.1 L 88.0,30.1" style="fill:none;fill-rule:evenodd;stroke:#FF0000;stroke-width:2.0px;stroke-linecap:butt;stroke-linejoin:miter;stroke-opacity:1"/>
<path class="bond-5 atom-4 atom-6" d="M 113.1,64.0 L 167.1,57.9" style="fill:none;fill-rule:evenodd;stroke:#000000;stroke-width:2.0px;stroke-linecap:butt;stroke-linejoin:miter;stroke-opacity:1"/>
<path class="bond-5 atom-4 atom-6" d="M 118.7,71.6 L 163.4,66.5" style="fill:none;fill-rule:evenodd;stroke:#000000;stroke-width:2.0px;stroke-linecap:butt;stroke-linejoin:miter;stroke-opacity:1"/>
<path class="bond-6 atom-6 atom-7" d="M 167.1,57.9 L 199.4,101.6" style="fill:none;fill-rule:evenodd;stroke:#000000;stroke-width:2.0px;stroke-linecap:butt;stroke-linejoin:miter;stroke-opacity:1"/>
<path class="bond-7 atom-7 atom-8" d="M 199.4,101.6 L 253.5,95.5" style="fill:none;fill-rule:evenodd;stroke:#000000;stroke-width:2.0px;stroke-linecap:butt;stroke-linejoin:miter;stroke-opacity:1"/>
<path class="bond-8 atom-8 atom-9" d="M 253.5,95.5 L 285.8,139.3" style="fill:none;fill-rule:evenodd;stroke:#000000;stroke-width:2.0px;stroke-linecap:butt;stroke-linejoin:miter;stroke-opacity:1"/>
<path class="bond-8 atom-8 atom-9" d="M 249.7,104.2 L 279.2,144.1" style="fill:none;fill-rule:evenodd;stroke:#000000;stroke-width:2.0px;stroke-linecap:butt;stroke-linejoin:miter;stroke-opacity:1"/>
<path class="bond-9 atom-9 atom-10" d="M 285.8,139.3 L 339.8,133.1" style="fill:none;fill-rule:evenodd;stroke:#000000;stroke-width:2.0px;stroke-linecap:butt;stroke-linejoin:miter;stroke-opacity:1"/>
<path class="bond-10 atom-10 atom-11" d="M 339.8,133.1 L 372.2,176.9" style="fill:none;fill-rule:evenodd;stroke:#000000;stroke-width:2.0px;stroke-linecap:butt;stroke-linejoin:miter;stroke-opacity:1"/>
<path class="bond-10 atom-10 atom-11" d="M 349.2,132.1 L 375.9,168.2" style="fill:none;fill-rule:evenodd;stroke:#000000;stroke-width:2.0px;stroke-linecap:butt;stroke-linejoin:miter;stroke-opacity:1"/>
<path class="bond-11 atom-11 atom-12" d="M 372.2,176.9 L 426.2,170.8" style="fill:none;fill-rule:evenodd;stroke:#000000;stroke-width:2.0px;stroke-linecap:butt;stroke-linejoin:miter;stroke-opacity:1"/>
<path class="bond-12 atom-12 atom-13" d="M 426.2,170.8 L 447.9,120.9" style="fill:none;fill-rule:evenodd;stroke:#000000;stroke-width:2.0px;stroke-linecap:butt;stroke-linejoin:miter;stroke-opacity:1"/>
<path class="bond-12 atom-12 atom-13" d="M 420.6,163.2 L 438.5,122.0" style="fill:none;fill-rule:evenodd;stroke:#000000;stroke-width:2.0px;stroke-linecap:butt;stroke-linejoin:miter;stroke-opacity:1"/>
<path class="bond-13 atom-13 atom-14" d="M 447.9,120.9 L 415.6,77.2" style="fill:none;fill-rule:evenodd;stroke:#000000;stroke-width:2.0px;stroke-linecap:butt;stroke-linejoin:miter;stroke-opacity:1"/>
<path class="bond-14 atom-14 atom-15" d="M 415.6,77.2 L 361.6,83.3" style="fill:none;fill-rule:evenodd;stroke:#000000;stroke-width:2.0px;stroke-linecap:butt;stroke-linejoin:miter;stroke-opacity:1"/>
<path class="bond-14 atom-14 atom-15" d="M 411.8,85.8 L 367.1,90.9" style="fill:none;fill-rule:evenodd;stroke:#000000;stroke-width:2.0px;stroke-linecap:butt;stroke-linejoin:miter;stroke-opacity:1"/>
<path class="bond-15 atom-7 atom-16" d="M 199.4,101.6 L 177.7,151.5" style="fill:none;fill-rule:evenodd;stroke:#000000;stroke-width:2.0px;stroke-linecap:butt;stroke-linejoin:miter;stroke-opacity:1"/>
<path class="bond-15 atom-7 atom-16" d="M 190.1,102.7 L 172.1,143.9" style="fill:none;fill-rule:evenodd;stroke:#000000;stroke-width:2.0px;stroke-linecap:butt;stroke-linejoin:miter;stroke-opacity:1"/>
<path class="bond-16 atom-16 atom-2" d="M 177.7,151.5 L 123.7,157.6" style="fill:none;fill-rule:evenodd;stroke:#000000;stroke-width:2.0px;stroke-linecap:butt;stroke-linejoin:miter;stroke-opacity:1"/>
<path class="bond-17 atom-15 atom-10" d="M 361.6,83.3 L 339.8,133.1" style="fill:none;fill-rule:evenodd;stroke:#000000;stroke-width:2.0px;stroke-linecap:butt;stroke-linejoin:miter;stroke-opacity:1"/>
<path d="M 93.0,116.1 L 91.4,113.9 L 92.5,111.4" style="fill:none;stroke:#000000;stroke-width:2.0px;stroke-linecap:butt;stroke-linejoin:miter;stroke-opacity:1;"/>
<path d="M 164.4,58.2 L 167.1,57.9 L 168.7,60.1" style="fill:none;stroke:#000000;stroke-width:2.0px;stroke-linecap:butt;stroke-linejoin:miter;stroke-opacity:1;"/>
<path d="M 250.8,95.8 L 253.5,95.5 L 255.1,97.7" style="fill:none;stroke:#000000;stroke-width:2.0px;stroke-linecap:butt;stroke-linejoin:miter;stroke-opacity:1;"/>
<path d="M 284.2,137.1 L 285.8,139.3 L 288.5,139.0" style="fill:none;stroke:#000000;stroke-width:2.0px;stroke-linecap:butt;stroke-linejoin:miter;stroke-opacity:1;"/>
<path d="M 370.5,174.7 L 372.2,176.9 L 374.9,176.6" style="fill:none;stroke:#000000;stroke-width:2.0px;stroke-linecap:butt;stroke-linejoin:miter;stroke-opacity:1;"/>
<path d="M 423.5,171.1 L 426.2,170.8 L 427.3,168.3" style="fill:none;stroke:#000000;stroke-width:2.0px;stroke-linecap:butt;stroke-linejoin:miter;stroke-opacity:1;"/>
<path d="M 446.8,123.4 L 447.9,120.9 L 446.3,118.7" style="fill:none;stroke:#000000;stroke-width:2.0px;stroke-linecap:butt;stroke-linejoin:miter;stroke-opacity:1;"/>
<path d="M 417.2,79.3 L 415.6,77.2 L 412.9,77.5" style="fill:none;stroke:#000000;stroke-width:2.0px;stroke-linecap:butt;stroke-linejoin:miter;stroke-opacity:1;"/>
<path d="M 364.3,83.0 L 361.6,83.3 L 360.5,85.8" style="fill:none;stroke:#000000;stroke-width:2.0px;stroke-linecap:butt;stroke-linejoin:miter;stroke-opacity:1;"/>
<path d="M 178.8,149.0 L 177.7,151.5 L 175.0,151.8" style="fill:none;stroke:#000000;stroke-width:2.0px;stroke-linecap:butt;stroke-linejoin:miter;stroke-opacity:1;"/>
<path class="atom-1" d="M 94.9 207.5 Q 94.9 203.8, 96.7 201.8 Q 98.6 199.7, 102.0 199.7 Q 105.4 199.7, 107.2 201.8 Q 109.0 203.8, 109.0 207.5 Q 109.0 211.3, 107.2 213.4 Q 105.3 215.5, 102.0 215.5 Q 98.6 215.5, 96.7 213.4 Q 94.9 211.3, 94.9 207.5 M 102.0 213.8 Q 104.3 213.8, 105.6 212.2 Q 106.9 210.6, 106.9 207.5 Q 106.9 204.5, 105.6 203.0 Q 104.3 201.4, 102.0 201.4 Q 99.6 201.4, 98.3 202.9 Q 97.1 204.5, 97.1 207.5 Q 97.1 210.6, 98.3 212.2 Q 99.6 213.8, 102.0 213.8 " fill="#FF0000"/>
<path class="atom-5" d="M 58.5 12.7 L 60.6 12.7 L 60.6 19.2 L 68.5 19.2 L 68.5 12.7 L 70.5 12.7 L 70.5 28.1 L 68.5 28.1 L 68.5 21.0 L 60.6 21.0 L 60.6 28.1 L 58.5 28.1 L 58.5 12.7 " fill="#FF0000"/>
<path class="atom-5" d="M 73.7 20.3 Q 73.7 16.6, 75.5 14.6 Q 77.4 12.5, 80.8 12.5 Q 84.2 12.5, 86.0 14.6 Q 87.8 16.6, 87.8 20.3 Q 87.8 24.1, 86.0 26.2 Q 84.1 28.3, 80.8 28.3 Q 77.4 28.3, 75.5 26.2 Q 73.7 24.1, 73.7 20.3 M 80.8 26.6 Q 83.1 26.6, 84.4 25.0 Q 85.7 23.4, 85.7 20.3 Q 85.7 17.3, 84.4 15.8 Q 83.1 14.2, 80.8 14.2 Q 78.4 14.2, 77.1 15.8 Q 75.9 17.3, 75.9 20.3 Q 75.9 23.4, 77.1 25.0 Q 78.4 26.6, 80.8 26.6 " fill="#FF0000"/>
<path class="legend" d="M 97.1 218.4 Q 99.6 218.4, 100.8 219.5 Q 102.0 220.6, 102.0 222.6 Q 102.0 224.5, 100.7 225.7 Q 99.5 226.8, 97.1 226.8 L 94.9 226.8 L 94.9 232.6 L 93.0 232.6 L 93.0 218.4 L 97.1 218.4 M 97.1 225.2 Q 98.5 225.2, 99.3 224.5 Q 100.0 223.8, 100.0 222.6 Q 100.0 221.3, 99.3 220.7 Q 98.5 220.0, 97.1 220.0 L 94.9 220.0 L 94.9 225.2 L 97.1 225.2 " fill="#000000"/>
<path class="legend" d="M 103.7 218.4 L 105.5 218.4 L 105.5 220.2 L 103.7 220.2 L 103.7 218.4 M 103.7 222.3 L 105.5 222.3 L 105.5 232.6 L 103.7 232.6 L 103.7 222.3 " fill="#000000"/>
<path class="legend" d="M 113.3 222.1 Q 115.0 222.1, 115.8 223.1 Q 116.7 224.0, 116.7 225.8 L 116.7 232.6 L 114.8 232.6 L 114.8 225.9 Q 114.8 224.7, 114.3 224.2 Q 113.9 223.6, 112.8 223.6 Q 111.9 223.6, 111.1 224.0 Q 110.3 224.5, 109.8 225.2 L 109.8 232.6 L 108.0 232.6 L 108.0 222.3 L 109.5 222.3 L 109.7 223.7 Q 111.1 222.1, 113.3 222.1 " fill="#000000"/>
<path class="legend" d="M 119.0 227.4 Q 119.0 224.9, 120.2 223.5 Q 121.5 222.1, 123.9 222.1 Q 126.2 222.1, 127.5 223.5 Q 128.7 224.9, 128.7 227.4 Q 128.7 229.9, 127.5 231.3 Q 126.2 232.7, 123.9 232.7 Q 121.5 232.7, 120.2 231.3 Q 119.0 229.9, 119.0 227.4 M 120.9 227.4 Q 120.9 229.3, 121.7 230.3 Q 122.4 231.3, 123.9 231.3 Q 125.3 231.3, 126.0 230.3 Q 126.8 229.3, 126.8 227.4 Q 126.8 225.5, 126.0 224.6 Q 125.3 223.6, 123.9 223.6 Q 122.4 223.6, 121.7 224.6 Q 120.9 225.5, 120.9 227.4 " fill="#000000"/>
<path class="legend" d="M 131.0 230.5 Q 131.9 230.8, 132.5 231.0 Q 133.2 231.2, 133.9 231.2 Q 134.8 231.2, 135.3 230.8 Q 135.8 230.4, 135.8 229.7 Q 135.8 229.2, 135.5 229.0 Q 135.2 228.7, 134.9 228.5 Q 134.6 228.4, 133.7 228.1 Q 133.5 228.0, 132.6 227.7 Q 131.7 227.4, 131.2 226.7 Q 130.7 226.0, 130.7 225.0 Q 130.7 223.8, 131.7 223.0 Q 132.6 222.1, 134.5 222.1 Q 135.3 222.1, 136.0 222.3 Q 136.7 222.5, 137.4 222.8 L 136.9 224.3 Q 136.3 224.0, 135.7 223.8 Q 135.1 223.7, 134.5 223.7 Q 133.6 223.7, 133.1 224.1 Q 132.6 224.4, 132.6 225.0 Q 132.6 225.6, 133.0 225.9 Q 133.4 226.1, 134.2 226.4 Q 134.4 226.5, 134.6 226.6 L 135.1 226.7 Q 135.9 227.0, 136.4 227.3 Q 136.9 227.6, 137.3 228.2 Q 137.7 228.7, 137.7 229.7 Q 137.7 231.1, 136.6 232.0 Q 135.6 232.8, 133.9 232.8 Q 132.9 232.8, 132.1 232.6 Q 131.2 232.3, 130.4 232.0 L 131.0 230.5 " fill="#000000"/>
<path class="legend" d="M 147.4 222.3 L 149.2 222.3 L 143.9 237.5 L 142.2 237.5 L 143.9 232.6 L 143.1 232.6 L 139.5 222.3 L 141.4 222.3 L 144.4 231.0 L 147.4 222.3 " fill="#000000"/>
<path class="legend" d="M 150.1 217.4 L 152.0 217.4 L 152.0 232.6 L 150.1 232.6 L 150.1 217.4 " fill="#000000"/>
<path class="legend" d="M 162.2 222.3 L 164.0 222.3 L 160.4 232.6 L 158.1 232.6 L 154.4 222.3 L 156.4 222.3 L 159.3 230.9 L 162.2 222.3 " fill="#000000"/>
<path class="legend" d="M 165.0 218.4 L 166.8 218.4 L 166.8 220.2 L 165.0 220.2 L 165.0 218.4 M 165.0 222.3 L 166.8 222.3 L 166.8 232.6 L 165.0 232.6 L 165.0 222.3 " fill="#000000"/>
<path class="legend" d="M 174.6 222.1 Q 176.3 222.1, 177.1 223.1 Q 178.0 224.0, 178.0 225.8 L 178.0 232.6 L 176.1 232.6 L 176.1 225.9 Q 176.1 224.7, 175.6 224.2 Q 175.2 223.6, 174.1 223.6 Q 173.2 223.6, 172.4 224.0 Q 171.6 224.5, 171.1 225.2 L 171.1 232.6 L 169.3 232.6 L 169.3 222.3 L 170.8 222.3 L 171.0 223.7 Q 172.4 222.1, 174.6 222.1 " fill="#000000"/>
<path class="legend" d="" fill="#000000"/>
<path class="legend" d="M 199.6 222.1 Q 201.3 222.1, 202.2 223.1 Q 203.1 224.0, 203.1 225.8 L 203.1 232.6 L 201.2 232.6 L 201.2 225.9 Q 201.2 224.7, 200.7 224.2 Q 200.2 223.6, 199.2 223.6 Q 198.3 223.6, 197.5 224.0 Q 196.8 224.5, 196.3 225.2 Q 196.3 225.4, 196.3 225.8 L 196.3 232.6 L 194.4 232.6 L 194.4 225.9 Q 194.4 224.7, 194.0 224.2 Q 193.5 223.6, 192.5 223.6 Q 191.6 223.6, 190.8 224.0 Q 190.0 224.5, 189.6 225.2 L 189.6 232.6 L 187.7 232.6 L 187.7 222.3 L 189.2 222.3 L 189.4 223.7 Q 190.8 222.1, 192.8 222.1 Q 195.2 222.1, 196.0 223.9 Q 197.4 222.1, 199.6 222.1 " fill="#000000"/>
<path class="legend" d="M 205.3 227.4 Q 205.3 224.9, 206.6 223.5 Q 207.9 222.1, 210.2 222.1 Q 212.5 222.1, 213.8 223.5 Q 215.1 224.9, 215.1 227.4 Q 215.1 229.9, 213.8 231.3 Q 212.5 232.7, 210.2 232.7 Q 207.9 232.7, 206.6 231.3 Q 205.3 229.9, 205.3 227.4 M 207.2 227.4 Q 207.2 229.3, 208.0 230.3 Q 208.8 231.3, 210.2 231.3 Q 211.6 231.3, 212.4 230.3 Q 213.2 229.3, 213.2 227.4 Q 213.2 225.5, 212.4 224.6 Q 211.6 223.6, 210.2 223.6 Q 208.8 223.6, 208.0 224.6 Q 207.2 225.5, 207.2 227.4 " fill="#000000"/>
<path class="legend" d="M 222.1 222.1 Q 223.7 222.1, 224.6 223.1 Q 225.5 224.0, 225.5 225.8 L 225.5 232.6 L 223.6 232.6 L 223.6 225.9 Q 223.6 224.7, 223.1 224.2 Q 222.7 223.6, 221.6 223.6 Q 220.7 223.6, 219.9 224.0 Q 219.1 224.5, 218.6 225.2 L 218.6 232.6 L 216.7 232.6 L 216.7 222.3 L 218.3 222.3 L 218.5 223.7 Q 219.9 222.1, 222.1 222.1 " fill="#000000"/>
<path class="legend" d="M 227.8 227.4 Q 227.8 224.9, 229.0 223.5 Q 230.3 222.1, 232.6 222.1 Q 235.0 222.1, 236.2 223.5 Q 237.5 224.9, 237.5 227.4 Q 237.5 229.9, 236.2 231.3 Q 235.0 232.7, 232.6 232.7 Q 230.3 232.7, 229.0 231.3 Q 227.8 229.9, 227.8 227.4 M 229.7 227.4 Q 229.7 229.3, 230.4 230.3 Q 231.2 231.3, 232.6 231.3 Q 234.1 231.3, 234.8 230.3 Q 235.6 229.3, 235.6 227.4 Q 235.6 225.5, 234.8 224.6 Q 234.1 223.6, 232.6 223.6 Q 231.2 223.6, 230.4 224.6 Q 229.7 225.5, 229.7 227.4 " fill="#000000"/>
<path class="legend" d="M 251.0 222.1 Q 252.8 222.1, 253.7 223.1 Q 254.5 224.0, 254.5 225.8 L 254.5 232.6 L 252.7 232.6 L 252.7 225.9 Q 252.7 224.7, 252.2 224.2 Q 251.7 223.6, 250.7 223.6 Q 249.8 223.6, 249.0 224.0 Q 248.2 224.5, 247.8 225.2 Q 247.8 225.4, 247.8 225.8 L 247.8 232.6 L 245.9 232.6 L 245.9 225.9 Q 245.9 224.7, 245.4 224.2 Q 245.0 223.6, 243.9 223.6 Q 243.0 223.6, 242.3 224.0 Q 241.5 224.5, 241.0 225.2 L 241.0 232.6 L 239.2 232.6 L 239.2 222.3 L 240.7 222.3 L 240.9 223.7 Q 242.2 222.1, 244.3 222.1 Q 246.7 222.1, 247.5 223.9 Q 248.8 222.1, 251.0 222.1 " fill="#000000"/>
<path class="legend" d="M 256.8 227.4 Q 256.8 224.9, 258.1 223.5 Q 259.3 222.1, 261.6 222.1 Q 263.9 222.1, 264.9 223.5 Q 265.9 224.8, 265.9 227.4 L 265.9 227.7 L 258.7 227.7 Q 258.8 229.4, 259.6 230.3 Q 260.3 231.3, 261.8 231.3 Q 262.6 231.3, 263.3 231.1 Q 264.1 230.9, 265.0 230.5 L 265.5 231.8 Q 264.5 232.3, 263.6 232.5 Q 262.7 232.7, 261.7 232.7 Q 259.4 232.7, 258.1 231.3 Q 256.8 229.9, 256.8 227.4 M 261.6 223.6 Q 260.5 223.6, 259.7 224.3 Q 259.0 225.0, 258.8 226.3 L 263.9 226.3 Q 263.8 224.9, 263.2 224.3 Q 262.7 223.6, 261.6 223.6 " fill="#000000"/>
<path class="legend" d="M 267.4 223.7 L 267.4 222.3 L 269.4 222.3 L 269.7 219.3 L 271.1 219.3 L 271.1 222.3 L 274.2 222.3 L 274.2 223.7 L 271.1 223.7 L 271.1 229.4 Q 271.1 231.2, 272.6 231.2 Q 273.2 231.2, 274.1 230.9 L 274.4 232.2 Q 273.3 232.7, 272.2 232.7 Q 270.9 232.7, 270.0 231.9 Q 269.2 231.1, 269.2 229.5 L 269.2 223.7 L 267.4 223.7 " fill="#000000"/>
<path class="legend" d="M 281.0 222.1 Q 282.6 222.1, 283.5 223.1 Q 284.4 224.0, 284.4 225.8 L 284.4 232.6 L 282.5 232.6 L 282.5 225.9 Q 282.5 224.7, 282.0 224.2 Q 281.5 223.6, 280.5 223.6 Q 279.6 223.6, 278.8 224.0 Q 278.0 224.5, 277.5 225.2 L 277.5 232.6 L 275.6 232.6 L 275.6 217.4 L 277.5 217.4 L 277.5 223.6 Q 278.9 222.1, 281.0 222.1 " fill="#000000"/>
<path class="legend" d="M 294.6 222.3 L 296.4 222.3 L 291.1 237.5 L 289.4 237.5 L 291.1 232.6 L 290.3 232.6 L 286.6 222.3 L 288.6 222.3 L 291.6 231.0 L 294.6 222.3 " fill="#000000"/>
<path class="legend" d="M 297.3 217.4 L 299.1 217.4 L 299.1 232.6 L 297.3 232.6 L 297.3 217.4 " fill="#000000"/>
<path class="legend" d="" fill="#000000"/>
<path class="legend" d="M 309.0 227.4 Q 309.0 224.9, 310.3 223.5 Q 311.5 222.1, 313.8 222.1 Q 316.1 222.1, 317.1 223.5 Q 318.1 224.8, 318.1 227.4 L 318.1 227.7 L 310.9 227.7 Q 311.0 229.4, 311.7 230.3 Q 312.5 231.3, 314.0 231.3 Q 314.8 231.3, 315.5 231.1 Q 316.3 230.9, 317.2 230.5 L 317.7 231.8 Q 316.7 232.3, 315.8 232.5 Q 314.8 232.7, 313.9 232.7 Q 311.6 232.7, 310.3 231.3 Q 309.0 229.9, 309.0 227.4 M 313.8 223.6 Q 312.6 223.6, 311.9 224.3 Q 311.2 225.0, 311.0 226.3 L 316.1 226.3 Q 316.0 224.9, 315.4 224.3 Q 314.9 223.6, 313.8 223.6 " fill="#000000"/>
<path class="legend" d="M 319.6 223.7 L 319.6 222.3 L 321.5 222.3 L 321.9 219.3 L 323.3 219.3 L 323.3 222.3 L 326.4 222.3 L 326.4 223.7 L 323.3 223.7 L 323.3 229.4 Q 323.3 231.2, 324.8 231.2 Q 325.4 231.2, 326.2 230.9 L 326.6 232.2 Q 325.5 232.7, 324.4 232.7 Q 323.1 232.7, 322.2 231.9 Q 321.4 231.1, 321.4 229.5 L 321.4 223.7 L 319.6 223.7 " fill="#000000"/>
<path class="legend" d="M 333.2 222.1 Q 334.8 222.1, 335.7 223.1 Q 336.5 224.0, 336.5 225.8 L 336.5 232.6 L 334.7 232.6 L 334.7 225.9 Q 334.7 224.7, 334.2 224.2 Q 333.7 223.6, 332.7 223.6 Q 331.7 223.6, 331.0 224.0 Q 330.2 224.5, 329.7 225.2 L 329.7 232.6 L 327.8 232.6 L 327.8 217.4 L 329.7 217.4 L 329.7 223.6 Q 331.0 222.1, 333.2 222.1 " fill="#000000"/>
<path class="legend" d="M 338.8 227.4 Q 338.8 224.9, 340.1 223.5 Q 341.3 222.1, 343.6 222.1 Q 345.9 222.1, 346.9 223.5 Q 347.9 224.8, 347.9 227.4 L 347.9 227.7 L 340.7 227.7 Q 340.8 229.4, 341.5 230.3 Q 342.3 231.3, 343.8 231.3 Q 344.6 231.3, 345.3 231.1 Q 346.1 230.9, 347.0 230.5 L 347.5 231.8 Q 346.5 232.3, 345.6 232.5 Q 344.6 232.7, 343.7 232.7 Q 341.4 232.7, 340.1 231.3 Q 338.8 229.9, 338.8 227.4 M 343.6 223.6 Q 342.4 223.6, 341.7 224.3 Q 341.0 225.0, 340.8 226.3 L 345.9 226.3 Q 345.8 224.9, 345.2 224.3 Q 344.7 223.6, 343.6 223.6 " fill="#000000"/>
<path class="legend" d="M 350.9 222.3 L 351.1 223.7 Q 352.2 222.1, 354.0 222.1 Q 354.5 222.1, 355.3 222.3 L 355.0 224.0 Q 354.1 223.8, 353.7 223.8 Q 352.8 223.8, 352.3 224.1 Q 351.7 224.5, 351.3 225.2 L 351.3 232.6 L 349.4 232.6 L 349.4 222.3 L 350.9 222.3 " fill="#000000"/>
<path class="legend" d="" fill="#000000"/>
<path class="legend" d="M 363.7 226.9 Q 363.7 224.0, 364.6 221.7 Q 365.4 219.3, 367.0 216.7 L 368.1 217.5 Q 366.8 219.8, 366.2 222.0 Q 365.5 224.1, 365.5 226.9 Q 365.5 229.6, 366.2 231.7 Q 366.8 233.8, 368.1 236.3 L 367.0 237.0 Q 365.4 234.5, 364.6 232.1 Q 363.7 229.8, 363.7 226.9 " fill="#000000"/>
<path class="legend" d="M 373.7 220.0 L 369.4 220.0 L 369.4 218.4 L 379.8 218.4 L 379.8 220.0 L 375.7 220.0 L 375.7 232.6 L 373.7 232.6 L 373.7 220.0 " fill="#000000"/>
<path class="legend" d="M 381.3 231.0 L 384.4 231.0 L 384.4 220.4 L 381.0 221.5 L 380.5 220.3 L 384.9 218.3 L 386.3 218.6 L 386.3 231.0 L 389.1 231.0 L 389.1 232.6 L 381.3 232.6 L 381.3 231.0 " fill="#000000"/>
<path class="legend" d="M 397.9 225.1 Q 399.2 225.6, 399.9 226.5 Q 400.6 227.3, 400.6 228.7 Q 400.6 229.9, 400.0 230.8 Q 399.4 231.8, 398.3 232.3 Q 397.2 232.8, 395.7 232.8 Q 393.4 232.8, 392.0 231.7 Q 390.6 230.6, 390.6 228.7 Q 390.6 227.5, 391.2 226.7 Q 391.8 225.8, 393.1 225.1 Q 392.2 224.6, 391.7 223.9 Q 391.2 223.1, 391.2 221.9 Q 391.2 220.2, 392.4 219.2 Q 393.6 218.3, 395.6 218.3 Q 397.7 218.3, 398.9 219.2 Q 400.1 220.2, 400.1 221.9 Q 400.1 222.9, 399.5 223.7 Q 399.0 224.5, 397.9 225.1 M 395.6 219.8 Q 394.5 219.8, 393.8 220.3 Q 393.2 220.9, 393.2 221.9 Q 393.2 222.6, 393.6 223.1 Q 394.0 223.6, 394.7 223.9 Q 395.3 224.2, 396.5 224.6 Q 397.4 224.0, 397.7 223.3 Q 398.1 222.7, 398.1 221.9 Q 398.1 220.9, 397.5 220.3 Q 396.8 219.8, 395.6 219.8 M 395.7 231.3 Q 397.0 231.3, 397.8 230.6 Q 398.6 229.9, 398.6 228.7 Q 398.6 227.9, 398.2 227.4 Q 397.8 227.0, 397.2 226.7 Q 396.5 226.4, 395.4 226.0 L 394.5 225.7 Q 393.5 226.3, 393.1 227.1 Q 392.6 227.8, 392.6 228.7 Q 392.6 229.9, 393.5 230.6 Q 394.3 231.3, 395.7 231.3 " fill="#000000"/>
<path class="legend" d="M 407.0 226.9 Q 407.0 229.8, 406.2 232.1 Q 405.4 234.5, 403.8 237.0 L 402.6 236.3 Q 403.9 233.8, 404.6 231.7 Q 405.2 229.6, 405.2 226.9 Q 405.2 224.1, 404.6 222.0 Q 403.9 219.8, 402.6 217.5 L 403.8 216.7 Q 405.4 219.3, 406.2 221.7 Q 407.0 224.0, 407.0 226.9 " fill="#000000"/>
</g>
    <g transform="translate(600, 0) scale(1 1) translate(0, 0) scale(0.65 0.65) "><!-- END OF HEADER -->
<path class="bond-2 atom-2 atom-3" d="M 395.3,136.3 L 399.7,141.6 L 352.1,149.9 L 354.5,143.4 Z" style="fill:#3F68E0;fill-rule:evenodd;fill-opacity:1;stroke:#3F68E0;stroke-width:0.0px;stroke-linecap:butt;stroke-linejoin:miter;stroke-opacity:1;"/>
<path class="bond-18 atom-2 atom-18" d="M 416.3,96.2 L 399.7,141.6 L 395.3,136.3 L 409.5,97.4 Z" style="fill:#3F68E0;fill-rule:evenodd;fill-opacity:1;stroke:#3F68E0;stroke-width:0.0px;stroke-linecap:butt;stroke-linejoin:miter;stroke-opacity:1;"/>
<path class="bond-3 atom-3 atom-4" d="M 327.9,111.7 L 354.5,143.4 L 352.1,149.9 L 323.3,115.5 L 324.5,112.3 Z" style="fill:#3F68E0;fill-rule:evenodd;fill-opacity:1;stroke:#3F68E0;stroke-width:0.0px;stroke-linecap:butt;stroke-linejoin:miter;stroke-opacity:1;"/>
<path class="bond-4 atom-4 atom-5" d="M 322.3,109.6 L 324.5,112.3 L 323.3,115.5 L 279.1,123.3 L 281.5,116.8 Z" style="fill:#3F68E0;fill-rule:evenodd;fill-opacity:1;stroke:#3F68E0;stroke-width:0.0px;stroke-linecap:butt;stroke-linejoin:miter;stroke-opacity:1;"/>
<path class="bond-13 atom-4 atom-14" d="M 337.7,67.5 L 342.1,72.8 L 327.9,111.7 L 324.5,112.3 L 322.3,109.6 Z" style="fill:#3F68E0;fill-rule:evenodd;fill-opacity:1;stroke:#3F68E0;stroke-width:0.0px;stroke-linecap:butt;stroke-linejoin:miter;stroke-opacity:1;"/>
<path class="bond-5 atom-5 atom-6" d="M 252.7,82.4 L 281.5,116.8 L 279.1,123.3 L 250.3,88.9 Z" style="fill:#3F68E0;fill-rule:evenodd;fill-opacity:1;stroke:#3F68E0;stroke-width:0.0px;stroke-linecap:butt;stroke-linejoin:miter;stroke-opacity:1;"/>
<path class="bond-6 atom-6 atom-7" d="M 252.7,82.4 L 250.3,88.9 L 209.5,96.0 L 207.3,93.4 L 208.5,90.1 Z" style="fill:#3F68E0;fill-rule:evenodd;fill-opacity:1;stroke:#3F68E0;stroke-width:0.0px;stroke-linecap:butt;stroke-linejoin:miter;stroke-opacity:1;"/>
<path class="bond-7 atom-7 atom-8" d="M 179.7,55.7 L 208.5,90.1 L 207.3,93.4 L 203.9,94.0 L 177.3,62.2 Z" style="fill:#3F68E0;fill-rule:evenodd;fill-opacity:1;stroke:#3F68E0;stroke-width:0.0px;stroke-linecap:butt;stroke-linejoin:miter;stroke-opacity:1;"/>
<path class="bond-19 atom-7 atom-13" d="M 207.3,93.4 L 209.5,96.0 L 194.1,138.2 L 189.7,132.9 L 203.9,94.0 Z" style="fill:#3F68E0;fill-rule:evenodd;fill-opacity:1;stroke:#3F68E0;stroke-width:0.0px;stroke-linecap:butt;stroke-linejoin:miter;stroke-opacity:1;"/>
<path class="bond-8 atom-8 atom-9" d="M 179.7,55.7 L 177.3,62.2 L 136.5,69.4 L 132.1,64.1 Z" style="fill:#3F68E0;fill-rule:evenodd;fill-opacity:1;stroke:#3F68E0;stroke-width:0.0px;stroke-linecap:butt;stroke-linejoin:miter;stroke-opacity:1;"/>
<path class="bond-9 atom-9 atom-10" d="M 132.1,64.1 L 136.5,69.4 L 122.3,108.3 L 115.5,109.5 Z" style="fill:#3F68E0;fill-rule:evenodd;fill-opacity:1;stroke:#3F68E0;stroke-width:0.0px;stroke-linecap:butt;stroke-linejoin:miter;stroke-opacity:1;"/>
<path class="bond-11 atom-10 atom-12" d="M 122.3,108.3 L 148.9,140.0 L 146.5,146.5 L 115.5,109.5 Z" style="fill:#3F68E0;fill-rule:evenodd;fill-opacity:1;stroke:#3F68E0;stroke-width:0.0px;stroke-linecap:butt;stroke-linejoin:miter;stroke-opacity:1;"/>
<path class="bond-12 atom-12 atom-13" d="M 189.7,132.9 L 194.1,138.2 L 146.5,146.5 L 148.9,140.0 Z" style="fill:#3F68E0;fill-rule:evenodd;fill-opacity:1;stroke:#3F68E0;stroke-width:0.0px;stroke-linecap:butt;stroke-linejoin:miter;stroke-opacity:1;"/>
<path class="bond-14 atom-14 atom-15" d="M 385.3,59.1 L 382.9,65.6 L 342.1,72.8 L 337.7,67.5 Z" style="fill:#3F68E0;fill-rule:evenodd;fill-opacity:1;stroke:#3F68E0;stroke-width:0.0px;stroke-linecap:butt;stroke-linejoin:miter;stroke-opacity:1;"/>
<path class="bond-17 atom-15 atom-18" d="M 385.3,59.1 L 416.3,96.2 L 409.5,97.4 L 382.9,65.6 Z" style="fill:#3F68E0;fill-rule:evenodd;fill-opacity:1;stroke:#3F68E0;stroke-width:0.0px;stroke-linecap:butt;stroke-linejoin:miter;stroke-opacity:1;"/>
<path class="bond-0 atom-0 atom-1" d="M 410.9,215.5 L 417.1,198.5" style="fill:none;fill-rule:evenodd;stroke:#000000;stroke-width:2.0px;stroke-linecap:butt;stroke-linejoin:miter;stroke-opacity:1"/>
<path class="bond-0 atom-0 atom-1" d="M 417.1,198.5 L 423.3,181.5" style="fill:none;fill-rule:evenodd;stroke:#FF0000;stroke-width:2.0px;stroke-linecap:butt;stroke-linejoin:miter;stroke-opacity:1"/>
<path class="bond-1 atom-1 atom-2" d="M 419.7,165.4 L 408.6,152.2" style="fill:none;fill-rule:evenodd;stroke:#FF0000;stroke-width:2.0px;stroke-linecap:butt;stroke-linejoin:miter;stroke-opacity:1"/>
<path class="bond-1 atom-1 atom-2" d="M 408.6,152.2 L 397.5,138.9" style="fill:none;fill-rule:evenodd;stroke:#000000;stroke-width:2.0px;stroke-linecap:butt;stroke-linejoin:miter;stroke-opacity:1"/>
<path class="bond-2 atom-2 atom-3" d="M 397.5,138.9 L 353.3,146.7" style="fill:none;fill-rule:evenodd;stroke:#000000;stroke-width:2.0px;stroke-linecap:butt;stroke-linejoin:miter;stroke-opacity:1"/>
<path class="bond-2 atom-2 atom-3" d="M 392.5,133.0 L 356.0,139.4" style="fill:none;fill-rule:evenodd;stroke:#000000;stroke-width:2.0px;stroke-linecap:butt;stroke-linejoin:miter;stroke-opacity:1"/>
<path class="bond-3 atom-3 atom-4" d="M 353.3,146.7 L 324.5,112.3" style="fill:none;fill-rule:evenodd;stroke:#000000;stroke-width:2.0px;stroke-linecap:butt;stroke-linejoin:miter;stroke-opacity:1"/>
<path class="bond-4 atom-4 atom-5" d="M 324.5,112.3 L 280.3,120.0" style="fill:none;fill-rule:evenodd;stroke:#000000;stroke-width:2.0px;stroke-linecap:butt;stroke-linejoin:miter;stroke-opacity:1"/>
<path class="bond-5 atom-5 atom-6" d="M 280.3,120.0 L 251.5,85.6" style="fill:none;fill-rule:evenodd;stroke:#000000;stroke-width:2.0px;stroke-linecap:butt;stroke-linejoin:miter;stroke-opacity:1"/>
<path class="bond-5 atom-5 atom-6" d="M 283.0,112.7 L 256.7,81.3" style="fill:none;fill-rule:evenodd;stroke:#000000;stroke-width:2.0px;stroke-linecap:butt;stroke-linejoin:miter;stroke-opacity:1"/>
<path class="bond-6 atom-6 atom-7" d="M 251.5,85.6 L 207.3,93.4" style="fill:none;fill-rule:evenodd;stroke:#000000;stroke-width:2.0px;stroke-linecap:butt;stroke-linejoin:miter;stroke-opacity:1"/>
<path class="bond-7 atom-7 atom-8" d="M 207.3,93.4 L 178.5,59.0" style="fill:none;fill-rule:evenodd;stroke:#000000;stroke-width:2.0px;stroke-linecap:butt;stroke-linejoin:miter;stroke-opacity:1"/>
<path class="bond-7 atom-7 atom-8" d="M 199.6,94.7 L 175.8,66.3" style="fill:none;fill-rule:evenodd;stroke:#000000;stroke-width:2.0px;stroke-linecap:butt;stroke-linejoin:miter;stroke-opacity:1"/>
<path class="bond-8 atom-8 atom-9" d="M 178.5,59.0 L 134.3,66.7" style="fill:none;fill-rule:evenodd;stroke:#000000;stroke-width:2.0px;stroke-linecap:butt;stroke-linejoin:miter;stroke-opacity:1"/>
<path class="bond-9 atom-9 atom-10" d="M 134.3,66.7 L 118.9,108.9" style="fill:none;fill-rule:evenodd;stroke:#000000;stroke-width:2.0px;stroke-linecap:butt;stroke-linejoin:miter;stroke-opacity:1"/>
<path class="bond-9 atom-9 atom-10" d="M 139.3,72.7 L 126.6,107.5" style="fill:none;fill-rule:evenodd;stroke:#000000;stroke-width:2.0px;stroke-linecap:butt;stroke-linejoin:miter;stroke-opacity:1"/>
<path class="bond-10 atom-10 atom-11" d="M 118.9,108.9 L 100.5,112.1" style="fill:none;fill-rule:evenodd;stroke:#000000;stroke-width:2.0px;stroke-linecap:butt;stroke-linejoin:miter;stroke-opacity:1"/>
<path class="bond-10 atom-10 atom-11" d="M 100.5,112.1 L 82.0,115.3" style="fill:none;fill-rule:evenodd;stroke:#FF0000;stroke-width:2.0px;stroke-linecap:butt;stroke-linejoin:miter;stroke-opacity:1"/>
<path class="bond-11 atom-10 atom-12" d="M 118.9,108.9 L 147.7,143.3" style="fill:none;fill-rule:evenodd;stroke:#000000;stroke-width:2.0px;stroke-linecap:butt;stroke-linejoin:miter;stroke-opacity:1"/>
<path class="bond-12 atom-12 atom-13" d="M 147.7,143.3 L 191.9,135.5" style="fill:none;fill-rule:evenodd;stroke:#000000;stroke-width:2.0px;stroke-linecap:butt;stroke-linejoin:miter;stroke-opacity:1"/>
<path class="bond-12 atom-12 atom-13" d="M 150.4,136.0 L 186.9,129.6" style="fill:none;fill-rule:evenodd;stroke:#000000;stroke-width:2.0px;stroke-linecap:butt;stroke-linejoin:miter;stroke-opacity:1"/>
<path class="bond-13 atom-4 atom-14" d="M 324.5,112.3 L 339.9,70.1" style="fill:none;fill-rule:evenodd;stroke:#000000;stroke-width:2.0px;stroke-linecap:butt;stroke-linejoin:miter;stroke-opacity:1"/>
<path class="bond-13 atom-4 atom-14" d="M 332.2,110.9 L 344.9,76.1" style="fill:none;fill-rule:evenodd;stroke:#000000;stroke-width:2.0px;stroke-linecap:butt;stroke-linejoin:miter;stroke-opacity:1"/>
<path class="bond-14 atom-14 atom-15" d="M 339.9,70.1 L 384.1,62.4" style="fill:none;fill-rule:evenodd;stroke:#000000;stroke-width:2.0px;stroke-linecap:butt;stroke-linejoin:miter;stroke-opacity:1"/>
<path class="bond-15 atom-15 atom-16" d="M 384.1,62.4 L 390.3,45.4" style="fill:none;fill-rule:evenodd;stroke:#000000;stroke-width:2.0px;stroke-linecap:butt;stroke-linejoin:miter;stroke-opacity:1"/>
<path class="bond-15 atom-15 atom-16" d="M 390.3,45.4 L 396.5,28.3" style="fill:none;fill-rule:evenodd;stroke:#FF0000;stroke-width:2.0px;stroke-linecap:butt;stroke-linejoin:miter;stroke-opacity:1"/>
<path class="bond-16 atom-16 atom-17" d="M 406.8,19.0 L 425.2,15.7" style="fill:none;fill-rule:evenodd;stroke:#FF0000;stroke-width:2.0px;stroke-linecap:butt;stroke-linejoin:miter;stroke-opacity:1"/>
<path class="bond-16 atom-16 atom-17" d="M 425.2,15.7 L 443.7,12.5" style="fill:none;fill-rule:evenodd;stroke:#000000;stroke-width:2.0px;stroke-linecap:butt;stroke-linejoin:miter;stroke-opacity:1"/>
<path class="bond-17 atom-15 atom-18" d="M 384.1,62.4 L 412.9,96.8" style="fill:none;fill-rule:evenodd;stroke:#000000;stroke-width:2.0px;stroke-linecap:butt;stroke-linejoin:miter;stroke-opacity:1"/>
<path class="bond-17 atom-15 atom-18" d="M 381.4,69.7 L 405.2,98.1" style="fill:none;fill-rule:evenodd;stroke:#000000;stroke-width:2.0px;stroke-linecap:butt;stroke-linejoin:miter;stroke-opacity:1"/>
<path class="bond-18 atom-18 atom-2" d="M 412.9,96.8 L 397.5,138.9" style="fill:none;fill-rule:evenodd;stroke:#000000;stroke-width:2.0px;stroke-linecap:butt;stroke-linejoin:miter;stroke-opacity:1"/>
<path class="bond-19 atom-13 atom-7" d="M 191.9,135.5 L 207.3,93.4" style="fill:none;fill-rule:evenodd;stroke:#000000;stroke-width:2.0px;stroke-linecap:butt;stroke-linejoin:miter;stroke-opacity:1"/>
<path d="M 355.5,146.3 L 353.3,146.7 L 351.9,145.0" style="fill:none;stroke:#000000;stroke-width:2.0px;stroke-linecap:butt;stroke-linejoin:miter;stroke-opacity:1;"/>
<path d="M 282.5,119.6 L 280.3,120.0 L 278.9,118.3" style="fill:none;stroke:#000000;stroke-width:2.0px;stroke-linecap:butt;stroke-linejoin:miter;stroke-opacity:1;"/>
<path d="M 252.9,87.3 L 251.5,85.6 L 249.3,86.0" style="fill:none;stroke:#000000;stroke-width:2.0px;stroke-linecap:butt;stroke-linejoin:miter;stroke-opacity:1;"/>
<path d="M 179.9,60.7 L 178.5,59.0 L 176.3,59.4" style="fill:none;stroke:#000000;stroke-width:2.0px;stroke-linecap:butt;stroke-linejoin:miter;stroke-opacity:1;"/>
<path d="M 136.5,66.3 L 134.3,66.7 L 133.5,68.8" style="fill:none;stroke:#000000;stroke-width:2.0px;stroke-linecap:butt;stroke-linejoin:miter;stroke-opacity:1;"/>
<path d="M 146.3,141.5 L 147.7,143.3 L 149.9,142.9" style="fill:none;stroke:#000000;stroke-width:2.0px;stroke-linecap:butt;stroke-linejoin:miter;stroke-opacity:1;"/>
<path d="M 189.7,135.9 L 191.9,135.5 L 192.7,133.4" style="fill:none;stroke:#000000;stroke-width:2.0px;stroke-linecap:butt;stroke-linejoin:miter;stroke-opacity:1;"/>
<path d="M 339.1,72.2 L 339.9,70.1 L 342.1,69.7" style="fill:none;stroke:#000000;stroke-width:2.0px;stroke-linecap:butt;stroke-linejoin:miter;stroke-opacity:1;"/>
<path d="M 411.5,95.1 L 412.9,96.8 L 412.1,98.9" style="fill:none;stroke:#000000;stroke-width:2.0px;stroke-linecap:butt;stroke-linejoin:miter;stroke-opacity:1;"/>
<path class="atom-1" d="M 420.5 173.4 Q 420.5 170.3, 422.0 168.6 Q 423.5 166.9, 426.3 166.9 Q 429.1 166.9, 430.6 168.6 Q 432.1 170.3, 432.1 173.4 Q 432.1 176.5, 430.6 178.2 Q 429.1 180.0, 426.3 180.0 Q 423.5 180.0, 422.0 178.2 Q 420.5 176.5, 420.5 173.4 M 426.3 178.5 Q 428.2 178.5, 429.3 177.2 Q 430.3 175.9, 430.3 173.4 Q 430.3 170.9, 429.3 169.6 Q 428.2 168.4, 426.3 168.4 Q 424.4 168.4, 423.3 169.6 Q 422.3 170.9, 422.3 173.4 Q 422.3 176.0, 423.3 177.2 Q 424.4 178.5, 426.3 178.5 " fill="#FF0000"/>
<path class="atom-11" d="M 56.3 110.3 L 58.0 110.3 L 58.0 115.7 L 64.5 115.7 L 64.5 110.3 L 66.3 110.3 L 66.3 123.0 L 64.5 123.0 L 64.5 117.2 L 58.0 117.2 L 58.0 123.0 L 56.3 123.0 L 56.3 110.3 " fill="#FF0000"/>
<path class="atom-11" d="M 68.9 116.6 Q 68.9 113.6, 70.4 111.9 Q 71.9 110.2, 74.7 110.2 Q 77.5 110.2, 79.0 111.9 Q 80.5 113.6, 80.5 116.6 Q 80.5 119.7, 79.0 121.5 Q 77.5 123.2, 74.7 123.2 Q 71.9 123.2, 70.4 121.5 Q 68.9 119.7, 68.9 116.6 M 74.7 121.8 Q 76.6 121.8, 77.7 120.5 Q 78.7 119.2, 78.7 116.6 Q 78.7 114.1, 77.7 112.9 Q 76.6 111.6, 74.7 111.6 Q 72.8 111.6, 71.7 112.9 Q 70.7 114.1, 70.7 116.6 Q 70.7 119.2, 71.7 120.5 Q 72.8 121.8, 74.7 121.8 " fill="#FF0000"/>
<path class="atom-16" d="M 393.6 20.3 Q 393.6 17.2, 395.2 15.5 Q 396.7 13.8, 399.5 13.8 Q 402.3 13.8, 403.8 15.5 Q 405.3 17.2, 405.3 20.3 Q 405.3 23.4, 403.8 25.1 Q 402.3 26.9, 399.5 26.9 Q 396.7 26.9, 395.2 25.1 Q 393.6 23.4, 393.6 20.3 M 399.5 25.4 Q 401.4 25.4, 402.5 24.1 Q 403.5 22.8, 403.5 20.3 Q 403.5 17.8, 402.5 16.5 Q 401.4 15.3, 399.5 15.3 Q 397.5 15.3, 396.5 16.5 Q 395.4 17.8, 395.4 20.3 Q 395.4 22.8, 396.5 24.1 Q 397.5 25.4, 399.5 25.4 " fill="#FF0000"/>
<path class="legend" d="M 170.7 218.9 Q 173.1 218.9, 174.4 220.0 Q 175.6 221.1, 175.6 223.1 Q 175.6 225.0, 174.3 226.1 Q 173.1 227.2, 170.7 227.2 L 168.5 227.2 L 168.5 233.1 L 166.5 233.1 L 166.5 218.9 L 170.7 218.9 M 170.7 225.6 Q 172.1 225.6, 172.8 225.0 Q 173.6 224.3, 173.6 223.1 Q 173.6 221.8, 172.8 221.2 Q 172.1 220.5, 170.7 220.5 L 168.5 220.5 L 168.5 225.6 L 170.7 225.6 " fill="#000000"/>
<path class="legend" d="M 177.2 224.2 L 177.2 222.8 L 179.2 222.8 L 179.5 219.8 L 180.9 219.8 L 180.9 222.8 L 184.0 222.8 L 184.0 224.2 L 180.9 224.2 L 180.9 229.9 Q 180.9 231.7, 182.4 231.7 Q 183.0 231.7, 183.9 231.4 L 184.2 232.7 Q 183.1 233.2, 182.1 233.2 Q 180.7 233.2, 179.9 232.4 Q 179.0 231.6, 179.0 230.0 L 179.0 224.2 L 177.2 224.2 " fill="#000000"/>
<path class="legend" d="M 185.4 227.9 Q 185.4 225.4, 186.7 224.0 Q 187.9 222.6, 190.2 222.6 Q 192.5 222.6, 193.5 224.0 Q 194.5 225.3, 194.5 227.8 L 194.5 228.2 L 187.3 228.2 Q 187.4 229.9, 188.1 230.8 Q 188.9 231.7, 190.4 231.7 Q 191.2 231.7, 191.9 231.6 Q 192.7 231.4, 193.6 231.0 L 194.1 232.2 Q 193.1 232.8, 192.2 233.0 Q 191.2 233.2, 190.3 233.2 Q 188.0 233.2, 186.7 231.8 Q 185.4 230.4, 185.4 227.9 M 190.2 224.1 Q 189.0 224.1, 188.3 224.8 Q 187.6 225.4, 187.4 226.8 L 192.5 226.8 Q 192.4 225.4, 191.8 224.7 Q 191.3 224.1, 190.2 224.1 " fill="#000000"/>
<path class="legend" d="M 197.5 222.8 L 197.7 224.2 Q 198.8 222.6, 200.5 222.6 Q 201.1 222.6, 201.9 222.8 L 201.6 224.5 Q 200.7 224.3, 200.2 224.3 Q 199.4 224.3, 198.8 224.6 Q 198.3 224.9, 197.8 225.7 L 197.8 233.1 L 196.0 233.1 L 196.0 222.8 L 197.5 222.8 " fill="#000000"/>
<path class="legend" d="M 202.9 227.9 Q 202.9 225.4, 204.1 224.0 Q 205.4 222.6, 207.7 222.6 Q 210.1 222.6, 211.3 224.0 Q 212.6 225.4, 212.6 227.9 Q 212.6 230.4, 211.3 231.8 Q 210.1 233.2, 207.7 233.2 Q 205.4 233.2, 204.1 231.8 Q 202.9 230.4, 202.9 227.9 M 204.8 227.9 Q 204.8 229.8, 205.5 230.8 Q 206.3 231.7, 207.7 231.7 Q 209.2 231.7, 209.9 230.8 Q 210.7 229.8, 210.7 227.9 Q 210.7 226.0, 209.9 225.1 Q 209.2 224.1, 207.7 224.1 Q 206.3 224.1, 205.5 225.1 Q 204.8 226.0, 204.8 227.9 " fill="#000000"/>
<path class="legend" d="M 214.8 230.9 Q 215.7 231.3, 216.4 231.5 Q 217.0 231.7, 217.7 231.7 Q 218.6 231.7, 219.1 231.3 Q 219.6 230.9, 219.6 230.2 Q 219.6 229.7, 219.4 229.4 Q 219.1 229.1, 218.8 229.0 Q 218.4 228.9, 217.5 228.6 Q 217.4 228.5, 216.5 228.2 Q 215.6 227.9, 215.1 227.2 Q 214.6 226.5, 214.6 225.5 Q 214.6 224.3, 215.5 223.4 Q 216.5 222.6, 218.4 222.6 Q 219.1 222.6, 219.8 222.8 Q 220.5 223.0, 221.3 223.3 L 220.8 224.7 Q 220.1 224.5, 219.5 224.3 Q 219.0 224.2, 218.4 224.2 Q 217.4 224.2, 216.9 224.5 Q 216.5 224.9, 216.5 225.5 Q 216.5 226.1, 216.8 226.3 Q 217.2 226.6, 218.1 226.9 Q 218.3 227.0, 218.5 227.0 L 218.9 227.2 Q 219.8 227.5, 220.3 227.8 Q 220.8 228.1, 221.2 228.6 Q 221.5 229.2, 221.5 230.1 Q 221.5 231.6, 220.5 232.4 Q 219.4 233.2, 217.7 233.2 Q 216.8 233.2, 215.9 233.0 Q 215.1 232.8, 214.2 232.5 L 214.8 230.9 " fill="#000000"/>
<path class="legend" d="M 223.3 224.2 L 223.3 222.8 L 225.2 222.8 L 225.6 219.8 L 227.0 219.8 L 227.0 222.8 L 230.1 222.8 L 230.1 224.2 L 227.0 224.2 L 227.0 229.9 Q 227.0 231.7, 228.5 231.7 Q 229.1 231.7, 229.9 231.4 L 230.3 232.7 Q 229.2 233.2, 228.1 233.2 Q 226.8 233.2, 225.9 232.4 Q 225.1 231.6, 225.1 230.0 L 225.1 224.2 L 223.3 224.2 " fill="#000000"/>
<path class="legend" d="M 231.5 218.9 L 233.3 218.9 L 233.3 220.6 L 231.5 220.6 L 231.5 218.9 M 231.5 222.8 L 233.3 222.8 L 233.3 233.1 L 231.5 233.1 L 231.5 222.8 " fill="#000000"/>
<path class="legend" d="M 235.7 217.9 L 237.5 217.9 L 237.5 233.1 L 235.7 233.1 L 235.7 217.9 " fill="#000000"/>
<path class="legend" d="M 244.8 222.6 Q 246.9 222.6, 248.1 223.9 Q 249.3 225.3, 249.3 227.7 Q 249.3 230.3, 247.9 231.8 Q 246.5 233.2, 244.0 233.2 Q 242.4 233.2, 240.9 232.6 L 240.0 232.4 L 240.0 217.9 L 241.8 217.9 L 241.8 223.9 Q 242.9 222.6, 244.8 222.6 M 244.0 231.7 Q 245.6 231.7, 246.5 230.7 Q 247.4 229.6, 247.4 227.7 Q 247.4 226.0, 246.6 225.0 Q 245.9 224.1, 244.6 224.1 Q 243.6 224.1, 242.9 224.6 Q 242.1 225.2, 241.8 226.2 L 241.8 231.4 Q 242.9 231.7, 244.0 231.7 " fill="#000000"/>
<path class="legend" d="M 250.9 227.9 Q 250.9 225.4, 252.2 224.0 Q 253.4 222.6, 255.7 222.6 Q 258.0 222.6, 259.0 224.0 Q 260.0 225.3, 260.0 227.8 L 260.0 228.2 L 252.8 228.2 Q 252.9 229.9, 253.6 230.8 Q 254.4 231.7, 255.9 231.7 Q 256.7 231.7, 257.4 231.6 Q 258.2 231.4, 259.1 231.0 L 259.6 232.2 Q 258.6 232.8, 257.7 233.0 Q 256.7 233.2, 255.8 233.2 Q 253.5 233.2, 252.2 231.8 Q 250.9 230.4, 250.9 227.9 M 255.7 224.1 Q 254.5 224.1, 253.8 224.8 Q 253.1 225.4, 252.9 226.8 L 258.0 226.8 Q 257.9 225.4, 257.3 224.7 Q 256.8 224.1, 255.7 224.1 " fill="#000000"/>
<path class="legend" d="M 266.8 222.6 Q 268.5 222.6, 269.3 223.5 Q 270.2 224.5, 270.2 226.3 L 270.2 233.1 L 268.3 233.1 L 268.3 226.4 Q 268.3 225.2, 267.8 224.6 Q 267.4 224.1, 266.3 224.1 Q 265.4 224.1, 264.6 224.5 Q 263.8 224.9, 263.3 225.7 L 263.3 233.1 L 261.5 233.1 L 261.5 222.8 L 263.0 222.8 L 263.2 224.2 Q 264.6 222.6, 266.8 222.6 " fill="#000000"/>
<path class="legend" d="M 272.4 227.9 Q 272.4 225.4, 273.7 224.0 Q 275.0 222.6, 277.3 222.6 Q 279.5 222.6, 280.5 224.0 Q 281.5 225.3, 281.5 227.8 L 281.5 228.2 L 274.4 228.2 Q 274.4 229.9, 275.2 230.8 Q 276.0 231.7, 277.4 231.7 Q 278.2 231.7, 279.0 231.6 Q 279.7 231.4, 280.6 231.0 L 281.1 232.2 Q 280.1 232.8, 279.2 233.0 Q 278.3 233.2, 277.3 233.2 Q 275.0 233.2, 273.7 231.8 Q 272.4 230.4, 272.4 227.9 M 277.3 224.1 Q 276.1 224.1, 275.4 224.8 Q 274.7 225.4, 274.4 226.8 L 279.6 226.8 Q 279.4 225.4, 278.9 224.7 Q 278.3 224.1, 277.3 224.1 " fill="#000000"/>
<path class="legend" d="" fill="#000000"/>
<path class="legend" d="M 290.4 227.4 Q 290.4 224.5, 291.2 222.1 Q 292.0 219.8, 293.6 217.2 L 294.8 217.9 Q 293.5 220.3, 292.8 222.5 Q 292.2 224.6, 292.2 227.4 Q 292.2 230.1, 292.8 232.2 Q 293.5 234.3, 294.8 236.8 L 293.6 237.5 Q 292.0 235.0, 291.2 232.6 Q 290.4 230.3, 290.4 227.4 " fill="#000000"/>
<path class="legend" d="M 300.3 220.5 L 296.0 220.5 L 296.0 218.9 L 306.4 218.9 L 306.4 220.5 L 302.3 220.5 L 302.3 233.1 L 300.3 233.1 L 300.3 220.5 " fill="#000000"/>
<path class="legend" d="M 307.9 231.5 L 311.0 231.5 L 311.0 220.9 L 307.6 221.9 L 307.1 220.8 L 311.4 218.8 L 312.9 219.1 L 312.9 231.5 L 315.6 231.5 L 315.6 233.1 L 307.9 233.1 L 307.9 231.5 " fill="#000000"/>
<path class="legend" d="M 321.9 218.7 Q 324.5 218.7, 325.7 220.5 Q 327.0 222.2, 327.0 225.6 Q 327.0 229.3, 325.4 231.3 Q 323.9 233.2, 320.8 233.2 Q 320.0 233.2, 319.2 233.0 Q 318.5 232.8, 317.7 232.4 L 318.5 231.1 Q 319.6 231.6, 320.8 231.6 Q 322.8 231.6, 323.8 230.3 Q 324.9 229.0, 325.0 226.4 Q 324.3 227.0, 323.3 227.4 Q 322.4 227.7, 321.5 227.7 Q 320.2 227.7, 319.2 227.2 Q 318.3 226.7, 317.7 225.7 Q 317.2 224.7, 317.2 223.5 Q 317.2 222.1, 317.8 221.0 Q 318.4 219.9, 319.5 219.3 Q 320.6 218.7, 321.9 218.7 M 319.2 223.4 Q 319.2 224.7, 319.9 225.4 Q 320.6 226.1, 321.8 226.1 Q 322.7 226.1, 323.5 225.8 Q 324.4 225.4, 325.0 224.8 Q 324.9 222.5, 324.2 221.4 Q 323.4 220.4, 321.9 220.4 Q 321.2 220.4, 320.5 220.8 Q 319.9 221.2, 319.5 221.9 Q 319.2 222.6, 319.2 223.4 " fill="#000000"/>
<path class="legend" d="M 333.5 227.4 Q 333.5 230.3, 332.6 232.6 Q 331.8 235.0, 330.2 237.5 L 329.1 236.8 Q 330.4 234.3, 331.0 232.2 Q 331.7 230.1, 331.7 227.4 Q 331.7 224.6, 331.0 222.5 Q 330.4 220.3, 329.1 217.9 L 330.2 217.2 Q 331.8 219.8, 332.6 222.1 Q 333.5 224.5, 333.5 227.4 " fill="#000000"/>
</g>
    <g transform="translate(900, 0) scale(1 1) translate(0, 0) scale(0.65 0.65) "><!-- END OF HEADER -->
<path class="bond-1 atom-1 atom-2" d="M 112.8,76.3 L 118.0,82.5 L 101.6,127.6 L 93.7,129.0 Z" style="fill:#3F68E0;fill-rule:evenodd;fill-opacity:1;stroke:#3F68E0;stroke-width:0.0px;stroke-linecap:butt;stroke-linejoin:miter;stroke-opacity:1;"/>
<path class="bond-16 atom-1 atom-16" d="M 101.6,127.6 L 132.4,164.4 L 129.7,172.0 L 93.7,129.0 Z" style="fill:#3F68E0;fill-rule:evenodd;fill-opacity:1;stroke:#3F68E0;stroke-width:0.0px;stroke-linecap:butt;stroke-linejoin:miter;stroke-opacity:1;"/>
<path class="bond-2 atom-2 atom-3" d="M 168.0,66.6 L 165.3,74.1 L 118.0,82.5 L 112.8,76.3 Z" style="fill:#3F68E0;fill-rule:evenodd;fill-opacity:1;stroke:#3F68E0;stroke-width:0.0px;stroke-linecap:butt;stroke-linejoin:miter;stroke-opacity:1;"/>
<path class="bond-3 atom-3 atom-4" d="M 168.0,66.6 L 201.5,106.4 L 200.2,110.2 L 196.2,110.9 L 165.3,74.1 Z" style="fill:#3F68E0;fill-rule:evenodd;fill-opacity:1;stroke:#3F68E0;stroke-width:0.0px;stroke-linecap:butt;stroke-linejoin:miter;stroke-opacity:1;"/>
<path class="bond-4 atom-4 atom-5" d="M 252.8,97.4 L 250.1,104.9 L 202.7,113.3 L 200.2,110.2 L 201.5,106.4 Z" style="fill:#3F68E0;fill-rule:evenodd;fill-opacity:1;stroke:#3F68E0;stroke-width:0.0px;stroke-linecap:butt;stroke-linejoin:miter;stroke-opacity:1;"/>
<path class="bond-14 atom-4 atom-15" d="M 200.2,110.2 L 202.7,113.3 L 184.9,162.2 L 179.8,156.1 L 196.2,110.9 Z" style="fill:#3F68E0;fill-rule:evenodd;fill-opacity:1;stroke:#3F68E0;stroke-width:0.0px;stroke-linecap:butt;stroke-linejoin:miter;stroke-opacity:1;"/>
<path class="bond-5 atom-5 atom-6" d="M 252.8,97.4 L 286.3,137.3 L 283.5,144.8 L 250.1,104.9 Z" style="fill:#3F68E0;fill-rule:evenodd;fill-opacity:1;stroke:#3F68E0;stroke-width:0.0px;stroke-linecap:butt;stroke-linejoin:miter;stroke-opacity:1;"/>
<path class="bond-6 atom-6 atom-7" d="M 333.6,128.9 L 336.2,132.0 L 334.8,135.8 L 283.5,144.8 L 286.3,137.3 Z" style="fill:#3F68E0;fill-rule:evenodd;fill-opacity:1;stroke:#3F68E0;stroke-width:0.0px;stroke-linecap:butt;stroke-linejoin:miter;stroke-opacity:1;"/>
<path class="bond-7 atom-7 atom-8" d="M 340.1,131.3 L 371.0,168.1 L 368.3,175.6 L 334.8,135.8 L 336.2,132.0 Z" style="fill:#3F68E0;fill-rule:evenodd;fill-opacity:1;stroke:#3F68E0;stroke-width:0.0px;stroke-linecap:butt;stroke-linejoin:miter;stroke-opacity:1;"/>
<path class="bond-17 atom-7 atom-14" d="M 351.4,80.0 L 356.5,86.1 L 340.1,131.3 L 336.2,132.0 L 333.6,128.9 Z" style="fill:#3F68E0;fill-rule:evenodd;fill-opacity:1;stroke:#3F68E0;stroke-width:0.0px;stroke-linecap:butt;stroke-linejoin:miter;stroke-opacity:1;"/>
<path class="bond-8 atom-8 atom-9" d="M 418.3,159.7 L 423.5,165.9 L 368.3,175.6 L 371.0,168.1 Z" style="fill:#3F68E0;fill-rule:evenodd;fill-opacity:1;stroke:#3F68E0;stroke-width:0.0px;stroke-linecap:butt;stroke-linejoin:miter;stroke-opacity:1;"/>
<path class="bond-10 atom-9 atom-11" d="M 442.7,113.2 L 423.5,165.9 L 418.3,159.7 L 434.8,114.6 Z" style="fill:#3F68E0;fill-rule:evenodd;fill-opacity:1;stroke:#3F68E0;stroke-width:0.0px;stroke-linecap:butt;stroke-linejoin:miter;stroke-opacity:1;"/>
<path class="bond-11 atom-11 atom-12" d="M 406.6,70.2 L 442.7,113.2 L 434.8,114.6 L 403.9,77.8 Z" style="fill:#3F68E0;fill-rule:evenodd;fill-opacity:1;stroke:#3F68E0;stroke-width:0.0px;stroke-linecap:butt;stroke-linejoin:miter;stroke-opacity:1;"/>
<path class="bond-13 atom-12 atom-14" d="M 406.6,70.2 L 403.9,77.8 L 356.5,86.1 L 351.4,80.0 Z" style="fill:#3F68E0;fill-rule:evenodd;fill-opacity:1;stroke:#3F68E0;stroke-width:0.0px;stroke-linecap:butt;stroke-linejoin:miter;stroke-opacity:1;"/>
<path class="bond-15 atom-15 atom-16" d="M 179.8,156.1 L 184.9,162.2 L 129.7,172.0 L 132.4,164.4 Z" style="fill:#3F68E0;fill-rule:evenodd;fill-opacity:1;stroke:#3F68E0;stroke-width:0.0px;stroke-linecap:butt;stroke-linejoin:miter;stroke-opacity:1;"/>
<path class="bond-0 atom-0 atom-1" d="M 54.8,135.9 L 76.2,132.1" style="fill:none;fill-rule:evenodd;stroke:#FF0000;stroke-width:2.0px;stroke-linecap:butt;stroke-linejoin:miter;stroke-opacity:1"/>
<path class="bond-0 atom-0 atom-1" d="M 76.2,132.1 L 97.6,128.3" style="fill:none;fill-rule:evenodd;stroke:#000000;stroke-width:2.0px;stroke-linecap:butt;stroke-linejoin:miter;stroke-opacity:1"/>
<path class="bond-1 atom-1 atom-2" d="M 97.6,128.3 L 115.4,79.4" style="fill:none;fill-rule:evenodd;stroke:#000000;stroke-width:2.0px;stroke-linecap:butt;stroke-linejoin:miter;stroke-opacity:1"/>
<path class="bond-1 atom-1 atom-2" d="M 106.5,126.7 L 121.2,86.3" style="fill:none;fill-rule:evenodd;stroke:#000000;stroke-width:2.0px;stroke-linecap:butt;stroke-linejoin:miter;stroke-opacity:1"/>
<path class="bond-2 atom-2 atom-3" d="M 115.4,79.4 L 166.7,70.3" style="fill:none;fill-rule:evenodd;stroke:#000000;stroke-width:2.0px;stroke-linecap:butt;stroke-linejoin:miter;stroke-opacity:1"/>
<path class="bond-3 atom-3 atom-4" d="M 166.7,70.3 L 200.2,110.2" style="fill:none;fill-rule:evenodd;stroke:#000000;stroke-width:2.0px;stroke-linecap:butt;stroke-linejoin:miter;stroke-opacity:1"/>
<path class="bond-3 atom-3 atom-4" d="M 163.6,78.8 L 191.3,111.8" style="fill:none;fill-rule:evenodd;stroke:#000000;stroke-width:2.0px;stroke-linecap:butt;stroke-linejoin:miter;stroke-opacity:1"/>
<path class="bond-4 atom-4 atom-5" d="M 200.2,110.2 L 251.4,101.2" style="fill:none;fill-rule:evenodd;stroke:#000000;stroke-width:2.0px;stroke-linecap:butt;stroke-linejoin:miter;stroke-opacity:1"/>
<path class="bond-5 atom-5 atom-6" d="M 251.4,101.2 L 284.9,141.0" style="fill:none;fill-rule:evenodd;stroke:#000000;stroke-width:2.0px;stroke-linecap:butt;stroke-linejoin:miter;stroke-opacity:1"/>
<path class="bond-5 atom-5 atom-6" d="M 248.3,109.6 L 278.9,146.1" style="fill:none;fill-rule:evenodd;stroke:#000000;stroke-width:2.0px;stroke-linecap:butt;stroke-linejoin:miter;stroke-opacity:1"/>
<path class="bond-6 atom-6 atom-7" d="M 284.9,141.0 L 336.2,132.0" style="fill:none;fill-rule:evenodd;stroke:#000000;stroke-width:2.0px;stroke-linecap:butt;stroke-linejoin:miter;stroke-opacity:1"/>
<path class="bond-7 atom-7 atom-8" d="M 336.2,132.0 L 369.6,171.9" style="fill:none;fill-rule:evenodd;stroke:#000000;stroke-width:2.0px;stroke-linecap:butt;stroke-linejoin:miter;stroke-opacity:1"/>
<path class="bond-7 atom-7 atom-8" d="M 345.1,130.4 L 372.7,163.4" style="fill:none;fill-rule:evenodd;stroke:#000000;stroke-width:2.0px;stroke-linecap:butt;stroke-linejoin:miter;stroke-opacity:1"/>
<path class="bond-8 atom-8 atom-9" d="M 369.6,171.9 L 420.9,162.8" style="fill:none;fill-rule:evenodd;stroke:#000000;stroke-width:2.0px;stroke-linecap:butt;stroke-linejoin:miter;stroke-opacity:1"/>
<path class="bond-9 atom-9 atom-10" d="M 420.9,162.8 L 433.8,178.2" style="fill:none;fill-rule:evenodd;stroke:#000000;stroke-width:2.0px;stroke-linecap:butt;stroke-linejoin:miter;stroke-opacity:1"/>
<path class="bond-9 atom-9 atom-10" d="M 433.8,178.2 L 446.7,193.5" style="fill:none;fill-rule:evenodd;stroke:#FF0000;stroke-width:2.0px;stroke-linecap:butt;stroke-linejoin:miter;stroke-opacity:1"/>
<path class="bond-10 atom-9 atom-11" d="M 420.9,162.8 L 438.7,113.9" style="fill:none;fill-rule:evenodd;stroke:#000000;stroke-width:2.0px;stroke-linecap:butt;stroke-linejoin:miter;stroke-opacity:1"/>
<path class="bond-10 atom-9 atom-11" d="M 415.1,155.9 L 429.8,115.5" style="fill:none;fill-rule:evenodd;stroke:#000000;stroke-width:2.0px;stroke-linecap:butt;stroke-linejoin:miter;stroke-opacity:1"/>
<path class="bond-11 atom-11 atom-12" d="M 438.7,113.9 L 405.2,74.0" style="fill:none;fill-rule:evenodd;stroke:#000000;stroke-width:2.0px;stroke-linecap:butt;stroke-linejoin:miter;stroke-opacity:1"/>
<path class="bond-12 atom-12 atom-13" d="M 405.2,74.0 L 412.4,54.2" style="fill:none;fill-rule:evenodd;stroke:#000000;stroke-width:2.0px;stroke-linecap:butt;stroke-linejoin:miter;stroke-opacity:1"/>
<path class="bond-12 atom-12 atom-13" d="M 412.4,54.2 L 419.6,34.5" style="fill:none;fill-rule:evenodd;stroke:#FF0000;stroke-width:2.0px;stroke-linecap:butt;stroke-linejoin:miter;stroke-opacity:1"/>
<path class="bond-13 atom-12 atom-14" d="M 405.2,74.0 L 354.0,83.1" style="fill:none;fill-rule:evenodd;stroke:#000000;stroke-width:2.0px;stroke-linecap:butt;stroke-linejoin:miter;stroke-opacity:1"/>
<path class="bond-13 atom-12 atom-14" d="M 402.2,82.5 L 359.8,90.0" style="fill:none;fill-rule:evenodd;stroke:#000000;stroke-width:2.0px;stroke-linecap:butt;stroke-linejoin:miter;stroke-opacity:1"/>
<path class="bond-14 atom-4 atom-15" d="M 200.2,110.2 L 182.4,159.1" style="fill:none;fill-rule:evenodd;stroke:#000000;stroke-width:2.0px;stroke-linecap:butt;stroke-linejoin:miter;stroke-opacity:1"/>
<path class="bond-15 atom-15 atom-16" d="M 182.4,159.1 L 131.1,168.2" style="fill:none;fill-rule:evenodd;stroke:#000000;stroke-width:2.0px;stroke-linecap:butt;stroke-linejoin:miter;stroke-opacity:1"/>
<path class="bond-15 atom-15 atom-16" d="M 176.6,152.2 L 134.2,159.7" style="fill:none;fill-rule:evenodd;stroke:#000000;stroke-width:2.0px;stroke-linecap:butt;stroke-linejoin:miter;stroke-opacity:1"/>
<path class="bond-16 atom-16 atom-1" d="M 131.1,168.2 L 97.6,128.3" style="fill:none;fill-rule:evenodd;stroke:#000000;stroke-width:2.0px;stroke-linecap:butt;stroke-linejoin:miter;stroke-opacity:1"/>
<path class="bond-17 atom-14 atom-7" d="M 354.0,83.1 L 336.2,132.0" style="fill:none;fill-rule:evenodd;stroke:#000000;stroke-width:2.0px;stroke-linecap:butt;stroke-linejoin:miter;stroke-opacity:1"/>
<path d="M 114.5,81.8 L 115.4,79.4 L 118.0,78.9" style="fill:none;stroke:#000000;stroke-width:2.0px;stroke-linecap:butt;stroke-linejoin:miter;stroke-opacity:1;"/>
<path d="M 164.1,70.8 L 166.7,70.3 L 168.3,72.3" style="fill:none;stroke:#000000;stroke-width:2.0px;stroke-linecap:butt;stroke-linejoin:miter;stroke-opacity:1;"/>
<path d="M 248.9,101.6 L 251.4,101.2 L 253.1,103.2" style="fill:none;stroke:#000000;stroke-width:2.0px;stroke-linecap:butt;stroke-linejoin:miter;stroke-opacity:1;"/>
<path d="M 283.2,139.0 L 284.9,141.0 L 287.5,140.6" style="fill:none;stroke:#000000;stroke-width:2.0px;stroke-linecap:butt;stroke-linejoin:miter;stroke-opacity:1;"/>
<path d="M 368.0,169.9 L 369.6,171.9 L 372.2,171.4" style="fill:none;stroke:#000000;stroke-width:2.0px;stroke-linecap:butt;stroke-linejoin:miter;stroke-opacity:1;"/>
<path d="M 437.8,116.3 L 438.7,113.9 L 437.0,111.9" style="fill:none;stroke:#000000;stroke-width:2.0px;stroke-linecap:butt;stroke-linejoin:miter;stroke-opacity:1;"/>
<path d="M 356.5,82.6 L 354.0,83.1 L 353.1,85.5" style="fill:none;stroke:#000000;stroke-width:2.0px;stroke-linecap:butt;stroke-linejoin:miter;stroke-opacity:1;"/>
<path d="M 183.2,156.7 L 182.4,159.1 L 179.8,159.6" style="fill:none;stroke:#000000;stroke-width:2.0px;stroke-linecap:butt;stroke-linejoin:miter;stroke-opacity:1;"/>
<path d="M 133.6,167.7 L 131.1,168.2 L 129.4,166.2" style="fill:none;stroke:#000000;stroke-width:2.0px;stroke-linecap:butt;stroke-linejoin:miter;stroke-opacity:1;"/>
<path class="atom-0" d="M 25.0 130.1 L 27.0 130.1 L 27.0 136.3 L 34.5 136.3 L 34.5 130.1 L 36.5 130.1 L 36.5 144.8 L 34.5 144.8 L 34.5 138.0 L 27.0 138.0 L 27.0 144.8 L 25.0 144.8 L 25.0 130.1 " fill="#FF0000"/>
<path class="atom-0" d="M 39.6 137.4 Q 39.6 133.9, 41.3 131.9 Q 43.1 129.9, 46.3 129.9 Q 49.6 129.9, 51.3 131.9 Q 53.1 133.9, 53.1 137.4 Q 53.1 141.0, 51.3 143.0 Q 49.6 145.0, 46.3 145.0 Q 43.1 145.0, 41.3 143.0 Q 39.6 141.0, 39.6 137.4 M 46.3 143.4 Q 48.6 143.4, 49.8 141.9 Q 51.0 140.4, 51.0 137.4 Q 51.0 134.5, 49.8 133.1 Q 48.6 131.6, 46.3 131.6 Q 44.1 131.6, 42.9 133.0 Q 41.6 134.5, 41.6 137.4 Q 41.6 140.4, 42.9 141.9 Q 44.1 143.4, 46.3 143.4 " fill="#FF0000"/>
<path class="atom-10" d="M 447.6 202.7 Q 447.6 199.2, 449.4 197.2 Q 451.1 195.2, 454.4 195.2 Q 457.7 195.2, 459.4 197.2 Q 461.2 199.2, 461.2 202.7 Q 461.2 206.3, 459.4 208.4 Q 457.6 210.4, 454.4 210.4 Q 451.1 210.4, 449.4 208.4 Q 447.6 206.3, 447.6 202.7 M 454.4 208.7 Q 456.6 208.7, 457.9 207.2 Q 459.1 205.7, 459.1 202.7 Q 459.1 199.8, 457.9 198.4 Q 456.6 196.9, 454.4 196.9 Q 452.1 196.9, 450.9 198.4 Q 449.7 199.8, 449.7 202.7 Q 449.7 205.7, 450.9 207.2 Q 452.1 208.7, 454.4 208.7 " fill="#FF0000"/>
<path class="atom-10" d="M 463.5 195.4 L 465.5 195.4 L 465.5 201.7 L 473.0 201.7 L 473.0 195.4 L 475.0 195.4 L 475.0 210.1 L 473.0 210.1 L 473.0 203.3 L 465.5 203.3 L 465.5 210.1 L 463.5 210.1 L 463.5 195.4 " fill="#FF0000"/>
<path class="atom-13" d="M 416.3 25.1 Q 416.3 21.6, 418.0 19.6 Q 419.8 17.6, 423.0 17.6 Q 426.3 17.6, 428.1 19.6 Q 429.8 21.6, 429.8 25.1 Q 429.8 28.7, 428.0 30.7 Q 426.3 32.8, 423.0 32.8 Q 419.8 32.8, 418.0 30.7 Q 416.3 28.7, 416.3 25.1 M 423.0 31.1 Q 425.3 31.1, 426.5 29.6 Q 427.7 28.1, 427.7 25.1 Q 427.7 22.2, 426.5 20.8 Q 425.3 19.3, 423.0 19.3 Q 420.8 19.3, 419.6 20.7 Q 418.4 22.2, 418.4 25.1 Q 418.4 28.1, 419.6 29.6 Q 420.8 31.1, 423.0 31.1 " fill="#FF0000"/>
<path class="atom-13" d="M 432.1 17.8 L 434.1 17.8 L 434.1 24.1 L 441.6 24.1 L 441.6 17.8 L 443.6 17.8 L 443.6 32.5 L 441.6 32.5 L 441.6 25.7 L 434.1 25.7 L 434.1 32.5 L 432.1 32.5 L 432.1 17.8 " fill="#FF0000"/>
<path class="legend" d="M 181.3 233.1 L 177.9 227.2 L 177.9 227.2 L 175.6 227.2 L 175.6 233.1 L 173.7 233.1 L 173.7 218.9 L 177.9 218.9 Q 180.3 218.9, 181.5 220.0 Q 182.7 221.1, 182.7 223.1 Q 182.7 224.6, 182.0 225.6 Q 181.3 226.6, 179.9 227.0 L 183.4 233.1 L 181.3 233.1 M 175.6 225.6 L 177.9 225.6 Q 179.3 225.6, 180.0 225.0 Q 180.7 224.3, 180.7 223.1 Q 180.7 221.8, 180.0 221.2 Q 179.3 220.5, 177.9 220.5 L 175.6 220.5 L 175.6 225.6 " fill="#000000"/>
<path class="legend" d="M 184.6 227.9 Q 184.6 225.4, 185.9 224.0 Q 187.2 222.6, 189.5 222.6 Q 191.7 222.6, 192.7 224.0 Q 193.7 225.3, 193.7 227.8 L 193.7 228.2 L 186.6 228.2 Q 186.6 229.9, 187.4 230.8 Q 188.2 231.7, 189.6 231.7 Q 190.4 231.7, 191.2 231.6 Q 191.9 231.4, 192.8 231.0 L 193.3 232.2 Q 192.3 232.8, 191.4 233.0 Q 190.5 233.2, 189.5 233.2 Q 187.2 233.2, 185.9 231.8 Q 184.6 230.4, 184.6 227.9 M 189.5 224.1 Q 188.3 224.1, 187.6 224.8 Q 186.9 225.4, 186.6 226.8 L 191.8 226.8 Q 191.6 225.4, 191.1 224.7 Q 190.5 224.1, 189.5 224.1 " fill="#000000"/>
<path class="legend" d="M 195.8 230.9 Q 196.7 231.3, 197.4 231.5 Q 198.0 231.7, 198.7 231.7 Q 199.6 231.7, 200.1 231.3 Q 200.6 230.9, 200.6 230.2 Q 200.6 229.7, 200.4 229.4 Q 200.1 229.1, 199.8 229.0 Q 199.4 228.9, 198.5 228.6 Q 198.4 228.5, 197.5 228.2 Q 196.6 227.9, 196.1 227.2 Q 195.6 226.5, 195.6 225.5 Q 195.6 224.3, 196.5 223.4 Q 197.5 222.6, 199.4 222.6 Q 200.1 222.6, 200.8 222.8 Q 201.5 223.0, 202.3 223.3 L 201.8 224.7 Q 201.1 224.5, 200.5 224.3 Q 200.0 224.2, 199.4 224.2 Q 198.4 224.2, 197.9 224.5 Q 197.5 224.9, 197.5 225.5 Q 197.5 226.1, 197.8 226.3 Q 198.2 226.6, 199.1 226.9 Q 199.3 227.0, 199.5 227.0 L 199.9 227.2 Q 200.8 227.5, 201.3 227.8 Q 201.8 228.1, 202.2 228.6 Q 202.5 229.2, 202.5 230.1 Q 202.5 231.6, 201.5 232.4 Q 200.4 233.2, 198.7 233.2 Q 197.8 233.2, 196.9 233.0 Q 196.1 232.8, 195.2 232.5 L 195.8 230.9 " fill="#000000"/>
<path class="legend" d="M 212.1 222.8 L 213.9 222.8 L 210.3 233.1 L 207.9 233.1 L 204.3 222.8 L 206.2 222.8 L 209.2 231.4 L 212.1 222.8 " fill="#000000"/>
<path class="legend" d="M 214.8 227.9 Q 214.8 225.4, 216.1 224.0 Q 217.4 222.6, 219.7 222.6 Q 221.9 222.6, 222.9 224.0 Q 223.9 225.3, 223.9 227.8 L 223.9 228.2 L 216.8 228.2 Q 216.8 229.9, 217.6 230.8 Q 218.4 231.7, 219.8 231.7 Q 220.6 231.7, 221.4 231.6 Q 222.1 231.4, 223.0 231.0 L 223.5 232.2 Q 222.5 232.8, 221.6 233.0 Q 220.7 233.2, 219.7 233.2 Q 217.4 233.2, 216.1 231.8 Q 214.8 230.4, 214.8 227.9 M 219.7 224.1 Q 218.5 224.1, 217.8 224.8 Q 217.1 225.4, 216.8 226.8 L 222.0 226.8 Q 221.8 225.4, 221.3 224.7 Q 220.7 224.1, 219.7 224.1 " fill="#000000"/>
<path class="legend" d="M 226.9 222.8 L 227.2 224.2 Q 228.2 222.6, 230.0 222.6 Q 230.6 222.6, 231.3 222.8 L 231.0 224.5 Q 230.2 224.3, 229.7 224.3 Q 228.8 224.3, 228.3 224.6 Q 227.7 224.9, 227.3 225.7 L 227.3 233.1 L 225.4 233.1 L 225.4 222.8 L 226.9 222.8 " fill="#000000"/>
<path class="legend" d="M 232.3 230.3 Q 232.3 228.6, 233.7 227.7 Q 235.0 226.8, 237.4 226.8 L 238.9 226.8 L 238.9 226.4 Q 238.9 225.2, 238.4 224.6 Q 237.9 224.1, 236.6 224.1 Q 235.8 224.1, 235.1 224.2 Q 234.5 224.4, 233.5 224.8 L 232.9 223.5 Q 234.8 222.6, 236.6 222.6 Q 238.8 222.6, 239.8 223.5 Q 240.8 224.5, 240.8 226.5 L 240.8 233.1 L 239.3 233.1 Q 239.3 233.0, 239.3 232.7 Q 239.2 232.4, 239.1 231.9 Q 237.6 233.3, 235.7 233.3 Q 234.2 233.3, 233.3 232.5 Q 232.3 231.7, 232.3 230.3 M 234.2 230.2 Q 234.2 231.0, 234.7 231.4 Q 235.2 231.8, 236.1 231.8 Q 236.9 231.8, 237.6 231.5 Q 238.4 231.1, 238.9 230.4 L 238.9 228.2 L 237.5 228.2 Q 235.9 228.2, 235.0 228.7 Q 234.2 229.2, 234.2 230.2 " fill="#000000"/>
<path class="legend" d="M 243.1 224.2 L 243.1 222.8 L 245.0 222.8 L 245.3 219.8 L 246.7 219.8 L 246.7 222.8 L 249.9 222.8 L 249.9 224.2 L 246.7 224.2 L 246.7 229.9 Q 246.7 231.7, 248.2 231.7 Q 248.8 231.7, 249.7 231.4 L 250.0 232.7 Q 248.9 233.2, 247.9 233.2 Q 246.6 233.2, 245.7 232.4 Q 244.9 231.6, 244.9 230.0 L 244.9 224.2 L 243.1 224.2 " fill="#000000"/>
<path class="legend" d="M 252.8 222.8 L 253.0 224.2 Q 254.1 222.6, 255.8 222.6 Q 256.4 222.6, 257.2 222.8 L 256.9 224.5 Q 256.0 224.3, 255.5 224.3 Q 254.7 224.3, 254.1 224.6 Q 253.6 224.9, 253.1 225.7 L 253.1 233.1 L 251.3 233.1 L 251.3 222.8 L 252.8 222.8 " fill="#000000"/>
<path class="legend" d="M 258.2 227.9 Q 258.2 225.4, 259.4 224.0 Q 260.7 222.6, 263.1 222.6 Q 265.4 222.6, 266.7 224.0 Q 267.9 225.4, 267.9 227.9 Q 267.9 230.4, 266.7 231.8 Q 265.4 233.2, 263.1 233.2 Q 260.7 233.2, 259.4 231.8 Q 258.2 230.4, 258.2 227.9 M 260.1 227.9 Q 260.1 229.8, 260.9 230.8 Q 261.6 231.7, 263.1 231.7 Q 264.5 231.7, 265.2 230.8 Q 266.0 229.8, 266.0 227.9 Q 266.0 226.0, 265.2 225.1 Q 264.5 224.1, 263.1 224.1 Q 261.6 224.1, 260.9 225.1 Q 260.1 226.0, 260.1 227.9 " fill="#000000"/>
<path class="legend" d="M 269.6 217.9 L 271.4 217.9 L 271.4 233.1 L 269.6 233.1 L 269.6 217.9 " fill="#000000"/>
<path class="legend" d="" fill="#000000"/>
<path class="legend" d="M 281.3 227.4 Q 281.3 224.5, 282.1 222.1 Q 282.9 219.8, 284.5 217.2 L 285.7 217.9 Q 284.4 220.3, 283.7 222.5 Q 283.1 224.6, 283.1 227.4 Q 283.1 230.1, 283.7 232.2 Q 284.4 234.3, 285.7 236.8 L 284.5 237.5 Q 282.9 235.0, 282.1 232.6 Q 281.3 230.3, 281.3 227.4 " fill="#000000"/>
<path class="legend" d="M 291.3 220.5 L 286.9 220.5 L 286.9 218.9 L 297.3 218.9 L 297.3 220.5 L 293.2 220.5 L 293.2 233.1 L 291.3 233.1 L 291.3 220.5 " fill="#000000"/>
<path class="legend" d="M 298.1 221.6 Q 298.6 220.2, 299.8 219.5 Q 301.1 218.7, 302.8 218.7 Q 304.9 218.7, 306.1 219.9 Q 307.3 221.1, 307.3 223.1 Q 307.3 225.2, 305.8 227.2 Q 304.2 229.1, 301.0 231.5 L 307.6 231.5 L 307.6 233.1 L 298.0 233.1 L 298.0 231.7 Q 300.7 229.8, 302.2 228.4 Q 303.8 227.0, 304.6 225.8 Q 305.3 224.5, 305.3 223.2 Q 305.3 221.9, 304.7 221.1 Q 304.0 220.3, 302.8 220.3 Q 301.7 220.3, 300.9 220.8 Q 300.1 221.3, 299.6 222.3 L 298.1 221.6 " fill="#000000"/>
<path class="legend" d="M 314.7 233.2 Q 312.1 233.2, 310.8 231.3 Q 309.5 229.4, 309.5 226.0 Q 309.5 222.5, 310.8 220.6 Q 312.1 218.7, 314.7 218.7 Q 317.3 218.7, 318.6 220.6 Q 319.9 222.5, 319.9 226.0 Q 319.9 229.4, 318.6 231.3 Q 317.3 233.2, 314.7 233.2 M 314.7 231.6 Q 316.2 231.6, 317.1 230.2 Q 317.9 228.8, 317.9 226.0 Q 317.9 223.2, 317.1 221.8 Q 316.2 220.3, 314.7 220.3 Q 313.2 220.3, 312.3 221.8 Q 311.5 223.2, 311.5 226.0 Q 311.5 228.8, 312.3 230.2 Q 313.2 231.6, 314.7 231.6 " fill="#000000"/>
<path class="legend" d="M 326.3 227.4 Q 326.3 230.3, 325.5 232.6 Q 324.6 235.0, 323.0 237.5 L 321.9 236.8 Q 323.2 234.3, 323.8 232.2 Q 324.5 230.1, 324.5 227.4 Q 324.5 224.6, 323.8 222.5 Q 323.2 220.3, 321.9 217.9 L 323.0 217.2 Q 324.6 219.8, 325.5 222.1 Q 326.3 224.5, 326.3 227.4 " fill="#000000"/>
</g>
  </g>
</svg>
