<?xml version="1.0" encoding="utf-8" standalone="no"?>
<!DOCTYPE svg PUBLIC "-//W3C//DTD SVG 1.1//EN"
  "http://www.w3.org/Graphics/SVG/1.1/DTD/svg11.dtd">
<svg xmlns:xlink="http://www.w3.org/1999/xlink" width="648pt" height="360pt" viewBox="0 0 648 360" xmlns="http://www.w3.org/2000/svg" version="1.1">
 <metadata>
  <rdf:RDF xmlns:dc="http://purl.org/dc/elements/1.1/" xmlns:cc="http://creativecommons.org/ns#" xmlns:rdf="http://www.w3.org/1999/02/22-rdf-syntax-ns#">
   <cc:Work>
    <dc:type rdf:resource="http://purl.org/dc/dcmitype/StillImage"/>
    <dc:date>2025-09-24T14:59:53.479479</dc:date>
    <dc:format>image/svg+xml</dc:format>
    <dc:creator>
     <cc:Agent>
      <dc:title>Matplotlib v3.9.0, https://matplotlib.org/</dc:title>
     </cc:Agent>
    </dc:creator>
   </cc:Work>
  </rdf:RDF>
 </metadata>
 <defs>
  <style type="text/css">*{stroke-linejoin: round; stroke-linecap: butt}</style>
 </defs>
 <g id="figure_1">
  <g id="patch_1">
   <path d="M 0 360 
L 648 360 
L 648 0 
L 0 0 
L 0 360 
z
" style="fill: none"/>
  </g>
  <g id="axes_1">
   <g id="patch_2">
    <path d="M 136.005992 55.92 
L 386.417975 55.92 
L 355.116477 123.6 
L 167.30749 123.6 
z
" clip-path="url(#p0f3d89592c)" style="fill: #0d1b2a; opacity: 0.9; stroke: #000000; stroke-linejoin: miter"/>
   </g>
   <g id="patch_3">
    <path d="M 167.30749 123.6 
L 355.116477 123.6 
L 323.814979 191.28 
L 198.608988 191.28 
z
" clip-path="url(#p0f3d89592c)" style="fill: #247b88; opacity: 0.9; stroke: #000000; stroke-linejoin: miter"/>
   </g>
   <g id="patch_4">
    <path d="M 198.608988 191.28 
L 323.814979 191.28 
L 292.513481 258.96 
L 229.910486 258.96 
z
" clip-path="url(#p0f3d89592c)" style="fill: #e0a800; opacity: 0.9; stroke: #000000; stroke-linejoin: miter"/>
   </g>
   <g id="patch_5">
    <path d="M 229.910486 258.96 
L 292.513481 258.96 
L 261.211983 326.64 
z
" clip-path="url(#p0f3d89592c)" style="fill: #8b0000; opacity: 0.9; stroke: #000000; stroke-linejoin: miter"/>
   </g>
   <g id="line2d_1">
    <path d="M 386.417975 89.76 
L 431.805147 89.76 
" clip-path="url(#p0f3d89592c)" style="fill: none; stroke-dasharray: 3.7,1.6; stroke-dashoffset: 0; stroke: #808080"/>
   </g>
   <g id="line2d_2">
    <path d="M 355.116477 157.44 
L 431.805147 157.44 
" clip-path="url(#p0f3d89592c)" style="fill: none; stroke-dasharray: 3.7,1.6; stroke-dashoffset: 0; stroke: #808080"/>
   </g>
   <g id="line2d_3">
    <path d="M 323.814979 225.12 
L 431.805147 225.12 
" clip-path="url(#p0f3d89592c)" style="fill: none; stroke-dasharray: 3.7,1.6; stroke-dashoffset: 0; stroke: #808080"/>
   </g>
   <g id="line2d_4">
    <path d="M 292.513481 292.8 
L 431.805147 292.8 
" clip-path="url(#p0f3d89592c)" style="fill: none; stroke-dasharray: 3.7,1.6; stroke-dashoffset: 0; stroke: #808080"/>
   </g>
   <g id="text_1">
    <path d="M 241.090577 92.618281 
L 241.090577 91.135 
Q 241.583858 91.367031 242.034171 91.482187 
Q 242.486202 91.597344 242.926202 91.597344 
Q 243.85089 91.597344 244.366515 91.085156 
Q 244.88214 90.57125 244.973233 89.562344 
Q 244.608858 89.830469 244.19464 89.964531 
Q 243.780421 90.098594 243.297452 90.098594 
Q 242.066827 90.098594 241.312296 89.381875 
Q 240.557765 88.665156 240.557765 87.494687 
Q 240.557765 86.19875 241.398233 85.420156 
Q 242.238702 84.641562 243.651515 84.641562 
Q 245.220733 84.641562 246.080108 85.700312 
Q 246.939483 86.757344 246.939483 88.690937 
Q 246.939483 90.679531 245.934015 91.815625 
Q 244.930265 92.951719 243.178858 92.951719 
Q 242.615108 92.951719 242.099483 92.8675 
Q 241.583858 92.785 241.090577 92.618281 
z
M 243.641202 88.75625 
Q 244.184327 88.75625 244.457608 88.405625 
Q 244.73089 88.053281 244.73089 87.348594 
Q 244.73089 86.650781 244.457608 86.296719 
Q 244.184327 85.940937 243.641202 85.940937 
Q 243.098077 85.940937 242.824796 86.296719 
Q 242.551515 86.650781 242.551515 87.348594 
Q 242.551515 88.053281 242.824796 88.405625 
Q 243.098077 88.75625 243.641202 88.75625 
z
M 252.766261 88.470937 
Q 253.577511 88.680625 253.998605 89.199687 
Q 254.421417 89.717031 254.421417 90.517969 
Q 254.421417 91.710781 253.507042 92.33125 
Q 252.594386 92.951719 250.844698 92.951719 
Q 250.225948 92.951719 249.60548 92.852031 
Q 248.985011 92.752344 248.378292 92.552969 
L 248.378292 90.957969 
Q 248.95923 91.248437 249.529855 91.39625 
Q 250.102198 91.544062 250.655636 91.544062 
Q 251.477198 91.544062 251.91548 91.260469 
Q 252.353761 90.975156 252.353761 90.442344 
Q 252.353761 89.894062 251.905167 89.612187 
Q 251.456573 89.330312 250.580011 89.330312 
L 249.753292 89.330312 
L 249.753292 87.998281 
L 250.62298 87.998281 
Q 251.403292 87.998281 251.783136 87.754219 
Q 252.164698 87.510156 252.164698 87.01 
Q 252.164698 86.549375 251.793448 86.296719 
Q 251.423917 86.044062 250.74673 86.044062 
Q 250.248292 86.044062 249.737823 86.1575 
Q 249.227355 86.269219 248.722042 86.489219 
L 248.722042 84.975 
Q 249.333917 84.803125 249.93548 84.717187 
Q 250.537042 84.63125 251.11798 84.63125 
Q 252.680323 84.63125 253.45548 85.145156 
Q 254.232355 85.657344 254.232355 86.688594 
Q 254.232355 87.391562 253.861105 87.840156 
Q 253.491573 88.28875 252.766261 88.470937 
z
M 256.418819 90.717344 
L 258.352413 90.717344 
L 258.352413 92.355312 
L 257.025538 94.357656 
L 255.882569 94.357656 
L 256.418819 92.355312 
L 256.418819 90.717344 
z
M 260.640499 84.775625 
L 265.78128 84.775625 
L 265.78128 86.296719 
L 262.290499 86.296719 
L 262.290499 87.537656 
Q 262.525968 87.472344 262.764874 87.437969 
Q 263.00378 87.401875 263.261593 87.401875 
Q 264.727687 87.401875 265.544093 88.135781 
Q 266.360499 88.869687 266.360499 90.179375 
Q 266.360499 91.47875 265.471905 92.216094 
Q 264.583312 92.951719 263.00378 92.951719 
Q 262.321437 92.951719 261.652843 92.819375 
Q 260.984249 92.687031 260.324249 92.418906 
L 260.324249 90.79125 
Q 260.979093 91.167656 261.566905 91.356719 
Q 262.154718 91.544062 262.677218 91.544062 
Q 263.428312 91.544062 263.859718 91.17625 
Q 264.292843 90.808437 264.292843 90.179375 
Q 264.292843 89.545156 263.859718 89.180781 
Q 263.428312 88.814687 262.677218 88.814687 
Q 262.230343 88.814687 261.72503 88.931562 
Q 261.221437 89.046719 260.640499 89.287344 
L 260.640499 84.775625 
z
M 268.230714 92.618281 
L 268.230714 91.135 
Q 268.723995 91.367031 269.174308 91.482187 
Q 269.626339 91.597344 270.066339 91.597344 
Q 270.991026 91.597344 271.506651 91.085156 
Q 272.022276 90.57125 272.11337 89.562344 
Q 271.748995 89.830469 271.334776 89.964531 
Q 270.920558 90.098594 270.437589 90.098594 
Q 269.206964 90.098594 268.452433 89.381875 
Q 267.697901 88.665156 267.697901 87.494687 
Q 267.697901 86.19875 268.53837 85.420156 
Q 269.378839 84.641562 270.791651 84.641562 
Q 272.36087 84.641562 273.220245 85.700312 
Q 274.07962 86.757344 274.07962 88.690937 
Q 274.07962 90.679531 273.074151 91.815625 
Q 272.070401 92.951719 270.318995 92.951719 
Q 269.755245 92.951719 269.23962 92.8675 
Q 268.723995 92.785 268.230714 92.618281 
z
M 270.781339 88.75625 
Q 271.324464 88.75625 271.597745 88.405625 
Q 271.871026 88.053281 271.871026 87.348594 
Q 271.871026 86.650781 271.597745 86.296719 
Q 271.324464 85.940937 270.781339 85.940937 
Q 270.238214 85.940937 269.964933 86.296719 
Q 269.691651 86.650781 269.691651 87.348594 
Q 269.691651 88.053281 269.964933 88.405625 
Q 270.238214 88.75625 270.781339 88.75625 
z
M 277.952179 91.275937 
L 281.480773 91.275937 
L 281.480773 92.795312 
L 275.652491 92.795312 
L 275.652491 91.275937 
L 278.579523 88.690937 
Q 278.973116 88.336875 279.16046 87.998281 
Q 279.347804 87.659687 279.347804 87.295312 
Q 279.347804 86.731562 278.969679 86.387812 
Q 278.591554 86.044062 277.962491 86.044062 
Q 277.479523 86.044062 276.903741 86.250312 
Q 276.329679 86.456562 275.674835 86.865625 
L 275.674835 85.103906 
Q 276.372648 84.873594 277.054991 84.753281 
Q 277.737335 84.63125 278.392179 84.63125 
Q 279.832491 84.63125 280.629991 85.265469 
Q 281.427491 85.897969 281.427491 87.032344 
Q 281.427491 87.687187 281.088898 88.254375 
Q 280.750304 88.819844 279.665773 89.772031 
L 277.952179 91.275937 
z
" style="fill: #ffffff; stroke: #000000; stroke-width: 3"/>
    <path d="M 241.090577 92.618281 
L 241.090577 91.135 
Q 241.583858 91.367031 242.034171 91.482187 
Q 242.486202 91.597344 242.926202 91.597344 
Q 243.85089 91.597344 244.366515 91.085156 
Q 244.88214 90.57125 244.973233 89.562344 
Q 244.608858 89.830469 244.19464 89.964531 
Q 243.780421 90.098594 243.297452 90.098594 
Q 242.066827 90.098594 241.312296 89.381875 
Q 240.557765 88.665156 240.557765 87.494687 
Q 240.557765 86.19875 241.398233 85.420156 
Q 242.238702 84.641562 243.651515 84.641562 
Q 245.220733 84.641562 246.080108 85.700312 
Q 246.939483 86.757344 246.939483 88.690937 
Q 246.939483 90.679531 245.934015 91.815625 
Q 244.930265 92.951719 243.178858 92.951719 
Q 242.615108 92.951719 242.099483 92.8675 
Q 241.583858 92.785 241.090577 92.618281 
z
M 243.641202 88.75625 
Q 244.184327 88.75625 244.457608 88.405625 
Q 244.73089 88.053281 244.73089 87.348594 
Q 244.73089 86.650781 244.457608 86.296719 
Q 244.184327 85.940937 243.641202 85.940937 
Q 243.098077 85.940937 242.824796 86.296719 
Q 242.551515 86.650781 242.551515 87.348594 
Q 242.551515 88.053281 242.824796 88.405625 
Q 243.098077 88.75625 243.641202 88.75625 
z
M 252.766261 88.470937 
Q 253.577511 88.680625 253.998605 89.199687 
Q 254.421417 89.717031 254.421417 90.517969 
Q 254.421417 91.710781 253.507042 92.33125 
Q 252.594386 92.951719 250.844698 92.951719 
Q 250.225948 92.951719 249.60548 92.852031 
Q 248.985011 92.752344 248.378292 92.552969 
L 248.378292 90.957969 
Q 248.95923 91.248437 249.529855 91.39625 
Q 250.102198 91.544062 250.655636 91.544062 
Q 251.477198 91.544062 251.91548 91.260469 
Q 252.353761 90.975156 252.353761 90.442344 
Q 252.353761 89.894062 251.905167 89.612187 
Q 251.456573 89.330312 250.580011 89.330312 
L 249.753292 89.330312 
L 249.753292 87.998281 
L 250.62298 87.998281 
Q 251.403292 87.998281 251.783136 87.754219 
Q 252.164698 87.510156 252.164698 87.01 
Q 252.164698 86.549375 251.793448 86.296719 
Q 251.423917 86.044062 250.74673 86.044062 
Q 250.248292 86.044062 249.737823 86.1575 
Q 249.227355 86.269219 248.722042 86.489219 
L 248.722042 84.975 
Q 249.333917 84.803125 249.93548 84.717187 
Q 250.537042 84.63125 251.11798 84.63125 
Q 252.680323 84.63125 253.45548 85.145156 
Q 254.232355 85.657344 254.232355 86.688594 
Q 254.232355 87.391562 253.861105 87.840156 
Q 253.491573 88.28875 252.766261 88.470937 
z
M 256.418819 90.717344 
L 258.352413 90.717344 
L 258.352413 92.355312 
L 257.025538 94.357656 
L 255.882569 94.357656 
L 256.418819 92.355312 
L 256.418819 90.717344 
z
M 260.640499 84.775625 
L 265.78128 84.775625 
L 265.78128 86.296719 
L 262.290499 86.296719 
L 262.290499 87.537656 
Q 262.525968 87.472344 262.764874 87.437969 
Q 263.00378 87.401875 263.261593 87.401875 
Q 264.727687 87.401875 265.544093 88.135781 
Q 266.360499 88.869687 266.360499 90.179375 
Q 266.360499 91.47875 265.471905 92.216094 
Q 264.583312 92.951719 263.00378 92.951719 
Q 262.321437 92.951719 261.652843 92.819375 
Q 260.984249 92.687031 260.324249 92.418906 
L 260.324249 90.79125 
Q 260.979093 91.167656 261.566905 91.356719 
Q 262.154718 91.544062 262.677218 91.544062 
Q 263.428312 91.544062 263.859718 91.17625 
Q 264.292843 90.808437 264.292843 90.179375 
Q 264.292843 89.545156 263.859718 89.180781 
Q 263.428312 88.814687 262.677218 88.814687 
Q 262.230343 88.814687 261.72503 88.931562 
Q 261.221437 89.046719 260.640499 89.287344 
L 260.640499 84.775625 
z
M 268.230714 92.618281 
L 268.230714 91.135 
Q 268.723995 91.367031 269.174308 91.482187 
Q 269.626339 91.597344 270.066339 91.597344 
Q 270.991026 91.597344 271.506651 91.085156 
Q 272.022276 90.57125 272.11337 89.562344 
Q 271.748995 89.830469 271.334776 89.964531 
Q 270.920558 90.098594 270.437589 90.098594 
Q 269.206964 90.098594 268.452433 89.381875 
Q 267.697901 88.665156 267.697901 87.494687 
Q 267.697901 86.19875 268.53837 85.420156 
Q 269.378839 84.641562 270.791651 84.641562 
Q 272.36087 84.641562 273.220245 85.700312 
Q 274.07962 86.757344 274.07962 88.690937 
Q 274.07962 90.679531 273.074151 91.815625 
Q 272.070401 92.951719 270.318995 92.951719 
Q 269.755245 92.951719 269.23962 92.8675 
Q 268.723995 92.785 268.230714 92.618281 
z
M 270.781339 88.75625 
Q 271.324464 88.75625 271.597745 88.405625 
Q 271.871026 88.053281 271.871026 87.348594 
Q 271.871026 86.650781 271.597745 86.296719 
Q 271.324464 85.940937 270.781339 85.940937 
Q 270.238214 85.940937 269.964933 86.296719 
Q 269.691651 86.650781 269.691651 87.348594 
Q 269.691651 88.053281 269.964933 88.405625 
Q 270.238214 88.75625 270.781339 88.75625 
z
M 277.952179 91.275937 
L 281.480773 91.275937 
L 281.480773 92.795312 
L 275.652491 92.795312 
L 275.652491 91.275937 
L 278.579523 88.690937 
Q 278.973116 88.336875 279.16046 87.998281 
Q 279.347804 87.659687 279.347804 87.295312 
Q 279.347804 86.731562 278.969679 86.387812 
Q 278.591554 86.044062 277.962491 86.044062 
Q 277.479523 86.044062 276.903741 86.250312 
Q 276.329679 86.456562 275.674835 86.865625 
L 275.674835 85.103906 
Q 276.372648 84.873594 277.054991 84.753281 
Q 277.737335 84.63125 278.392179 84.63125 
Q 279.832491 84.63125 280.629991 85.265469 
Q 281.427491 85.897969 281.427491 87.032344 
Q 281.427491 87.687187 281.088898 88.254375 
Q 280.750304 88.819844 279.665773 89.772031 
L 277.952179 91.275937 
z
" style="fill: #ffffff"/>
   </g>
   <g id="text_2">
    <!-- NPASS (Initial) -->
    <g transform="translate(436.500372 92.243437) scale(0.09 -0.09)">
     <defs>
      <path id="DejaVuSans-Bold-4e" d="M 588 4666 
L 1931 4666 
L 3628 1466 
L 3628 4666 
L 4769 4666 
L 4769 0 
L 3425 0 
L 1728 3200 
L 1728 0 
L 588 0 
L 588 4666 
z
" transform="scale(0.015625)"/>
      <path id="DejaVuSans-Bold-50" d="M 588 4666 
L 2584 4666 
Q 3475 4666 3951 4270 
Q 4428 3875 4428 3144 
Q 4428 2409 3951 2014 
Q 3475 1619 2584 1619 
L 1791 1619 
L 1791 0 
L 588 0 
L 588 4666 
z
M 1791 3794 
L 1791 2491 
L 2456 2491 
Q 2806 2491 2997 2661 
Q 3188 2831 3188 3144 
Q 3188 3456 2997 3625 
Q 2806 3794 2456 3794 
L 1791 3794 
z
" transform="scale(0.015625)"/>
      <path id="DejaVuSans-Bold-41" d="M 3419 850 
L 1538 850 
L 1241 0 
L 31 0 
L 1759 4666 
L 3194 4666 
L 4922 0 
L 3713 0 
L 3419 850 
z
M 1838 1716 
L 3116 1716 
L 2478 3572 
L 1838 1716 
z
" transform="scale(0.015625)"/>
      <path id="DejaVuSans-Bold-53" d="M 3834 4519 
L 3834 3531 
Q 3450 3703 3084 3790 
Q 2719 3878 2394 3878 
Q 1963 3878 1756 3759 
Q 1550 3641 1550 3391 
Q 1550 3203 1689 3098 
Q 1828 2994 2194 2919 
L 2706 2816 
Q 3484 2659 3812 2340 
Q 4141 2022 4141 1434 
Q 4141 663 3683 286 
Q 3225 -91 2284 -91 
Q 1841 -91 1394 -6 
Q 947 78 500 244 
L 500 1259 
Q 947 1022 1364 901 
Q 1781 781 2169 781 
Q 2563 781 2772 912 
Q 2981 1044 2981 1288 
Q 2981 1506 2839 1625 
Q 2697 1744 2272 1838 
L 1806 1941 
Q 1106 2091 782 2419 
Q 459 2747 459 3303 
Q 459 4000 909 4375 
Q 1359 4750 2203 4750 
Q 2588 4750 2994 4692 
Q 3400 4634 3834 4519 
z
" transform="scale(0.015625)"/>
      <path id="DejaVuSans-Bold-20" transform="scale(0.015625)"/>
      <path id="DejaVuSans-Bold-28" d="M 2413 -844 
L 1484 -844 
Q 1006 -72 778 623 
Q 550 1319 550 2003 
Q 550 2688 779 3389 
Q 1009 4091 1484 4856 
L 2413 4856 
Q 2013 4116 1813 3408 
Q 1613 2700 1613 2009 
Q 1613 1319 1811 609 
Q 2009 -100 2413 -844 
z
" transform="scale(0.015625)"/>
      <path id="DejaVuSans-Bold-49" d="M 588 4666 
L 1791 4666 
L 1791 0 
L 588 0 
L 588 4666 
z
" transform="scale(0.015625)"/>
      <path id="DejaVuSans-Bold-6e" d="M 4056 2131 
L 4056 0 
L 2931 0 
L 2931 347 
L 2931 1631 
Q 2931 2084 2911 2256 
Q 2891 2428 2841 2509 
Q 2775 2619 2662 2680 
Q 2550 2741 2406 2741 
Q 2056 2741 1856 2470 
Q 1656 2200 1656 1722 
L 1656 0 
L 538 0 
L 538 3500 
L 1656 3500 
L 1656 2988 
Q 1909 3294 2193 3439 
Q 2478 3584 2822 3584 
Q 3428 3584 3742 3212 
Q 4056 2841 4056 2131 
z
" transform="scale(0.015625)"/>
      <path id="DejaVuSans-Bold-69" d="M 538 3500 
L 1656 3500 
L 1656 0 
L 538 0 
L 538 3500 
z
M 538 4863 
L 1656 4863 
L 1656 3950 
L 538 3950 
L 538 4863 
z
" transform="scale(0.015625)"/>
      <path id="DejaVuSans-Bold-74" d="M 1759 4494 
L 1759 3500 
L 2913 3500 
L 2913 2700 
L 1759 2700 
L 1759 1216 
Q 1759 972 1856 886 
Q 1953 800 2241 800 
L 2816 800 
L 2816 0 
L 1856 0 
Q 1194 0 917 276 
Q 641 553 641 1216 
L 641 2700 
L 84 2700 
L 84 3500 
L 641 3500 
L 641 4494 
L 1759 4494 
z
" transform="scale(0.015625)"/>
      <path id="DejaVuSans-Bold-61" d="M 2106 1575 
Q 1756 1575 1579 1456 
Q 1403 1338 1403 1106 
Q 1403 894 1545 773 
Q 1688 653 1941 653 
Q 2256 653 2472 879 
Q 2688 1106 2688 1447 
L 2688 1575 
L 2106 1575 
z
M 3816 1997 
L 3816 0 
L 2688 0 
L 2688 519 
Q 2463 200 2181 54 
Q 1900 -91 1497 -91 
Q 953 -91 614 226 
Q 275 544 275 1050 
Q 275 1666 698 1953 
Q 1122 2241 2028 2241 
L 2688 2241 
L 2688 2328 
Q 2688 2594 2478 2717 
Q 2269 2841 1825 2841 
Q 1466 2841 1156 2769 
Q 847 2697 581 2553 
L 581 3406 
Q 941 3494 1303 3539 
Q 1666 3584 2028 3584 
Q 2975 3584 3395 3211 
Q 3816 2838 3816 1997 
z
" transform="scale(0.015625)"/>
      <path id="DejaVuSans-Bold-6c" d="M 538 4863 
L 1656 4863 
L 1656 0 
L 538 0 
L 538 4863 
z
" transform="scale(0.015625)"/>
      <path id="DejaVuSans-Bold-29" d="M 513 -844 
Q 913 -100 1113 609 
Q 1313 1319 1313 2009 
Q 1313 2700 1113 3408 
Q 913 4116 513 4856 
L 1441 4856 
Q 1916 4091 2145 3389 
Q 2375 2688 2375 2003 
Q 2375 1319 2147 623 
Q 1919 -72 1441 -844 
L 513 -844 
z
" transform="scale(0.015625)"/>
     </defs>
     <use xlink:href="#DejaVuSans-Bold-4e"/>
     <use xlink:href="#DejaVuSans-Bold-50" x="83.691406"/>
     <use xlink:href="#DejaVuSans-Bold-41" x="147.857422"/>
     <use xlink:href="#DejaVuSans-Bold-53" x="225.25"/>
     <use xlink:href="#DejaVuSans-Bold-53" x="292.771484"/>
     <use xlink:href="#DejaVuSans-Bold-20" x="364.792969"/>
     <use xlink:href="#DejaVuSans-Bold-28" x="399.607422"/>
     <use xlink:href="#DejaVuSans-Bold-49" x="445.310547"/>
     <use xlink:href="#DejaVuSans-Bold-6e" x="482.517578"/>
     <use xlink:href="#DejaVuSans-Bold-69" x="553.708984"/>
     <use xlink:href="#DejaVuSans-Bold-74" x="587.986328"/>
     <use xlink:href="#DejaVuSans-Bold-69" x="635.789062"/>
     <use xlink:href="#DejaVuSans-Bold-61" x="670.066406"/>
     <use xlink:href="#DejaVuSans-Bold-6c" x="737.546875"/>
     <use xlink:href="#DejaVuSans-Bold-29" x="771.824219"/>
    </g>
   </g>
   <g id="text_3">
    <path d="M 246.98503 147.675938 
L 250.513624 147.675938 
L 250.513624 149.195313 
L 244.685343 149.195313 
L 244.685343 147.675938 
L 247.612374 145.090938 
Q 248.005968 144.736875 248.193312 144.398281 
Q 248.380655 144.059688 248.380655 143.695313 
Q 248.380655 143.131563 248.00253 142.787813 
Q 247.624405 142.444063 246.995343 142.444063 
Q 246.512374 142.444063 245.936593 142.650313 
Q 245.36253 142.856563 244.707687 143.265625 
L 244.707687 141.503906 
Q 245.405499 141.273594 246.087843 141.153281 
Q 246.770187 141.03125 247.42503 141.03125 
Q 248.865343 141.03125 249.662843 141.665469 
Q 250.460343 142.297969 250.460343 143.432344 
Q 250.460343 144.087188 250.121749 144.654375 
Q 249.783155 145.219844 248.698624 146.172031 
L 246.98503 147.675938 
z
M 252.591808 147.117344 
L 254.525401 147.117344 
L 254.525401 148.755313 
L 253.198526 150.757656 
L 252.055558 150.757656 
L 252.591808 148.755313 
L 252.591808 147.117344 
z
M 256.937237 147.767031 
L 258.764269 147.767031 
L 258.764269 142.583281 
L 256.889112 142.97 
L 256.889112 141.562344 
L 258.752237 141.175625 
L 260.718487 141.175625 
L 260.718487 147.767031 
L 262.545519 147.767031 
L 262.545519 149.195313 
L 256.937237 149.195313 
L 256.937237 147.767031 
z
M 267.131358 145.606563 
Q 266.55214 145.606563 266.239327 145.924531 
Q 265.928233 146.240781 265.928233 146.832031 
Q 265.928233 147.423281 266.239327 147.737813 
Q 266.55214 148.050625 267.131358 148.050625 
Q 267.70714 148.050625 268.013077 147.737813 
Q 268.319015 147.423281 268.319015 146.832031 
Q 268.319015 146.235625 268.013077 145.921094 
Q 267.70714 145.606563 267.131358 145.606563 
z
M 265.622296 144.925938 
Q 264.891827 144.704219 264.520577 144.24875 
Q 264.151046 143.791563 264.151046 143.109219 
Q 264.151046 142.095156 264.907296 141.564063 
Q 265.665265 141.03125 267.131358 141.03125 
Q 268.58714 141.03125 269.34339 141.560625 
Q 270.101358 142.09 270.101358 143.109219 
Q 270.101358 143.791563 269.72839 144.24875 
Q 269.355421 144.704219 268.624952 144.925938 
Q 269.441358 145.151094 269.857296 145.658125 
Q 270.273233 146.165156 270.273233 146.938594 
Q 270.273233 148.131406 269.48089 148.741563 
Q 268.688546 149.351719 267.131358 149.351719 
Q 265.569015 149.351719 264.771515 148.741563 
Q 263.974015 148.131406 263.974015 146.938594 
Q 263.974015 146.165156 264.389952 145.658125 
Q 264.80589 145.151094 265.622296 144.925938 
z
M 266.105265 143.318906 
Q 266.105265 143.796719 266.371671 144.054531 
Q 266.638077 144.312344 267.131358 144.312344 
Q 267.614327 144.312344 267.877296 144.054531 
Q 268.141983 143.796719 268.141983 143.318906 
Q 268.141983 142.841094 267.877296 142.586719 
Q 267.614327 142.330625 267.131358 142.330625 
Q 266.638077 142.330625 266.371671 142.588438 
Q 266.105265 142.84625 266.105265 143.318906 
z
M 274.936417 145.237031 
Q 274.393292 145.237031 274.12173 145.589375 
Q 273.850167 145.94 273.850167 146.644688 
Q 273.850167 147.347656 274.12173 147.7 
Q 274.393292 148.050625 274.936417 148.050625 
Q 275.48298 148.050625 275.754542 147.7 
Q 276.026105 147.347656 276.026105 146.644688 
Q 276.026105 145.94 275.754542 145.589375 
Q 275.48298 145.237031 274.936417 145.237031 
z
M 277.492198 141.385313 
L 277.492198 142.868594 
Q 276.98173 142.62625 276.529698 142.511094 
Q 276.079386 142.395938 275.649698 142.395938 
Q 274.72673 142.395938 274.211105 142.909844 
Q 273.69548 143.422031 273.609542 144.430938 
Q 273.963605 144.167969 274.376105 144.037344 
Q 274.790323 143.905 275.280167 143.905 
Q 276.509073 143.905 277.263605 144.625156 
Q 278.018136 145.343594 278.018136 146.508906 
Q 278.018136 147.797969 277.17423 148.574844 
Q 276.332042 149.351719 274.914073 149.351719 
Q 273.35173 149.351719 272.494073 148.296406 
Q 271.638136 147.239375 271.638136 145.300625 
Q 271.638136 143.31375 272.640167 142.177656 
Q 273.642198 141.041563 275.38673 141.041563 
Q 275.940167 141.041563 276.460948 141.1275 
Q 276.98173 141.213438 277.492198 141.385313 
z
" style="fill: #ffffff; stroke: #000000; stroke-width: 3"/>
    <path d="M 246.98503 147.675938 
L 250.513624 147.675938 
L 250.513624 149.195313 
L 244.685343 149.195313 
L 244.685343 147.675938 
L 247.612374 145.090938 
Q 248.005968 144.736875 248.193312 144.398281 
Q 248.380655 144.059688 248.380655 143.695313 
Q 248.380655 143.131563 248.00253 142.787813 
Q 247.624405 142.444063 246.995343 142.444063 
Q 246.512374 142.444063 245.936593 142.650313 
Q 245.36253 142.856563 244.707687 143.265625 
L 244.707687 141.503906 
Q 245.405499 141.273594 246.087843 141.153281 
Q 246.770187 141.03125 247.42503 141.03125 
Q 248.865343 141.03125 249.662843 141.665469 
Q 250.460343 142.297969 250.460343 143.432344 
Q 250.460343 144.087188 250.121749 144.654375 
Q 249.783155 145.219844 248.698624 146.172031 
L 246.98503 147.675938 
z
M 252.591808 147.117344 
L 254.525401 147.117344 
L 254.525401 148.755313 
L 253.198526 150.757656 
L 252.055558 150.757656 
L 252.591808 148.755313 
L 252.591808 147.117344 
z
M 256.937237 147.767031 
L 258.764269 147.767031 
L 258.764269 142.583281 
L 256.889112 142.97 
L 256.889112 141.562344 
L 258.752237 141.175625 
L 260.718487 141.175625 
L 260.718487 147.767031 
L 262.545519 147.767031 
L 262.545519 149.195313 
L 256.937237 149.195313 
L 256.937237 147.767031 
z
M 267.131358 145.606563 
Q 266.55214 145.606563 266.239327 145.924531 
Q 265.928233 146.240781 265.928233 146.832031 
Q 265.928233 147.423281 266.239327 147.737813 
Q 266.55214 148.050625 267.131358 148.050625 
Q 267.70714 148.050625 268.013077 147.737813 
Q 268.319015 147.423281 268.319015 146.832031 
Q 268.319015 146.235625 268.013077 145.921094 
Q 267.70714 145.606563 267.131358 145.606563 
z
M 265.622296 144.925938 
Q 264.891827 144.704219 264.520577 144.24875 
Q 264.151046 143.791563 264.151046 143.109219 
Q 264.151046 142.095156 264.907296 141.564063 
Q 265.665265 141.03125 267.131358 141.03125 
Q 268.58714 141.03125 269.34339 141.560625 
Q 270.101358 142.09 270.101358 143.109219 
Q 270.101358 143.791563 269.72839 144.24875 
Q 269.355421 144.704219 268.624952 144.925938 
Q 269.441358 145.151094 269.857296 145.658125 
Q 270.273233 146.165156 270.273233 146.938594 
Q 270.273233 148.131406 269.48089 148.741563 
Q 268.688546 149.351719 267.131358 149.351719 
Q 265.569015 149.351719 264.771515 148.741563 
Q 263.974015 148.131406 263.974015 146.938594 
Q 263.974015 146.165156 264.389952 145.658125 
Q 264.80589 145.151094 265.622296 144.925938 
z
M 266.105265 143.318906 
Q 266.105265 143.796719 266.371671 144.054531 
Q 266.638077 144.312344 267.131358 144.312344 
Q 267.614327 144.312344 267.877296 144.054531 
Q 268.141983 143.796719 268.141983 143.318906 
Q 268.141983 142.841094 267.877296 142.586719 
Q 267.614327 142.330625 267.131358 142.330625 
Q 266.638077 142.330625 266.371671 142.588438 
Q 266.105265 142.84625 266.105265 143.318906 
z
M 274.936417 145.237031 
Q 274.393292 145.237031 274.12173 145.589375 
Q 273.850167 145.94 273.850167 146.644688 
Q 273.850167 147.347656 274.12173 147.7 
Q 274.393292 148.050625 274.936417 148.050625 
Q 275.48298 148.050625 275.754542 147.7 
Q 276.026105 147.347656 276.026105 146.644688 
Q 276.026105 145.94 275.754542 145.589375 
Q 275.48298 145.237031 274.936417 145.237031 
z
M 277.492198 141.385313 
L 277.492198 142.868594 
Q 276.98173 142.62625 276.529698 142.511094 
Q 276.079386 142.395938 275.649698 142.395938 
Q 274.72673 142.395938 274.211105 142.909844 
Q 273.69548 143.422031 273.609542 144.430938 
Q 273.963605 144.167969 274.376105 144.037344 
Q 274.790323 143.905 275.280167 143.905 
Q 276.509073 143.905 277.263605 144.625156 
Q 278.018136 145.343594 278.018136 146.508906 
Q 278.018136 147.797969 277.17423 148.574844 
Q 276.332042 149.351719 274.914073 149.351719 
Q 273.35173 149.351719 272.494073 148.296406 
Q 271.638136 147.239375 271.638136 145.300625 
Q 271.638136 143.31375 272.640167 142.177656 
Q 273.642198 141.041563 275.38673 141.041563 
Q 275.940167 141.041563 276.460948 141.1275 
Q 276.98173 141.213438 277.492198 141.385313 
z
" style="fill: #ffffff"/>
   </g>
   <g id="text_4">
    <path d="M 244.880499 172.390313 
L 243.574093 172.390313 
Q 242.901905 171.304688 242.58128 170.327344 
Q 242.260655 169.348594 242.260655 168.386719 
Q 242.260655 167.423438 242.582687 166.437656 
Q 242.906124 165.450469 243.574093 164.374688 
L 244.880499 164.374688 
Q 244.317999 165.415313 244.036749 166.410938 
Q 243.755499 167.406563 243.755499 168.378281 
Q 243.755499 169.348594 244.033937 170.347031 
Q 244.312374 171.344063 244.880499 172.390313 
z
M 248.193624 169.960313 
L 251.080655 169.960313 
L 251.080655 171.203438 
L 246.312062 171.203438 
L 246.312062 169.960313 
L 248.706905 167.845313 
Q 249.028937 167.555625 249.182218 167.278594 
Q 249.335499 167.001563 249.335499 166.703438 
Q 249.335499 166.242188 249.026124 165.960938 
Q 248.716749 165.679688 248.202062 165.679688 
Q 247.806905 165.679688 247.335812 165.848438 
Q 246.866124 166.017188 246.330343 166.351875 
L 246.330343 164.910469 
Q 246.90128 164.722031 247.459562 164.623594 
Q 248.017843 164.52375 248.553624 164.52375 
Q 249.732062 164.52375 250.384562 165.042656 
Q 251.037062 165.560156 251.037062 166.488281 
Q 251.037062 167.024063 250.76003 167.488125 
Q 250.482999 167.950781 249.595655 168.729844 
L 248.193624 169.960313 
z
M 252.780987 169.503281 
L 254.363019 169.503281 
L 254.363019 171.203438 
L 252.780987 171.203438 
L 252.780987 169.503281 
z
M 259.473683 167.665313 
Q 260.137433 167.836875 260.481964 168.261563 
Q 260.827901 168.684844 260.827901 169.340156 
Q 260.827901 170.316094 260.079776 170.82375 
Q 259.333058 171.331406 257.901495 171.331406 
Q 257.395245 171.331406 256.887589 171.249844 
Q 256.379933 171.168281 255.883526 171.005156 
L 255.883526 169.700156 
Q 256.358839 169.937813 256.825714 170.05875 
Q 257.293995 170.179688 257.746808 170.179688 
Q 258.418995 170.179688 258.777589 169.947656 
Q 259.136183 169.714219 259.136183 169.278281 
Q 259.136183 168.829688 258.769151 168.599063 
Q 258.40212 168.368438 257.684933 168.368438 
L 257.008526 168.368438 
L 257.008526 167.278594 
L 257.720089 167.278594 
Q 258.358526 167.278594 258.669308 167.078906 
Q 258.981495 166.879219 258.981495 166.47 
Q 258.981495 166.093125 258.677745 165.886406 
Q 258.375401 165.679688 257.821339 165.679688 
Q 257.413526 165.679688 256.99587 165.7725 
Q 256.578214 165.863906 256.164776 166.043906 
L 256.164776 164.805 
Q 256.665401 164.664375 257.157589 164.594063 
Q 257.649776 164.52375 258.125089 164.52375 
Q 259.40337 164.52375 260.037589 164.944219 
Q 260.673214 165.363281 260.673214 166.207031 
Q 260.673214 166.782188 260.369464 167.149219 
Q 260.06712 167.51625 259.473683 167.665313 
z
M 264.856983 166.035469 
L 263.003546 168.781875 
L 264.856983 168.781875 
L 264.856983 166.035469 
z
M 264.575733 164.641875 
L 266.457296 164.641875 
L 266.457296 168.781875 
L 267.392452 168.781875 
L 267.392452 170.008125 
L 266.457296 170.008125 
L 266.457296 171.203438 
L 264.856983 171.203438 
L 264.856983 170.008125 
L 261.948858 170.008125 
L 261.948858 168.558281 
L 264.575733 164.641875 
z
M 274.779659 168.496406 
Q 274.468878 168.496406 274.297316 168.766406 
Q 274.125753 169.036406 274.125753 169.538438 
Q 274.125753 170.043281 274.294503 170.313281 
Q 274.463253 170.583281 274.779659 170.583281 
Q 275.096066 170.583281 275.263409 170.313281 
Q 275.430753 170.043281 275.430753 169.538438 
Q 275.430753 169.036406 275.260597 168.766406 
Q 275.091847 168.496406 274.779659 168.496406 
z
M 274.779659 167.758125 
Q 275.598097 167.758125 276.067784 168.233438 
Q 276.537472 168.707344 276.537472 169.538438 
Q 276.537472 170.368125 276.067784 170.850469 
Q 275.598097 171.331406 274.779659 171.331406 
Q 273.962628 171.331406 273.490128 170.850469 
Q 273.017628 170.368125 273.017628 169.538438 
Q 273.017628 168.711563 273.490128 168.234844 
Q 273.962628 167.758125 274.779659 167.758125 
z
M 270.750753 171.331406 
L 269.779034 171.331406 
L 273.879659 164.52375 
L 274.855597 164.52375 
L 270.750753 171.331406 
z
M 269.849347 164.52375 
Q 270.666378 164.52375 271.134659 165.000469 
Q 271.602941 165.477188 271.602941 166.308281 
Q 271.602941 167.137969 271.134659 167.6175 
Q 270.666378 168.097031 269.849347 168.097031 
Q 269.032316 168.097031 268.564034 167.6175 
Q 268.095753 167.137969 268.095753 166.308281 
Q 268.095753 165.477188 268.564034 165.000469 
Q 269.032316 164.52375 269.849347 164.52375 
z
M 269.849347 165.262031 
Q 269.532941 165.262031 269.361378 165.534844 
Q 269.189816 165.80625 269.189816 166.308281 
Q 269.189816 166.813125 269.361378 167.08875 
Q 269.532941 167.362969 269.849347 167.362969 
Q 270.165753 167.362969 270.334503 167.08875 
Q 270.504659 166.813125 270.504659 166.308281 
Q 270.504659 165.80625 270.333097 165.534844 
Q 270.161534 165.262031 269.849347 165.262031 
z
M 277.54505 172.390313 
Q 278.10755 171.344063 278.3888 170.347031 
Q 278.67005 169.348594 278.67005 168.378281 
Q 278.67005 167.406563 278.3888 166.410938 
Q 278.10755 165.415313 277.54505 164.374688 
L 278.85005 164.374688 
Q 279.518019 165.450469 279.84005 166.437656 
Q 280.163487 167.423438 280.163487 168.386719 
Q 280.163487 169.348594 279.842862 170.327344 
Q 279.522237 171.304688 278.85005 172.390313 
L 277.54505 172.390313 
z
" style="fill: #ffffff; stroke: #000000; stroke-width: 3"/>
    <path d="M 244.880499 172.390313 
L 243.574093 172.390313 
Q 242.901905 171.304688 242.58128 170.327344 
Q 242.260655 169.348594 242.260655 168.386719 
Q 242.260655 167.423438 242.582687 166.437656 
Q 242.906124 165.450469 243.574093 164.374688 
L 244.880499 164.374688 
Q 244.317999 165.415313 244.036749 166.410938 
Q 243.755499 167.406563 243.755499 168.378281 
Q 243.755499 169.348594 244.033937 170.347031 
Q 244.312374 171.344063 244.880499 172.390313 
z
M 248.193624 169.960313 
L 251.080655 169.960313 
L 251.080655 171.203438 
L 246.312062 171.203438 
L 246.312062 169.960313 
L 248.706905 167.845313 
Q 249.028937 167.555625 249.182218 167.278594 
Q 249.335499 167.001563 249.335499 166.703438 
Q 249.335499 166.242188 249.026124 165.960938 
Q 248.716749 165.679688 248.202062 165.679688 
Q 247.806905 165.679688 247.335812 165.848438 
Q 246.866124 166.017188 246.330343 166.351875 
L 246.330343 164.910469 
Q 246.90128 164.722031 247.459562 164.623594 
Q 248.017843 164.52375 248.553624 164.52375 
Q 249.732062 164.52375 250.384562 165.042656 
Q 251.037062 165.560156 251.037062 166.488281 
Q 251.037062 167.024063 250.76003 167.488125 
Q 250.482999 167.950781 249.595655 168.729844 
L 248.193624 169.960313 
z
M 252.780987 169.503281 
L 254.363019 169.503281 
L 254.363019 171.203438 
L 252.780987 171.203438 
L 252.780987 169.503281 
z
M 259.473683 167.665313 
Q 260.137433 167.836875 260.481964 168.261563 
Q 260.827901 168.684844 260.827901 169.340156 
Q 260.827901 170.316094 260.079776 170.82375 
Q 259.333058 171.331406 257.901495 171.331406 
Q 257.395245 171.331406 256.887589 171.249844 
Q 256.379933 171.168281 255.883526 171.005156 
L 255.883526 169.700156 
Q 256.358839 169.937813 256.825714 170.05875 
Q 257.293995 170.179688 257.746808 170.179688 
Q 258.418995 170.179688 258.777589 169.947656 
Q 259.136183 169.714219 259.136183 169.278281 
Q 259.136183 168.829688 258.769151 168.599063 
Q 258.40212 168.368438 257.684933 168.368438 
L 257.008526 168.368438 
L 257.008526 167.278594 
L 257.720089 167.278594 
Q 258.358526 167.278594 258.669308 167.078906 
Q 258.981495 166.879219 258.981495 166.47 
Q 258.981495 166.093125 258.677745 165.886406 
Q 258.375401 165.679688 257.821339 165.679688 
Q 257.413526 165.679688 256.99587 165.7725 
Q 256.578214 165.863906 256.164776 166.043906 
L 256.164776 164.805 
Q 256.665401 164.664375 257.157589 164.594063 
Q 257.649776 164.52375 258.125089 164.52375 
Q 259.40337 164.52375 260.037589 164.944219 
Q 260.673214 165.363281 260.673214 166.207031 
Q 260.673214 166.782188 260.369464 167.149219 
Q 260.06712 167.51625 259.473683 167.665313 
z
M 264.856983 166.035469 
L 263.003546 168.781875 
L 264.856983 168.781875 
L 264.856983 166.035469 
z
M 264.575733 164.641875 
L 266.457296 164.641875 
L 266.457296 168.781875 
L 267.392452 168.781875 
L 267.392452 170.008125 
L 266.457296 170.008125 
L 266.457296 171.203438 
L 264.856983 171.203438 
L 264.856983 170.008125 
L 261.948858 170.008125 
L 261.948858 168.558281 
L 264.575733 164.641875 
z
M 274.779659 168.496406 
Q 274.468878 168.496406 274.297316 168.766406 
Q 274.125753 169.036406 274.125753 169.538438 
Q 274.125753 170.043281 274.294503 170.313281 
Q 274.463253 170.583281 274.779659 170.583281 
Q 275.096066 170.583281 275.263409 170.313281 
Q 275.430753 170.043281 275.430753 169.538438 
Q 275.430753 169.036406 275.260597 168.766406 
Q 275.091847 168.496406 274.779659 168.496406 
z
M 274.779659 167.758125 
Q 275.598097 167.758125 276.067784 168.233438 
Q 276.537472 168.707344 276.537472 169.538438 
Q 276.537472 170.368125 276.067784 170.850469 
Q 275.598097 171.331406 274.779659 171.331406 
Q 273.962628 171.331406 273.490128 170.850469 
Q 273.017628 170.368125 273.017628 169.538438 
Q 273.017628 168.711563 273.490128 168.234844 
Q 273.962628 167.758125 274.779659 167.758125 
z
M 270.750753 171.331406 
L 269.779034 171.331406 
L 273.879659 164.52375 
L 274.855597 164.52375 
L 270.750753 171.331406 
z
M 269.849347 164.52375 
Q 270.666378 164.52375 271.134659 165.000469 
Q 271.602941 165.477188 271.602941 166.308281 
Q 271.602941 167.137969 271.134659 167.6175 
Q 270.666378 168.097031 269.849347 168.097031 
Q 269.032316 168.097031 268.564034 167.6175 
Q 268.095753 167.137969 268.095753 166.308281 
Q 268.095753 165.477188 268.564034 165.000469 
Q 269.032316 164.52375 269.849347 164.52375 
z
M 269.849347 165.262031 
Q 269.532941 165.262031 269.361378 165.534844 
Q 269.189816 165.80625 269.189816 166.308281 
Q 269.189816 166.813125 269.361378 167.08875 
Q 269.532941 167.362969 269.849347 167.362969 
Q 270.165753 167.362969 270.334503 167.08875 
Q 270.504659 166.813125 270.504659 166.308281 
Q 270.504659 165.80625 270.333097 165.534844 
Q 270.161534 165.262031 269.849347 165.262031 
z
M 277.54505 172.390313 
Q 278.10755 171.344063 278.3888 170.347031 
Q 278.67005 169.348594 278.67005 168.378281 
Q 278.67005 167.406563 278.3888 166.410938 
Q 278.10755 165.415313 277.54505 164.374688 
L 278.85005 164.374688 
Q 279.518019 165.450469 279.84005 166.437656 
Q 280.163487 167.423438 280.163487 168.386719 
Q 280.163487 169.348594 279.842862 170.327344 
Q 279.522237 171.304688 278.85005 172.390313 
L 277.54505 172.390313 
z
" style="fill: #ffffff"/>
   </g>
   <g id="text_5">
    <!-- LRo5 ≤1 violation &amp; SA Score &lt; 2 -->
    <g transform="translate(436.500372 159.923438) scale(0.09 -0.09)">
     <defs>
      <path id="DejaVuSans-Bold-4c" d="M 588 4666 
L 1791 4666 
L 1791 909 
L 3903 909 
L 3903 0 
L 588 0 
L 588 4666 
z
" transform="scale(0.015625)"/>
      <path id="DejaVuSans-Bold-52" d="M 2297 2597 
Q 2675 2597 2839 2737 
Q 3003 2878 3003 3200 
Q 3003 3519 2839 3656 
Q 2675 3794 2297 3794 
L 1791 3794 
L 1791 2597 
L 2297 2597 
z
M 1791 1766 
L 1791 0 
L 588 0 
L 588 4666 
L 2425 4666 
Q 3347 4666 3776 4356 
Q 4206 4047 4206 3378 
Q 4206 2916 3982 2619 
Q 3759 2322 3309 2181 
Q 3556 2125 3751 1926 
Q 3947 1728 4147 1325 
L 4800 0 
L 3519 0 
L 2950 1159 
Q 2778 1509 2601 1637 
Q 2425 1766 2131 1766 
L 1791 1766 
z
" transform="scale(0.015625)"/>
      <path id="DejaVuSans-Bold-6f" d="M 2203 2784 
Q 1831 2784 1636 2517 
Q 1441 2250 1441 1747 
Q 1441 1244 1636 976 
Q 1831 709 2203 709 
Q 2569 709 2762 976 
Q 2956 1244 2956 1747 
Q 2956 2250 2762 2517 
Q 2569 2784 2203 2784 
z
M 2203 3584 
Q 3106 3584 3614 3096 
Q 4122 2609 4122 1747 
Q 4122 884 3614 396 
Q 3106 -91 2203 -91 
Q 1297 -91 786 396 
Q 275 884 275 1747 
Q 275 2609 786 3096 
Q 1297 3584 2203 3584 
z
" transform="scale(0.015625)"/>
      <path id="DejaVuSans-Bold-35" d="M 678 4666 
L 3669 4666 
L 3669 3781 
L 1638 3781 
L 1638 3059 
Q 1775 3097 1914 3117 
Q 2053 3138 2203 3138 
Q 3056 3138 3531 2711 
Q 4006 2284 4006 1522 
Q 4006 766 3489 337 
Q 2972 -91 2053 -91 
Q 1656 -91 1267 -14 
Q 878 63 494 219 
L 494 1166 
Q 875 947 1217 837 
Q 1559 728 1863 728 
Q 2300 728 2551 942 
Q 2803 1156 2803 1522 
Q 2803 1891 2551 2103 
Q 2300 2316 1863 2316 
Q 1603 2316 1309 2248 
Q 1016 2181 678 2041 
L 678 4666 
z
" transform="scale(0.015625)"/>
      <path id="DejaVuSans-Bold-2264" d="M 4684 744 
L 4684 0 
L 678 0 
L 678 744 
L 4684 744 
z
M 4684 2963 
L 1881 2309 
L 4684 1656 
L 4684 897 
L 678 1947 
L 678 2681 
L 4684 3725 
L 4684 2963 
z
" transform="scale(0.015625)"/>
      <path id="DejaVuSans-Bold-31" d="M 750 831 
L 1813 831 
L 1813 3847 
L 722 3622 
L 722 4441 
L 1806 4666 
L 2950 4666 
L 2950 831 
L 4013 831 
L 4013 0 
L 750 0 
L 750 831 
z
" transform="scale(0.015625)"/>
      <path id="DejaVuSans-Bold-76" d="M 97 3500 
L 1216 3500 
L 2088 1081 
L 2956 3500 
L 4078 3500 
L 2700 0 
L 1472 0 
L 97 3500 
z
" transform="scale(0.015625)"/>
      <path id="DejaVuSans-Bold-26" d="M 2497 3097 
L 3775 1691 
Q 3941 1909 4027 2181 
Q 4113 2453 4128 2797 
L 5100 2797 
Q 5053 2228 4879 1784 
Q 4706 1341 4397 1006 
L 5313 0 
L 3988 0 
L 3681 341 
Q 3353 122 2990 15 
Q 2628 -91 2222 -91 
Q 1400 -91 892 342 
Q 384 775 384 1459 
Q 384 1916 607 2267 
Q 831 2619 1338 2950 
Q 1206 3116 1143 3281 
Q 1081 3447 1081 3628 
Q 1081 4138 1478 4444 
Q 1875 4750 2534 4750 
Q 2819 4750 3126 4704 
Q 3434 4659 3769 4569 
L 3769 3700 
Q 3475 3850 3212 3922 
Q 2950 3994 2700 3994 
Q 2459 3994 2326 3901 
Q 2194 3809 2194 3641 
Q 2194 3534 2270 3398 
Q 2347 3263 2497 3097 
z
M 1875 2322 
Q 1672 2175 1569 1989 
Q 1466 1803 1466 1581 
Q 1466 1222 1731 969 
Q 1997 716 2369 716 
Q 2578 716 2759 780 
Q 2941 844 3097 972 
L 1875 2322 
z
" transform="scale(0.015625)"/>
      <path id="DejaVuSans-Bold-63" d="M 3366 3391 
L 3366 2478 
Q 3138 2634 2908 2709 
Q 2678 2784 2431 2784 
Q 1963 2784 1702 2511 
Q 1441 2238 1441 1747 
Q 1441 1256 1702 982 
Q 1963 709 2431 709 
Q 2694 709 2930 787 
Q 3166 866 3366 1019 
L 3366 103 
Q 3103 6 2833 -42 
Q 2563 -91 2291 -91 
Q 1344 -91 809 395 
Q 275 881 275 1747 
Q 275 2613 809 3098 
Q 1344 3584 2291 3584 
Q 2566 3584 2833 3536 
Q 3100 3488 3366 3391 
z
" transform="scale(0.015625)"/>
      <path id="DejaVuSans-Bold-72" d="M 3138 2547 
Q 2991 2616 2845 2648 
Q 2700 2681 2553 2681 
Q 2122 2681 1889 2404 
Q 1656 2128 1656 1613 
L 1656 0 
L 538 0 
L 538 3500 
L 1656 3500 
L 1656 2925 
Q 1872 3269 2151 3426 
Q 2431 3584 2822 3584 
Q 2878 3584 2943 3579 
Q 3009 3575 3134 3559 
L 3138 2547 
z
" transform="scale(0.015625)"/>
      <path id="DejaVuSans-Bold-65" d="M 4031 1759 
L 4031 1441 
L 1416 1441 
Q 1456 1047 1700 850 
Q 1944 653 2381 653 
Q 2734 653 3104 758 
Q 3475 863 3866 1075 
L 3866 213 
Q 3469 63 3072 -14 
Q 2675 -91 2278 -91 
Q 1328 -91 801 392 
Q 275 875 275 1747 
Q 275 2603 792 3093 
Q 1309 3584 2216 3584 
Q 3041 3584 3536 3087 
Q 4031 2591 4031 1759 
z
M 2881 2131 
Q 2881 2450 2695 2645 
Q 2509 2841 2209 2841 
Q 1884 2841 1681 2658 
Q 1478 2475 1428 2131 
L 2881 2131 
z
" transform="scale(0.015625)"/>
      <path id="DejaVuSans-Bold-3c" d="M 4684 3041 
L 1672 2003 
L 4684 972 
L 4684 191 
L 678 1638 
L 678 2375 
L 4684 3822 
L 4684 3041 
z
" transform="scale(0.015625)"/>
      <path id="DejaVuSans-Bold-32" d="M 1844 884 
L 3897 884 
L 3897 0 
L 506 0 
L 506 884 
L 2209 2388 
Q 2438 2594 2547 2791 
Q 2656 2988 2656 3200 
Q 2656 3528 2436 3728 
Q 2216 3928 1850 3928 
Q 1569 3928 1234 3808 
Q 900 3688 519 3450 
L 519 4475 
Q 925 4609 1322 4679 
Q 1719 4750 2100 4750 
Q 2938 4750 3402 4381 
Q 3866 4013 3866 3353 
Q 3866 2972 3669 2642 
Q 3472 2313 2841 1759 
L 1844 884 
z
" transform="scale(0.015625)"/>
     </defs>
     <use xlink:href="#DejaVuSans-Bold-4c"/>
     <use xlink:href="#DejaVuSans-Bold-52" x="63.720703"/>
     <use xlink:href="#DejaVuSans-Bold-6f" x="140.722656"/>
     <use xlink:href="#DejaVuSans-Bold-35" x="209.423828"/>
     <use xlink:href="#DejaVuSans-Bold-20" x="279.003906"/>
     <use xlink:href="#DejaVuSans-Bold-2264" x="313.818359"/>
     <use xlink:href="#DejaVuSans-Bold-31" x="397.607422"/>
     <use xlink:href="#DejaVuSans-Bold-20" x="467.1875"/>
     <use xlink:href="#DejaVuSans-Bold-76" x="502.001953"/>
     <use xlink:href="#DejaVuSans-Bold-69" x="567.1875"/>
     <use xlink:href="#DejaVuSans-Bold-6f" x="601.464844"/>
     <use xlink:href="#DejaVuSans-Bold-6c" x="670.166016"/>
     <use xlink:href="#DejaVuSans-Bold-61" x="704.443359"/>
     <use xlink:href="#DejaVuSans-Bold-74" x="771.923828"/>
     <use xlink:href="#DejaVuSans-Bold-69" x="819.726562"/>
     <use xlink:href="#DejaVuSans-Bold-6f" x="854.003906"/>
     <use xlink:href="#DejaVuSans-Bold-6e" x="922.705078"/>
     <use xlink:href="#DejaVuSans-Bold-20" x="993.896484"/>
     <use xlink:href="#DejaVuSans-Bold-26" x="1028.710938"/>
     <use xlink:href="#DejaVuSans-Bold-20" x="1115.917969"/>
     <use xlink:href="#DejaVuSans-Bold-53" x="1150.732422"/>
     <use xlink:href="#DejaVuSans-Bold-41" x="1222.753906"/>
     <use xlink:href="#DejaVuSans-Bold-20" x="1300.146484"/>
     <use xlink:href="#DejaVuSans-Bold-53" x="1334.960938"/>
     <use xlink:href="#DejaVuSans-Bold-63" x="1406.982422"/>
     <use xlink:href="#DejaVuSans-Bold-6f" x="1466.259766"/>
     <use xlink:href="#DejaVuSans-Bold-72" x="1534.960938"/>
     <use xlink:href="#DejaVuSans-Bold-65" x="1584.277344"/>
     <use xlink:href="#DejaVuSans-Bold-20" x="1652.099609"/>
     <use xlink:href="#DejaVuSans-Bold-3c" x="1686.914062"/>
     <use xlink:href="#DejaVuSans-Bold-20" x="1770.703125"/>
     <use xlink:href="#DejaVuSans-Bold-32" x="1805.517578"/>
    </g>
   </g>
   <g id="text_6">
    <path d="M 250.896905 208.855625 
L 256.037687 208.855625 
L 256.037687 210.376719 
L 252.546905 210.376719 
L 252.546905 211.617656 
Q 252.782374 211.552344 253.02128 211.517969 
Q 253.260187 211.481875 253.517999 211.481875 
Q 254.984093 211.481875 255.800499 212.215781 
Q 256.616905 212.949688 256.616905 214.259375 
Q 256.616905 215.55875 255.728312 216.296094 
Q 254.839718 217.031719 253.260187 217.031719 
Q 252.577843 217.031719 251.909249 216.899375 
Q 251.240655 216.767031 250.580655 216.498906 
L 250.580655 214.87125 
Q 251.235499 215.247656 251.823312 215.436719 
Q 252.411124 215.624063 252.933624 215.624063 
Q 253.684718 215.624063 254.116124 215.25625 
Q 254.549249 214.888438 254.549249 214.259375 
Q 254.549249 213.625156 254.116124 213.260781 
Q 253.684718 212.894688 252.933624 212.894688 
Q 252.486749 212.894688 251.981437 213.011562 
Q 251.477843 213.126719 250.896905 213.367344 
L 250.896905 208.855625 
z
M 261.214776 213.286563 
Q 260.635558 213.286563 260.322745 213.604531 
Q 260.011651 213.920781 260.011651 214.512031 
Q 260.011651 215.103281 260.322745 215.417812 
Q 260.635558 215.730625 261.214776 215.730625 
Q 261.790558 215.730625 262.096495 215.417812 
Q 262.402433 215.103281 262.402433 214.512031 
Q 262.402433 213.915625 262.096495 213.601094 
Q 261.790558 213.286563 261.214776 213.286563 
z
M 259.705714 212.605938 
Q 258.975245 212.384219 258.603995 211.92875 
Q 258.234464 211.471563 258.234464 210.789219 
Q 258.234464 209.775156 258.990714 209.244063 
Q 259.748683 208.71125 261.214776 208.71125 
Q 262.670558 208.71125 263.426808 209.240625 
Q 264.184776 209.77 264.184776 210.789219 
Q 264.184776 211.471563 263.811808 211.92875 
Q 263.438839 212.384219 262.70837 212.605938 
Q 263.524776 212.831094 263.940714 213.338125 
Q 264.356651 213.845156 264.356651 214.618594 
Q 264.356651 215.811406 263.564308 216.421562 
Q 262.771964 217.031719 261.214776 217.031719 
Q 259.652433 217.031719 258.854933 216.421562 
Q 258.057433 215.811406 258.057433 214.618594 
Q 258.057433 213.845156 258.47337 213.338125 
Q 258.889308 212.831094 259.705714 212.605938 
z
M 260.188683 210.998906 
Q 260.188683 211.476719 260.455089 211.734531 
Q 260.721495 211.992344 261.214776 211.992344 
Q 261.697745 211.992344 261.960714 211.734531 
Q 262.225401 211.476719 262.225401 210.998906 
Q 262.225401 210.521094 261.960714 210.266719 
Q 261.697745 210.010625 261.214776 210.010625 
Q 260.721495 210.010625 260.455089 210.268438 
Q 260.188683 210.52625 260.188683 210.998906 
z
M 269.088585 210.558906 
L 266.823273 213.915625 
L 269.088585 213.915625 
L 269.088585 210.558906 
z
M 268.744835 208.855625 
L 271.044523 208.855625 
L 271.044523 213.915625 
L 272.187491 213.915625 
L 272.187491 215.414375 
L 271.044523 215.414375 
L 271.044523 216.875313 
L 269.088585 216.875313 
L 269.088585 215.414375 
L 265.53421 215.414375 
L 265.53421 213.642344 
L 268.744835 208.855625 
z
" style="fill: #ffffff; stroke: #000000; stroke-width: 3"/>
    <path d="M 250.896905 208.855625 
L 256.037687 208.855625 
L 256.037687 210.376719 
L 252.546905 210.376719 
L 252.546905 211.617656 
Q 252.782374 211.552344 253.02128 211.517969 
Q 253.260187 211.481875 253.517999 211.481875 
Q 254.984093 211.481875 255.800499 212.215781 
Q 256.616905 212.949688 256.616905 214.259375 
Q 256.616905 215.55875 255.728312 216.296094 
Q 254.839718 217.031719 253.260187 217.031719 
Q 252.577843 217.031719 251.909249 216.899375 
Q 251.240655 216.767031 250.580655 216.498906 
L 250.580655 214.87125 
Q 251.235499 215.247656 251.823312 215.436719 
Q 252.411124 215.624063 252.933624 215.624063 
Q 253.684718 215.624063 254.116124 215.25625 
Q 254.549249 214.888438 254.549249 214.259375 
Q 254.549249 213.625156 254.116124 213.260781 
Q 253.684718 212.894688 252.933624 212.894688 
Q 252.486749 212.894688 251.981437 213.011562 
Q 251.477843 213.126719 250.896905 213.367344 
L 250.896905 208.855625 
z
M 261.214776 213.286563 
Q 260.635558 213.286563 260.322745 213.604531 
Q 260.011651 213.920781 260.011651 214.512031 
Q 260.011651 215.103281 260.322745 215.417812 
Q 260.635558 215.730625 261.214776 215.730625 
Q 261.790558 215.730625 262.096495 215.417812 
Q 262.402433 215.103281 262.402433 214.512031 
Q 262.402433 213.915625 262.096495 213.601094 
Q 261.790558 213.286563 261.214776 213.286563 
z
M 259.705714 212.605938 
Q 258.975245 212.384219 258.603995 211.92875 
Q 258.234464 211.471563 258.234464 210.789219 
Q 258.234464 209.775156 258.990714 209.244063 
Q 259.748683 208.71125 261.214776 208.71125 
Q 262.670558 208.71125 263.426808 209.240625 
Q 264.184776 209.77 264.184776 210.789219 
Q 264.184776 211.471563 263.811808 211.92875 
Q 263.438839 212.384219 262.70837 212.605938 
Q 263.524776 212.831094 263.940714 213.338125 
Q 264.356651 213.845156 264.356651 214.618594 
Q 264.356651 215.811406 263.564308 216.421562 
Q 262.771964 217.031719 261.214776 217.031719 
Q 259.652433 217.031719 258.854933 216.421562 
Q 258.057433 215.811406 258.057433 214.618594 
Q 258.057433 213.845156 258.47337 213.338125 
Q 258.889308 212.831094 259.705714 212.605938 
z
M 260.188683 210.998906 
Q 260.188683 211.476719 260.455089 211.734531 
Q 260.721495 211.992344 261.214776 211.992344 
Q 261.697745 211.992344 261.960714 211.734531 
Q 262.225401 211.476719 262.225401 210.998906 
Q 262.225401 210.521094 261.960714 210.266719 
Q 261.697745 210.010625 261.214776 210.010625 
Q 260.721495 210.010625 260.455089 210.268438 
Q 260.188683 210.52625 260.188683 210.998906 
z
M 269.088585 210.558906 
L 266.823273 213.915625 
L 269.088585 213.915625 
L 269.088585 210.558906 
z
M 268.744835 208.855625 
L 271.044523 208.855625 
L 271.044523 213.915625 
L 272.187491 213.915625 
L 272.187491 215.414375 
L 271.044523 215.414375 
L 271.044523 216.875313 
L 269.088585 216.875313 
L 269.088585 215.414375 
L 265.53421 215.414375 
L 265.53421 213.642344 
L 268.744835 208.855625 
z
" style="fill: #ffffff"/>
   </g>
   <g id="text_7">
    <path d="M 244.880499 240.070312 
L 243.574093 240.070312 
Q 242.901905 238.984688 242.58128 238.007344 
Q 242.260655 237.028594 242.260655 236.066719 
Q 242.260655 235.103438 242.582687 234.117656 
Q 242.906124 233.130469 243.574093 232.054688 
L 244.880499 232.054688 
Q 244.317999 233.095313 244.036749 234.090938 
Q 243.755499 235.086563 243.755499 236.058281 
Q 243.755499 237.028594 244.033937 238.027031 
Q 244.312374 239.024063 244.880499 240.070312 
z
M 249.740499 235.595625 
Q 249.740499 234.365156 249.509874 233.863125 
Q 249.279249 233.359688 248.733624 233.359688 
Q 248.189405 233.359688 247.955968 233.863125 
Q 247.72253 234.365156 247.72253 235.595625 
Q 247.72253 236.840156 247.955968 237.350625 
Q 248.189405 237.859688 248.733624 237.859688 
Q 249.27503 237.859688 249.507062 237.350625 
Q 249.740499 236.840156 249.740499 235.595625 
z
M 251.432218 235.609688 
Q 251.432218 237.239531 250.729093 238.125469 
Q 250.025968 239.011406 248.733624 239.011406 
Q 247.437062 239.011406 246.733937 238.125469 
Q 246.030812 237.239531 246.030812 235.609688 
Q 246.030812 233.974219 246.733937 233.089688 
Q 247.437062 232.20375 248.733624 232.20375 
Q 250.025968 232.20375 250.729093 233.089688 
Q 251.432218 233.974219 251.432218 235.609688 
z
M 252.780987 237.183281 
L 254.363019 237.183281 
L 254.363019 238.883438 
L 252.780987 238.883438 
L 252.780987 237.183281 
z
M 258.538526 235.644844 
Q 258.094151 235.644844 257.871964 235.933125 
Q 257.649776 236.22 257.649776 236.796563 
Q 257.649776 237.371719 257.871964 237.66 
Q 258.094151 237.946875 258.538526 237.946875 
Q 258.985714 237.946875 259.207901 237.66 
Q 259.430089 237.371719 259.430089 236.796563 
Q 259.430089 236.22 259.207901 235.933125 
Q 258.985714 235.644844 258.538526 235.644844 
z
M 260.62962 232.493438 
L 260.62962 233.707031 
Q 260.211964 233.50875 259.84212 233.414531 
Q 259.473683 233.320312 259.12212 233.320312 
Q 258.366964 233.320312 257.945089 233.740781 
Q 257.523214 234.159844 257.452901 234.985313 
Q 257.742589 234.770156 258.080089 234.663281 
Q 258.418995 234.555 258.819776 234.555 
Q 259.825245 234.555 260.442589 235.144219 
Q 261.059933 235.732031 261.059933 236.685469 
Q 261.059933 237.740156 260.369464 238.375781 
Q 259.680401 239.011406 258.520245 239.011406 
Q 257.241964 239.011406 256.540245 238.147969 
Q 255.839933 237.283125 255.839933 235.696875 
Q 255.839933 234.07125 256.659776 233.141719 
Q 257.47962 232.212188 258.906964 232.212188 
Q 259.359776 232.212188 259.78587 232.2825 
Q 260.211964 232.352813 260.62962 232.493438 
z
M 264.136983 237.640313 
L 267.024015 237.640313 
L 267.024015 238.883438 
L 262.255421 238.883438 
L 262.255421 237.640313 
L 264.650265 235.525313 
Q 264.972296 235.235625 265.125577 234.958594 
Q 265.278858 234.681563 265.278858 234.383438 
Q 265.278858 233.922188 264.969483 233.640938 
Q 264.660108 233.359688 264.145421 233.359688 
Q 263.750265 233.359688 263.279171 233.528438 
Q 262.809483 233.697188 262.273702 234.031875 
L 262.273702 232.590469 
Q 262.84464 232.402031 263.402921 232.303594 
Q 263.961202 232.20375 264.496983 232.20375 
Q 265.675421 232.20375 266.327921 232.722656 
Q 266.980421 233.240156 266.980421 234.168281 
Q 266.980421 234.704063 266.70339 235.168125 
Q 266.426358 235.630781 265.539015 236.409844 
L 264.136983 237.640313 
z
M 274.779659 236.176406 
Q 274.468878 236.176406 274.297316 236.446406 
Q 274.125753 236.716406 274.125753 237.218438 
Q 274.125753 237.723281 274.294503 237.993281 
Q 274.463253 238.263281 274.779659 238.263281 
Q 275.096066 238.263281 275.263409 237.993281 
Q 275.430753 237.723281 275.430753 237.218438 
Q 275.430753 236.716406 275.260597 236.446406 
Q 275.091847 236.176406 274.779659 236.176406 
z
M 274.779659 235.438125 
Q 275.598097 235.438125 276.067784 235.913438 
Q 276.537472 236.387344 276.537472 237.218438 
Q 276.537472 238.048125 276.067784 238.530469 
Q 275.598097 239.011406 274.779659 239.011406 
Q 273.962628 239.011406 273.490128 238.530469 
Q 273.017628 238.048125 273.017628 237.218438 
Q 273.017628 236.391563 273.490128 235.914844 
Q 273.962628 235.438125 274.779659 235.438125 
z
M 270.750753 239.011406 
L 269.779034 239.011406 
L 273.879659 232.20375 
L 274.855597 232.20375 
L 270.750753 239.011406 
z
M 269.849347 232.20375 
Q 270.666378 232.20375 271.134659 232.680469 
Q 271.602941 233.157188 271.602941 233.988281 
Q 271.602941 234.817969 271.134659 235.2975 
Q 270.666378 235.777031 269.849347 235.777031 
Q 269.032316 235.777031 268.564034 235.2975 
Q 268.095753 234.817969 268.095753 233.988281 
Q 268.095753 233.157188 268.564034 232.680469 
Q 269.032316 232.20375 269.849347 232.20375 
z
M 269.849347 232.942031 
Q 269.532941 232.942031 269.361378 233.214844 
Q 269.189816 233.48625 269.189816 233.988281 
Q 269.189816 234.493125 269.361378 234.76875 
Q 269.532941 235.042969 269.849347 235.042969 
Q 270.165753 235.042969 270.334503 234.76875 
Q 270.504659 234.493125 270.504659 233.988281 
Q 270.504659 233.48625 270.333097 233.214844 
Q 270.161534 232.942031 269.849347 232.942031 
z
M 277.54505 240.070312 
Q 278.10755 239.024063 278.3888 238.027031 
Q 278.67005 237.028594 278.67005 236.058281 
Q 278.67005 235.086563 278.3888 234.090938 
Q 278.10755 233.095313 277.54505 232.054688 
L 278.85005 232.054688 
Q 279.518019 233.130469 279.84005 234.117656 
Q 280.163487 235.103438 280.163487 236.066719 
Q 280.163487 237.028594 279.842862 238.007344 
Q 279.522237 238.984688 278.85005 240.070312 
L 277.54505 240.070312 
z
" style="fill: #ffffff; stroke: #000000; stroke-width: 3"/>
    <path d="M 244.880499 240.070312 
L 243.574093 240.070312 
Q 242.901905 238.984688 242.58128 238.007344 
Q 242.260655 237.028594 242.260655 236.066719 
Q 242.260655 235.103438 242.582687 234.117656 
Q 242.906124 233.130469 243.574093 232.054688 
L 244.880499 232.054688 
Q 244.317999 233.095313 244.036749 234.090938 
Q 243.755499 235.086563 243.755499 236.058281 
Q 243.755499 237.028594 244.033937 238.027031 
Q 244.312374 239.024063 244.880499 240.070312 
z
M 249.740499 235.595625 
Q 249.740499 234.365156 249.509874 233.863125 
Q 249.279249 233.359688 248.733624 233.359688 
Q 248.189405 233.359688 247.955968 233.863125 
Q 247.72253 234.365156 247.72253 235.595625 
Q 247.72253 236.840156 247.955968 237.350625 
Q 248.189405 237.859688 248.733624 237.859688 
Q 249.27503 237.859688 249.507062 237.350625 
Q 249.740499 236.840156 249.740499 235.595625 
z
M 251.432218 235.609688 
Q 251.432218 237.239531 250.729093 238.125469 
Q 250.025968 239.011406 248.733624 239.011406 
Q 247.437062 239.011406 246.733937 238.125469 
Q 246.030812 237.239531 246.030812 235.609688 
Q 246.030812 233.974219 246.733937 233.089688 
Q 247.437062 232.20375 248.733624 232.20375 
Q 250.025968 232.20375 250.729093 233.089688 
Q 251.432218 233.974219 251.432218 235.609688 
z
M 252.780987 237.183281 
L 254.363019 237.183281 
L 254.363019 238.883438 
L 252.780987 238.883438 
L 252.780987 237.183281 
z
M 258.538526 235.644844 
Q 258.094151 235.644844 257.871964 235.933125 
Q 257.649776 236.22 257.649776 236.796563 
Q 257.649776 237.371719 257.871964 237.66 
Q 258.094151 237.946875 258.538526 237.946875 
Q 258.985714 237.946875 259.207901 237.66 
Q 259.430089 237.371719 259.430089 236.796563 
Q 259.430089 236.22 259.207901 235.933125 
Q 258.985714 235.644844 258.538526 235.644844 
z
M 260.62962 232.493438 
L 260.62962 233.707031 
Q 260.211964 233.50875 259.84212 233.414531 
Q 259.473683 233.320312 259.12212 233.320312 
Q 258.366964 233.320312 257.945089 233.740781 
Q 257.523214 234.159844 257.452901 234.985313 
Q 257.742589 234.770156 258.080089 234.663281 
Q 258.418995 234.555 258.819776 234.555 
Q 259.825245 234.555 260.442589 235.144219 
Q 261.059933 235.732031 261.059933 236.685469 
Q 261.059933 237.740156 260.369464 238.375781 
Q 259.680401 239.011406 258.520245 239.011406 
Q 257.241964 239.011406 256.540245 238.147969 
Q 255.839933 237.283125 255.839933 235.696875 
Q 255.839933 234.07125 256.659776 233.141719 
Q 257.47962 232.212188 258.906964 232.212188 
Q 259.359776 232.212188 259.78587 232.2825 
Q 260.211964 232.352813 260.62962 232.493438 
z
M 264.136983 237.640313 
L 267.024015 237.640313 
L 267.024015 238.883438 
L 262.255421 238.883438 
L 262.255421 237.640313 
L 264.650265 235.525313 
Q 264.972296 235.235625 265.125577 234.958594 
Q 265.278858 234.681563 265.278858 234.383438 
Q 265.278858 233.922188 264.969483 233.640938 
Q 264.660108 233.359688 264.145421 233.359688 
Q 263.750265 233.359688 263.279171 233.528438 
Q 262.809483 233.697188 262.273702 234.031875 
L 262.273702 232.590469 
Q 262.84464 232.402031 263.402921 232.303594 
Q 263.961202 232.20375 264.496983 232.20375 
Q 265.675421 232.20375 266.327921 232.722656 
Q 266.980421 233.240156 266.980421 234.168281 
Q 266.980421 234.704063 266.70339 235.168125 
Q 266.426358 235.630781 265.539015 236.409844 
L 264.136983 237.640313 
z
M 274.779659 236.176406 
Q 274.468878 236.176406 274.297316 236.446406 
Q 274.125753 236.716406 274.125753 237.218438 
Q 274.125753 237.723281 274.294503 237.993281 
Q 274.463253 238.263281 274.779659 238.263281 
Q 275.096066 238.263281 275.263409 237.993281 
Q 275.430753 237.723281 275.430753 237.218438 
Q 275.430753 236.716406 275.260597 236.446406 
Q 275.091847 236.176406 274.779659 236.176406 
z
M 274.779659 235.438125 
Q 275.598097 235.438125 276.067784 235.913438 
Q 276.537472 236.387344 276.537472 237.218438 
Q 276.537472 238.048125 276.067784 238.530469 
Q 275.598097 239.011406 274.779659 239.011406 
Q 273.962628 239.011406 273.490128 238.530469 
Q 273.017628 238.048125 273.017628 237.218438 
Q 273.017628 236.391563 273.490128 235.914844 
Q 273.962628 235.438125 274.779659 235.438125 
z
M 270.750753 239.011406 
L 269.779034 239.011406 
L 273.879659 232.20375 
L 274.855597 232.20375 
L 270.750753 239.011406 
z
M 269.849347 232.20375 
Q 270.666378 232.20375 271.134659 232.680469 
Q 271.602941 233.157188 271.602941 233.988281 
Q 271.602941 234.817969 271.134659 235.2975 
Q 270.666378 235.777031 269.849347 235.777031 
Q 269.032316 235.777031 268.564034 235.2975 
Q 268.095753 234.817969 268.095753 233.988281 
Q 268.095753 233.157188 268.564034 232.680469 
Q 269.032316 232.20375 269.849347 232.20375 
z
M 269.849347 232.942031 
Q 269.532941 232.942031 269.361378 233.214844 
Q 269.189816 233.48625 269.189816 233.988281 
Q 269.189816 234.493125 269.361378 234.76875 
Q 269.532941 235.042969 269.849347 235.042969 
Q 270.165753 235.042969 270.334503 234.76875 
Q 270.504659 234.493125 270.504659 233.988281 
Q 270.504659 233.48625 270.333097 233.214844 
Q 270.161534 232.942031 269.849347 232.942031 
z
M 277.54505 240.070312 
Q 278.10755 239.024063 278.3888 238.027031 
Q 278.67005 237.028594 278.67005 236.058281 
Q 278.67005 235.086563 278.3888 234.090938 
Q 278.10755 233.095313 277.54505 232.054688 
L 278.85005 232.054688 
Q 279.518019 233.130469 279.84005 234.117656 
Q 280.163487 235.103438 280.163487 236.066719 
Q 280.163487 237.028594 279.842862 238.007344 
Q 279.522237 238.984688 278.85005 240.070312 
L 277.54505 240.070312 
z
" style="fill: #ffffff"/>
   </g>
   <g id="text_8">
    <!-- Non-toxic Predictions -->
    <g transform="translate(436.500372 222.529266) scale(0.09 -0.09)">
     <defs>
      <path id="DejaVuSans-Bold-2d" d="M 347 2297 
L 2309 2297 
L 2309 1388 
L 347 1388 
L 347 2297 
z
" transform="scale(0.015625)"/>
      <path id="DejaVuSans-Bold-78" d="M 1422 1791 
L 159 3500 
L 1344 3500 
L 2059 2463 
L 2784 3500 
L 3969 3500 
L 2706 1797 
L 4031 0 
L 2847 0 
L 2059 1106 
L 1281 0 
L 97 0 
L 1422 1791 
z
" transform="scale(0.015625)"/>
      <path id="DejaVuSans-Bold-64" d="M 2919 2988 
L 2919 4863 
L 4044 4863 
L 4044 0 
L 2919 0 
L 2919 506 
Q 2688 197 2409 53 
Q 2131 -91 1766 -91 
Q 1119 -91 703 423 
Q 288 938 288 1747 
Q 288 2556 703 3070 
Q 1119 3584 1766 3584 
Q 2128 3584 2408 3439 
Q 2688 3294 2919 2988 
z
M 2181 722 
Q 2541 722 2730 984 
Q 2919 1247 2919 1747 
Q 2919 2247 2730 2509 
Q 2541 2772 2181 2772 
Q 1825 2772 1636 2509 
Q 1447 2247 1447 1747 
Q 1447 1247 1636 984 
Q 1825 722 2181 722 
z
" transform="scale(0.015625)"/>
      <path id="DejaVuSans-Bold-73" d="M 3272 3391 
L 3272 2541 
Q 2913 2691 2578 2766 
Q 2244 2841 1947 2841 
Q 1628 2841 1473 2761 
Q 1319 2681 1319 2516 
Q 1319 2381 1436 2309 
Q 1553 2238 1856 2203 
L 2053 2175 
Q 2913 2066 3209 1816 
Q 3506 1566 3506 1031 
Q 3506 472 3093 190 
Q 2681 -91 1863 -91 
Q 1516 -91 1145 -36 
Q 775 19 384 128 
L 384 978 
Q 719 816 1070 734 
Q 1422 653 1784 653 
Q 2113 653 2278 743 
Q 2444 834 2444 1013 
Q 2444 1163 2330 1236 
Q 2216 1309 1875 1350 
L 1678 1375 
Q 931 1469 631 1722 
Q 331 1975 331 2491 
Q 331 3047 712 3315 
Q 1094 3584 1881 3584 
Q 2191 3584 2531 3537 
Q 2872 3491 3272 3391 
z
" transform="scale(0.015625)"/>
     </defs>
     <use xlink:href="#DejaVuSans-Bold-4e"/>
     <use xlink:href="#DejaVuSans-Bold-6f" x="83.691406"/>
     <use xlink:href="#DejaVuSans-Bold-6e" x="152.392578"/>
     <use xlink:href="#DejaVuSans-Bold-2d" x="223.583984"/>
     <use xlink:href="#DejaVuSans-Bold-74" x="265.087891"/>
     <use xlink:href="#DejaVuSans-Bold-6f" x="312.890625"/>
     <use xlink:href="#DejaVuSans-Bold-78" x="381.591797"/>
     <use xlink:href="#DejaVuSans-Bold-69" x="446.09375"/>
     <use xlink:href="#DejaVuSans-Bold-63" x="480.371094"/>
     <use xlink:href="#DejaVuSans-Bold-20" x="539.648438"/>
     <use xlink:href="#DejaVuSans-Bold-50" x="574.462891"/>
     <use xlink:href="#DejaVuSans-Bold-72" x="647.753906"/>
     <use xlink:href="#DejaVuSans-Bold-65" x="697.070312"/>
     <use xlink:href="#DejaVuSans-Bold-64" x="764.892578"/>
     <use xlink:href="#DejaVuSans-Bold-69" x="836.474609"/>
     <use xlink:href="#DejaVuSans-Bold-63" x="870.751953"/>
     <use xlink:href="#DejaVuSans-Bold-74" x="930.029297"/>
     <use xlink:href="#DejaVuSans-Bold-69" x="977.832031"/>
     <use xlink:href="#DejaVuSans-Bold-6f" x="1012.109375"/>
     <use xlink:href="#DejaVuSans-Bold-6e" x="1080.810547"/>
     <use xlink:href="#DejaVuSans-Bold-73" x="1152.001953"/>
    </g>
    <!-- (Dermal Toxicity and Carcinogenicity) -->
    <g transform="translate(436.500372 232.607297) scale(0.09 -0.09)">
     <defs>
      <path id="DejaVuSans-Bold-44" d="M 1791 3756 
L 1791 909 
L 2222 909 
Q 2959 909 3348 1275 
Q 3738 1641 3738 2338 
Q 3738 3031 3350 3393 
Q 2963 3756 2222 3756 
L 1791 3756 
z
M 588 4666 
L 1856 4666 
Q 2919 4666 3439 4514 
Q 3959 4363 4331 4000 
Q 4659 3684 4818 3271 
Q 4978 2859 4978 2338 
Q 4978 1809 4818 1395 
Q 4659 981 4331 666 
Q 3956 303 3431 151 
Q 2906 0 1856 0 
L 588 0 
L 588 4666 
z
" transform="scale(0.015625)"/>
      <path id="DejaVuSans-Bold-6d" d="M 3781 2919 
Q 3994 3244 4286 3414 
Q 4578 3584 4928 3584 
Q 5531 3584 5847 3212 
Q 6163 2841 6163 2131 
L 6163 0 
L 5038 0 
L 5038 1825 
Q 5041 1866 5042 1909 
Q 5044 1953 5044 2034 
Q 5044 2406 4934 2573 
Q 4825 2741 4581 2741 
Q 4263 2741 4089 2478 
Q 3916 2216 3909 1719 
L 3909 0 
L 2784 0 
L 2784 1825 
Q 2784 2406 2684 2573 
Q 2584 2741 2328 2741 
Q 2006 2741 1831 2477 
Q 1656 2213 1656 1722 
L 1656 0 
L 531 0 
L 531 3500 
L 1656 3500 
L 1656 2988 
Q 1863 3284 2130 3434 
Q 2397 3584 2719 3584 
Q 3081 3584 3359 3409 
Q 3638 3234 3781 2919 
z
" transform="scale(0.015625)"/>
      <path id="DejaVuSans-Bold-54" d="M 31 4666 
L 4331 4666 
L 4331 3756 
L 2784 3756 
L 2784 0 
L 1581 0 
L 1581 3756 
L 31 3756 
L 31 4666 
z
" transform="scale(0.015625)"/>
      <path id="DejaVuSans-Bold-79" d="M 78 3500 
L 1197 3500 
L 2138 1125 
L 2938 3500 
L 4056 3500 
L 2584 -331 
Q 2363 -916 2067 -1148 
Q 1772 -1381 1288 -1381 
L 641 -1381 
L 641 -647 
L 991 -647 
Q 1275 -647 1404 -556 
Q 1534 -466 1606 -231 
L 1638 -134 
L 78 3500 
z
" transform="scale(0.015625)"/>
      <path id="DejaVuSans-Bold-43" d="M 4288 256 
Q 3956 84 3597 -3 
Q 3238 -91 2847 -91 
Q 1681 -91 1000 561 
Q 319 1213 319 2328 
Q 319 3447 1000 4098 
Q 1681 4750 2847 4750 
Q 3238 4750 3597 4662 
Q 3956 4575 4288 4403 
L 4288 3438 
Q 3953 3666 3628 3772 
Q 3303 3878 2944 3878 
Q 2300 3878 1931 3465 
Q 1563 3053 1563 2328 
Q 1563 1606 1931 1193 
Q 2300 781 2944 781 
Q 3303 781 3628 887 
Q 3953 994 4288 1222 
L 4288 256 
z
" transform="scale(0.015625)"/>
      <path id="DejaVuSans-Bold-67" d="M 2919 594 
Q 2688 288 2409 144 
Q 2131 0 1766 0 
Q 1125 0 706 504 
Q 288 1009 288 1791 
Q 288 2575 706 3076 
Q 1125 3578 1766 3578 
Q 2131 3578 2409 3434 
Q 2688 3291 2919 2981 
L 2919 3500 
L 4044 3500 
L 4044 353 
Q 4044 -491 3511 -936 
Q 2978 -1381 1966 -1381 
Q 1638 -1381 1331 -1331 
Q 1025 -1281 716 -1178 
L 716 -306 
Q 1009 -475 1290 -558 
Q 1572 -641 1856 -641 
Q 2406 -641 2662 -400 
Q 2919 -159 2919 353 
L 2919 594 
z
M 2181 2772 
Q 1834 2772 1640 2515 
Q 1447 2259 1447 1791 
Q 1447 1309 1634 1061 
Q 1822 813 2181 813 
Q 2531 813 2725 1069 
Q 2919 1325 2919 1791 
Q 2919 2259 2725 2515 
Q 2531 2772 2181 2772 
z
" transform="scale(0.015625)"/>
     </defs>
     <use xlink:href="#DejaVuSans-Bold-28"/>
     <use xlink:href="#DejaVuSans-Bold-44" x="45.703125"/>
     <use xlink:href="#DejaVuSans-Bold-65" x="128.710938"/>
     <use xlink:href="#DejaVuSans-Bold-72" x="196.533203"/>
     <use xlink:href="#DejaVuSans-Bold-6d" x="245.849609"/>
     <use xlink:href="#DejaVuSans-Bold-61" x="350.048828"/>
     <use xlink:href="#DejaVuSans-Bold-6c" x="417.529297"/>
     <use xlink:href="#DejaVuSans-Bold-20" x="451.806641"/>
     <use xlink:href="#DejaVuSans-Bold-54" x="486.621094"/>
     <use xlink:href="#DejaVuSans-Bold-6f" x="541.583984"/>
     <use xlink:href="#DejaVuSans-Bold-78" x="610.285156"/>
     <use xlink:href="#DejaVuSans-Bold-69" x="674.787109"/>
     <use xlink:href="#DejaVuSans-Bold-63" x="709.064453"/>
     <use xlink:href="#DejaVuSans-Bold-69" x="768.341797"/>
     <use xlink:href="#DejaVuSans-Bold-74" x="802.619141"/>
     <use xlink:href="#DejaVuSans-Bold-79" x="850.421875"/>
     <use xlink:href="#DejaVuSans-Bold-20" x="915.607422"/>
     <use xlink:href="#DejaVuSans-Bold-61" x="950.421875"/>
     <use xlink:href="#DejaVuSans-Bold-6e" x="1017.902344"/>
     <use xlink:href="#DejaVuSans-Bold-64" x="1089.09375"/>
     <use xlink:href="#DejaVuSans-Bold-20" x="1160.675781"/>
     <use xlink:href="#DejaVuSans-Bold-43" x="1195.490234"/>
     <use xlink:href="#DejaVuSans-Bold-61" x="1268.878906"/>
     <use xlink:href="#DejaVuSans-Bold-72" x="1336.359375"/>
     <use xlink:href="#DejaVuSans-Bold-63" x="1385.675781"/>
     <use xlink:href="#DejaVuSans-Bold-69" x="1444.953125"/>
     <use xlink:href="#DejaVuSans-Bold-6e" x="1479.230469"/>
     <use xlink:href="#DejaVuSans-Bold-6f" x="1550.421875"/>
     <use xlink:href="#DejaVuSans-Bold-67" x="1619.123047"/>
     <use xlink:href="#DejaVuSans-Bold-65" x="1690.705078"/>
     <use xlink:href="#DejaVuSans-Bold-6e" x="1758.527344"/>
     <use xlink:href="#DejaVuSans-Bold-69" x="1829.71875"/>
     <use xlink:href="#DejaVuSans-Bold-63" x="1863.996094"/>
     <use xlink:href="#DejaVuSans-Bold-69" x="1923.273438"/>
     <use xlink:href="#DejaVuSans-Bold-74" x="1957.550781"/>
     <use xlink:href="#DejaVuSans-Bold-79" x="2005.353516"/>
     <use xlink:href="#DejaVuSans-Bold-29" x="2070.539062"/>
    </g>
   </g>
   <g id="text_9">
    <path d="M 254.855187 280.230938 
Q 255.666437 280.440625 256.08753 280.959688 
Q 256.510343 281.477031 256.510343 282.277969 
Q 256.510343 283.470781 255.595968 284.09125 
Q 254.683312 284.711719 252.933624 284.711719 
Q 252.314874 284.711719 251.694405 284.612031 
Q 251.073937 284.512344 250.467218 284.312969 
L 250.467218 282.717969 
Q 251.048155 283.008438 251.61878 283.15625 
Q 252.191124 283.304062 252.744562 283.304062 
Q 253.566124 283.304062 254.004405 283.020469 
Q 254.442687 282.735156 254.442687 282.202344 
Q 254.442687 281.654063 253.994093 281.372187 
Q 253.545499 281.090313 252.668937 281.090313 
L 251.842218 281.090313 
L 251.842218 279.758281 
L 252.711905 279.758281 
Q 253.492218 279.758281 253.872062 279.514219 
Q 254.253624 279.270156 254.253624 278.77 
Q 254.253624 278.309375 253.882374 278.056719 
Q 253.512843 277.804062 252.835655 277.804062 
Q 252.337218 277.804062 251.826749 277.9175 
Q 251.31628 278.029219 250.810968 278.249219 
L 250.810968 276.735 
Q 251.422843 276.563125 252.024405 276.477188 
Q 252.625968 276.39125 253.206905 276.39125 
Q 254.769249 276.39125 255.544405 276.905156 
Q 256.32128 277.417344 256.32128 278.448594 
Q 256.32128 279.151563 255.95003 279.600156 
Q 255.580499 280.04875 254.855187 280.230938 
z
M 262.445401 280.536875 
Q 262.445401 279.032969 262.163526 278.419375 
Q 261.881651 277.804062 261.214776 277.804062 
Q 260.54962 277.804062 260.264308 278.419375 
Q 259.978995 279.032969 259.978995 280.536875 
Q 259.978995 282.057969 260.264308 282.681875 
Q 260.54962 283.304062 261.214776 283.304062 
Q 261.876495 283.304062 262.160089 282.681875 
Q 262.445401 282.057969 262.445401 280.536875 
z
M 264.513058 280.554062 
Q 264.513058 282.546094 263.653683 283.628906 
Q 262.794308 284.711719 261.214776 284.711719 
Q 259.630089 284.711719 258.770714 283.628906 
Q 257.911339 282.546094 257.911339 280.554062 
Q 257.911339 278.555156 258.770714 277.474063 
Q 259.630089 276.39125 261.214776 276.39125 
Q 262.794308 276.39125 263.653683 277.474063 
Q 264.513058 278.555156 264.513058 280.554062 
z
M 269.088585 278.238906 
L 266.823273 281.595625 
L 269.088585 281.595625 
L 269.088585 278.238906 
z
M 268.744835 276.535625 
L 271.044523 276.535625 
L 271.044523 281.595625 
L 272.187491 281.595625 
L 272.187491 283.094375 
L 271.044523 283.094375 
L 271.044523 284.555313 
L 269.088585 284.555313 
L 269.088585 283.094375 
L 265.53421 283.094375 
L 265.53421 281.322344 
L 268.744835 276.535625 
z
" style="fill: #ffffff; stroke: #000000; stroke-width: 3"/>
    <path d="M 254.855187 280.230938 
Q 255.666437 280.440625 256.08753 280.959688 
Q 256.510343 281.477031 256.510343 282.277969 
Q 256.510343 283.470781 255.595968 284.09125 
Q 254.683312 284.711719 252.933624 284.711719 
Q 252.314874 284.711719 251.694405 284.612031 
Q 251.073937 284.512344 250.467218 284.312969 
L 250.467218 282.717969 
Q 251.048155 283.008438 251.61878 283.15625 
Q 252.191124 283.304062 252.744562 283.304062 
Q 253.566124 283.304062 254.004405 283.020469 
Q 254.442687 282.735156 254.442687 282.202344 
Q 254.442687 281.654063 253.994093 281.372187 
Q 253.545499 281.090313 252.668937 281.090313 
L 251.842218 281.090313 
L 251.842218 279.758281 
L 252.711905 279.758281 
Q 253.492218 279.758281 253.872062 279.514219 
Q 254.253624 279.270156 254.253624 278.77 
Q 254.253624 278.309375 253.882374 278.056719 
Q 253.512843 277.804062 252.835655 277.804062 
Q 252.337218 277.804062 251.826749 277.9175 
Q 251.31628 278.029219 250.810968 278.249219 
L 250.810968 276.735 
Q 251.422843 276.563125 252.024405 276.477188 
Q 252.625968 276.39125 253.206905 276.39125 
Q 254.769249 276.39125 255.544405 276.905156 
Q 256.32128 277.417344 256.32128 278.448594 
Q 256.32128 279.151563 255.95003 279.600156 
Q 255.580499 280.04875 254.855187 280.230938 
z
M 262.445401 280.536875 
Q 262.445401 279.032969 262.163526 278.419375 
Q 261.881651 277.804062 261.214776 277.804062 
Q 260.54962 277.804062 260.264308 278.419375 
Q 259.978995 279.032969 259.978995 280.536875 
Q 259.978995 282.057969 260.264308 282.681875 
Q 260.54962 283.304062 261.214776 283.304062 
Q 261.876495 283.304062 262.160089 282.681875 
Q 262.445401 282.057969 262.445401 280.536875 
z
M 264.513058 280.554062 
Q 264.513058 282.546094 263.653683 283.628906 
Q 262.794308 284.711719 261.214776 284.711719 
Q 259.630089 284.711719 258.770714 283.628906 
Q 257.911339 282.546094 257.911339 280.554062 
Q 257.911339 278.555156 258.770714 277.474063 
Q 259.630089 276.39125 261.214776 276.39125 
Q 262.794308 276.39125 263.653683 277.474063 
Q 264.513058 278.555156 264.513058 280.554062 
z
M 269.088585 278.238906 
L 266.823273 281.595625 
L 269.088585 281.595625 
L 269.088585 278.238906 
z
M 268.744835 276.535625 
L 271.044523 276.535625 
L 271.044523 281.595625 
L 272.187491 281.595625 
L 272.187491 283.094375 
L 271.044523 283.094375 
L 271.044523 284.555313 
L 269.088585 284.555313 
L 269.088585 283.094375 
L 265.53421 283.094375 
L 265.53421 281.322344 
L 268.744835 276.535625 
z
" style="fill: #ffffff"/>
   </g>
   <g id="text_10">
    <path d="M 244.880499 307.750313 
L 243.574093 307.750313 
Q 242.901905 306.664688 242.58128 305.687344 
Q 242.260655 304.708594 242.260655 303.746719 
Q 242.260655 302.783438 242.582687 301.797656 
Q 242.906124 300.810469 243.574093 299.734688 
L 244.880499 299.734688 
Q 244.317999 300.775313 244.036749 301.770938 
Q 243.755499 302.766563 243.755499 303.738281 
Q 243.755499 304.708594 244.033937 305.707031 
Q 244.312374 306.704063 244.880499 307.750313 
z
M 249.740499 303.275625 
Q 249.740499 302.045156 249.509874 301.543125 
Q 249.279249 301.039688 248.733624 301.039688 
Q 248.189405 301.039688 247.955968 301.543125 
Q 247.72253 302.045156 247.72253 303.275625 
Q 247.72253 304.520156 247.955968 305.030625 
Q 248.189405 305.539688 248.733624 305.539688 
Q 249.27503 305.539688 249.507062 305.030625 
Q 249.740499 304.520156 249.740499 303.275625 
z
M 251.432218 303.289688 
Q 251.432218 304.919531 250.729093 305.805469 
Q 250.025968 306.691406 248.733624 306.691406 
Q 247.437062 306.691406 246.733937 305.805469 
Q 246.030812 304.919531 246.030812 303.289688 
Q 246.030812 301.654219 246.733937 300.769688 
Q 247.437062 299.88375 248.733624 299.88375 
Q 250.025968 299.88375 250.729093 300.769688 
Q 251.432218 301.654219 251.432218 303.289688 
z
M 252.780987 304.863281 
L 254.363019 304.863281 
L 254.363019 306.563438 
L 252.780987 306.563438 
L 252.780987 304.863281 
z
M 259.473683 303.025313 
Q 260.137433 303.196875 260.481964 303.621563 
Q 260.827901 304.044844 260.827901 304.700156 
Q 260.827901 305.676094 260.079776 306.18375 
Q 259.333058 306.691406 257.901495 306.691406 
Q 257.395245 306.691406 256.887589 306.609844 
Q 256.379933 306.528281 255.883526 306.365156 
L 255.883526 305.060156 
Q 256.358839 305.297813 256.825714 305.41875 
Q 257.293995 305.539688 257.746808 305.539688 
Q 258.418995 305.539688 258.777589 305.307656 
Q 259.136183 305.074219 259.136183 304.638281 
Q 259.136183 304.189688 258.769151 303.959063 
Q 258.40212 303.728438 257.684933 303.728438 
L 257.008526 303.728438 
L 257.008526 302.638594 
L 257.720089 302.638594 
Q 258.358526 302.638594 258.669308 302.438906 
Q 258.981495 302.239219 258.981495 301.83 
Q 258.981495 301.453125 258.677745 301.246406 
Q 258.375401 301.039688 257.821339 301.039688 
Q 257.413526 301.039688 256.99587 301.1325 
Q 256.578214 301.223906 256.164776 301.403906 
L 256.164776 300.165 
Q 256.665401 300.024375 257.157589 299.954063 
Q 257.649776 299.88375 258.125089 299.88375 
Q 259.40337 299.88375 260.037589 300.304219 
Q 260.673214 300.723281 260.673214 301.567031 
Q 260.673214 302.142188 260.369464 302.509219 
Q 260.06712 302.87625 259.473683 303.025313 
z
M 264.136983 305.320312 
L 267.024015 305.320312 
L 267.024015 306.563438 
L 262.255421 306.563438 
L 262.255421 305.320312 
L 264.650265 303.205313 
Q 264.972296 302.915625 265.125577 302.638594 
Q 265.278858 302.361563 265.278858 302.063438 
Q 265.278858 301.602188 264.969483 301.320938 
Q 264.660108 301.039688 264.145421 301.039688 
Q 263.750265 301.039688 263.279171 301.208438 
Q 262.809483 301.377188 262.273702 301.711875 
L 262.273702 300.270469 
Q 262.84464 300.082031 263.402921 299.983594 
Q 263.961202 299.88375 264.496983 299.88375 
Q 265.675421 299.88375 266.327921 300.402656 
Q 266.980421 300.920156 266.980421 301.848281 
Q 266.980421 302.384063 266.70339 302.848125 
Q 266.426358 303.310781 265.539015 304.089844 
L 264.136983 305.320312 
z
M 274.779659 303.856406 
Q 274.468878 303.856406 274.297316 304.126406 
Q 274.125753 304.396406 274.125753 304.898438 
Q 274.125753 305.403281 274.294503 305.673281 
Q 274.463253 305.943281 274.779659 305.943281 
Q 275.096066 305.943281 275.263409 305.673281 
Q 275.430753 305.403281 275.430753 304.898438 
Q 275.430753 304.396406 275.260597 304.126406 
Q 275.091847 303.856406 274.779659 303.856406 
z
M 274.779659 303.118125 
Q 275.598097 303.118125 276.067784 303.593437 
Q 276.537472 304.067344 276.537472 304.898438 
Q 276.537472 305.728125 276.067784 306.210469 
Q 275.598097 306.691406 274.779659 306.691406 
Q 273.962628 306.691406 273.490128 306.210469 
Q 273.017628 305.728125 273.017628 304.898438 
Q 273.017628 304.071563 273.490128 303.594844 
Q 273.962628 303.118125 274.779659 303.118125 
z
M 270.750753 306.691406 
L 269.779034 306.691406 
L 273.879659 299.88375 
L 274.855597 299.88375 
L 270.750753 306.691406 
z
M 269.849347 299.88375 
Q 270.666378 299.88375 271.134659 300.360469 
Q 271.602941 300.837188 271.602941 301.668281 
Q 271.602941 302.497969 271.134659 302.9775 
Q 270.666378 303.457031 269.849347 303.457031 
Q 269.032316 303.457031 268.564034 302.9775 
Q 268.095753 302.497969 268.095753 301.668281 
Q 268.095753 300.837188 268.564034 300.360469 
Q 269.032316 299.88375 269.849347 299.88375 
z
M 269.849347 300.622031 
Q 269.532941 300.622031 269.361378 300.894844 
Q 269.189816 301.16625 269.189816 301.668281 
Q 269.189816 302.173125 269.361378 302.44875 
Q 269.532941 302.722969 269.849347 302.722969 
Q 270.165753 302.722969 270.334503 302.44875 
Q 270.504659 302.173125 270.504659 301.668281 
Q 270.504659 301.16625 270.333097 300.894844 
Q 270.161534 300.622031 269.849347 300.622031 
z
M 277.54505 307.750313 
Q 278.10755 306.704063 278.3888 305.707031 
Q 278.67005 304.708594 278.67005 303.738281 
Q 278.67005 302.766563 278.3888 301.770938 
Q 278.10755 300.775313 277.54505 299.734688 
L 278.85005 299.734688 
Q 279.518019 300.810469 279.84005 301.797656 
Q 280.163487 302.783438 280.163487 303.746719 
Q 280.163487 304.708594 279.842862 305.687344 
Q 279.522237 306.664688 278.85005 307.750313 
L 277.54505 307.750313 
z
" style="fill: #ffffff; stroke: #000000; stroke-width: 3"/>
    <path d="M 244.880499 307.750313 
L 243.574093 307.750313 
Q 242.901905 306.664688 242.58128 305.687344 
Q 242.260655 304.708594 242.260655 303.746719 
Q 242.260655 302.783438 242.582687 301.797656 
Q 242.906124 300.810469 243.574093 299.734688 
L 244.880499 299.734688 
Q 244.317999 300.775313 244.036749 301.770938 
Q 243.755499 302.766563 243.755499 303.738281 
Q 243.755499 304.708594 244.033937 305.707031 
Q 244.312374 306.704063 244.880499 307.750313 
z
M 249.740499 303.275625 
Q 249.740499 302.045156 249.509874 301.543125 
Q 249.279249 301.039688 248.733624 301.039688 
Q 248.189405 301.039688 247.955968 301.543125 
Q 247.72253 302.045156 247.72253 303.275625 
Q 247.72253 304.520156 247.955968 305.030625 
Q 248.189405 305.539688 248.733624 305.539688 
Q 249.27503 305.539688 249.507062 305.030625 
Q 249.740499 304.520156 249.740499 303.275625 
z
M 251.432218 303.289688 
Q 251.432218 304.919531 250.729093 305.805469 
Q 250.025968 306.691406 248.733624 306.691406 
Q 247.437062 306.691406 246.733937 305.805469 
Q 246.030812 304.919531 246.030812 303.289688 
Q 246.030812 301.654219 246.733937 300.769688 
Q 247.437062 299.88375 248.733624 299.88375 
Q 250.025968 299.88375 250.729093 300.769688 
Q 251.432218 301.654219 251.432218 303.289688 
z
M 252.780987 304.863281 
L 254.363019 304.863281 
L 254.363019 306.563438 
L 252.780987 306.563438 
L 252.780987 304.863281 
z
M 259.473683 303.025313 
Q 260.137433 303.196875 260.481964 303.621563 
Q 260.827901 304.044844 260.827901 304.700156 
Q 260.827901 305.676094 260.079776 306.18375 
Q 259.333058 306.691406 257.901495 306.691406 
Q 257.395245 306.691406 256.887589 306.609844 
Q 256.379933 306.528281 255.883526 306.365156 
L 255.883526 305.060156 
Q 256.358839 305.297813 256.825714 305.41875 
Q 257.293995 305.539688 257.746808 305.539688 
Q 258.418995 305.539688 258.777589 305.307656 
Q 259.136183 305.074219 259.136183 304.638281 
Q 259.136183 304.189688 258.769151 303.959063 
Q 258.40212 303.728438 257.684933 303.728438 
L 257.008526 303.728438 
L 257.008526 302.638594 
L 257.720089 302.638594 
Q 258.358526 302.638594 258.669308 302.438906 
Q 258.981495 302.239219 258.981495 301.83 
Q 258.981495 301.453125 258.677745 301.246406 
Q 258.375401 301.039688 257.821339 301.039688 
Q 257.413526 301.039688 256.99587 301.1325 
Q 256.578214 301.223906 256.164776 301.403906 
L 256.164776 300.165 
Q 256.665401 300.024375 257.157589 299.954063 
Q 257.649776 299.88375 258.125089 299.88375 
Q 259.40337 299.88375 260.037589 300.304219 
Q 260.673214 300.723281 260.673214 301.567031 
Q 260.673214 302.142188 260.369464 302.509219 
Q 260.06712 302.87625 259.473683 303.025313 
z
M 264.136983 305.320312 
L 267.024015 305.320312 
L 267.024015 306.563438 
L 262.255421 306.563438 
L 262.255421 305.320312 
L 264.650265 303.205313 
Q 264.972296 302.915625 265.125577 302.638594 
Q 265.278858 302.361563 265.278858 302.063438 
Q 265.278858 301.602188 264.969483 301.320938 
Q 264.660108 301.039688 264.145421 301.039688 
Q 263.750265 301.039688 263.279171 301.208438 
Q 262.809483 301.377188 262.273702 301.711875 
L 262.273702 300.270469 
Q 262.84464 300.082031 263.402921 299.983594 
Q 263.961202 299.88375 264.496983 299.88375 
Q 265.675421 299.88375 266.327921 300.402656 
Q 266.980421 300.920156 266.980421 301.848281 
Q 266.980421 302.384063 266.70339 302.848125 
Q 266.426358 303.310781 265.539015 304.089844 
L 264.136983 305.320312 
z
M 274.779659 303.856406 
Q 274.468878 303.856406 274.297316 304.126406 
Q 274.125753 304.396406 274.125753 304.898438 
Q 274.125753 305.403281 274.294503 305.673281 
Q 274.463253 305.943281 274.779659 305.943281 
Q 275.096066 305.943281 275.263409 305.673281 
Q 275.430753 305.403281 275.430753 304.898438 
Q 275.430753 304.396406 275.260597 304.126406 
Q 275.091847 303.856406 274.779659 303.856406 
z
M 274.779659 303.118125 
Q 275.598097 303.118125 276.067784 303.593437 
Q 276.537472 304.067344 276.537472 304.898438 
Q 276.537472 305.728125 276.067784 306.210469 
Q 275.598097 306.691406 274.779659 306.691406 
Q 273.962628 306.691406 273.490128 306.210469 
Q 273.017628 305.728125 273.017628 304.898438 
Q 273.017628 304.071563 273.490128 303.594844 
Q 273.962628 303.118125 274.779659 303.118125 
z
M 270.750753 306.691406 
L 269.779034 306.691406 
L 273.879659 299.88375 
L 274.855597 299.88375 
L 270.750753 306.691406 
z
M 269.849347 299.88375 
Q 270.666378 299.88375 271.134659 300.360469 
Q 271.602941 300.837188 271.602941 301.668281 
Q 271.602941 302.497969 271.134659 302.9775 
Q 270.666378 303.457031 269.849347 303.457031 
Q 269.032316 303.457031 268.564034 302.9775 
Q 268.095753 302.497969 268.095753 301.668281 
Q 268.095753 300.837188 268.564034 300.360469 
Q 269.032316 299.88375 269.849347 299.88375 
z
M 269.849347 300.622031 
Q 269.532941 300.622031 269.361378 300.894844 
Q 269.189816 301.16625 269.189816 301.668281 
Q 269.189816 302.173125 269.361378 302.44875 
Q 269.532941 302.722969 269.849347 302.722969 
Q 270.165753 302.722969 270.334503 302.44875 
Q 270.504659 302.173125 270.504659 301.668281 
Q 270.504659 301.16625 270.333097 300.894844 
Q 270.161534 300.622031 269.849347 300.622031 
z
M 277.54505 307.750313 
Q 278.10755 306.704063 278.3888 305.707031 
Q 278.67005 304.708594 278.67005 303.738281 
Q 278.67005 302.766563 278.3888 301.770938 
Q 278.10755 300.775313 277.54505 299.734688 
L 278.85005 299.734688 
Q 279.518019 300.810469 279.84005 301.797656 
Q 280.163487 302.783438 280.163487 303.746719 
Q 280.163487 304.708594 279.842862 305.687344 
Q 279.522237 306.664688 278.85005 307.750313 
L 277.54505 307.750313 
z
" style="fill: #ffffff"/>
   </g>
   <g id="text_11">
    <!-- Active NP Candidates -->
    <g transform="translate(436.500372 290.209266) scale(0.09 -0.09)">
     <use xlink:href="#DejaVuSans-Bold-41"/>
     <use xlink:href="#DejaVuSans-Bold-63" x="77.392578"/>
     <use xlink:href="#DejaVuSans-Bold-74" x="136.669922"/>
     <use xlink:href="#DejaVuSans-Bold-69" x="184.472656"/>
     <use xlink:href="#DejaVuSans-Bold-76" x="218.75"/>
     <use xlink:href="#DejaVuSans-Bold-65" x="283.935547"/>
     <use xlink:href="#DejaVuSans-Bold-20" x="351.757812"/>
     <use xlink:href="#DejaVuSans-Bold-4e" x="386.572266"/>
     <use xlink:href="#DejaVuSans-Bold-50" x="470.263672"/>
     <use xlink:href="#DejaVuSans-Bold-20" x="543.554688"/>
     <use xlink:href="#DejaVuSans-Bold-43" x="578.369141"/>
     <use xlink:href="#DejaVuSans-Bold-61" x="651.757812"/>
     <use xlink:href="#DejaVuSans-Bold-6e" x="719.238281"/>
     <use xlink:href="#DejaVuSans-Bold-64" x="790.429688"/>
     <use xlink:href="#DejaVuSans-Bold-69" x="862.011719"/>
     <use xlink:href="#DejaVuSans-Bold-64" x="896.289062"/>
     <use xlink:href="#DejaVuSans-Bold-61" x="967.871094"/>
     <use xlink:href="#DejaVuSans-Bold-74" x="1035.351562"/>
     <use xlink:href="#DejaVuSans-Bold-65" x="1083.154297"/>
     <use xlink:href="#DejaVuSans-Bold-73" x="1150.976562"/>
    </g>
    <!-- (Predicted by Consensus Approach) -->
    <g transform="translate(436.500372 300.287297) scale(0.09 -0.09)">
     <defs>
      <path id="DejaVuSans-Bold-62" d="M 2400 722 
Q 2759 722 2948 984 
Q 3138 1247 3138 1747 
Q 3138 2247 2948 2509 
Q 2759 2772 2400 2772 
Q 2041 2772 1848 2508 
Q 1656 2244 1656 1747 
Q 1656 1250 1848 986 
Q 2041 722 2400 722 
z
M 1656 2988 
Q 1888 3294 2169 3439 
Q 2450 3584 2816 3584 
Q 3463 3584 3878 3070 
Q 4294 2556 4294 1747 
Q 4294 938 3878 423 
Q 3463 -91 2816 -91 
Q 2450 -91 2169 54 
Q 1888 200 1656 506 
L 1656 0 
L 538 0 
L 538 4863 
L 1656 4863 
L 1656 2988 
z
" transform="scale(0.015625)"/>
      <path id="DejaVuSans-Bold-75" d="M 500 1363 
L 500 3500 
L 1625 3500 
L 1625 3150 
Q 1625 2866 1622 2436 
Q 1619 2006 1619 1863 
Q 1619 1441 1641 1255 
Q 1663 1069 1716 984 
Q 1784 875 1895 815 
Q 2006 756 2150 756 
Q 2500 756 2700 1025 
Q 2900 1294 2900 1772 
L 2900 3500 
L 4019 3500 
L 4019 0 
L 2900 0 
L 2900 506 
Q 2647 200 2364 54 
Q 2081 -91 1741 -91 
Q 1134 -91 817 281 
Q 500 653 500 1363 
z
" transform="scale(0.015625)"/>
      <path id="DejaVuSans-Bold-70" d="M 1656 506 
L 1656 -1331 
L 538 -1331 
L 538 3500 
L 1656 3500 
L 1656 2988 
Q 1888 3294 2169 3439 
Q 2450 3584 2816 3584 
Q 3463 3584 3878 3070 
Q 4294 2556 4294 1747 
Q 4294 938 3878 423 
Q 3463 -91 2816 -91 
Q 2450 -91 2169 54 
Q 1888 200 1656 506 
z
M 2400 2772 
Q 2041 2772 1848 2508 
Q 1656 2244 1656 1747 
Q 1656 1250 1848 986 
Q 2041 722 2400 722 
Q 2759 722 2948 984 
Q 3138 1247 3138 1747 
Q 3138 2247 2948 2509 
Q 2759 2772 2400 2772 
z
" transform="scale(0.015625)"/>
      <path id="DejaVuSans-Bold-68" d="M 4056 2131 
L 4056 0 
L 2931 0 
L 2931 347 
L 2931 1625 
Q 2931 2084 2911 2256 
Q 2891 2428 2841 2509 
Q 2775 2619 2662 2680 
Q 2550 2741 2406 2741 
Q 2056 2741 1856 2470 
Q 1656 2200 1656 1722 
L 1656 0 
L 538 0 
L 538 4863 
L 1656 4863 
L 1656 2988 
Q 1909 3294 2193 3439 
Q 2478 3584 2822 3584 
Q 3428 3584 3742 3212 
Q 4056 2841 4056 2131 
z
" transform="scale(0.015625)"/>
     </defs>
     <use xlink:href="#DejaVuSans-Bold-28"/>
     <use xlink:href="#DejaVuSans-Bold-50" x="45.703125"/>
     <use xlink:href="#DejaVuSans-Bold-72" x="118.994141"/>
     <use xlink:href="#DejaVuSans-Bold-65" x="168.310547"/>
     <use xlink:href="#DejaVuSans-Bold-64" x="236.132812"/>
     <use xlink:href="#DejaVuSans-Bold-69" x="307.714844"/>
     <use xlink:href="#DejaVuSans-Bold-63" x="341.992188"/>
     <use xlink:href="#DejaVuSans-Bold-74" x="401.269531"/>
     <use xlink:href="#DejaVuSans-Bold-65" x="449.072266"/>
     <use xlink:href="#DejaVuSans-Bold-64" x="516.894531"/>
     <use xlink:href="#DejaVuSans-Bold-20" x="588.476562"/>
     <use xlink:href="#DejaVuSans-Bold-62" x="623.291016"/>
     <use xlink:href="#DejaVuSans-Bold-79" x="694.873047"/>
     <use xlink:href="#DejaVuSans-Bold-20" x="760.058594"/>
     <use xlink:href="#DejaVuSans-Bold-43" x="794.873047"/>
     <use xlink:href="#DejaVuSans-Bold-6f" x="868.261719"/>
     <use xlink:href="#DejaVuSans-Bold-6e" x="936.962891"/>
     <use xlink:href="#DejaVuSans-Bold-73" x="1008.154297"/>
     <use xlink:href="#DejaVuSans-Bold-65" x="1067.675781"/>
     <use xlink:href="#DejaVuSans-Bold-6e" x="1135.498047"/>
     <use xlink:href="#DejaVuSans-Bold-73" x="1206.689453"/>
     <use xlink:href="#DejaVuSans-Bold-75" x="1266.210938"/>
     <use xlink:href="#DejaVuSans-Bold-73" x="1337.402344"/>
     <use xlink:href="#DejaVuSans-Bold-20" x="1396.923828"/>
     <use xlink:href="#DejaVuSans-Bold-41" x="1431.738281"/>
     <use xlink:href="#DejaVuSans-Bold-70" x="1509.130859"/>
     <use xlink:href="#DejaVuSans-Bold-70" x="1580.712891"/>
     <use xlink:href="#DejaVuSans-Bold-72" x="1652.294922"/>
     <use xlink:href="#DejaVuSans-Bold-6f" x="1701.611328"/>
     <use xlink:href="#DejaVuSans-Bold-61" x="1770.3125"/>
     <use xlink:href="#DejaVuSans-Bold-63" x="1837.792969"/>
     <use xlink:href="#DejaVuSans-Bold-68" x="1897.070312"/>
     <use xlink:href="#DejaVuSans-Bold-29" x="1968.261719"/>
    </g>
   </g>
  </g>
 </g>
 <defs>
  <clipPath id="p0f3d89592c">
   <rect x="10.8" y="10.8" width="550.906364" height="338.4"/>
  </clipPath>
 </defs>
</svg>
