<?xml version="1.0" encoding="utf-8" standalone="no"?>
<!DOCTYPE svg PUBLIC "-//W3C//DTD SVG 1.1//EN"
  "http://www.w3.org/Graphics/SVG/1.1/DTD/svg11.dtd">
<svg xmlns:xlink="http://www.w3.org/1999/xlink" width="576pt" height="360pt" viewBox="0 0 576 360" xmlns="http://www.w3.org/2000/svg" version="1.1">
 <metadata>
  <rdf:RDF xmlns:dc="http://purl.org/dc/elements/1.1/" xmlns:cc="http://creativecommons.org/ns#" xmlns:rdf="http://www.w3.org/1999/02/22-rdf-syntax-ns#">
   <cc:Work>
    <dc:type rdf:resource="http://purl.org/dc/dcmitype/StillImage"/>
    <dc:date>2025-09-24T14:44:55.863495</dc:date>
    <dc:format>image/svg+xml</dc:format>
    <dc:creator>
     <cc:Agent>
      <dc:title>Matplotlib v3.9.0, https://matplotlib.org/</dc:title>
     </cc:Agent>
    </dc:creator>
   </cc:Work>
  </rdf:RDF>
 </metadata>
 <defs>
  <style type="text/css">*{stroke-linejoin: round; stroke-linecap: butt}</style>
 </defs>
 <g id="figure_1">
  <g id="patch_1">
   <path d="M 0 360 
L 576 360 
L 576 0 
L 0 0 
z
" style="fill: #ffffff"/>
  </g>
  <g id="axes_1">
   <g id="patch_2">
    <path d="M 106.635124 67.2 
L 298.305372 67.2 
L 266.360331 151.8 
L 138.580165 151.8 
z
" clip-path="url(#pf2ef9bf99e)" style="fill: #084594; opacity: 0.9; stroke: #000000; stroke-linejoin: miter"/>
   </g>
   <g id="patch_3">
    <path d="M 138.580165 151.8 
L 266.360331 151.8 
L 234.415289 236.4 
L 170.525207 236.4 
z
" clip-path="url(#pf2ef9bf99e)" style="fill: #238b45; opacity: 0.9; stroke: #000000; stroke-linejoin: miter"/>
   </g>
   <g id="patch_4">
    <path d="M 170.525207 236.4 
L 234.415289 236.4 
L 202.470248 321 
z
" clip-path="url(#pf2ef9bf99e)" style="fill: #fdb863; opacity: 0.9; stroke: #000000; stroke-linejoin: miter"/>
   </g>
   <g id="line2d_1">
    <path d="M 298.305372 109.5 
L 331.847665 109.5 
" clip-path="url(#pf2ef9bf99e)" style="fill: none; stroke-dasharray: 3.7,1.6; stroke-dashoffset: 0; stroke: #808080"/>
   </g>
   <g id="line2d_2">
    <path d="M 266.360331 194.1 
L 331.847665 194.1 
" clip-path="url(#pf2ef9bf99e)" style="fill: none; stroke-dasharray: 3.7,1.6; stroke-dashoffset: 0; stroke: #808080"/>
   </g>
   <g id="line2d_3">
    <path d="M 234.415289 278.7 
L 331.847665 278.7 
" clip-path="url(#pf2ef9bf99e)" style="fill: none; stroke-dasharray: 3.7,1.6; stroke-dashoffset: 0; stroke: #808080"/>
   </g>
   <g id="text_1">
    <path d="M 186.362982 111.107031 
L 188.190014 111.107031 
L 188.190014 105.923281 
L 186.314857 106.31 
L 186.314857 104.902344 
L 188.177982 104.515625 
L 190.144232 104.515625 
L 190.144232 111.107031 
L 191.971264 111.107031 
L 191.971264 112.535313 
L 186.362982 112.535313 
L 186.362982 111.107031 
z
M 193.850072 110.457344 
L 195.783666 110.457344 
L 195.783666 112.095313 
L 194.456791 114.097656 
L 193.313822 114.097656 
L 193.850072 112.095313 
L 193.850072 110.457344 
z
M 200.075814 111.015938 
L 203.604408 111.015938 
L 203.604408 112.535313 
L 197.776127 112.535313 
L 197.776127 111.015938 
L 200.703158 108.430938 
Q 201.096752 108.076875 201.284096 107.738281 
Q 201.471439 107.399688 201.471439 107.035313 
Q 201.471439 106.471563 201.093314 106.127813 
Q 200.715189 105.784063 200.086127 105.784063 
Q 199.603158 105.784063 199.027377 105.990313 
Q 198.453314 106.196563 197.798471 106.605625 
L 197.798471 104.843906 
Q 198.496283 104.613594 199.178627 104.493281 
Q 199.860971 104.37125 200.515814 104.37125 
Q 201.956127 104.37125 202.753627 105.005469 
Q 203.551127 105.637969 203.551127 106.772344 
Q 203.551127 107.427188 203.212533 107.994375 
Q 202.873939 108.559844 201.789408 109.512031 
L 200.075814 111.015938 
z
M 208.389623 108.946563 
Q 207.810404 108.946563 207.497592 109.264531 
Q 207.186498 109.580781 207.186498 110.172031 
Q 207.186498 110.763281 207.497592 111.077813 
Q 207.810404 111.390625 208.389623 111.390625 
Q 208.965404 111.390625 209.271342 111.077813 
Q 209.577279 110.763281 209.577279 110.172031 
Q 209.577279 109.575625 209.271342 109.261094 
Q 208.965404 108.946563 208.389623 108.946563 
z
M 206.88056 108.265938 
Q 206.150092 108.044219 205.778842 107.58875 
Q 205.40931 107.131563 205.40931 106.449219 
Q 205.40931 105.435156 206.16556 104.904063 
Q 206.923529 104.37125 208.389623 104.37125 
Q 209.845404 104.37125 210.601654 104.900625 
Q 211.359623 105.43 211.359623 106.449219 
Q 211.359623 107.131563 210.986654 107.58875 
Q 210.613685 108.044219 209.883217 108.265938 
Q 210.699623 108.491094 211.11556 108.998125 
Q 211.531498 109.505156 211.531498 110.278594 
Q 211.531498 111.471406 210.739154 112.081563 
Q 209.94681 112.691719 208.389623 112.691719 
Q 206.827279 112.691719 206.029779 112.081563 
Q 205.232279 111.471406 205.232279 110.278594 
Q 205.232279 109.505156 205.648217 108.998125 
Q 206.064154 108.491094 206.88056 108.265938 
z
M 207.363529 106.658906 
Q 207.363529 107.136719 207.629935 107.394531 
Q 207.896342 107.652344 208.389623 107.652344 
Q 208.872592 107.652344 209.13556 107.394531 
Q 209.400248 107.136719 209.400248 106.658906 
Q 209.400248 106.181094 209.13556 105.926719 
Q 208.872592 105.670625 208.389623 105.670625 
Q 207.896342 105.670625 207.629935 105.928438 
Q 207.363529 106.18625 207.363529 106.658906 
z
M 216.194682 108.577031 
Q 215.651557 108.577031 215.379994 108.929375 
Q 215.108432 109.28 215.108432 109.984688 
Q 215.108432 110.687656 215.379994 111.04 
Q 215.651557 111.390625 216.194682 111.390625 
Q 216.741244 111.390625 217.012807 111.04 
Q 217.284369 110.687656 217.284369 109.984688 
Q 217.284369 109.28 217.012807 108.929375 
Q 216.741244 108.577031 216.194682 108.577031 
z
M 218.750463 104.725313 
L 218.750463 106.208594 
Q 218.239994 105.96625 217.787963 105.851094 
Q 217.33765 105.735938 216.907963 105.735938 
Q 215.984994 105.735938 215.469369 106.249844 
Q 214.953744 106.762031 214.867807 107.770938 
Q 215.221869 107.507969 215.634369 107.377344 
Q 216.048588 107.245 216.538432 107.245 
Q 217.767338 107.245 218.521869 107.965156 
Q 219.2764 108.683594 219.2764 109.848906 
Q 219.2764 111.137969 218.432494 111.914844 
Q 217.590307 112.691719 216.172338 112.691719 
Q 214.609994 112.691719 213.752338 111.636406 
Q 212.8964 110.579375 212.8964 108.640625 
Q 212.8964 106.65375 213.898432 105.517656 
Q 214.900463 104.381563 216.644994 104.381563 
Q 217.198432 104.381563 217.719213 104.4675 
Q 218.239994 104.553438 218.750463 104.725313 
z
" style="fill: #ffffff; stroke: #000000; stroke-width: 3"/>
    <path d="M 186.362982 111.107031 
L 188.190014 111.107031 
L 188.190014 105.923281 
L 186.314857 106.31 
L 186.314857 104.902344 
L 188.177982 104.515625 
L 190.144232 104.515625 
L 190.144232 111.107031 
L 191.971264 111.107031 
L 191.971264 112.535313 
L 186.362982 112.535313 
L 186.362982 111.107031 
z
M 193.850072 110.457344 
L 195.783666 110.457344 
L 195.783666 112.095313 
L 194.456791 114.097656 
L 193.313822 114.097656 
L 193.850072 112.095313 
L 193.850072 110.457344 
z
M 200.075814 111.015938 
L 203.604408 111.015938 
L 203.604408 112.535313 
L 197.776127 112.535313 
L 197.776127 111.015938 
L 200.703158 108.430938 
Q 201.096752 108.076875 201.284096 107.738281 
Q 201.471439 107.399688 201.471439 107.035313 
Q 201.471439 106.471563 201.093314 106.127813 
Q 200.715189 105.784063 200.086127 105.784063 
Q 199.603158 105.784063 199.027377 105.990313 
Q 198.453314 106.196563 197.798471 106.605625 
L 197.798471 104.843906 
Q 198.496283 104.613594 199.178627 104.493281 
Q 199.860971 104.37125 200.515814 104.37125 
Q 201.956127 104.37125 202.753627 105.005469 
Q 203.551127 105.637969 203.551127 106.772344 
Q 203.551127 107.427188 203.212533 107.994375 
Q 202.873939 108.559844 201.789408 109.512031 
L 200.075814 111.015938 
z
M 208.389623 108.946563 
Q 207.810404 108.946563 207.497592 109.264531 
Q 207.186498 109.580781 207.186498 110.172031 
Q 207.186498 110.763281 207.497592 111.077813 
Q 207.810404 111.390625 208.389623 111.390625 
Q 208.965404 111.390625 209.271342 111.077813 
Q 209.577279 110.763281 209.577279 110.172031 
Q 209.577279 109.575625 209.271342 109.261094 
Q 208.965404 108.946563 208.389623 108.946563 
z
M 206.88056 108.265938 
Q 206.150092 108.044219 205.778842 107.58875 
Q 205.40931 107.131563 205.40931 106.449219 
Q 205.40931 105.435156 206.16556 104.904063 
Q 206.923529 104.37125 208.389623 104.37125 
Q 209.845404 104.37125 210.601654 104.900625 
Q 211.359623 105.43 211.359623 106.449219 
Q 211.359623 107.131563 210.986654 107.58875 
Q 210.613685 108.044219 209.883217 108.265938 
Q 210.699623 108.491094 211.11556 108.998125 
Q 211.531498 109.505156 211.531498 110.278594 
Q 211.531498 111.471406 210.739154 112.081563 
Q 209.94681 112.691719 208.389623 112.691719 
Q 206.827279 112.691719 206.029779 112.081563 
Q 205.232279 111.471406 205.232279 110.278594 
Q 205.232279 109.505156 205.648217 108.998125 
Q 206.064154 108.491094 206.88056 108.265938 
z
M 207.363529 106.658906 
Q 207.363529 107.136719 207.629935 107.394531 
Q 207.896342 107.652344 208.389623 107.652344 
Q 208.872592 107.652344 209.13556 107.394531 
Q 209.400248 107.136719 209.400248 106.658906 
Q 209.400248 106.181094 209.13556 105.926719 
Q 208.872592 105.670625 208.389623 105.670625 
Q 207.896342 105.670625 207.629935 105.928438 
Q 207.363529 106.18625 207.363529 106.658906 
z
M 216.194682 108.577031 
Q 215.651557 108.577031 215.379994 108.929375 
Q 215.108432 109.28 215.108432 109.984688 
Q 215.108432 110.687656 215.379994 111.04 
Q 215.651557 111.390625 216.194682 111.390625 
Q 216.741244 111.390625 217.012807 111.04 
Q 217.284369 110.687656 217.284369 109.984688 
Q 217.284369 109.28 217.012807 108.929375 
Q 216.741244 108.577031 216.194682 108.577031 
z
M 218.750463 104.725313 
L 218.750463 106.208594 
Q 218.239994 105.96625 217.787963 105.851094 
Q 217.33765 105.735938 216.907963 105.735938 
Q 215.984994 105.735938 215.469369 106.249844 
Q 214.953744 106.762031 214.867807 107.770938 
Q 215.221869 107.507969 215.634369 107.377344 
Q 216.048588 107.245 216.538432 107.245 
Q 217.767338 107.245 218.521869 107.965156 
Q 219.2764 108.683594 219.2764 109.848906 
Q 219.2764 111.137969 218.432494 111.914844 
Q 217.590307 112.691719 216.172338 112.691719 
Q 214.609994 112.691719 213.752338 111.636406 
Q 212.8964 110.579375 212.8964 108.640625 
Q 212.8964 106.65375 213.898432 105.517656 
Q 214.900463 104.381563 216.644994 104.381563 
Q 217.198432 104.381563 217.719213 104.4675 
Q 218.239994 104.553438 218.750463 104.725313 
z
" style="fill: #ffffff"/>
   </g>
   <g id="text_2">
    <!-- Active compounds identified by SHAP analysis -->
    <g transform="translate(336.639421 111.948281) scale(0.09 -0.09)">
     <defs>
      <path id="DejaVuSans-Bold-41" d="M 3419 850 
L 1538 850 
L 1241 0 
L 31 0 
L 1759 4666 
L 3194 4666 
L 4922 0 
L 3713 0 
L 3419 850 
z
M 1838 1716 
L 3116 1716 
L 2478 3572 
L 1838 1716 
z
" transform="scale(0.015625)"/>
      <path id="DejaVuSans-Bold-63" d="M 3366 3391 
L 3366 2478 
Q 3138 2634 2908 2709 
Q 2678 2784 2431 2784 
Q 1963 2784 1702 2511 
Q 1441 2238 1441 1747 
Q 1441 1256 1702 982 
Q 1963 709 2431 709 
Q 2694 709 2930 787 
Q 3166 866 3366 1019 
L 3366 103 
Q 3103 6 2833 -42 
Q 2563 -91 2291 -91 
Q 1344 -91 809 395 
Q 275 881 275 1747 
Q 275 2613 809 3098 
Q 1344 3584 2291 3584 
Q 2566 3584 2833 3536 
Q 3100 3488 3366 3391 
z
" transform="scale(0.015625)"/>
      <path id="DejaVuSans-Bold-74" d="M 1759 4494 
L 1759 3500 
L 2913 3500 
L 2913 2700 
L 1759 2700 
L 1759 1216 
Q 1759 972 1856 886 
Q 1953 800 2241 800 
L 2816 800 
L 2816 0 
L 1856 0 
Q 1194 0 917 276 
Q 641 553 641 1216 
L 641 2700 
L 84 2700 
L 84 3500 
L 641 3500 
L 641 4494 
L 1759 4494 
z
" transform="scale(0.015625)"/>
      <path id="DejaVuSans-Bold-69" d="M 538 3500 
L 1656 3500 
L 1656 0 
L 538 0 
L 538 3500 
z
M 538 4863 
L 1656 4863 
L 1656 3950 
L 538 3950 
L 538 4863 
z
" transform="scale(0.015625)"/>
      <path id="DejaVuSans-Bold-76" d="M 97 3500 
L 1216 3500 
L 2088 1081 
L 2956 3500 
L 4078 3500 
L 2700 0 
L 1472 0 
L 97 3500 
z
" transform="scale(0.015625)"/>
      <path id="DejaVuSans-Bold-65" d="M 4031 1759 
L 4031 1441 
L 1416 1441 
Q 1456 1047 1700 850 
Q 1944 653 2381 653 
Q 2734 653 3104 758 
Q 3475 863 3866 1075 
L 3866 213 
Q 3469 63 3072 -14 
Q 2675 -91 2278 -91 
Q 1328 -91 801 392 
Q 275 875 275 1747 
Q 275 2603 792 3093 
Q 1309 3584 2216 3584 
Q 3041 3584 3536 3087 
Q 4031 2591 4031 1759 
z
M 2881 2131 
Q 2881 2450 2695 2645 
Q 2509 2841 2209 2841 
Q 1884 2841 1681 2658 
Q 1478 2475 1428 2131 
L 2881 2131 
z
" transform="scale(0.015625)"/>
      <path id="DejaVuSans-Bold-20" transform="scale(0.015625)"/>
      <path id="DejaVuSans-Bold-6f" d="M 2203 2784 
Q 1831 2784 1636 2517 
Q 1441 2250 1441 1747 
Q 1441 1244 1636 976 
Q 1831 709 2203 709 
Q 2569 709 2762 976 
Q 2956 1244 2956 1747 
Q 2956 2250 2762 2517 
Q 2569 2784 2203 2784 
z
M 2203 3584 
Q 3106 3584 3614 3096 
Q 4122 2609 4122 1747 
Q 4122 884 3614 396 
Q 3106 -91 2203 -91 
Q 1297 -91 786 396 
Q 275 884 275 1747 
Q 275 2609 786 3096 
Q 1297 3584 2203 3584 
z
" transform="scale(0.015625)"/>
      <path id="DejaVuSans-Bold-6d" d="M 3781 2919 
Q 3994 3244 4286 3414 
Q 4578 3584 4928 3584 
Q 5531 3584 5847 3212 
Q 6163 2841 6163 2131 
L 6163 0 
L 5038 0 
L 5038 1825 
Q 5041 1866 5042 1909 
Q 5044 1953 5044 2034 
Q 5044 2406 4934 2573 
Q 4825 2741 4581 2741 
Q 4263 2741 4089 2478 
Q 3916 2216 3909 1719 
L 3909 0 
L 2784 0 
L 2784 1825 
Q 2784 2406 2684 2573 
Q 2584 2741 2328 2741 
Q 2006 2741 1831 2477 
Q 1656 2213 1656 1722 
L 1656 0 
L 531 0 
L 531 3500 
L 1656 3500 
L 1656 2988 
Q 1863 3284 2130 3434 
Q 2397 3584 2719 3584 
Q 3081 3584 3359 3409 
Q 3638 3234 3781 2919 
z
" transform="scale(0.015625)"/>
      <path id="DejaVuSans-Bold-70" d="M 1656 506 
L 1656 -1331 
L 538 -1331 
L 538 3500 
L 1656 3500 
L 1656 2988 
Q 1888 3294 2169 3439 
Q 2450 3584 2816 3584 
Q 3463 3584 3878 3070 
Q 4294 2556 4294 1747 
Q 4294 938 3878 423 
Q 3463 -91 2816 -91 
Q 2450 -91 2169 54 
Q 1888 200 1656 506 
z
M 2400 2772 
Q 2041 2772 1848 2508 
Q 1656 2244 1656 1747 
Q 1656 1250 1848 986 
Q 2041 722 2400 722 
Q 2759 722 2948 984 
Q 3138 1247 3138 1747 
Q 3138 2247 2948 2509 
Q 2759 2772 2400 2772 
z
" transform="scale(0.015625)"/>
      <path id="DejaVuSans-Bold-75" d="M 500 1363 
L 500 3500 
L 1625 3500 
L 1625 3150 
Q 1625 2866 1622 2436 
Q 1619 2006 1619 1863 
Q 1619 1441 1641 1255 
Q 1663 1069 1716 984 
Q 1784 875 1895 815 
Q 2006 756 2150 756 
Q 2500 756 2700 1025 
Q 2900 1294 2900 1772 
L 2900 3500 
L 4019 3500 
L 4019 0 
L 2900 0 
L 2900 506 
Q 2647 200 2364 54 
Q 2081 -91 1741 -91 
Q 1134 -91 817 281 
Q 500 653 500 1363 
z
" transform="scale(0.015625)"/>
      <path id="DejaVuSans-Bold-6e" d="M 4056 2131 
L 4056 0 
L 2931 0 
L 2931 347 
L 2931 1631 
Q 2931 2084 2911 2256 
Q 2891 2428 2841 2509 
Q 2775 2619 2662 2680 
Q 2550 2741 2406 2741 
Q 2056 2741 1856 2470 
Q 1656 2200 1656 1722 
L 1656 0 
L 538 0 
L 538 3500 
L 1656 3500 
L 1656 2988 
Q 1909 3294 2193 3439 
Q 2478 3584 2822 3584 
Q 3428 3584 3742 3212 
Q 4056 2841 4056 2131 
z
" transform="scale(0.015625)"/>
      <path id="DejaVuSans-Bold-64" d="M 2919 2988 
L 2919 4863 
L 4044 4863 
L 4044 0 
L 2919 0 
L 2919 506 
Q 2688 197 2409 53 
Q 2131 -91 1766 -91 
Q 1119 -91 703 423 
Q 288 938 288 1747 
Q 288 2556 703 3070 
Q 1119 3584 1766 3584 
Q 2128 3584 2408 3439 
Q 2688 3294 2919 2988 
z
M 2181 722 
Q 2541 722 2730 984 
Q 2919 1247 2919 1747 
Q 2919 2247 2730 2509 
Q 2541 2772 2181 2772 
Q 1825 2772 1636 2509 
Q 1447 2247 1447 1747 
Q 1447 1247 1636 984 
Q 1825 722 2181 722 
z
" transform="scale(0.015625)"/>
      <path id="DejaVuSans-Bold-73" d="M 3272 3391 
L 3272 2541 
Q 2913 2691 2578 2766 
Q 2244 2841 1947 2841 
Q 1628 2841 1473 2761 
Q 1319 2681 1319 2516 
Q 1319 2381 1436 2309 
Q 1553 2238 1856 2203 
L 2053 2175 
Q 2913 2066 3209 1816 
Q 3506 1566 3506 1031 
Q 3506 472 3093 190 
Q 2681 -91 1863 -91 
Q 1516 -91 1145 -36 
Q 775 19 384 128 
L 384 978 
Q 719 816 1070 734 
Q 1422 653 1784 653 
Q 2113 653 2278 743 
Q 2444 834 2444 1013 
Q 2444 1163 2330 1236 
Q 2216 1309 1875 1350 
L 1678 1375 
Q 931 1469 631 1722 
Q 331 1975 331 2491 
Q 331 3047 712 3315 
Q 1094 3584 1881 3584 
Q 2191 3584 2531 3537 
Q 2872 3491 3272 3391 
z
" transform="scale(0.015625)"/>
      <path id="DejaVuSans-Bold-66" d="M 2841 4863 
L 2841 4128 
L 2222 4128 
Q 1984 4128 1890 4042 
Q 1797 3956 1797 3744 
L 1797 3500 
L 2753 3500 
L 2753 2700 
L 1797 2700 
L 1797 0 
L 678 0 
L 678 2700 
L 122 2700 
L 122 3500 
L 678 3500 
L 678 3744 
Q 678 4316 997 4589 
Q 1316 4863 1984 4863 
L 2841 4863 
z
" transform="scale(0.015625)"/>
      <path id="DejaVuSans-Bold-62" d="M 2400 722 
Q 2759 722 2948 984 
Q 3138 1247 3138 1747 
Q 3138 2247 2948 2509 
Q 2759 2772 2400 2772 
Q 2041 2772 1848 2508 
Q 1656 2244 1656 1747 
Q 1656 1250 1848 986 
Q 2041 722 2400 722 
z
M 1656 2988 
Q 1888 3294 2169 3439 
Q 2450 3584 2816 3584 
Q 3463 3584 3878 3070 
Q 4294 2556 4294 1747 
Q 4294 938 3878 423 
Q 3463 -91 2816 -91 
Q 2450 -91 2169 54 
Q 1888 200 1656 506 
L 1656 0 
L 538 0 
L 538 4863 
L 1656 4863 
L 1656 2988 
z
" transform="scale(0.015625)"/>
      <path id="DejaVuSans-Bold-79" d="M 78 3500 
L 1197 3500 
L 2138 1125 
L 2938 3500 
L 4056 3500 
L 2584 -331 
Q 2363 -916 2067 -1148 
Q 1772 -1381 1288 -1381 
L 641 -1381 
L 641 -647 
L 991 -647 
Q 1275 -647 1404 -556 
Q 1534 -466 1606 -231 
L 1638 -134 
L 78 3500 
z
" transform="scale(0.015625)"/>
      <path id="DejaVuSans-Bold-53" d="M 3834 4519 
L 3834 3531 
Q 3450 3703 3084 3790 
Q 2719 3878 2394 3878 
Q 1963 3878 1756 3759 
Q 1550 3641 1550 3391 
Q 1550 3203 1689 3098 
Q 1828 2994 2194 2919 
L 2706 2816 
Q 3484 2659 3812 2340 
Q 4141 2022 4141 1434 
Q 4141 663 3683 286 
Q 3225 -91 2284 -91 
Q 1841 -91 1394 -6 
Q 947 78 500 244 
L 500 1259 
Q 947 1022 1364 901 
Q 1781 781 2169 781 
Q 2563 781 2772 912 
Q 2981 1044 2981 1288 
Q 2981 1506 2839 1625 
Q 2697 1744 2272 1838 
L 1806 1941 
Q 1106 2091 782 2419 
Q 459 2747 459 3303 
Q 459 4000 909 4375 
Q 1359 4750 2203 4750 
Q 2588 4750 2994 4692 
Q 3400 4634 3834 4519 
z
" transform="scale(0.015625)"/>
      <path id="DejaVuSans-Bold-48" d="M 588 4666 
L 1791 4666 
L 1791 2888 
L 3566 2888 
L 3566 4666 
L 4769 4666 
L 4769 0 
L 3566 0 
L 3566 1978 
L 1791 1978 
L 1791 0 
L 588 0 
L 588 4666 
z
" transform="scale(0.015625)"/>
      <path id="DejaVuSans-Bold-50" d="M 588 4666 
L 2584 4666 
Q 3475 4666 3951 4270 
Q 4428 3875 4428 3144 
Q 4428 2409 3951 2014 
Q 3475 1619 2584 1619 
L 1791 1619 
L 1791 0 
L 588 0 
L 588 4666 
z
M 1791 3794 
L 1791 2491 
L 2456 2491 
Q 2806 2491 2997 2661 
Q 3188 2831 3188 3144 
Q 3188 3456 2997 3625 
Q 2806 3794 2456 3794 
L 1791 3794 
z
" transform="scale(0.015625)"/>
      <path id="DejaVuSans-Bold-61" d="M 2106 1575 
Q 1756 1575 1579 1456 
Q 1403 1338 1403 1106 
Q 1403 894 1545 773 
Q 1688 653 1941 653 
Q 2256 653 2472 879 
Q 2688 1106 2688 1447 
L 2688 1575 
L 2106 1575 
z
M 3816 1997 
L 3816 0 
L 2688 0 
L 2688 519 
Q 2463 200 2181 54 
Q 1900 -91 1497 -91 
Q 953 -91 614 226 
Q 275 544 275 1050 
Q 275 1666 698 1953 
Q 1122 2241 2028 2241 
L 2688 2241 
L 2688 2328 
Q 2688 2594 2478 2717 
Q 2269 2841 1825 2841 
Q 1466 2841 1156 2769 
Q 847 2697 581 2553 
L 581 3406 
Q 941 3494 1303 3539 
Q 1666 3584 2028 3584 
Q 2975 3584 3395 3211 
Q 3816 2838 3816 1997 
z
" transform="scale(0.015625)"/>
      <path id="DejaVuSans-Bold-6c" d="M 538 4863 
L 1656 4863 
L 1656 0 
L 538 0 
L 538 4863 
z
" transform="scale(0.015625)"/>
     </defs>
     <use xlink:href="#DejaVuSans-Bold-41"/>
     <use xlink:href="#DejaVuSans-Bold-63" x="77.392578"/>
     <use xlink:href="#DejaVuSans-Bold-74" x="136.669922"/>
     <use xlink:href="#DejaVuSans-Bold-69" x="184.472656"/>
     <use xlink:href="#DejaVuSans-Bold-76" x="218.75"/>
     <use xlink:href="#DejaVuSans-Bold-65" x="283.935547"/>
     <use xlink:href="#DejaVuSans-Bold-20" x="351.757812"/>
     <use xlink:href="#DejaVuSans-Bold-63" x="386.572266"/>
     <use xlink:href="#DejaVuSans-Bold-6f" x="445.849609"/>
     <use xlink:href="#DejaVuSans-Bold-6d" x="514.550781"/>
     <use xlink:href="#DejaVuSans-Bold-70" x="618.75"/>
     <use xlink:href="#DejaVuSans-Bold-6f" x="690.332031"/>
     <use xlink:href="#DejaVuSans-Bold-75" x="759.033203"/>
     <use xlink:href="#DejaVuSans-Bold-6e" x="830.224609"/>
     <use xlink:href="#DejaVuSans-Bold-64" x="901.416016"/>
     <use xlink:href="#DejaVuSans-Bold-73" x="972.998047"/>
     <use xlink:href="#DejaVuSans-Bold-20" x="1032.519531"/>
     <use xlink:href="#DejaVuSans-Bold-69" x="1067.333984"/>
     <use xlink:href="#DejaVuSans-Bold-64" x="1101.611328"/>
     <use xlink:href="#DejaVuSans-Bold-65" x="1173.193359"/>
     <use xlink:href="#DejaVuSans-Bold-6e" x="1241.015625"/>
     <use xlink:href="#DejaVuSans-Bold-74" x="1312.207031"/>
     <use xlink:href="#DejaVuSans-Bold-69" x="1360.009766"/>
     <use xlink:href="#DejaVuSans-Bold-66" x="1394.287109"/>
     <use xlink:href="#DejaVuSans-Bold-69" x="1437.792969"/>
     <use xlink:href="#DejaVuSans-Bold-65" x="1472.070312"/>
     <use xlink:href="#DejaVuSans-Bold-64" x="1539.892578"/>
     <use xlink:href="#DejaVuSans-Bold-20" x="1611.474609"/>
     <use xlink:href="#DejaVuSans-Bold-62" x="1646.289062"/>
     <use xlink:href="#DejaVuSans-Bold-79" x="1717.871094"/>
     <use xlink:href="#DejaVuSans-Bold-20" x="1783.056641"/>
     <use xlink:href="#DejaVuSans-Bold-53" x="1817.871094"/>
     <use xlink:href="#DejaVuSans-Bold-48" x="1889.892578"/>
     <use xlink:href="#DejaVuSans-Bold-41" x="1973.583984"/>
     <use xlink:href="#DejaVuSans-Bold-50" x="2050.976562"/>
     <use xlink:href="#DejaVuSans-Bold-20" x="2124.267578"/>
     <use xlink:href="#DejaVuSans-Bold-61" x="2159.082031"/>
     <use xlink:href="#DejaVuSans-Bold-6e" x="2226.5625"/>
     <use xlink:href="#DejaVuSans-Bold-61" x="2297.753906"/>
     <use xlink:href="#DejaVuSans-Bold-6c" x="2365.234375"/>
     <use xlink:href="#DejaVuSans-Bold-79" x="2399.511719"/>
     <use xlink:href="#DejaVuSans-Bold-73" x="2464.697266"/>
     <use xlink:href="#DejaVuSans-Bold-69" x="2524.21875"/>
     <use xlink:href="#DejaVuSans-Bold-73" x="2558.496094"/>
    </g>
   </g>
   <g id="text_3">
    <path d="M 191.725482 189.115625 
L 197.768607 189.115625 
L 197.768607 190.280938 
L 194.642201 197.135313 
L 192.627826 197.135313 
L 195.587514 190.636719 
L 191.725482 190.636719 
L 191.725482 189.115625 
z
M 203.703666 193.116875 
Q 203.703666 191.612969 203.421791 190.999375 
Q 203.139916 190.384063 202.473041 190.384063 
Q 201.807885 190.384063 201.522572 190.999375 
Q 201.23726 191.612969 201.23726 193.116875 
Q 201.23726 194.637969 201.522572 195.261875 
Q 201.807885 195.884063 202.473041 195.884063 
Q 203.13476 195.884063 203.418353 195.261875 
Q 203.703666 194.637969 203.703666 193.116875 
z
M 205.771322 193.134063 
Q 205.771322 195.126094 204.911947 196.208906 
Q 204.052572 197.291719 202.473041 197.291719 
Q 200.888353 197.291719 200.028978 196.208906 
Q 199.169603 195.126094 199.169603 193.134063 
Q 199.169603 191.135156 200.028978 190.054063 
Q 200.888353 188.97125 202.473041 188.97125 
Q 204.052572 188.97125 204.911947 190.054063 
Q 205.771322 191.135156 205.771322 193.134063 
z
M 210.126849 193.546563 
Q 209.547631 193.546563 209.234818 193.864531 
Q 208.923724 194.180781 208.923724 194.772031 
Q 208.923724 195.363281 209.234818 195.677813 
Q 209.547631 195.990625 210.126849 195.990625 
Q 210.702631 195.990625 211.008568 195.677813 
Q 211.314506 195.363281 211.314506 194.772031 
Q 211.314506 194.175625 211.008568 193.861094 
Q 210.702631 193.546563 210.126849 193.546563 
z
M 208.617787 192.865938 
Q 207.887318 192.644219 207.516068 192.18875 
Q 207.146537 191.731563 207.146537 191.049219 
Q 207.146537 190.035156 207.902787 189.504063 
Q 208.660756 188.97125 210.126849 188.97125 
Q 211.582631 188.97125 212.338881 189.500625 
Q 213.096849 190.03 213.096849 191.049219 
Q 213.096849 191.731563 212.723881 192.18875 
Q 212.350912 192.644219 211.620443 192.865938 
Q 212.436849 193.091094 212.852787 193.598125 
Q 213.268724 194.105156 213.268724 194.878594 
Q 213.268724 196.071406 212.476381 196.681563 
Q 211.684037 197.291719 210.126849 197.291719 
Q 208.564506 197.291719 207.767006 196.681563 
Q 206.969506 196.071406 206.969506 194.878594 
Q 206.969506 194.105156 207.385443 193.598125 
Q 207.801381 193.091094 208.617787 192.865938 
z
M 209.100756 191.258906 
Q 209.100756 191.736719 209.367162 191.994531 
Q 209.633568 192.252344 210.126849 192.252344 
Q 210.609818 192.252344 210.872787 191.994531 
Q 211.137474 191.736719 211.137474 191.258906 
Q 211.137474 190.781094 210.872787 190.526719 
Q 210.609818 190.270625 210.126849 190.270625 
Q 209.633568 190.270625 209.367162 190.528438 
Q 209.100756 190.78625 209.100756 191.258906 
z
" style="fill: #ffffff; stroke: #000000; stroke-width: 3"/>
    <path d="M 191.725482 189.115625 
L 197.768607 189.115625 
L 197.768607 190.280938 
L 194.642201 197.135313 
L 192.627826 197.135313 
L 195.587514 190.636719 
L 191.725482 190.636719 
L 191.725482 189.115625 
z
M 203.703666 193.116875 
Q 203.703666 191.612969 203.421791 190.999375 
Q 203.139916 190.384063 202.473041 190.384063 
Q 201.807885 190.384063 201.522572 190.999375 
Q 201.23726 191.612969 201.23726 193.116875 
Q 201.23726 194.637969 201.522572 195.261875 
Q 201.807885 195.884063 202.473041 195.884063 
Q 203.13476 195.884063 203.418353 195.261875 
Q 203.703666 194.637969 203.703666 193.116875 
z
M 205.771322 193.134063 
Q 205.771322 195.126094 204.911947 196.208906 
Q 204.052572 197.291719 202.473041 197.291719 
Q 200.888353 197.291719 200.028978 196.208906 
Q 199.169603 195.126094 199.169603 193.134063 
Q 199.169603 191.135156 200.028978 190.054063 
Q 200.888353 188.97125 202.473041 188.97125 
Q 204.052572 188.97125 204.911947 190.054063 
Q 205.771322 191.135156 205.771322 193.134063 
z
M 210.126849 193.546563 
Q 209.547631 193.546563 209.234818 193.864531 
Q 208.923724 194.180781 208.923724 194.772031 
Q 208.923724 195.363281 209.234818 195.677813 
Q 209.547631 195.990625 210.126849 195.990625 
Q 210.702631 195.990625 211.008568 195.677813 
Q 211.314506 195.363281 211.314506 194.772031 
Q 211.314506 194.175625 211.008568 193.861094 
Q 210.702631 193.546563 210.126849 193.546563 
z
M 208.617787 192.865938 
Q 207.887318 192.644219 207.516068 192.18875 
Q 207.146537 191.731563 207.146537 191.049219 
Q 207.146537 190.035156 207.902787 189.504063 
Q 208.660756 188.97125 210.126849 188.97125 
Q 211.582631 188.97125 212.338881 189.500625 
Q 213.096849 190.03 213.096849 191.049219 
Q 213.096849 191.731563 212.723881 192.18875 
Q 212.350912 192.644219 211.620443 192.865938 
Q 212.436849 193.091094 212.852787 193.598125 
Q 213.268724 194.105156 213.268724 194.878594 
Q 213.268724 196.071406 212.476381 196.681563 
Q 211.684037 197.291719 210.126849 197.291719 
Q 208.564506 197.291719 207.767006 196.681563 
Q 206.969506 196.071406 206.969506 194.878594 
Q 206.969506 194.105156 207.385443 193.598125 
Q 207.801381 193.091094 208.617787 192.865938 
z
M 209.100756 191.258906 
Q 209.100756 191.736719 209.367162 191.994531 
Q 209.633568 192.252344 210.126849 192.252344 
Q 210.609818 192.252344 210.872787 191.994531 
Q 211.137474 191.736719 211.137474 191.258906 
Q 211.137474 190.781094 210.872787 190.526719 
Q 210.609818 190.270625 210.126849 190.270625 
Q 209.633568 190.270625 209.367162 190.528438 
Q 209.100756 190.78625 209.100756 191.258906 
z
" style="fill: #ffffff"/>
   </g>
   <g id="text_4">
    <!-- Non-toxic Predictions  -->
    <g transform="translate(336.639421 191.509266) scale(0.09 -0.09)">
     <defs>
      <path id="DejaVuSans-Bold-4e" d="M 588 4666 
L 1931 4666 
L 3628 1466 
L 3628 4666 
L 4769 4666 
L 4769 0 
L 3425 0 
L 1728 3200 
L 1728 0 
L 588 0 
L 588 4666 
z
" transform="scale(0.015625)"/>
      <path id="DejaVuSans-Bold-2d" d="M 347 2297 
L 2309 2297 
L 2309 1388 
L 347 1388 
L 347 2297 
z
" transform="scale(0.015625)"/>
      <path id="DejaVuSans-Bold-78" d="M 1422 1791 
L 159 3500 
L 1344 3500 
L 2059 2463 
L 2784 3500 
L 3969 3500 
L 2706 1797 
L 4031 0 
L 2847 0 
L 2059 1106 
L 1281 0 
L 97 0 
L 1422 1791 
z
" transform="scale(0.015625)"/>
      <path id="DejaVuSans-Bold-72" d="M 3138 2547 
Q 2991 2616 2845 2648 
Q 2700 2681 2553 2681 
Q 2122 2681 1889 2404 
Q 1656 2128 1656 1613 
L 1656 0 
L 538 0 
L 538 3500 
L 1656 3500 
L 1656 2925 
Q 1872 3269 2151 3426 
Q 2431 3584 2822 3584 
Q 2878 3584 2943 3579 
Q 3009 3575 3134 3559 
L 3138 2547 
z
" transform="scale(0.015625)"/>
     </defs>
     <use xlink:href="#DejaVuSans-Bold-4e"/>
     <use xlink:href="#DejaVuSans-Bold-6f" x="83.691406"/>
     <use xlink:href="#DejaVuSans-Bold-6e" x="152.392578"/>
     <use xlink:href="#DejaVuSans-Bold-2d" x="223.583984"/>
     <use xlink:href="#DejaVuSans-Bold-74" x="265.087891"/>
     <use xlink:href="#DejaVuSans-Bold-6f" x="312.890625"/>
     <use xlink:href="#DejaVuSans-Bold-78" x="381.591797"/>
     <use xlink:href="#DejaVuSans-Bold-69" x="446.09375"/>
     <use xlink:href="#DejaVuSans-Bold-63" x="480.371094"/>
     <use xlink:href="#DejaVuSans-Bold-20" x="539.648438"/>
     <use xlink:href="#DejaVuSans-Bold-50" x="574.462891"/>
     <use xlink:href="#DejaVuSans-Bold-72" x="647.753906"/>
     <use xlink:href="#DejaVuSans-Bold-65" x="697.070312"/>
     <use xlink:href="#DejaVuSans-Bold-64" x="764.892578"/>
     <use xlink:href="#DejaVuSans-Bold-69" x="836.474609"/>
     <use xlink:href="#DejaVuSans-Bold-63" x="870.751953"/>
     <use xlink:href="#DejaVuSans-Bold-74" x="930.029297"/>
     <use xlink:href="#DejaVuSans-Bold-69" x="977.832031"/>
     <use xlink:href="#DejaVuSans-Bold-6f" x="1012.109375"/>
     <use xlink:href="#DejaVuSans-Bold-6e" x="1080.810547"/>
     <use xlink:href="#DejaVuSans-Bold-73" x="1152.001953"/>
     <use xlink:href="#DejaVuSans-Bold-20" x="1211.523438"/>
    </g>
    <!-- (Dermal Toxicity &amp; Carcinogenicity) -->
    <g transform="translate(336.639421 201.587297) scale(0.09 -0.09)">
     <defs>
      <path id="DejaVuSans-Bold-28" d="M 2413 -844 
L 1484 -844 
Q 1006 -72 778 623 
Q 550 1319 550 2003 
Q 550 2688 779 3389 
Q 1009 4091 1484 4856 
L 2413 4856 
Q 2013 4116 1813 3408 
Q 1613 2700 1613 2009 
Q 1613 1319 1811 609 
Q 2009 -100 2413 -844 
z
" transform="scale(0.015625)"/>
      <path id="DejaVuSans-Bold-44" d="M 1791 3756 
L 1791 909 
L 2222 909 
Q 2959 909 3348 1275 
Q 3738 1641 3738 2338 
Q 3738 3031 3350 3393 
Q 2963 3756 2222 3756 
L 1791 3756 
z
M 588 4666 
L 1856 4666 
Q 2919 4666 3439 4514 
Q 3959 4363 4331 4000 
Q 4659 3684 4818 3271 
Q 4978 2859 4978 2338 
Q 4978 1809 4818 1395 
Q 4659 981 4331 666 
Q 3956 303 3431 151 
Q 2906 0 1856 0 
L 588 0 
L 588 4666 
z
" transform="scale(0.015625)"/>
      <path id="DejaVuSans-Bold-54" d="M 31 4666 
L 4331 4666 
L 4331 3756 
L 2784 3756 
L 2784 0 
L 1581 0 
L 1581 3756 
L 31 3756 
L 31 4666 
z
" transform="scale(0.015625)"/>
      <path id="DejaVuSans-Bold-26" d="M 2497 3097 
L 3775 1691 
Q 3941 1909 4027 2181 
Q 4113 2453 4128 2797 
L 5100 2797 
Q 5053 2228 4879 1784 
Q 4706 1341 4397 1006 
L 5313 0 
L 3988 0 
L 3681 341 
Q 3353 122 2990 15 
Q 2628 -91 2222 -91 
Q 1400 -91 892 342 
Q 384 775 384 1459 
Q 384 1916 607 2267 
Q 831 2619 1338 2950 
Q 1206 3116 1143 3281 
Q 1081 3447 1081 3628 
Q 1081 4138 1478 4444 
Q 1875 4750 2534 4750 
Q 2819 4750 3126 4704 
Q 3434 4659 3769 4569 
L 3769 3700 
Q 3475 3850 3212 3922 
Q 2950 3994 2700 3994 
Q 2459 3994 2326 3901 
Q 2194 3809 2194 3641 
Q 2194 3534 2270 3398 
Q 2347 3263 2497 3097 
z
M 1875 2322 
Q 1672 2175 1569 1989 
Q 1466 1803 1466 1581 
Q 1466 1222 1731 969 
Q 1997 716 2369 716 
Q 2578 716 2759 780 
Q 2941 844 3097 972 
L 1875 2322 
z
" transform="scale(0.015625)"/>
      <path id="DejaVuSans-Bold-43" d="M 4288 256 
Q 3956 84 3597 -3 
Q 3238 -91 2847 -91 
Q 1681 -91 1000 561 
Q 319 1213 319 2328 
Q 319 3447 1000 4098 
Q 1681 4750 2847 4750 
Q 3238 4750 3597 4662 
Q 3956 4575 4288 4403 
L 4288 3438 
Q 3953 3666 3628 3772 
Q 3303 3878 2944 3878 
Q 2300 3878 1931 3465 
Q 1563 3053 1563 2328 
Q 1563 1606 1931 1193 
Q 2300 781 2944 781 
Q 3303 781 3628 887 
Q 3953 994 4288 1222 
L 4288 256 
z
" transform="scale(0.015625)"/>
      <path id="DejaVuSans-Bold-67" d="M 2919 594 
Q 2688 288 2409 144 
Q 2131 0 1766 0 
Q 1125 0 706 504 
Q 288 1009 288 1791 
Q 288 2575 706 3076 
Q 1125 3578 1766 3578 
Q 2131 3578 2409 3434 
Q 2688 3291 2919 2981 
L 2919 3500 
L 4044 3500 
L 4044 353 
Q 4044 -491 3511 -936 
Q 2978 -1381 1966 -1381 
Q 1638 -1381 1331 -1331 
Q 1025 -1281 716 -1178 
L 716 -306 
Q 1009 -475 1290 -558 
Q 1572 -641 1856 -641 
Q 2406 -641 2662 -400 
Q 2919 -159 2919 353 
L 2919 594 
z
M 2181 2772 
Q 1834 2772 1640 2515 
Q 1447 2259 1447 1791 
Q 1447 1309 1634 1061 
Q 1822 813 2181 813 
Q 2531 813 2725 1069 
Q 2919 1325 2919 1791 
Q 2919 2259 2725 2515 
Q 2531 2772 2181 2772 
z
" transform="scale(0.015625)"/>
      <path id="DejaVuSans-Bold-29" d="M 513 -844 
Q 913 -100 1113 609 
Q 1313 1319 1313 2009 
Q 1313 2700 1113 3408 
Q 913 4116 513 4856 
L 1441 4856 
Q 1916 4091 2145 3389 
Q 2375 2688 2375 2003 
Q 2375 1319 2147 623 
Q 1919 -72 1441 -844 
L 513 -844 
z
" transform="scale(0.015625)"/>
     </defs>
     <use xlink:href="#DejaVuSans-Bold-28"/>
     <use xlink:href="#DejaVuSans-Bold-44" x="45.703125"/>
     <use xlink:href="#DejaVuSans-Bold-65" x="128.710938"/>
     <use xlink:href="#DejaVuSans-Bold-72" x="196.533203"/>
     <use xlink:href="#DejaVuSans-Bold-6d" x="245.849609"/>
     <use xlink:href="#DejaVuSans-Bold-61" x="350.048828"/>
     <use xlink:href="#DejaVuSans-Bold-6c" x="417.529297"/>
     <use xlink:href="#DejaVuSans-Bold-20" x="451.806641"/>
     <use xlink:href="#DejaVuSans-Bold-54" x="486.621094"/>
     <use xlink:href="#DejaVuSans-Bold-6f" x="541.583984"/>
     <use xlink:href="#DejaVuSans-Bold-78" x="610.285156"/>
     <use xlink:href="#DejaVuSans-Bold-69" x="674.787109"/>
     <use xlink:href="#DejaVuSans-Bold-63" x="709.064453"/>
     <use xlink:href="#DejaVuSans-Bold-69" x="768.341797"/>
     <use xlink:href="#DejaVuSans-Bold-74" x="802.619141"/>
     <use xlink:href="#DejaVuSans-Bold-79" x="850.421875"/>
     <use xlink:href="#DejaVuSans-Bold-20" x="915.607422"/>
     <use xlink:href="#DejaVuSans-Bold-26" x="950.421875"/>
     <use xlink:href="#DejaVuSans-Bold-20" x="1037.628906"/>
     <use xlink:href="#DejaVuSans-Bold-43" x="1072.443359"/>
     <use xlink:href="#DejaVuSans-Bold-61" x="1145.832031"/>
     <use xlink:href="#DejaVuSans-Bold-72" x="1213.3125"/>
     <use xlink:href="#DejaVuSans-Bold-63" x="1262.628906"/>
     <use xlink:href="#DejaVuSans-Bold-69" x="1321.90625"/>
     <use xlink:href="#DejaVuSans-Bold-6e" x="1356.183594"/>
     <use xlink:href="#DejaVuSans-Bold-6f" x="1427.375"/>
     <use xlink:href="#DejaVuSans-Bold-67" x="1496.076172"/>
     <use xlink:href="#DejaVuSans-Bold-65" x="1567.658203"/>
     <use xlink:href="#DejaVuSans-Bold-6e" x="1635.480469"/>
     <use xlink:href="#DejaVuSans-Bold-69" x="1706.671875"/>
     <use xlink:href="#DejaVuSans-Bold-63" x="1740.949219"/>
     <use xlink:href="#DejaVuSans-Bold-69" x="1800.226562"/>
     <use xlink:href="#DejaVuSans-Bold-74" x="1834.503906"/>
     <use xlink:href="#DejaVuSans-Bold-79" x="1882.306641"/>
     <use xlink:href="#DejaVuSans-Bold-29" x="1947.492188"/>
    </g>
   </g>
   <g id="text_5">
    <path d="M 197.986029 280.215937 
L 201.514623 280.215937 
L 201.514623 281.735313 
L 195.686342 281.735313 
L 195.686342 280.215937 
L 198.613373 277.630938 
Q 199.006967 277.276875 199.19431 276.938281 
Q 199.381654 276.599688 199.381654 276.235313 
Q 199.381654 275.671562 199.003529 275.327812 
Q 198.625404 274.984062 197.996342 274.984062 
Q 197.513373 274.984062 196.937592 275.190313 
Q 196.363529 275.396563 195.708685 275.805625 
L 195.708685 274.043906 
Q 196.406498 273.813594 197.088842 273.693281 
Q 197.771185 273.57125 198.426029 273.57125 
Q 199.866342 273.57125 200.663842 274.205469 
Q 201.461342 274.837969 201.461342 275.972344 
Q 201.461342 276.627188 201.122748 277.194375 
Q 200.784154 277.759844 199.699623 278.712031 
L 197.986029 280.215937 
z
M 207.530463 277.716875 
Q 207.530463 276.212969 207.248588 275.599375 
Q 206.966713 274.984062 206.299838 274.984062 
Q 205.634682 274.984062 205.349369 275.599375 
Q 205.064057 276.212969 205.064057 277.716875 
Q 205.064057 279.237969 205.349369 279.861875 
Q 205.634682 280.484062 206.299838 280.484062 
Q 206.961557 280.484062 207.24515 279.861875 
Q 207.530463 279.237969 207.530463 277.716875 
z
M 209.598119 277.734062 
Q 209.598119 279.726094 208.738744 280.808906 
Q 207.879369 281.891719 206.299838 281.891719 
Q 204.71515 281.891719 203.855775 280.808906 
Q 202.9964 279.726094 202.9964 277.734062 
Q 202.9964 275.735156 203.855775 274.654063 
Q 204.71515 273.57125 206.299838 273.57125 
Q 207.879369 273.57125 208.738744 274.654063 
Q 209.598119 275.735156 209.598119 277.734062 
z
" style="fill: #ffffff; stroke: #000000; stroke-width: 3"/>
    <path d="M 197.986029 280.215937 
L 201.514623 280.215937 
L 201.514623 281.735313 
L 195.686342 281.735313 
L 195.686342 280.215937 
L 198.613373 277.630938 
Q 199.006967 277.276875 199.19431 276.938281 
Q 199.381654 276.599688 199.381654 276.235313 
Q 199.381654 275.671562 199.003529 275.327812 
Q 198.625404 274.984062 197.996342 274.984062 
Q 197.513373 274.984062 196.937592 275.190313 
Q 196.363529 275.396563 195.708685 275.805625 
L 195.708685 274.043906 
Q 196.406498 273.813594 197.088842 273.693281 
Q 197.771185 273.57125 198.426029 273.57125 
Q 199.866342 273.57125 200.663842 274.205469 
Q 201.461342 274.837969 201.461342 275.972344 
Q 201.461342 276.627188 201.122748 277.194375 
Q 200.784154 277.759844 199.699623 278.712031 
L 197.986029 280.215937 
z
M 207.530463 277.716875 
Q 207.530463 276.212969 207.248588 275.599375 
Q 206.966713 274.984062 206.299838 274.984062 
Q 205.634682 274.984062 205.349369 275.599375 
Q 205.064057 276.212969 205.064057 277.716875 
Q 205.064057 279.237969 205.349369 279.861875 
Q 205.634682 280.484062 206.299838 280.484062 
Q 206.961557 280.484062 207.24515 279.861875 
Q 207.530463 279.237969 207.530463 277.716875 
z
M 209.598119 277.734062 
Q 209.598119 279.726094 208.738744 280.808906 
Q 207.879369 281.891719 206.299838 281.891719 
Q 204.71515 281.891719 203.855775 280.808906 
Q 202.9964 279.726094 202.9964 277.734062 
Q 202.9964 275.735156 203.855775 274.654063 
Q 204.71515 273.57125 206.299838 273.57125 
Q 207.879369 273.57125 208.738744 274.654063 
Q 209.598119 275.735156 209.598119 277.734062 
z
" style="fill: #ffffff"/>
   </g>
   <g id="text_6">
    <!-- LRo5 ≤1 violation &amp; SA Score &lt; 2  -->
    <g transform="translate(336.639421 276.144422) scale(0.09 -0.09)">
     <defs>
      <path id="DejaVuSans-Bold-4c" d="M 588 4666 
L 1791 4666 
L 1791 909 
L 3903 909 
L 3903 0 
L 588 0 
L 588 4666 
z
" transform="scale(0.015625)"/>
      <path id="DejaVuSans-Bold-52" d="M 2297 2597 
Q 2675 2597 2839 2737 
Q 3003 2878 3003 3200 
Q 3003 3519 2839 3656 
Q 2675 3794 2297 3794 
L 1791 3794 
L 1791 2597 
L 2297 2597 
z
M 1791 1766 
L 1791 0 
L 588 0 
L 588 4666 
L 2425 4666 
Q 3347 4666 3776 4356 
Q 4206 4047 4206 3378 
Q 4206 2916 3982 2619 
Q 3759 2322 3309 2181 
Q 3556 2125 3751 1926 
Q 3947 1728 4147 1325 
L 4800 0 
L 3519 0 
L 2950 1159 
Q 2778 1509 2601 1637 
Q 2425 1766 2131 1766 
L 1791 1766 
z
" transform="scale(0.015625)"/>
      <path id="DejaVuSans-Bold-35" d="M 678 4666 
L 3669 4666 
L 3669 3781 
L 1638 3781 
L 1638 3059 
Q 1775 3097 1914 3117 
Q 2053 3138 2203 3138 
Q 3056 3138 3531 2711 
Q 4006 2284 4006 1522 
Q 4006 766 3489 337 
Q 2972 -91 2053 -91 
Q 1656 -91 1267 -14 
Q 878 63 494 219 
L 494 1166 
Q 875 947 1217 837 
Q 1559 728 1863 728 
Q 2300 728 2551 942 
Q 2803 1156 2803 1522 
Q 2803 1891 2551 2103 
Q 2300 2316 1863 2316 
Q 1603 2316 1309 2248 
Q 1016 2181 678 2041 
L 678 4666 
z
" transform="scale(0.015625)"/>
      <path id="DejaVuSans-Bold-2264" d="M 4684 744 
L 4684 0 
L 678 0 
L 678 744 
L 4684 744 
z
M 4684 2963 
L 1881 2309 
L 4684 1656 
L 4684 897 
L 678 1947 
L 678 2681 
L 4684 3725 
L 4684 2963 
z
" transform="scale(0.015625)"/>
      <path id="DejaVuSans-Bold-31" d="M 750 831 
L 1813 831 
L 1813 3847 
L 722 3622 
L 722 4441 
L 1806 4666 
L 2950 4666 
L 2950 831 
L 4013 831 
L 4013 0 
L 750 0 
L 750 831 
z
" transform="scale(0.015625)"/>
      <path id="DejaVuSans-Bold-3c" d="M 4684 3041 
L 1672 2003 
L 4684 972 
L 4684 191 
L 678 1638 
L 678 2375 
L 4684 3822 
L 4684 3041 
z
" transform="scale(0.015625)"/>
      <path id="DejaVuSans-Bold-32" d="M 1844 884 
L 3897 884 
L 3897 0 
L 506 0 
L 506 884 
L 2209 2388 
Q 2438 2594 2547 2791 
Q 2656 2988 2656 3200 
Q 2656 3528 2436 3728 
Q 2216 3928 1850 3928 
Q 1569 3928 1234 3808 
Q 900 3688 519 3450 
L 519 4475 
Q 925 4609 1322 4679 
Q 1719 4750 2100 4750 
Q 2938 4750 3402 4381 
Q 3866 4013 3866 3353 
Q 3866 2972 3669 2642 
Q 3472 2313 2841 1759 
L 1844 884 
z
" transform="scale(0.015625)"/>
     </defs>
     <use xlink:href="#DejaVuSans-Bold-4c"/>
     <use xlink:href="#DejaVuSans-Bold-52" x="63.720703"/>
     <use xlink:href="#DejaVuSans-Bold-6f" x="140.722656"/>
     <use xlink:href="#DejaVuSans-Bold-35" x="209.423828"/>
     <use xlink:href="#DejaVuSans-Bold-20" x="279.003906"/>
     <use xlink:href="#DejaVuSans-Bold-2264" x="313.818359"/>
     <use xlink:href="#DejaVuSans-Bold-31" x="397.607422"/>
     <use xlink:href="#DejaVuSans-Bold-20" x="467.1875"/>
     <use xlink:href="#DejaVuSans-Bold-76" x="502.001953"/>
     <use xlink:href="#DejaVuSans-Bold-69" x="567.1875"/>
     <use xlink:href="#DejaVuSans-Bold-6f" x="601.464844"/>
     <use xlink:href="#DejaVuSans-Bold-6c" x="670.166016"/>
     <use xlink:href="#DejaVuSans-Bold-61" x="704.443359"/>
     <use xlink:href="#DejaVuSans-Bold-74" x="771.923828"/>
     <use xlink:href="#DejaVuSans-Bold-69" x="819.726562"/>
     <use xlink:href="#DejaVuSans-Bold-6f" x="854.003906"/>
     <use xlink:href="#DejaVuSans-Bold-6e" x="922.705078"/>
     <use xlink:href="#DejaVuSans-Bold-20" x="993.896484"/>
     <use xlink:href="#DejaVuSans-Bold-26" x="1028.710938"/>
     <use xlink:href="#DejaVuSans-Bold-20" x="1115.917969"/>
     <use xlink:href="#DejaVuSans-Bold-53" x="1150.732422"/>
     <use xlink:href="#DejaVuSans-Bold-41" x="1222.753906"/>
     <use xlink:href="#DejaVuSans-Bold-20" x="1300.146484"/>
     <use xlink:href="#DejaVuSans-Bold-53" x="1334.960938"/>
     <use xlink:href="#DejaVuSans-Bold-63" x="1406.982422"/>
     <use xlink:href="#DejaVuSans-Bold-6f" x="1466.259766"/>
     <use xlink:href="#DejaVuSans-Bold-72" x="1534.960938"/>
     <use xlink:href="#DejaVuSans-Bold-65" x="1584.277344"/>
     <use xlink:href="#DejaVuSans-Bold-20" x="1652.099609"/>
     <use xlink:href="#DejaVuSans-Bold-3c" x="1686.914062"/>
     <use xlink:href="#DejaVuSans-Bold-20" x="1770.703125"/>
     <use xlink:href="#DejaVuSans-Bold-32" x="1805.517578"/>
     <use xlink:href="#DejaVuSans-Bold-20" x="1875.097656"/>
    </g>
    <!--  (Candidates for further experiment) -->
    <g transform="translate(336.639421 286.222453) scale(0.09 -0.09)">
     <defs>
      <path id="DejaVuSans-Bold-68" d="M 4056 2131 
L 4056 0 
L 2931 0 
L 2931 347 
L 2931 1625 
Q 2931 2084 2911 2256 
Q 2891 2428 2841 2509 
Q 2775 2619 2662 2680 
Q 2550 2741 2406 2741 
Q 2056 2741 1856 2470 
Q 1656 2200 1656 1722 
L 1656 0 
L 538 0 
L 538 4863 
L 1656 4863 
L 1656 2988 
Q 1909 3294 2193 3439 
Q 2478 3584 2822 3584 
Q 3428 3584 3742 3212 
Q 4056 2841 4056 2131 
z
" transform="scale(0.015625)"/>
     </defs>
     <use xlink:href="#DejaVuSans-Bold-20"/>
     <use xlink:href="#DejaVuSans-Bold-28" x="34.814453"/>
     <use xlink:href="#DejaVuSans-Bold-43" x="80.517578"/>
     <use xlink:href="#DejaVuSans-Bold-61" x="153.90625"/>
     <use xlink:href="#DejaVuSans-Bold-6e" x="221.386719"/>
     <use xlink:href="#DejaVuSans-Bold-64" x="292.578125"/>
     <use xlink:href="#DejaVuSans-Bold-69" x="364.160156"/>
     <use xlink:href="#DejaVuSans-Bold-64" x="398.4375"/>
     <use xlink:href="#DejaVuSans-Bold-61" x="470.019531"/>
     <use xlink:href="#DejaVuSans-Bold-74" x="537.5"/>
     <use xlink:href="#DejaVuSans-Bold-65" x="585.302734"/>
     <use xlink:href="#DejaVuSans-Bold-73" x="653.125"/>
     <use xlink:href="#DejaVuSans-Bold-20" x="712.646484"/>
     <use xlink:href="#DejaVuSans-Bold-66" x="747.460938"/>
     <use xlink:href="#DejaVuSans-Bold-6f" x="790.966797"/>
     <use xlink:href="#DejaVuSans-Bold-72" x="859.667969"/>
     <use xlink:href="#DejaVuSans-Bold-20" x="908.984375"/>
     <use xlink:href="#DejaVuSans-Bold-66" x="943.798828"/>
     <use xlink:href="#DejaVuSans-Bold-75" x="987.304688"/>
     <use xlink:href="#DejaVuSans-Bold-72" x="1058.496094"/>
     <use xlink:href="#DejaVuSans-Bold-74" x="1107.8125"/>
     <use xlink:href="#DejaVuSans-Bold-68" x="1155.615234"/>
     <use xlink:href="#DejaVuSans-Bold-65" x="1226.806641"/>
     <use xlink:href="#DejaVuSans-Bold-72" x="1294.628906"/>
     <use xlink:href="#DejaVuSans-Bold-20" x="1343.945312"/>
     <use xlink:href="#DejaVuSans-Bold-65" x="1378.759766"/>
     <use xlink:href="#DejaVuSans-Bold-78" x="1446.582031"/>
     <use xlink:href="#DejaVuSans-Bold-70" x="1511.083984"/>
     <use xlink:href="#DejaVuSans-Bold-65" x="1582.666016"/>
     <use xlink:href="#DejaVuSans-Bold-72" x="1650.488281"/>
     <use xlink:href="#DejaVuSans-Bold-69" x="1699.804688"/>
     <use xlink:href="#DejaVuSans-Bold-6d" x="1734.082031"/>
     <use xlink:href="#DejaVuSans-Bold-65" x="1838.28125"/>
     <use xlink:href="#DejaVuSans-Bold-6e" x="1906.103516"/>
     <use xlink:href="#DejaVuSans-Bold-74" x="1977.294922"/>
     <use xlink:href="#DejaVuSans-Bold-29" x="2025.097656"/>
    </g>
   </g>
  </g>
 </g>
 <defs>
  <clipPath id="pf2ef9bf99e">
   <rect x="10.8" y="10.8" width="421.674545" height="338.4"/>
  </clipPath>
 </defs>
</svg>
