<?xml version='1.0' encoding='ASCII' standalone='yes'?>
<svg xmlns="http://www.w3.org/2000/svg" xmlns:xlink="http://www.w3.org/1999/xlink" version="1.1">
  <g>
    <g transform="translate(0, 0) scale(1 1) translate(0, 0) scale(0.6 0.6) "><!-- END OF HEADER -->
<rect style="opacity:1.0;fill:#FFFFFF;stroke:none" width="500.0" height="250.0" x="0.0" y="0.0"> </rect>
<path class="bond-0 atom-0 atom-1" d="M 25.0,157.3 L 25.0,70.7" style="fill:none;fill-rule:evenodd;stroke:#000000;stroke-width:2.0px;stroke-linecap:butt;stroke-linejoin:miter;stroke-opacity:1"/>
<path class="bond-0 atom-0 atom-1" d="M 38.0,149.8 L 38.0,78.2" style="fill:none;fill-rule:evenodd;stroke:#000000;stroke-width:2.0px;stroke-linecap:butt;stroke-linejoin:miter;stroke-opacity:1"/>
<path class="bond-1 atom-1 atom-2" d="M 25.0,70.7 L 100.0,27.4" style="fill:none;fill-rule:evenodd;stroke:#000000;stroke-width:2.0px;stroke-linecap:butt;stroke-linejoin:miter;stroke-opacity:1"/>
<path class="bond-2 atom-2 atom-3" d="M 100.0,27.4 L 175.0,70.7" style="fill:none;fill-rule:evenodd;stroke:#000000;stroke-width:2.0px;stroke-linecap:butt;stroke-linejoin:miter;stroke-opacity:1"/>
<path class="bond-2 atom-2 atom-3" d="M 100.0,42.4 L 162.0,78.2" style="fill:none;fill-rule:evenodd;stroke:#000000;stroke-width:2.0px;stroke-linecap:butt;stroke-linejoin:miter;stroke-opacity:1"/>
<path class="bond-3 atom-3 atom-4" d="M 175.0,70.7 L 250.0,27.4" style="fill:none;fill-rule:evenodd;stroke:#000000;stroke-width:2.0px;stroke-linecap:butt;stroke-linejoin:miter;stroke-opacity:1"/>
<path class="bond-4 atom-4 atom-5" d="M 250.0,27.4 L 325.0,70.7" style="fill:none;fill-rule:evenodd;stroke:#000000;stroke-width:2.0px;stroke-linecap:butt;stroke-linejoin:miter;stroke-opacity:1"/>
<path class="bond-5 atom-5 atom-6" d="M 325.0,70.7 L 325.0,157.3" style="fill:none;fill-rule:evenodd;stroke:#000000;stroke-width:2.0px;stroke-linecap:butt;stroke-linejoin:miter;stroke-opacity:1"/>
<path class="bond-5 atom-5 atom-6" d="M 338.0,78.2 L 338.0,149.8" style="fill:none;fill-rule:evenodd;stroke:#000000;stroke-width:2.0px;stroke-linecap:butt;stroke-linejoin:miter;stroke-opacity:1"/>
<path class="bond-6 atom-6 atom-7" d="M 325.0,157.3 L 400.0,200.6" style="fill:none;fill-rule:evenodd;stroke:#000000;stroke-width:2.0px;stroke-linecap:butt;stroke-linejoin:miter;stroke-opacity:1"/>
<path class="bond-7 atom-7 atom-8" d="M 400.0,200.6 L 475.0,157.3" style="fill:none;fill-rule:evenodd;stroke:#000000;stroke-width:2.0px;stroke-linecap:butt;stroke-linejoin:miter;stroke-opacity:1"/>
<path class="bond-7 atom-7 atom-8" d="M 400.0,185.6 L 462.0,149.8" style="fill:none;fill-rule:evenodd;stroke:#000000;stroke-width:2.0px;stroke-linecap:butt;stroke-linejoin:miter;stroke-opacity:1"/>
<path class="bond-8 atom-8 atom-9" d="M 475.0,157.3 L 475.0,70.7" style="fill:none;fill-rule:evenodd;stroke:#000000;stroke-width:2.0px;stroke-linecap:butt;stroke-linejoin:miter;stroke-opacity:1"/>
<path class="bond-9 atom-9 atom-10" d="M 475.0,70.7 L 400.0,27.4" style="fill:none;fill-rule:evenodd;stroke:#000000;stroke-width:2.0px;stroke-linecap:butt;stroke-linejoin:miter;stroke-opacity:1"/>
<path class="bond-9 atom-9 atom-10" d="M 462.0,78.2 L 400.0,42.4" style="fill:none;fill-rule:evenodd;stroke:#000000;stroke-width:2.0px;stroke-linecap:butt;stroke-linejoin:miter;stroke-opacity:1"/>
<path class="bond-10 atom-3 atom-11" d="M 175.0,70.7 L 175.0,157.3" style="fill:none;fill-rule:evenodd;stroke:#000000;stroke-width:2.0px;stroke-linecap:butt;stroke-linejoin:miter;stroke-opacity:1"/>
<path class="bond-11 atom-11 atom-12" d="M 175.0,157.3 L 100.0,200.6" style="fill:none;fill-rule:evenodd;stroke:#000000;stroke-width:2.0px;stroke-linecap:butt;stroke-linejoin:miter;stroke-opacity:1"/>
<path class="bond-11 atom-11 atom-12" d="M 162.0,149.8 L 100.0,185.6" style="fill:none;fill-rule:evenodd;stroke:#000000;stroke-width:2.0px;stroke-linecap:butt;stroke-linejoin:miter;stroke-opacity:1"/>
<path class="bond-12 atom-12 atom-0" d="M 100.0,200.6 L 25.0,157.3" style="fill:none;fill-rule:evenodd;stroke:#000000;stroke-width:2.0px;stroke-linecap:butt;stroke-linejoin:miter;stroke-opacity:1"/>
<path class="bond-13 atom-10 atom-5" d="M 400.0,27.4 L 325.0,70.7" style="fill:none;fill-rule:evenodd;stroke:#000000;stroke-width:2.0px;stroke-linecap:butt;stroke-linejoin:miter;stroke-opacity:1"/>
<path d="M 25.0,153.0 L 25.0,157.3 L 28.8,159.5" style="fill:none;stroke:#000000;stroke-width:2.0px;stroke-linecap:butt;stroke-linejoin:miter;stroke-opacity:1;"/>
<path d="M 25.0,75.0 L 25.0,70.7 L 28.8,68.5" style="fill:none;stroke:#000000;stroke-width:2.0px;stroke-linecap:butt;stroke-linejoin:miter;stroke-opacity:1;"/>
<path d="M 96.2,29.6 L 100.0,27.4 L 103.8,29.6" style="fill:none;stroke:#000000;stroke-width:2.0px;stroke-linecap:butt;stroke-linejoin:miter;stroke-opacity:1;"/>
<path d="M 246.2,29.6 L 250.0,27.4 L 253.7,29.6" style="fill:none;stroke:#000000;stroke-width:2.0px;stroke-linecap:butt;stroke-linejoin:miter;stroke-opacity:1;"/>
<path d="M 325.0,153.0 L 325.0,157.3 L 328.8,159.5" style="fill:none;stroke:#000000;stroke-width:2.0px;stroke-linecap:butt;stroke-linejoin:miter;stroke-opacity:1;"/>
<path d="M 396.2,198.4 L 400.0,200.6 L 403.8,198.4" style="fill:none;stroke:#000000;stroke-width:2.0px;stroke-linecap:butt;stroke-linejoin:miter;stroke-opacity:1;"/>
<path d="M 471.2,159.5 L 475.0,157.3 L 475.0,153.0" style="fill:none;stroke:#000000;stroke-width:2.0px;stroke-linecap:butt;stroke-linejoin:miter;stroke-opacity:1;"/>
<path d="M 475.0,75.0 L 475.0,70.7 L 471.2,68.5" style="fill:none;stroke:#000000;stroke-width:2.0px;stroke-linecap:butt;stroke-linejoin:miter;stroke-opacity:1;"/>
<path d="M 403.8,29.6 L 400.0,27.4 L 396.2,29.6" style="fill:none;stroke:#000000;stroke-width:2.0px;stroke-linecap:butt;stroke-linejoin:miter;stroke-opacity:1;"/>
<path d="M 175.0,153.0 L 175.0,157.3 L 171.3,159.5" style="fill:none;stroke:#000000;stroke-width:2.0px;stroke-linecap:butt;stroke-linejoin:miter;stroke-opacity:1;"/>
<path d="M 103.8,198.4 L 100.0,200.6 L 96.3,198.4" style="fill:none;stroke:#000000;stroke-width:2.0px;stroke-linecap:butt;stroke-linejoin:miter;stroke-opacity:1;"/>
<path class="legend" d="M 96.8 224.4 L 101.0 231.2 Q 101.4 231.8, 102.1 233.0 Q 102.7 234.2, 102.8 234.3 L 102.8 224.4 L 104.5 224.4 L 104.5 237.2 L 102.7 237.2 L 98.2 229.8 Q 97.7 228.9, 97.2 227.9 Q 96.6 226.9, 96.5 226.6 L 96.5 237.2 L 94.8 237.2 L 94.8 224.4 L 96.8 224.4 " fill="#000000"/>
<path class="legend" d="M 110.4 224.4 Q 112.6 224.4, 113.7 225.4 Q 114.8 226.4, 114.8 228.2 Q 114.8 229.9, 113.6 230.9 Q 112.5 231.9, 110.4 231.9 L 108.4 231.9 L 108.4 237.2 L 106.6 237.2 L 106.6 224.4 L 110.4 224.4 M 110.4 230.5 Q 111.6 230.5, 112.3 229.9 Q 113.0 229.3, 113.0 228.2 Q 113.0 227.0, 112.3 226.4 Q 111.7 225.9, 110.4 225.9 L 108.4 225.9 L 108.4 230.5 L 110.4 230.5 " fill="#000000"/>
<path class="legend" d="M 125.7 237.2 L 124.3 233.4 L 119.3 233.4 L 118.0 237.2 L 116.3 237.2 L 120.7 224.4 L 122.8 224.4 L 127.3 237.2 L 125.7 237.2 M 119.8 232.0 L 123.8 232.0 L 121.8 226.2 L 119.8 232.0 " fill="#000000"/>
<path class="legend" d="M 128.7 235.2 Q 128.9 235.2, 129.5 235.5 Q 130.0 235.7, 130.7 235.9 Q 131.4 236.0, 132.0 236.0 Q 133.2 236.0, 133.9 235.5 Q 134.6 234.9, 134.6 233.8 Q 134.6 233.1, 134.3 232.7 Q 133.9 232.3, 133.4 232.0 Q 132.8 231.8, 131.9 231.5 Q 130.8 231.2, 130.1 230.9 Q 129.5 230.6, 129.0 229.9 Q 128.5 229.2, 128.5 228.0 Q 128.5 226.4, 129.6 225.4 Q 130.7 224.4, 132.8 224.4 Q 134.3 224.4, 136.0 225.2 L 135.6 226.5 Q 134.0 225.9, 132.9 225.9 Q 131.6 225.9, 131.0 226.4 Q 130.3 226.9, 130.3 227.8 Q 130.3 228.5, 130.6 228.9 Q 131.0 229.3, 131.5 229.6 Q 132.0 229.8, 132.9 230.1 Q 134.0 230.4, 134.7 230.8 Q 135.4 231.1, 135.9 231.9 Q 136.4 232.6, 136.4 233.8 Q 136.4 235.6, 135.2 236.6 Q 134.0 237.5, 132.1 237.5 Q 130.9 237.5, 130.1 237.2 Q 129.2 237.0, 128.2 236.6 L 128.7 235.2 " fill="#000000"/>
<path class="legend" d="M 138.4 235.2 Q 138.5 235.2, 139.1 235.5 Q 139.7 235.7, 140.4 235.9 Q 141.0 236.0, 141.7 236.0 Q 142.9 236.0, 143.6 235.5 Q 144.3 234.9, 144.3 233.8 Q 144.3 233.1, 143.9 232.7 Q 143.6 232.3, 143.1 232.0 Q 142.5 231.8, 141.6 231.5 Q 140.5 231.2, 139.8 230.9 Q 139.1 230.6, 138.6 229.9 Q 138.2 229.2, 138.2 228.0 Q 138.2 226.4, 139.3 225.4 Q 140.4 224.4, 142.5 224.4 Q 144.0 224.4, 145.7 225.2 L 145.3 226.5 Q 143.7 225.9, 142.6 225.9 Q 141.3 225.9, 140.6 226.4 Q 140.0 226.9, 140.0 227.8 Q 140.0 228.5, 140.3 228.9 Q 140.7 229.3, 141.2 229.6 Q 141.7 229.8, 142.6 230.1 Q 143.7 230.4, 144.4 230.8 Q 145.1 231.1, 145.6 231.9 Q 146.1 232.6, 146.1 233.8 Q 146.1 235.6, 144.9 236.6 Q 143.7 237.5, 141.8 237.5 Q 140.6 237.5, 139.8 237.2 Q 138.9 237.0, 137.9 236.6 L 138.4 235.2 " fill="#000000"/>
<path class="legend" d="M 147.6 235.1 L 149.4 235.1 L 149.4 236.9 L 147.6 236.9 L 147.6 235.1 M 147.6 228.9 L 149.4 228.9 L 149.4 230.7 L 147.6 230.7 L 147.6 228.9 " fill="#000000"/>
<path class="legend" d="" fill="#000000"/>
<path class="legend" d="M 161.8 224.4 Q 164.0 224.4, 165.1 225.4 Q 166.2 226.4, 166.2 228.2 Q 166.2 229.9, 165.1 230.9 Q 164.0 231.9, 161.8 231.9 L 159.8 231.9 L 159.8 237.2 L 158.1 237.2 L 158.1 224.4 L 161.8 224.4 M 161.8 230.5 Q 163.1 230.5, 163.7 229.9 Q 164.4 229.3, 164.4 228.2 Q 164.4 227.0, 163.7 226.4 Q 163.1 225.9, 161.8 225.9 L 159.8 225.9 L 159.8 230.5 L 161.8 230.5 " fill="#000000"/>
<path class="legend" d="M 167.7 232.5 Q 167.7 230.3, 168.9 229.0 Q 170.0 227.7, 172.1 227.7 Q 174.2 227.7, 175.4 229.0 Q 176.5 230.3, 176.5 232.5 Q 176.5 234.8, 175.4 236.0 Q 174.2 237.3, 172.1 237.3 Q 170.0 237.3, 168.9 236.0 Q 167.7 234.8, 167.7 232.5 M 169.4 232.5 Q 169.4 234.2, 170.1 235.1 Q 170.8 236.0, 172.1 236.0 Q 173.4 236.0, 174.1 235.1 Q 174.8 234.2, 174.8 232.5 Q 174.8 230.8, 174.1 230.0 Q 173.4 229.1, 172.1 229.1 Q 170.8 229.1, 170.1 230.0 Q 169.4 230.8, 169.4 232.5 " fill="#000000"/>
<path class="legend" d="M 178.5 235.2 Q 179.3 235.6, 179.9 235.8 Q 180.5 235.9, 181.1 235.9 Q 181.9 235.9, 182.4 235.6 Q 182.9 235.2, 182.9 234.6 Q 182.9 234.2, 182.6 233.9 Q 182.4 233.6, 182.1 233.5 Q 181.8 233.4, 181.0 233.1 Q 180.8 233.1, 180.0 232.8 Q 179.2 232.5, 178.7 231.9 Q 178.3 231.3, 178.3 230.4 Q 178.3 229.3, 179.2 228.5 Q 180.0 227.7, 181.7 227.7 Q 182.4 227.7, 183.0 227.9 Q 183.6 228.1, 184.3 228.3 L 183.9 229.7 Q 183.3 229.4, 182.8 229.3 Q 182.3 229.1, 181.7 229.1 Q 180.9 229.1, 180.4 229.5 Q 180.0 229.8, 180.0 230.4 Q 180.0 230.9, 180.3 231.1 Q 180.7 231.3, 181.4 231.6 Q 181.6 231.7, 181.8 231.7 L 182.2 231.9 Q 183.0 232.2, 183.4 232.4 Q 183.9 232.7, 184.2 233.2 Q 184.5 233.7, 184.5 234.5 Q 184.5 235.9, 183.6 236.6 Q 182.7 237.3, 181.1 237.3 Q 180.3 237.3, 179.5 237.1 Q 178.8 236.9, 178.0 236.6 L 178.5 235.2 " fill="#000000"/>
<path class="legend" d="" fill="#000000"/>
<path class="legend" d="M 193.5 235.7 L 196.3 235.7 L 196.3 226.2 L 193.2 227.1 L 192.8 226.1 L 196.7 224.3 L 198.0 224.6 L 198.0 235.7 L 200.5 235.7 L 200.5 237.2 L 193.5 237.2 L 193.5 235.7 " fill="#000000"/>
<path class="legend" d="M 208.6 225.9 L 201.9 225.9 L 201.9 224.4 L 210.4 224.4 L 210.4 225.7 L 205.3 237.2 L 203.5 237.2 L 208.6 225.9 " fill="#000000"/>
<path class="legend" d="" fill="#000000"/>
<path class="legend" d="M 218.3 230.7 L 224.9 230.7 L 224.9 232.1 L 218.3 232.1 L 218.3 230.7 " fill="#000000"/>
<path class="legend" d="" fill="#000000"/>
<path class="legend" d="M 243.8 227.7 Q 245.3 227.7, 246.1 228.6 Q 246.9 229.4, 246.9 231.0 L 246.9 237.2 L 245.2 237.2 L 245.2 231.2 Q 245.2 230.1, 244.8 229.6 Q 244.4 229.1, 243.5 229.1 Q 242.6 229.1, 241.9 229.5 Q 241.3 229.8, 240.8 230.5 Q 240.9 230.7, 240.9 231.0 L 240.9 237.2 L 239.2 237.2 L 239.2 231.2 Q 239.2 230.1, 238.7 229.6 Q 238.3 229.1, 237.4 229.1 Q 236.6 229.1, 235.9 229.5 Q 235.2 229.8, 234.8 230.5 L 234.8 237.2 L 233.1 237.2 L 233.1 227.9 L 234.5 227.9 L 234.7 229.2 Q 235.9 227.7, 237.7 227.7 Q 239.9 227.7, 240.6 229.4 Q 241.8 227.7, 243.8 227.7 " fill="#000000"/>
<path class="legend" d="M 249.0 232.5 Q 249.0 230.2, 250.1 229.0 Q 251.2 227.7, 253.3 227.7 Q 255.4 227.7, 256.3 229.0 Q 257.2 230.2, 257.2 232.5 L 257.2 232.7 L 250.7 232.7 Q 250.7 234.3, 251.4 235.1 Q 252.1 236.0, 253.5 236.0 Q 254.2 236.0, 254.8 235.8 Q 255.5 235.6, 256.3 235.3 L 256.8 236.4 Q 255.9 236.9, 255.1 237.1 Q 254.2 237.3, 253.4 237.3 Q 251.3 237.3, 250.1 236.0 Q 249.0 234.8, 249.0 232.5 M 253.3 229.1 Q 252.3 229.1, 251.6 229.7 Q 251.0 230.3, 250.8 231.5 L 255.4 231.5 Q 255.3 230.2, 254.8 229.7 Q 254.3 229.1, 253.3 229.1 " fill="#000000"/>
<path class="legend" d="M 258.5 234.7 Q 258.5 233.2, 259.7 232.4 Q 260.9 231.6, 263.1 231.6 L 264.4 231.6 L 264.4 231.2 Q 264.4 230.0, 264.0 229.6 Q 263.5 229.1, 262.3 229.1 Q 261.6 229.1, 261.0 229.2 Q 260.4 229.3, 259.5 229.7 L 259.0 228.6 Q 260.7 227.7, 262.4 227.7 Q 264.3 227.7, 265.2 228.6 Q 266.1 229.4, 266.1 231.2 L 266.1 237.2 L 264.8 237.2 Q 264.8 237.1, 264.7 236.8 Q 264.7 236.5, 264.6 236.1 Q 263.3 237.4, 261.6 237.4 Q 260.2 237.4, 259.3 236.6 Q 258.5 235.9, 258.5 234.7 M 260.2 234.6 Q 260.2 235.3, 260.6 235.7 Q 261.1 236.0, 261.9 236.0 Q 262.6 236.0, 263.3 235.7 Q 264.0 235.4, 264.4 234.8 L 264.4 232.8 L 263.2 232.8 Q 261.7 232.8, 260.9 233.3 Q 260.2 233.7, 260.2 234.6 " fill="#000000"/>
<path class="legend" d="M 273.0 227.7 Q 274.5 227.7, 275.3 228.6 Q 276.0 229.4, 276.0 231.0 L 276.0 237.2 L 274.4 237.2 L 274.4 231.2 Q 274.4 230.1, 273.9 229.6 Q 273.5 229.1, 272.6 229.1 Q 271.7 229.1, 271.0 229.5 Q 270.3 229.8, 269.9 230.5 L 269.9 237.2 L 268.2 237.2 L 268.2 227.9 L 269.6 227.9 L 269.8 229.2 Q 271.0 227.7, 273.0 227.7 " fill="#000000"/>
<path class="legend" d="" fill="#000000"/>
<path class="legend" d="M 285.3 235.2 Q 285.4 235.2, 286.0 235.5 Q 286.6 235.7, 287.2 235.9 Q 287.9 236.0, 288.5 236.0 Q 289.8 236.0, 290.5 235.5 Q 291.2 234.9, 291.2 233.8 Q 291.2 233.1, 290.8 232.7 Q 290.5 232.3, 289.9 232.0 Q 289.4 231.8, 288.5 231.5 Q 287.3 231.2, 286.7 230.9 Q 286.0 230.6, 285.5 229.9 Q 285.0 229.2, 285.0 228.0 Q 285.0 226.4, 286.1 225.4 Q 287.2 224.4, 289.4 224.4 Q 290.8 224.4, 292.5 225.2 L 292.1 226.5 Q 290.6 225.9, 289.4 225.9 Q 288.2 225.9, 287.5 226.4 Q 286.8 226.9, 286.8 227.8 Q 286.8 228.5, 287.2 228.9 Q 287.5 229.3, 288.0 229.6 Q 288.6 229.8, 289.4 230.1 Q 290.6 230.4, 291.3 230.8 Q 291.9 231.1, 292.4 231.9 Q 292.9 232.6, 292.9 233.8 Q 292.9 235.6, 291.7 236.6 Q 290.6 237.5, 288.6 237.5 Q 287.5 237.5, 286.6 237.2 Q 285.8 237.0, 284.8 236.6 L 285.3 235.2 " fill="#000000"/>
<path class="legend" d="M 294.4 224.4 L 296.2 224.4 L 296.2 229.8 L 302.7 229.8 L 302.7 224.4 L 304.4 224.4 L 304.4 237.2 L 302.7 237.2 L 302.7 231.3 L 296.2 231.3 L 296.2 237.2 L 294.4 237.2 L 294.4 224.4 " fill="#000000"/>
<path class="legend" d="M 316.0 237.2 L 314.7 233.4 L 309.6 233.4 L 308.3 237.2 L 306.6 237.2 L 311.0 224.4 L 313.1 224.4 L 317.7 237.2 L 316.0 237.2 M 310.1 232.0 L 314.2 232.0 L 312.1 226.2 L 310.1 232.0 " fill="#000000"/>
<path class="legend" d="M 322.3 224.4 Q 324.5 224.4, 325.6 225.4 Q 326.7 226.4, 326.7 228.2 Q 326.7 229.9, 325.6 230.9 Q 324.5 231.9, 322.3 231.9 L 320.3 231.9 L 320.3 237.2 L 318.6 237.2 L 318.6 224.4 L 322.3 224.4 M 322.3 230.5 Q 323.6 230.5, 324.2 229.9 Q 324.9 229.3, 324.9 228.2 Q 324.9 227.0, 324.2 226.4 Q 323.6 225.9, 322.3 225.9 L 320.3 225.9 L 320.3 230.5 L 322.3 230.5 " fill="#000000"/>
<path class="legend" d="M 328.2 235.1 L 330.0 235.1 L 330.0 236.9 L 328.2 236.9 L 328.2 235.1 M 328.2 228.9 L 330.0 228.9 L 330.0 230.7 L 328.2 230.7 L 328.2 228.9 " fill="#000000"/>
<path class="legend" d="" fill="#000000"/>
<path class="legend" d="M 343.4 237.3 Q 341.0 237.3, 339.8 235.6 Q 338.7 233.8, 338.7 230.8 Q 338.7 227.7, 339.8 226.0 Q 341.0 224.3, 343.4 224.3 Q 345.7 224.3, 346.9 226.0 Q 348.0 227.7, 348.0 230.8 Q 348.0 233.8, 346.8 235.6 Q 345.7 237.3, 343.4 237.3 M 343.4 235.9 Q 344.7 235.9, 345.5 234.6 Q 346.2 233.3, 346.2 230.8 Q 346.2 228.3, 345.5 227.0 Q 344.7 225.7, 343.4 225.7 Q 342.0 225.7, 341.2 227.0 Q 340.5 228.3, 340.5 230.8 Q 340.5 233.3, 341.2 234.6 Q 342.0 235.9, 343.4 235.9 " fill="#000000"/>
<path class="legend" d="M 349.9 235.4 L 351.7 235.4 L 351.7 237.2 L 349.9 237.2 L 349.9 235.4 " fill="#000000"/>
<path class="legend" d="M 358.1 237.3 Q 355.8 237.3, 354.6 235.6 Q 353.5 233.8, 353.5 230.8 Q 353.5 227.7, 354.6 226.0 Q 355.8 224.3, 358.1 224.3 Q 360.5 224.3, 361.7 226.0 Q 362.8 227.7, 362.8 230.8 Q 362.8 233.8, 361.6 235.6 Q 360.5 237.3, 358.1 237.3 M 358.1 235.9 Q 359.5 235.9, 360.3 234.6 Q 361.0 233.3, 361.0 230.8 Q 361.0 228.3, 360.3 227.0 Q 359.5 225.7, 358.1 225.7 Q 356.8 225.7, 356.0 227.0 Q 355.3 228.3, 355.3 230.8 Q 355.3 233.3, 356.0 234.6 Q 356.8 235.9, 358.1 235.9 " fill="#000000"/>
<path class="legend" d="M 369.3 237.3 Q 367.0 237.3, 365.8 235.6 Q 364.6 233.8, 364.6 230.8 Q 364.6 227.7, 365.8 226.0 Q 366.9 224.3, 369.3 224.3 Q 371.7 224.3, 372.8 226.0 Q 374.0 227.7, 374.0 230.8 Q 374.0 233.8, 372.8 235.6 Q 371.6 237.3, 369.3 237.3 M 369.3 235.9 Q 370.7 235.9, 371.4 234.6 Q 372.2 233.3, 372.2 230.8 Q 372.2 228.3, 371.4 227.0 Q 370.7 225.7, 369.3 225.7 Q 367.9 225.7, 367.2 227.0 Q 366.4 228.3, 366.4 230.8 Q 366.4 233.3, 367.2 234.6 Q 367.9 235.9, 369.3 235.9 " fill="#000000"/>
<path class="legend" d="M 380.5 237.3 Q 378.1 237.3, 377.0 235.6 Q 375.8 233.8, 375.8 230.8 Q 375.8 227.7, 377.0 226.0 Q 378.1 224.3, 380.5 224.3 Q 382.8 224.3, 384.0 226.0 Q 385.1 227.7, 385.1 230.8 Q 385.1 233.8, 384.0 235.6 Q 382.8 237.3, 380.5 237.3 M 380.5 235.9 Q 381.9 235.9, 382.6 234.6 Q 383.3 233.3, 383.3 230.8 Q 383.3 228.3, 382.6 227.0 Q 381.9 225.7, 380.5 225.7 Q 379.1 225.7, 378.3 227.0 Q 377.6 228.3, 377.6 230.8 Q 377.6 233.3, 378.3 234.6 Q 379.1 235.9, 380.5 235.9 " fill="#000000"/>
<path class="legend" d="M 393.6 225.9 L 387.0 225.9 L 387.0 224.4 L 395.4 224.4 L 395.4 225.7 L 390.3 237.2 L 388.5 237.2 L 393.6 225.9 " fill="#000000"/>
<path class="legend" d="M 396.6 226.8 Q 397.1 225.6, 398.2 225.0 Q 399.3 224.3, 400.9 224.3 Q 402.8 224.3, 403.9 225.3 Q 405.0 226.4, 405.0 228.2 Q 405.0 230.1, 403.6 231.9 Q 402.2 233.6, 399.3 235.7 L 405.2 235.7 L 405.2 237.2 L 396.6 237.2 L 396.6 236.0 Q 399.0 234.3, 400.4 233.0 Q 401.8 231.7, 402.5 230.6 Q 403.2 229.5, 403.2 228.3 Q 403.2 227.1, 402.6 226.4 Q 402.0 225.7, 400.9 225.7 Q 399.9 225.7, 399.2 226.1 Q 398.5 226.5, 398.0 227.5 L 396.6 226.8 " fill="#000000"/>
</g>
    <g transform="translate(300, 0) scale(1 1) translate(0, 0) scale(0.6 0.6) "><!-- END OF HEADER -->
<rect style="opacity:1.0;fill:#FFFFFF;stroke:none" width="500.0" height="250.0" x="0.0" y="0.0"> </rect>
<path class="bond-0 atom-0 atom-1" d="M 187.7,194.7 L 188.3,167.1" style="fill:none;fill-rule:evenodd;stroke:#FF0000;stroke-width:2.0px;stroke-linecap:butt;stroke-linejoin:miter;stroke-opacity:1"/>
<path class="bond-0 atom-0 atom-1" d="M 188.3,167.1 L 188.8,139.4" style="fill:none;fill-rule:evenodd;stroke:#000000;stroke-width:2.0px;stroke-linecap:butt;stroke-linejoin:miter;stroke-opacity:1"/>
<path class="bond-0 atom-0 atom-1" d="M 197.3,194.9 L 197.8,167.3" style="fill:none;fill-rule:evenodd;stroke:#FF0000;stroke-width:2.0px;stroke-linecap:butt;stroke-linejoin:miter;stroke-opacity:1"/>
<path class="bond-0 atom-0 atom-1" d="M 197.8,167.3 L 198.4,139.6" style="fill:none;fill-rule:evenodd;stroke:#000000;stroke-width:2.0px;stroke-linecap:butt;stroke-linejoin:miter;stroke-opacity:1"/>
<path class="bond-1 atom-1 atom-2" d="M 193.5,142.3 L 249.4,111.4" style="fill:none;fill-rule:evenodd;stroke:#000000;stroke-width:2.0px;stroke-linecap:butt;stroke-linejoin:miter;stroke-opacity:1"/>
<path class="bond-2 atom-2 atom-3" d="M 249.4,111.4 L 304.1,144.4" style="fill:none;fill-rule:evenodd;stroke:#000000;stroke-width:2.0px;stroke-linecap:butt;stroke-linejoin:miter;stroke-opacity:1"/>
<path class="bond-3 atom-3 atom-4" d="M 304.1,144.4 L 359.9,113.5" style="fill:none;fill-rule:evenodd;stroke:#000000;stroke-width:2.0px;stroke-linecap:butt;stroke-linejoin:miter;stroke-opacity:1"/>
<path class="bond-4 atom-4 atom-5" d="M 359.9,113.5 L 414.6,146.5" style="fill:none;fill-rule:evenodd;stroke:#000000;stroke-width:2.0px;stroke-linecap:butt;stroke-linejoin:miter;stroke-opacity:1"/>
<path class="bond-4 atom-4 atom-5" d="M 369.6,108.1 L 414.8,135.4" style="fill:none;fill-rule:evenodd;stroke:#000000;stroke-width:2.0px;stroke-linecap:butt;stroke-linejoin:miter;stroke-opacity:1"/>
<path class="bond-5 atom-5 atom-6" d="M 414.6,146.5 L 470.5,115.6" style="fill:none;fill-rule:evenodd;stroke:#000000;stroke-width:2.0px;stroke-linecap:butt;stroke-linejoin:miter;stroke-opacity:1"/>
<path class="bond-6 atom-6 atom-7" d="M 470.5,115.6 L 471.7,51.8" style="fill:none;fill-rule:evenodd;stroke:#000000;stroke-width:2.0px;stroke-linecap:butt;stroke-linejoin:miter;stroke-opacity:1"/>
<path class="bond-6 atom-6 atom-7" d="M 461.0,109.9 L 462.0,57.1" style="fill:none;fill-rule:evenodd;stroke:#000000;stroke-width:2.0px;stroke-linecap:butt;stroke-linejoin:miter;stroke-opacity:1"/>
<path class="bond-7 atom-7 atom-8" d="M 471.7,51.8 L 417.0,18.8" style="fill:none;fill-rule:evenodd;stroke:#000000;stroke-width:2.0px;stroke-linecap:butt;stroke-linejoin:miter;stroke-opacity:1"/>
<path class="bond-8 atom-8 atom-9" d="M 417.0,18.8 L 361.2,49.7" style="fill:none;fill-rule:evenodd;stroke:#000000;stroke-width:2.0px;stroke-linecap:butt;stroke-linejoin:miter;stroke-opacity:1"/>
<path class="bond-8 atom-8 atom-9" d="M 416.8,29.9 L 370.6,55.4" style="fill:none;fill-rule:evenodd;stroke:#000000;stroke-width:2.0px;stroke-linecap:butt;stroke-linejoin:miter;stroke-opacity:1"/>
<path class="bond-9 atom-1 atom-10" d="M 193.5,142.3 L 138.8,109.3" style="fill:none;fill-rule:evenodd;stroke:#000000;stroke-width:2.0px;stroke-linecap:butt;stroke-linejoin:miter;stroke-opacity:1"/>
<path class="bond-10 atom-10 atom-11" d="M 138.8,109.3 L 140.1,45.5" style="fill:none;fill-rule:evenodd;stroke:#000000;stroke-width:2.0px;stroke-linecap:butt;stroke-linejoin:miter;stroke-opacity:1"/>
<path class="bond-10 atom-10 atom-11" d="M 129.4,103.6 L 130.4,50.8" style="fill:none;fill-rule:evenodd;stroke:#000000;stroke-width:2.0px;stroke-linecap:butt;stroke-linejoin:miter;stroke-opacity:1"/>
<path class="bond-11 atom-11 atom-12" d="M 140.1,45.5 L 85.4,12.5" style="fill:none;fill-rule:evenodd;stroke:#000000;stroke-width:2.0px;stroke-linecap:butt;stroke-linejoin:miter;stroke-opacity:1"/>
<path class="bond-12 atom-12 atom-13" d="M 85.4,12.5 L 29.5,43.4" style="fill:none;fill-rule:evenodd;stroke:#000000;stroke-width:2.0px;stroke-linecap:butt;stroke-linejoin:miter;stroke-opacity:1"/>
<path class="bond-12 atom-12 atom-13" d="M 85.2,23.6 L 39.0,49.1" style="fill:none;fill-rule:evenodd;stroke:#000000;stroke-width:2.0px;stroke-linecap:butt;stroke-linejoin:miter;stroke-opacity:1"/>
<path class="bond-13 atom-13 atom-14" d="M 29.5,43.4 L 28.3,107.2" style="fill:none;fill-rule:evenodd;stroke:#000000;stroke-width:2.0px;stroke-linecap:butt;stroke-linejoin:miter;stroke-opacity:1"/>
<path class="bond-14 atom-14 atom-15" d="M 28.3,107.2 L 83.0,140.1" style="fill:none;fill-rule:evenodd;stroke:#000000;stroke-width:2.0px;stroke-linecap:butt;stroke-linejoin:miter;stroke-opacity:1"/>
<path class="bond-14 atom-14 atom-15" d="M 38.0,101.8 L 83.2,129.1" style="fill:none;fill-rule:evenodd;stroke:#000000;stroke-width:2.0px;stroke-linecap:butt;stroke-linejoin:miter;stroke-opacity:1"/>
<path class="bond-15 atom-9 atom-4" d="M 361.2,49.7 L 359.9,113.5" style="fill:none;fill-rule:evenodd;stroke:#000000;stroke-width:2.0px;stroke-linecap:butt;stroke-linejoin:miter;stroke-opacity:1"/>
<path class="bond-16 atom-15 atom-10" d="M 83.0,140.1 L 138.8,109.3" style="fill:none;fill-rule:evenodd;stroke:#000000;stroke-width:2.0px;stroke-linecap:butt;stroke-linejoin:miter;stroke-opacity:1"/>
<path d="M 196.3,140.7 L 193.5,142.3 L 190.8,140.6" style="fill:none;stroke:#000000;stroke-width:2.0px;stroke-linecap:butt;stroke-linejoin:miter;stroke-opacity:1;"/>
<path d="M 246.6,112.9 L 249.4,111.4 L 252.1,113.0" style="fill:none;stroke:#000000;stroke-width:2.0px;stroke-linecap:butt;stroke-linejoin:miter;stroke-opacity:1;"/>
<path d="M 301.3,142.7 L 304.1,144.4 L 306.9,142.8" style="fill:none;stroke:#000000;stroke-width:2.0px;stroke-linecap:butt;stroke-linejoin:miter;stroke-opacity:1;"/>
<path d="M 411.9,144.8 L 414.6,146.5 L 417.4,144.9" style="fill:none;stroke:#000000;stroke-width:2.0px;stroke-linecap:butt;stroke-linejoin:miter;stroke-opacity:1;"/>
<path d="M 467.7,117.1 L 470.5,115.6 L 470.5,112.4" style="fill:none;stroke:#000000;stroke-width:2.0px;stroke-linecap:butt;stroke-linejoin:miter;stroke-opacity:1;"/>
<path d="M 471.6,55.0 L 471.7,51.8 L 469.0,50.1" style="fill:none;stroke:#000000;stroke-width:2.0px;stroke-linecap:butt;stroke-linejoin:miter;stroke-opacity:1;"/>
<path d="M 419.8,20.5 L 417.0,18.8 L 414.2,20.4" style="fill:none;stroke:#000000;stroke-width:2.0px;stroke-linecap:butt;stroke-linejoin:miter;stroke-opacity:1;"/>
<path d="M 363.9,48.1 L 361.2,49.7 L 361.1,52.9" style="fill:none;stroke:#000000;stroke-width:2.0px;stroke-linecap:butt;stroke-linejoin:miter;stroke-opacity:1;"/>
<path d="M 140.0,48.7 L 140.1,45.5 L 137.3,43.8" style="fill:none;stroke:#000000;stroke-width:2.0px;stroke-linecap:butt;stroke-linejoin:miter;stroke-opacity:1;"/>
<path d="M 88.1,14.1 L 85.4,12.5 L 82.6,14.0" style="fill:none;stroke:#000000;stroke-width:2.0px;stroke-linecap:butt;stroke-linejoin:miter;stroke-opacity:1;"/>
<path d="M 32.3,41.8 L 29.5,43.4 L 29.5,46.6" style="fill:none;stroke:#000000;stroke-width:2.0px;stroke-linecap:butt;stroke-linejoin:miter;stroke-opacity:1;"/>
<path d="M 28.4,104.0 L 28.3,107.2 L 31.0,108.8" style="fill:none;stroke:#000000;stroke-width:2.0px;stroke-linecap:butt;stroke-linejoin:miter;stroke-opacity:1;"/>
<path d="M 80.2,138.5 L 83.0,140.1 L 85.8,138.6" style="fill:none;stroke:#000000;stroke-width:2.0px;stroke-linecap:butt;stroke-linejoin:miter;stroke-opacity:1;"/>
<path class="atom-0" d="M 184.0 206.1 Q 184.0 201.8, 186.1 199.4 Q 188.3 196.9, 192.3 196.9 Q 196.3 196.9, 198.5 199.4 Q 200.6 201.8, 200.6 206.1 Q 200.6 210.5, 198.4 213.0 Q 196.3 215.5, 192.3 215.5 Q 188.3 215.5, 186.1 213.0 Q 184.0 210.5, 184.0 206.1 M 192.3 213.5 Q 195.1 213.5, 196.5 211.6 Q 198.0 209.8, 198.0 206.1 Q 198.0 202.6, 196.5 200.8 Q 195.1 199.0, 192.3 199.0 Q 189.5 199.0, 188.0 200.8 Q 186.6 202.6, 186.6 206.1 Q 186.6 209.8, 188.0 211.6 Q 189.5 213.5, 192.3 213.5 " fill="#FF0000"/>
<path class="legend" d="M 95.8 224.4 L 100.0 231.2 Q 100.4 231.8, 101.1 233.0 Q 101.7 234.2, 101.8 234.3 L 101.8 224.4 L 103.5 224.4 L 103.5 237.2 L 101.7 237.2 L 97.2 229.8 Q 96.7 228.9, 96.2 227.9 Q 95.6 226.9, 95.5 226.6 L 95.5 237.2 L 93.8 237.2 L 93.8 224.4 L 95.8 224.4 " fill="#000000"/>
<path class="legend" d="M 109.4 224.4 Q 111.6 224.4, 112.7 225.4 Q 113.8 226.4, 113.8 228.2 Q 113.8 229.9, 112.6 230.9 Q 111.5 231.9, 109.4 231.9 L 107.4 231.9 L 107.4 237.2 L 105.6 237.2 L 105.6 224.4 L 109.4 224.4 M 109.4 230.5 Q 110.6 230.5, 111.3 229.9 Q 112.0 229.3, 112.0 228.2 Q 112.0 227.0, 111.3 226.4 Q 110.6 225.9, 109.4 225.9 L 107.4 225.9 L 107.4 230.5 L 109.4 230.5 " fill="#000000"/>
<path class="legend" d="M 124.7 237.2 L 123.3 233.4 L 118.3 233.4 L 117.0 237.2 L 115.3 237.2 L 119.7 224.4 L 121.8 224.4 L 126.3 237.2 L 124.7 237.2 M 118.8 232.0 L 122.8 232.0 L 120.8 226.2 L 118.8 232.0 " fill="#000000"/>
<path class="legend" d="M 127.7 235.2 Q 127.9 235.2, 128.5 235.5 Q 129.0 235.7, 129.7 235.9 Q 130.4 236.0, 131.0 236.0 Q 132.2 236.0, 132.9 235.5 Q 133.6 234.9, 133.6 233.8 Q 133.6 233.1, 133.3 232.7 Q 132.9 232.3, 132.4 232.0 Q 131.8 231.8, 130.9 231.5 Q 129.8 231.2, 129.1 230.9 Q 128.5 230.6, 128.0 229.9 Q 127.5 229.2, 127.5 228.0 Q 127.5 226.4, 128.6 225.4 Q 129.7 224.4, 131.8 224.4 Q 133.3 224.4, 135.0 225.2 L 134.6 226.5 Q 133.0 225.9, 131.9 225.9 Q 130.7 225.9, 130.0 226.4 Q 129.3 226.9, 129.3 227.8 Q 129.3 228.5, 129.6 228.9 Q 130.0 229.3, 130.5 229.6 Q 131.0 229.8, 131.9 230.1 Q 133.0 230.4, 133.7 230.8 Q 134.4 231.1, 134.9 231.9 Q 135.4 232.6, 135.4 233.8 Q 135.4 235.6, 134.2 236.6 Q 133.0 237.5, 131.1 237.5 Q 129.9 237.5, 129.1 237.2 Q 128.2 237.0, 127.2 236.6 L 127.7 235.2 " fill="#000000"/>
<path class="legend" d="M 137.4 235.2 Q 137.5 235.2, 138.1 235.5 Q 138.7 235.7, 139.4 235.9 Q 140.1 236.0, 140.7 236.0 Q 141.9 236.0, 142.6 235.5 Q 143.3 234.9, 143.3 233.8 Q 143.3 233.1, 142.9 232.7 Q 142.6 232.3, 142.1 232.0 Q 141.5 231.8, 140.6 231.5 Q 139.5 231.2, 138.8 230.9 Q 138.1 230.6, 137.7 229.9 Q 137.2 229.2, 137.2 228.0 Q 137.2 226.4, 138.3 225.4 Q 139.4 224.4, 141.5 224.4 Q 143.0 224.4, 144.7 225.2 L 144.3 226.5 Q 142.7 225.9, 141.6 225.9 Q 140.3 225.9, 139.7 226.4 Q 139.0 226.9, 139.0 227.8 Q 139.0 228.5, 139.3 228.9 Q 139.7 229.3, 140.2 229.6 Q 140.7 229.8, 141.6 230.1 Q 142.7 230.4, 143.4 230.8 Q 144.1 231.1, 144.6 231.9 Q 145.1 232.6, 145.1 233.8 Q 145.1 235.6, 143.9 236.6 Q 142.7 237.5, 140.8 237.5 Q 139.6 237.5, 138.8 237.2 Q 137.9 237.0, 136.9 236.6 L 137.4 235.2 " fill="#000000"/>
<path class="legend" d="M 146.6 235.1 L 148.4 235.1 L 148.4 236.9 L 146.6 236.9 L 146.6 235.1 M 146.6 228.9 L 148.4 228.9 L 148.4 230.7 L 146.6 230.7 L 146.6 228.9 " fill="#000000"/>
<path class="legend" d="" fill="#000000"/>
<path class="legend" d="M 160.9 224.4 Q 163.0 224.4, 164.1 225.4 Q 165.2 226.4, 165.2 228.2 Q 165.2 229.9, 164.1 230.9 Q 163.0 231.9, 160.9 231.9 L 158.8 231.9 L 158.8 237.2 L 157.1 237.2 L 157.1 224.4 L 160.9 224.4 M 160.9 230.5 Q 162.1 230.5, 162.8 229.9 Q 163.4 229.3, 163.4 228.2 Q 163.4 227.0, 162.8 226.4 Q 162.1 225.9, 160.9 225.9 L 158.8 225.9 L 158.8 230.5 L 160.9 230.5 " fill="#000000"/>
<path class="legend" d="M 166.7 232.5 Q 166.7 230.3, 167.9 229.0 Q 169.0 227.7, 171.1 227.7 Q 173.2 227.7, 174.4 229.0 Q 175.5 230.3, 175.5 232.5 Q 175.5 234.8, 174.4 236.0 Q 173.2 237.3, 171.1 237.3 Q 169.0 237.3, 167.9 236.0 Q 166.7 234.8, 166.7 232.5 M 168.5 232.5 Q 168.5 234.2, 169.2 235.1 Q 169.9 236.0, 171.1 236.0 Q 172.4 236.0, 173.1 235.1 Q 173.8 234.2, 173.8 232.5 Q 173.8 230.8, 173.1 230.0 Q 172.4 229.1, 171.1 229.1 Q 169.9 229.1, 169.2 230.0 Q 168.5 230.8, 168.5 232.5 " fill="#000000"/>
<path class="legend" d="M 177.5 235.2 Q 178.4 235.6, 178.9 235.8 Q 179.5 235.9, 180.2 235.9 Q 181.0 235.9, 181.4 235.6 Q 181.9 235.2, 181.9 234.6 Q 181.9 234.2, 181.6 233.9 Q 181.4 233.6, 181.1 233.5 Q 180.8 233.4, 180.0 233.1 Q 179.9 233.1, 179.0 232.8 Q 178.2 232.5, 177.8 231.9 Q 177.3 231.3, 177.3 230.4 Q 177.3 229.3, 178.2 228.5 Q 179.1 227.7, 180.7 227.7 Q 181.4 227.7, 182.0 227.9 Q 182.7 228.1, 183.4 228.3 L 182.9 229.7 Q 182.3 229.4, 181.8 229.3 Q 181.3 229.1, 180.7 229.1 Q 179.9 229.1, 179.5 229.5 Q 179.0 229.8, 179.0 230.4 Q 179.0 230.9, 179.4 231.1 Q 179.7 231.3, 180.5 231.6 Q 180.7 231.7, 180.8 231.7 L 181.3 231.9 Q 182.0 232.2, 182.5 232.4 Q 182.9 232.7, 183.3 233.2 Q 183.6 233.7, 183.6 234.5 Q 183.6 235.9, 182.6 236.6 Q 181.7 237.3, 180.2 237.3 Q 179.3 237.3, 178.5 237.1 Q 177.8 236.9, 177.0 236.6 L 177.5 235.2 " fill="#000000"/>
<path class="legend" d="" fill="#000000"/>
<path class="legend" d="M 192.6 235.7 L 195.4 235.7 L 195.4 226.2 L 192.3 227.1 L 191.9 226.1 L 195.8 224.3 L 197.1 224.6 L 197.1 235.7 L 199.6 235.7 L 199.6 237.2 L 192.6 237.2 L 192.6 235.7 " fill="#000000"/>
<path class="legend" d="M 207.5 230.4 Q 208.6 230.9, 209.3 231.7 Q 210.0 232.4, 210.0 233.7 Q 210.0 234.7, 209.4 235.6 Q 208.9 236.4, 207.9 236.9 Q 206.9 237.3, 205.5 237.3 Q 203.4 237.3, 202.2 236.4 Q 201.0 235.4, 201.0 233.7 Q 201.0 232.6, 201.5 231.8 Q 202.1 231.1, 203.2 230.5 Q 202.3 230.0, 201.9 229.3 Q 201.4 228.6, 201.4 227.5 Q 201.4 226.0, 202.5 225.2 Q 203.6 224.3, 205.5 224.3 Q 207.3 224.3, 208.4 225.2 Q 209.5 226.0, 209.5 227.5 Q 209.5 228.5, 209.0 229.2 Q 208.5 229.8, 207.5 230.4 M 205.5 225.6 Q 204.4 225.6, 203.8 226.1 Q 203.2 226.6, 203.2 227.5 Q 203.2 228.2, 203.6 228.6 Q 204.0 229.1, 204.6 229.3 Q 205.2 229.6, 206.3 230.0 Q 207.0 229.4, 207.4 228.8 Q 207.7 228.3, 207.7 227.5 Q 207.7 226.6, 207.1 226.1 Q 206.5 225.6, 205.5 225.6 M 205.5 236.0 Q 206.7 236.0, 207.5 235.4 Q 208.2 234.7, 208.2 233.6 Q 208.2 233.0, 207.8 232.5 Q 207.4 232.1, 206.8 231.8 Q 206.3 231.6, 205.3 231.3 L 204.5 231.0 Q 203.6 231.5, 203.2 232.2 Q 202.8 232.8, 202.8 233.6 Q 202.8 234.7, 203.5 235.4 Q 204.3 236.0, 205.5 236.0 " fill="#000000"/>
<path class="legend" d="" fill="#000000"/>
<path class="legend" d="M 218.4 230.7 L 225.1 230.7 L 225.1 232.1 L 218.4 232.1 L 218.4 230.7 " fill="#000000"/>
<path class="legend" d="" fill="#000000"/>
<path class="legend" d="M 244.0 227.7 Q 245.5 227.7, 246.3 228.6 Q 247.1 229.4, 247.1 231.0 L 247.1 237.2 L 245.4 237.2 L 245.4 231.2 Q 245.4 230.1, 245.0 229.6 Q 244.6 229.1, 243.7 229.1 Q 242.8 229.1, 242.1 229.5 Q 241.5 229.8, 241.0 230.5 Q 241.1 230.7, 241.1 231.0 L 241.1 237.2 L 239.4 237.2 L 239.4 231.2 Q 239.4 230.1, 238.9 229.6 Q 238.5 229.1, 237.6 229.1 Q 236.8 229.1, 236.1 229.5 Q 235.4 229.8, 235.0 230.5 L 235.0 237.2 L 233.3 237.2 L 233.3 227.9 L 234.7 227.9 L 234.9 229.2 Q 236.1 227.7, 237.9 227.7 Q 240.1 227.7, 240.8 229.4 Q 242.0 227.7, 244.0 227.7 " fill="#000000"/>
<path class="legend" d="M 249.2 232.5 Q 249.2 230.2, 250.3 229.0 Q 251.5 227.7, 253.5 227.7 Q 255.6 227.7, 256.5 229.0 Q 257.4 230.2, 257.4 232.5 L 257.4 232.7 L 250.9 232.7 Q 251.0 234.3, 251.7 235.1 Q 252.4 236.0, 253.7 236.0 Q 254.4 236.0, 255.1 235.8 Q 255.7 235.6, 256.5 235.3 L 257.0 236.4 Q 256.1 236.9, 255.3 237.1 Q 254.4 237.3, 253.6 237.3 Q 251.5 237.3, 250.3 236.0 Q 249.2 234.8, 249.2 232.5 M 253.5 229.1 Q 252.5 229.1, 251.8 229.7 Q 251.2 230.3, 251.0 231.5 L 255.6 231.5 Q 255.5 230.2, 255.0 229.7 Q 254.5 229.1, 253.5 229.1 " fill="#000000"/>
<path class="legend" d="M 258.7 234.7 Q 258.7 233.2, 259.9 232.4 Q 261.1 231.6, 263.3 231.6 L 264.7 231.6 L 264.7 231.2 Q 264.7 230.0, 264.2 229.6 Q 263.7 229.1, 262.5 229.1 Q 261.8 229.1, 261.2 229.2 Q 260.7 229.3, 259.8 229.7 L 259.3 228.6 Q 260.9 227.7, 262.6 227.7 Q 264.5 227.7, 265.4 228.6 Q 266.3 229.4, 266.3 231.2 L 266.3 237.2 L 265.0 237.2 Q 265.0 237.1, 265.0 236.8 Q 264.9 236.5, 264.8 236.1 Q 263.5 237.4, 261.8 237.4 Q 260.4 237.4, 259.6 236.6 Q 258.7 235.9, 258.7 234.7 M 260.4 234.6 Q 260.4 235.3, 260.9 235.7 Q 261.3 236.0, 262.1 236.0 Q 262.8 236.0, 263.5 235.7 Q 264.2 235.4, 264.7 234.8 L 264.7 232.8 L 263.4 232.8 Q 261.9 232.8, 261.2 233.3 Q 260.4 233.7, 260.4 234.6 " fill="#000000"/>
<path class="legend" d="M 273.2 227.7 Q 274.7 227.7, 275.5 228.6 Q 276.3 229.4, 276.3 231.0 L 276.3 237.2 L 274.6 237.2 L 274.6 231.2 Q 274.6 230.1, 274.1 229.6 Q 273.7 229.1, 272.8 229.1 Q 271.9 229.1, 271.2 229.5 Q 270.5 229.8, 270.1 230.5 L 270.1 237.2 L 268.4 237.2 L 268.4 227.9 L 269.8 227.9 L 270.0 229.2 Q 271.2 227.7, 273.2 227.7 " fill="#000000"/>
<path class="legend" d="" fill="#000000"/>
<path class="legend" d="M 285.5 235.2 Q 285.6 235.2, 286.2 235.5 Q 286.8 235.7, 287.5 235.9 Q 288.1 236.0, 288.8 236.0 Q 290.0 236.0, 290.7 235.5 Q 291.4 234.9, 291.4 233.8 Q 291.4 233.1, 291.0 232.7 Q 290.7 232.3, 290.1 232.0 Q 289.6 231.8, 288.7 231.5 Q 287.6 231.2, 286.9 230.9 Q 286.2 230.6, 285.7 229.9 Q 285.3 229.2, 285.3 228.0 Q 285.3 226.4, 286.3 225.4 Q 287.4 224.4, 289.6 224.4 Q 291.1 224.4, 292.7 225.2 L 292.3 226.5 Q 290.8 225.9, 289.7 225.9 Q 288.4 225.9, 287.7 226.4 Q 287.0 226.9, 287.1 227.8 Q 287.1 228.5, 287.4 228.9 Q 287.8 229.3, 288.3 229.6 Q 288.8 229.8, 289.7 230.1 Q 290.8 230.4, 291.5 230.8 Q 292.2 231.1, 292.7 231.9 Q 293.2 232.6, 293.2 233.8 Q 293.2 235.6, 292.0 236.6 Q 290.8 237.5, 288.8 237.5 Q 287.7 237.5, 286.8 237.2 Q 286.0 237.0, 285.0 236.6 L 285.5 235.2 " fill="#000000"/>
<path class="legend" d="M 294.7 224.4 L 296.4 224.4 L 296.4 229.8 L 302.9 229.8 L 302.9 224.4 L 304.6 224.4 L 304.6 237.2 L 302.9 237.2 L 302.9 231.3 L 296.4 231.3 L 296.4 237.2 L 294.7 237.2 L 294.7 224.4 " fill="#000000"/>
<path class="legend" d="M 316.2 237.2 L 314.9 233.4 L 309.9 233.4 L 308.6 237.2 L 306.8 237.2 L 311.2 224.4 L 313.4 224.4 L 317.9 237.2 L 316.2 237.2 M 310.4 232.0 L 314.4 232.0 L 312.3 226.2 L 310.4 232.0 " fill="#000000"/>
<path class="legend" d="M 322.6 224.4 Q 324.7 224.4, 325.8 225.4 Q 326.9 226.4, 326.9 228.2 Q 326.9 229.9, 325.8 230.9 Q 324.7 231.9, 322.6 231.9 L 320.5 231.9 L 320.5 237.2 L 318.8 237.2 L 318.8 224.4 L 322.6 224.4 M 322.6 230.5 Q 323.8 230.5, 324.5 229.9 Q 325.1 229.3, 325.1 228.2 Q 325.1 227.0, 324.5 226.4 Q 323.8 225.9, 322.6 225.9 L 320.5 225.9 L 320.5 230.5 L 322.6 230.5 " fill="#000000"/>
<path class="legend" d="M 328.5 235.1 L 330.3 235.1 L 330.3 236.9 L 328.5 236.9 L 328.5 235.1 M 328.5 228.9 L 330.3 228.9 L 330.3 230.7 L 328.5 230.7 L 328.5 228.9 " fill="#000000"/>
<path class="legend" d="" fill="#000000"/>
<path class="legend" d="M 343.6 237.3 Q 341.3 237.3, 340.1 235.6 Q 338.9 233.8, 338.9 230.8 Q 338.9 227.7, 340.1 226.0 Q 341.2 224.3, 343.6 224.3 Q 346.0 224.3, 347.1 226.0 Q 348.3 227.7, 348.3 230.8 Q 348.3 233.8, 347.1 235.6 Q 345.9 237.3, 343.6 237.3 M 343.6 235.9 Q 345.0 235.9, 345.7 234.6 Q 346.5 233.3, 346.5 230.8 Q 346.5 228.3, 345.7 227.0 Q 345.0 225.7, 343.6 225.7 Q 342.2 225.7, 341.5 227.0 Q 340.7 228.3, 340.7 230.8 Q 340.7 233.3, 341.5 234.6 Q 342.2 235.9, 343.6 235.9 " fill="#000000"/>
<path class="legend" d="M 350.1 235.4 L 351.9 235.4 L 351.9 237.2 L 350.1 237.2 L 350.1 235.4 " fill="#000000"/>
<path class="legend" d="M 358.4 237.3 Q 356.1 237.3, 354.9 235.6 Q 353.7 233.8, 353.7 230.8 Q 353.7 227.7, 354.9 226.0 Q 356.0 224.3, 358.4 224.3 Q 360.8 224.3, 361.9 226.0 Q 363.1 227.7, 363.1 230.8 Q 363.1 233.8, 361.9 235.6 Q 360.7 237.3, 358.4 237.3 M 358.4 235.9 Q 359.8 235.9, 360.5 234.6 Q 361.3 233.3, 361.3 230.8 Q 361.3 228.3, 360.5 227.0 Q 359.8 225.7, 358.4 225.7 Q 357.0 225.7, 356.3 227.0 Q 355.5 228.3, 355.5 230.8 Q 355.5 233.3, 356.3 234.6 Q 357.0 235.9, 358.4 235.9 " fill="#000000"/>
<path class="legend" d="M 369.6 237.3 Q 367.2 237.3, 366.1 235.6 Q 364.9 233.8, 364.9 230.8 Q 364.9 227.7, 366.1 226.0 Q 367.2 224.3, 369.6 224.3 Q 371.9 224.3, 373.1 226.0 Q 374.2 227.7, 374.2 230.8 Q 374.2 233.8, 373.1 235.6 Q 371.9 237.3, 369.6 237.3 M 369.6 235.9 Q 371.0 235.9, 371.7 234.6 Q 372.4 233.3, 372.4 230.8 Q 372.4 228.3, 371.7 227.0 Q 371.0 225.7, 369.6 225.7 Q 368.2 225.7, 367.4 227.0 Q 366.7 228.3, 366.7 230.8 Q 366.7 233.3, 367.4 234.6 Q 368.2 235.9, 369.6 235.9 " fill="#000000"/>
<path class="legend" d="M 380.7 237.3 Q 378.4 237.3, 377.2 235.6 Q 376.1 233.8, 376.1 230.8 Q 376.1 227.7, 377.2 226.0 Q 378.4 224.3, 380.7 224.3 Q 383.1 224.3, 384.2 226.0 Q 385.4 227.7, 385.4 230.8 Q 385.4 233.8, 384.2 235.6 Q 383.1 237.3, 380.7 237.3 M 380.7 235.9 Q 382.1 235.9, 382.9 234.6 Q 383.6 233.3, 383.6 230.8 Q 383.6 228.3, 382.9 227.0 Q 382.1 225.7, 380.7 225.7 Q 379.4 225.7, 378.6 227.0 Q 377.9 228.3, 377.9 230.8 Q 377.9 233.3, 378.6 234.6 Q 379.4 235.9, 380.7 235.9 " fill="#000000"/>
<path class="legend" d="M 393.9 225.9 L 387.2 225.9 L 387.2 224.4 L 395.7 224.4 L 395.7 225.7 L 390.5 237.2 L 388.8 237.2 L 393.9 225.9 " fill="#000000"/>
<path class="legend" d="M 401.5 237.3 Q 399.2 237.3, 398.0 235.6 Q 396.9 233.8, 396.9 230.8 Q 396.9 227.7, 398.0 226.0 Q 399.2 224.3, 401.5 224.3 Q 403.9 224.3, 405.0 226.0 Q 406.2 227.7, 406.2 230.8 Q 406.2 233.8, 405.0 235.6 Q 403.9 237.3, 401.5 237.3 M 401.5 235.9 Q 402.9 235.9, 403.7 234.6 Q 404.4 233.3, 404.4 230.8 Q 404.4 228.3, 403.7 227.0 Q 402.9 225.7, 401.5 225.7 Q 400.2 225.7, 399.4 227.0 Q 398.7 228.3, 398.7 230.8 Q 398.7 233.3, 399.4 234.6 Q 400.2 235.9, 401.5 235.9 " fill="#000000"/>
</g>
    <g transform="translate(600, 0) scale(1 1) translate(0, 0) scale(0.6 0.6) "><!-- END OF HEADER -->
<rect style="opacity:1.0;fill:#FFFFFF;stroke:none" width="500.0" height="250.0" x="0.0" y="0.0"> </rect>
<path class="bond-0 atom-0 atom-1" d="M 196.9,58.5 L 191.8,81.6" style="fill:none;fill-rule:evenodd;stroke:#FF0000;stroke-width:2.0px;stroke-linecap:butt;stroke-linejoin:miter;stroke-opacity:1"/>
<path class="bond-0 atom-0 atom-1" d="M 191.8,81.6 L 186.6,104.7" style="fill:none;fill-rule:evenodd;stroke:#000000;stroke-width:2.0px;stroke-linecap:butt;stroke-linejoin:miter;stroke-opacity:1"/>
<path class="bond-0 atom-0 atom-1" d="M 188.9,56.7 L 183.7,79.8" style="fill:none;fill-rule:evenodd;stroke:#FF0000;stroke-width:2.0px;stroke-linecap:butt;stroke-linejoin:miter;stroke-opacity:1"/>
<path class="bond-0 atom-0 atom-1" d="M 183.7,79.8 L 178.5,102.9" style="fill:none;fill-rule:evenodd;stroke:#000000;stroke-width:2.0px;stroke-linecap:butt;stroke-linejoin:miter;stroke-opacity:1"/>
<path class="bond-1 atom-1 atom-2" d="M 183.1,101.5 L 198.9,116.0" style="fill:none;fill-rule:evenodd;stroke:#000000;stroke-width:2.0px;stroke-linecap:butt;stroke-linejoin:miter;stroke-opacity:1"/>
<path class="bond-1 atom-1 atom-2" d="M 198.9,116.0 L 214.7,130.6" style="fill:none;fill-rule:evenodd;stroke:#FF0000;stroke-width:2.0px;stroke-linecap:butt;stroke-linejoin:miter;stroke-opacity:1"/>
<path class="bond-2 atom-2 atom-3" d="M 232.7,136.1 L 254.5,129.3" style="fill:none;fill-rule:evenodd;stroke:#FF0000;stroke-width:2.0px;stroke-linecap:butt;stroke-linejoin:miter;stroke-opacity:1"/>
<path class="bond-2 atom-2 atom-3" d="M 254.5,129.3 L 276.3,122.4" style="fill:none;fill-rule:evenodd;stroke:#000000;stroke-width:2.0px;stroke-linecap:butt;stroke-linejoin:miter;stroke-opacity:1"/>
<path class="bond-3 atom-3 atom-4" d="M 276.3,122.4 L 316.9,159.8" style="fill:none;fill-rule:evenodd;stroke:#000000;stroke-width:2.0px;stroke-linecap:butt;stroke-linejoin:miter;stroke-opacity:1"/>
<path class="bond-4 atom-4 atom-5" d="M 316.9,159.8 L 369.6,143.4" style="fill:none;fill-rule:evenodd;stroke:#000000;stroke-width:2.0px;stroke-linecap:butt;stroke-linejoin:miter;stroke-opacity:1"/>
<path class="bond-5 atom-5 atom-6" d="M 369.6,143.4 L 410.2,180.8" style="fill:none;fill-rule:evenodd;stroke:#000000;stroke-width:2.0px;stroke-linecap:butt;stroke-linejoin:miter;stroke-opacity:1"/>
<path class="bond-5 atom-5 atom-6" d="M 378.8,140.5 L 412.3,171.4" style="fill:none;fill-rule:evenodd;stroke:#000000;stroke-width:2.0px;stroke-linecap:butt;stroke-linejoin:miter;stroke-opacity:1"/>
<path class="bond-6 atom-6 atom-7" d="M 410.2,180.8 L 462.9,164.3" style="fill:none;fill-rule:evenodd;stroke:#000000;stroke-width:2.0px;stroke-linecap:butt;stroke-linejoin:miter;stroke-opacity:1"/>
<path class="bond-7 atom-7 atom-8" d="M 462.9,164.3 L 475.0,110.4" style="fill:none;fill-rule:evenodd;stroke:#000000;stroke-width:2.0px;stroke-linecap:butt;stroke-linejoin:miter;stroke-opacity:1"/>
<path class="bond-7 atom-7 atom-8" d="M 455.9,157.8 L 465.9,113.3" style="fill:none;fill-rule:evenodd;stroke:#000000;stroke-width:2.0px;stroke-linecap:butt;stroke-linejoin:miter;stroke-opacity:1"/>
<path class="bond-8 atom-8 atom-9" d="M 475.0,110.4 L 434.4,73.1" style="fill:none;fill-rule:evenodd;stroke:#000000;stroke-width:2.0px;stroke-linecap:butt;stroke-linejoin:miter;stroke-opacity:1"/>
<path class="bond-9 atom-9 atom-10" d="M 434.4,73.1 L 381.7,89.5" style="fill:none;fill-rule:evenodd;stroke:#000000;stroke-width:2.0px;stroke-linecap:butt;stroke-linejoin:miter;stroke-opacity:1"/>
<path class="bond-9 atom-9 atom-10" d="M 432.3,82.4 L 388.7,96.0" style="fill:none;fill-rule:evenodd;stroke:#000000;stroke-width:2.0px;stroke-linecap:butt;stroke-linejoin:miter;stroke-opacity:1"/>
<path class="bond-10 atom-1 atom-11" d="M 183.1,101.5 L 130.4,118.0" style="fill:none;fill-rule:evenodd;stroke:#000000;stroke-width:2.0px;stroke-linecap:butt;stroke-linejoin:miter;stroke-opacity:1"/>
<path class="bond-11 atom-11 atom-12" d="M 130.4,118.0 L 89.8,80.6" style="fill:none;fill-rule:evenodd;stroke:#000000;stroke-width:2.0px;stroke-linecap:butt;stroke-linejoin:miter;stroke-opacity:1"/>
<path class="bond-11 atom-11 atom-12" d="M 121.2,120.8 L 87.7,89.9" style="fill:none;fill-rule:evenodd;stroke:#000000;stroke-width:2.0px;stroke-linecap:butt;stroke-linejoin:miter;stroke-opacity:1"/>
<path class="bond-12 atom-12 atom-13" d="M 89.8,80.6 L 37.1,97.0" style="fill:none;fill-rule:evenodd;stroke:#000000;stroke-width:2.0px;stroke-linecap:butt;stroke-linejoin:miter;stroke-opacity:1"/>
<path class="bond-13 atom-13 atom-14" d="M 37.1,97.0 L 25.0,150.9" style="fill:none;fill-rule:evenodd;stroke:#000000;stroke-width:2.0px;stroke-linecap:butt;stroke-linejoin:miter;stroke-opacity:1"/>
<path class="bond-13 atom-13 atom-14" d="M 44.1,103.5 L 34.1,148.0" style="fill:none;fill-rule:evenodd;stroke:#000000;stroke-width:2.0px;stroke-linecap:butt;stroke-linejoin:miter;stroke-opacity:1"/>
<path class="bond-14 atom-14 atom-15" d="M 25.0,150.9 L 65.6,188.3" style="fill:none;fill-rule:evenodd;stroke:#000000;stroke-width:2.0px;stroke-linecap:butt;stroke-linejoin:miter;stroke-opacity:1"/>
<path class="bond-15 atom-15 atom-16" d="M 65.6,188.3 L 118.3,171.8" style="fill:none;fill-rule:evenodd;stroke:#000000;stroke-width:2.0px;stroke-linecap:butt;stroke-linejoin:miter;stroke-opacity:1"/>
<path class="bond-15 atom-15 atom-16" d="M 67.7,178.9 L 111.3,165.3" style="fill:none;fill-rule:evenodd;stroke:#000000;stroke-width:2.0px;stroke-linecap:butt;stroke-linejoin:miter;stroke-opacity:1"/>
<path class="bond-16 atom-10 atom-5" d="M 381.7,89.5 L 369.6,143.4" style="fill:none;fill-rule:evenodd;stroke:#000000;stroke-width:2.0px;stroke-linecap:butt;stroke-linejoin:miter;stroke-opacity:1"/>
<path class="bond-17 atom-16 atom-11" d="M 118.3,171.8 L 130.4,118.0" style="fill:none;fill-rule:evenodd;stroke:#000000;stroke-width:2.0px;stroke-linecap:butt;stroke-linejoin:miter;stroke-opacity:1"/>
<path d="M 183.8,102.2 L 183.1,101.5 L 180.4,102.3" style="fill:none;stroke:#000000;stroke-width:2.0px;stroke-linecap:butt;stroke-linejoin:miter;stroke-opacity:1;"/>
<path d="M 275.3,122.8 L 276.3,122.4 L 278.4,124.3" style="fill:none;stroke:#000000;stroke-width:2.0px;stroke-linecap:butt;stroke-linejoin:miter;stroke-opacity:1;"/>
<path d="M 314.9,158.0 L 316.9,159.8 L 319.6,159.0" style="fill:none;stroke:#000000;stroke-width:2.0px;stroke-linecap:butt;stroke-linejoin:miter;stroke-opacity:1;"/>
<path d="M 408.2,178.9 L 410.2,180.8 L 412.9,179.9" style="fill:none;stroke:#000000;stroke-width:2.0px;stroke-linecap:butt;stroke-linejoin:miter;stroke-opacity:1;"/>
<path d="M 460.3,165.1 L 462.9,164.3 L 463.5,161.6" style="fill:none;stroke:#000000;stroke-width:2.0px;stroke-linecap:butt;stroke-linejoin:miter;stroke-opacity:1;"/>
<path d="M 474.4,113.1 L 475.0,110.4 L 473.0,108.6" style="fill:none;stroke:#000000;stroke-width:2.0px;stroke-linecap:butt;stroke-linejoin:miter;stroke-opacity:1;"/>
<path d="M 436.4,74.9 L 434.4,73.1 L 431.8,73.9" style="fill:none;stroke:#000000;stroke-width:2.0px;stroke-linecap:butt;stroke-linejoin:miter;stroke-opacity:1;"/>
<path d="M 384.4,88.7 L 381.7,89.5 L 381.1,92.2" style="fill:none;stroke:#000000;stroke-width:2.0px;stroke-linecap:butt;stroke-linejoin:miter;stroke-opacity:1;"/>
<path d="M 91.8,82.4 L 89.8,80.6 L 87.1,81.4" style="fill:none;stroke:#000000;stroke-width:2.0px;stroke-linecap:butt;stroke-linejoin:miter;stroke-opacity:1;"/>
<path d="M 39.7,96.2 L 37.1,97.0 L 36.5,99.7" style="fill:none;stroke:#000000;stroke-width:2.0px;stroke-linecap:butt;stroke-linejoin:miter;stroke-opacity:1;"/>
<path d="M 25.6,148.2 L 25.0,150.9 L 27.0,152.7" style="fill:none;stroke:#000000;stroke-width:2.0px;stroke-linecap:butt;stroke-linejoin:miter;stroke-opacity:1;"/>
<path d="M 63.6,186.4 L 65.6,188.3 L 68.2,187.4" style="fill:none;stroke:#000000;stroke-width:2.0px;stroke-linecap:butt;stroke-linejoin:miter;stroke-opacity:1;"/>
<path d="M 115.6,172.6 L 118.3,171.8 L 118.9,169.1" style="fill:none;stroke:#000000;stroke-width:2.0px;stroke-linecap:butt;stroke-linejoin:miter;stroke-opacity:1;"/>
<path class="atom-0" d="M 188.0 47.7 Q 188.0 43.9, 189.8 41.8 Q 191.7 39.7, 195.1 39.7 Q 198.6 39.7, 200.5 41.8 Q 202.3 43.9, 202.3 47.7 Q 202.3 51.5, 200.4 53.6 Q 198.6 55.8, 195.1 55.8 Q 191.7 55.8, 189.8 53.6 Q 188.0 51.5, 188.0 47.7 M 195.1 54.0 Q 197.5 54.0, 198.8 52.4 Q 200.1 50.8, 200.1 47.7 Q 200.1 44.6, 198.8 43.1 Q 197.5 41.5, 195.1 41.5 Q 192.8 41.5, 191.5 43.0 Q 190.2 44.6, 190.2 47.7 Q 190.2 50.8, 191.5 52.4 Q 192.8 54.0, 195.1 54.0 " fill="#FF0000"/>
<path class="atom-2" d="M 216.5 138.9 Q 216.5 135.2, 218.3 133.1 Q 220.2 131.0, 223.7 131.0 Q 227.1 131.0, 229.0 133.1 Q 230.8 135.2, 230.8 138.9 Q 230.8 142.7, 229.0 144.9 Q 227.1 147.0, 223.7 147.0 Q 220.2 147.0, 218.3 144.9 Q 216.5 142.8, 216.5 138.9 M 223.7 145.3 Q 226.0 145.3, 227.3 143.7 Q 228.6 142.1, 228.6 138.9 Q 228.6 135.9, 227.3 134.3 Q 226.0 132.8, 223.7 132.8 Q 221.3 132.8, 220.0 134.3 Q 218.7 135.8, 218.7 138.9 Q 218.7 142.1, 220.0 143.7 Q 221.3 145.3, 223.7 145.3 " fill="#FF0000"/>
<path class="legend" d="M 95.9 224.4 L 100.1 231.2 Q 100.5 231.8, 101.1 233.0 Q 101.8 234.2, 101.8 234.3 L 101.8 224.4 L 103.5 224.4 L 103.5 237.2 L 101.8 237.2 L 97.3 229.8 Q 96.8 228.9, 96.2 227.9 Q 95.7 226.9, 95.5 226.6 L 95.5 237.2 L 93.9 237.2 L 93.9 224.4 L 95.9 224.4 " fill="#000000"/>
<path class="legend" d="M 109.5 224.4 Q 111.6 224.4, 112.7 225.4 Q 113.8 226.4, 113.8 228.2 Q 113.8 229.9, 112.7 230.9 Q 111.6 231.9, 109.5 231.9 L 107.4 231.9 L 107.4 237.2 L 105.7 237.2 L 105.7 224.4 L 109.5 224.4 M 109.5 230.5 Q 110.7 230.5, 111.4 229.9 Q 112.0 229.3, 112.0 228.2 Q 112.0 227.0, 111.4 226.4 Q 110.7 225.9, 109.5 225.9 L 107.4 225.9 L 107.4 230.5 L 109.5 230.5 " fill="#000000"/>
<path class="legend" d="M 124.7 237.2 L 123.4 233.4 L 118.4 233.4 L 117.1 237.2 L 115.4 237.2 L 119.7 224.4 L 121.9 224.4 L 126.4 237.2 L 124.7 237.2 M 118.9 232.0 L 122.9 232.0 L 120.8 226.2 L 118.9 232.0 " fill="#000000"/>
<path class="legend" d="M 127.8 235.2 Q 127.9 235.2, 128.5 235.5 Q 129.1 235.7, 129.8 235.9 Q 130.4 236.0, 131.1 236.0 Q 132.3 236.0, 133.0 235.5 Q 133.7 234.9, 133.7 233.8 Q 133.7 233.1, 133.3 232.7 Q 133.0 232.3, 132.5 232.0 Q 131.9 231.8, 131.0 231.5 Q 129.9 231.2, 129.2 230.9 Q 128.5 230.6, 128.0 229.9 Q 127.6 229.2, 127.6 228.0 Q 127.6 226.4, 128.7 225.4 Q 129.8 224.4, 131.9 224.4 Q 133.4 224.4, 135.1 225.2 L 134.6 226.5 Q 133.1 225.9, 132.0 225.9 Q 130.7 225.9, 130.0 226.4 Q 129.4 226.9, 129.4 227.8 Q 129.4 228.5, 129.7 228.9 Q 130.1 229.3, 130.6 229.6 Q 131.1 229.8, 132.0 230.1 Q 133.1 230.4, 133.8 230.8 Q 134.5 231.1, 135.0 231.9 Q 135.5 232.6, 135.5 233.8 Q 135.5 235.6, 134.3 236.6 Q 133.1 237.5, 131.2 237.5 Q 130.0 237.5, 129.2 237.2 Q 128.3 237.0, 127.3 236.6 L 127.8 235.2 " fill="#000000"/>
<path class="legend" d="M 137.5 235.2 Q 137.6 235.2, 138.2 235.5 Q 138.8 235.7, 139.5 235.9 Q 140.1 236.0, 140.8 236.0 Q 142.0 236.0, 142.7 235.5 Q 143.4 234.9, 143.4 233.8 Q 143.4 233.1, 143.0 232.7 Q 142.7 232.3, 142.1 232.0 Q 141.6 231.8, 140.7 231.5 Q 139.6 231.2, 138.9 230.9 Q 138.2 230.6, 137.7 229.9 Q 137.3 229.2, 137.3 228.0 Q 137.3 226.4, 138.3 225.4 Q 139.4 224.4, 141.6 224.4 Q 143.1 224.4, 144.7 225.2 L 144.3 226.5 Q 142.8 225.9, 141.6 225.9 Q 140.4 225.9, 139.7 226.4 Q 139.0 226.9, 139.1 227.8 Q 139.1 228.5, 139.4 228.9 Q 139.8 229.3, 140.3 229.6 Q 140.8 229.8, 141.6 230.1 Q 142.8 230.4, 143.5 230.8 Q 144.2 231.1, 144.7 231.9 Q 145.2 232.6, 145.2 233.8 Q 145.2 235.6, 144.0 236.6 Q 142.8 237.5, 140.8 237.5 Q 139.7 237.5, 138.8 237.2 Q 138.0 237.0, 137.0 236.6 L 137.5 235.2 " fill="#000000"/>
<path class="legend" d="M 146.7 235.1 L 148.5 235.1 L 148.5 236.9 L 146.7 236.9 L 146.7 235.1 M 146.7 228.9 L 148.5 228.9 L 148.5 230.7 L 146.7 230.7 L 146.7 228.9 " fill="#000000"/>
<path class="legend" d="" fill="#000000"/>
<path class="legend" d="M 160.9 224.4 Q 163.1 224.4, 164.2 225.4 Q 165.3 226.4, 165.3 228.2 Q 165.3 229.9, 164.2 230.9 Q 163.0 231.9, 160.9 231.9 L 158.9 231.9 L 158.9 237.2 L 157.2 237.2 L 157.2 224.4 L 160.9 224.4 M 160.9 230.5 Q 162.2 230.5, 162.8 229.9 Q 163.5 229.3, 163.5 228.2 Q 163.5 227.0, 162.8 226.4 Q 162.2 225.9, 160.9 225.9 L 158.9 225.9 L 158.9 230.5 L 160.9 230.5 " fill="#000000"/>
<path class="legend" d="M 166.8 232.5 Q 166.8 230.3, 167.9 229.0 Q 169.1 227.7, 171.2 227.7 Q 173.3 227.7, 174.4 229.0 Q 175.6 230.3, 175.6 232.5 Q 175.6 234.8, 174.4 236.0 Q 173.3 237.3, 171.2 237.3 Q 169.1 237.3, 167.9 236.0 Q 166.8 234.8, 166.8 232.5 M 168.5 232.5 Q 168.5 234.2, 169.2 235.1 Q 169.9 236.0, 171.2 236.0 Q 172.5 236.0, 173.2 235.1 Q 173.9 234.2, 173.9 232.5 Q 173.9 230.8, 173.2 230.0 Q 172.5 229.1, 171.2 229.1 Q 169.9 229.1, 169.2 230.0 Q 168.5 230.8, 168.5 232.5 " fill="#000000"/>
<path class="legend" d="M 177.6 235.2 Q 178.4 235.6, 179.0 235.8 Q 179.6 235.9, 180.2 235.9 Q 181.0 235.9, 181.5 235.6 Q 181.9 235.2, 181.9 234.6 Q 181.9 234.2, 181.7 233.9 Q 181.5 233.6, 181.2 233.5 Q 180.9 233.4, 180.1 233.1 Q 179.9 233.1, 179.1 232.8 Q 178.3 232.5, 177.8 231.9 Q 177.4 231.3, 177.4 230.4 Q 177.4 229.3, 178.3 228.5 Q 179.1 227.7, 180.8 227.7 Q 181.5 227.7, 182.1 227.9 Q 182.7 228.1, 183.4 228.3 L 183.0 229.7 Q 182.4 229.4, 181.9 229.3 Q 181.3 229.1, 180.8 229.1 Q 179.9 229.1, 179.5 229.5 Q 179.1 229.8, 179.1 230.4 Q 179.1 230.9, 179.4 231.1 Q 179.8 231.3, 180.5 231.6 Q 180.7 231.7, 180.9 231.7 L 181.3 231.9 Q 182.1 232.2, 182.5 232.4 Q 183.0 232.7, 183.3 233.2 Q 183.6 233.7, 183.6 234.5 Q 183.6 235.9, 182.7 236.6 Q 181.7 237.3, 180.2 237.3 Q 179.4 237.3, 178.6 237.1 Q 177.8 236.9, 177.1 236.6 L 177.6 235.2 " fill="#000000"/>
<path class="legend" d="" fill="#000000"/>
<path class="legend" d="M 192.6 235.7 L 195.4 235.7 L 195.4 226.2 L 192.3 227.1 L 191.9 226.1 L 195.8 224.3 L 197.1 224.6 L 197.1 235.7 L 199.6 235.7 L 199.6 237.2 L 192.6 237.2 L 192.6 235.7 " fill="#000000"/>
<path class="legend" d="M 205.3 224.3 Q 207.6 224.3, 208.7 225.8 Q 209.9 227.3, 209.9 230.4 Q 209.9 233.8, 208.4 235.6 Q 207.0 237.3, 204.3 237.3 Q 203.5 237.3, 202.8 237.1 Q 202.2 236.9, 201.5 236.6 L 202.2 235.4 Q 203.2 235.9, 204.3 235.9 Q 206.1 235.9, 207.0 234.7 Q 207.9 233.5, 208.1 231.1 Q 207.4 231.7, 206.6 232.1 Q 205.8 232.4, 204.9 232.4 Q 203.8 232.4, 202.9 231.9 Q 202.0 231.4, 201.5 230.5 Q 201.0 229.6, 201.0 228.5 Q 201.0 227.3, 201.6 226.3 Q 202.1 225.3, 203.1 224.8 Q 204.1 224.3, 205.3 224.3 M 202.8 228.5 Q 202.8 229.6, 203.5 230.3 Q 204.1 230.9, 205.2 230.9 Q 206.0 230.9, 206.7 230.6 Q 207.5 230.3, 208.1 229.8 Q 208.0 227.7, 207.3 226.7 Q 206.6 225.7, 205.3 225.7 Q 204.6 225.7, 204.0 226.1 Q 203.5 226.5, 203.2 227.1 Q 202.8 227.7, 202.8 228.5 " fill="#000000"/>
<path class="legend" d="" fill="#000000"/>
<path class="legend" d="M 218.4 230.7 L 225.0 230.7 L 225.0 232.1 L 218.4 232.1 L 218.4 230.7 " fill="#000000"/>
<path class="legend" d="" fill="#000000"/>
<path class="legend" d="M 244.0 227.7 Q 245.5 227.7, 246.3 228.6 Q 247.1 229.4, 247.1 231.0 L 247.1 237.2 L 245.4 237.2 L 245.4 231.2 Q 245.4 230.1, 245.0 229.6 Q 244.6 229.1, 243.6 229.1 Q 242.8 229.1, 242.1 229.5 Q 241.4 229.8, 241.0 230.5 Q 241.0 230.7, 241.0 231.0 L 241.0 237.2 L 239.3 237.2 L 239.3 231.2 Q 239.3 230.1, 238.9 229.6 Q 238.5 229.1, 237.6 229.1 Q 236.8 229.1, 236.1 229.5 Q 235.4 229.8, 235.0 230.5 L 235.0 237.2 L 233.3 237.2 L 233.3 227.9 L 234.7 227.9 L 234.8 229.2 Q 236.0 227.7, 237.9 227.7 Q 240.1 227.7, 240.8 229.4 Q 242.0 227.7, 244.0 227.7 " fill="#000000"/>
<path class="legend" d="M 249.2 232.5 Q 249.2 230.2, 250.3 229.0 Q 251.4 227.7, 253.5 227.7 Q 255.5 227.7, 256.4 229.0 Q 257.4 230.2, 257.4 232.5 L 257.4 232.7 L 250.9 232.7 Q 250.9 234.3, 251.6 235.1 Q 252.3 236.0, 253.6 236.0 Q 254.4 236.0, 255.0 235.8 Q 255.7 235.6, 256.5 235.3 L 257.0 236.4 Q 256.1 236.9, 255.2 237.1 Q 254.4 237.3, 253.6 237.3 Q 251.5 237.3, 250.3 236.0 Q 249.2 234.8, 249.2 232.5 M 253.5 229.1 Q 252.4 229.1, 251.8 229.7 Q 251.2 230.3, 251.0 231.5 L 255.6 231.5 Q 255.4 230.2, 254.9 229.7 Q 254.4 229.1, 253.5 229.1 " fill="#000000"/>
<path class="legend" d="M 258.7 234.7 Q 258.7 233.2, 259.9 232.4 Q 261.1 231.6, 263.3 231.6 L 264.6 231.6 L 264.6 231.2 Q 264.6 230.0, 264.1 229.6 Q 263.7 229.1, 262.5 229.1 Q 261.8 229.1, 261.2 229.2 Q 260.6 229.3, 259.7 229.7 L 259.2 228.6 Q 260.9 227.7, 262.6 227.7 Q 264.5 227.7, 265.4 228.6 Q 266.3 229.4, 266.3 231.2 L 266.3 237.2 L 265.0 237.2 Q 265.0 237.1, 264.9 236.8 Q 264.9 236.5, 264.8 236.1 Q 263.5 237.4, 261.7 237.4 Q 260.4 237.4, 259.5 236.6 Q 258.7 235.9, 258.7 234.7 M 260.4 234.6 Q 260.4 235.3, 260.8 235.7 Q 261.3 236.0, 262.1 236.0 Q 262.8 236.0, 263.5 235.7 Q 264.2 235.4, 264.6 234.8 L 264.6 232.8 L 263.4 232.8 Q 261.9 232.8, 261.1 233.3 Q 260.4 233.7, 260.4 234.6 " fill="#000000"/>
<path class="legend" d="M 273.2 227.7 Q 274.7 227.7, 275.4 228.6 Q 276.2 229.4, 276.2 231.0 L 276.2 237.2 L 274.5 237.2 L 274.5 231.2 Q 274.5 230.1, 274.1 229.6 Q 273.7 229.1, 272.8 229.1 Q 271.9 229.1, 271.2 229.5 Q 270.5 229.8, 270.1 230.5 L 270.1 237.2 L 268.4 237.2 L 268.4 227.9 L 269.8 227.9 L 270.0 229.2 Q 271.2 227.7, 273.2 227.7 " fill="#000000"/>
<path class="legend" d="" fill="#000000"/>
<path class="legend" d="M 285.4 235.2 Q 285.6 235.2, 286.2 235.5 Q 286.8 235.7, 287.4 235.9 Q 288.1 236.0, 288.7 236.0 Q 289.9 236.0, 290.6 235.5 Q 291.3 234.9, 291.3 233.8 Q 291.3 233.1, 291.0 232.7 Q 290.6 232.3, 290.1 232.0 Q 289.6 231.8, 288.7 231.5 Q 287.5 231.2, 286.8 230.9 Q 286.2 230.6, 285.7 229.9 Q 285.2 229.2, 285.2 228.0 Q 285.2 226.4, 286.3 225.4 Q 287.4 224.4, 289.6 224.4 Q 291.0 224.4, 292.7 225.2 L 292.3 226.5 Q 290.8 225.9, 289.6 225.9 Q 288.4 225.9, 287.7 226.4 Q 287.0 226.9, 287.0 227.8 Q 287.0 228.5, 287.4 228.9 Q 287.7 229.3, 288.2 229.6 Q 288.8 229.8, 289.6 230.1 Q 290.8 230.4, 291.5 230.8 Q 292.1 231.1, 292.6 231.9 Q 293.1 232.6, 293.1 233.8 Q 293.1 235.6, 291.9 236.6 Q 290.8 237.5, 288.8 237.5 Q 287.7 237.5, 286.8 237.2 Q 286.0 237.0, 285.0 236.6 L 285.4 235.2 " fill="#000000"/>
<path class="legend" d="M 294.6 224.4 L 296.4 224.4 L 296.4 229.8 L 302.9 229.8 L 302.9 224.4 L 304.6 224.4 L 304.6 237.2 L 302.9 237.2 L 302.9 231.3 L 296.4 231.3 L 296.4 237.2 L 294.6 237.2 L 294.6 224.4 " fill="#000000"/>
<path class="legend" d="M 316.2 237.2 L 314.9 233.4 L 309.8 233.4 L 308.5 237.2 L 306.8 237.2 L 311.2 224.4 L 313.3 224.4 L 317.9 237.2 L 316.2 237.2 M 310.3 232.0 L 314.3 232.0 L 312.3 226.2 L 310.3 232.0 " fill="#000000"/>
<path class="legend" d="M 322.5 224.4 Q 324.7 224.4, 325.8 225.4 Q 326.9 226.4, 326.9 228.2 Q 326.9 229.9, 325.8 230.9 Q 324.6 231.9, 322.5 231.9 L 320.5 231.9 L 320.5 237.2 L 318.8 237.2 L 318.8 224.4 L 322.5 224.4 M 322.5 230.5 Q 323.8 230.5, 324.4 229.9 Q 325.1 229.3, 325.1 228.2 Q 325.1 227.0, 324.4 226.4 Q 323.8 225.9, 322.5 225.9 L 320.5 225.9 L 320.5 230.5 L 322.5 230.5 " fill="#000000"/>
<path class="legend" d="M 328.4 235.1 L 330.2 235.1 L 330.2 236.9 L 328.4 236.9 L 328.4 235.1 M 328.4 228.9 L 330.2 228.9 L 330.2 230.7 L 328.4 230.7 L 328.4 228.9 " fill="#000000"/>
<path class="legend" d="" fill="#000000"/>
<path class="legend" d="M 343.6 237.3 Q 341.2 237.3, 340.0 235.6 Q 338.9 233.8, 338.9 230.8 Q 338.9 227.7, 340.0 226.0 Q 341.2 224.3, 343.6 224.3 Q 345.9 224.3, 347.1 226.0 Q 348.2 227.7, 348.2 230.8 Q 348.2 233.8, 347.0 235.6 Q 345.9 237.3, 343.6 237.3 M 343.6 235.9 Q 344.9 235.9, 345.7 234.6 Q 346.4 233.3, 346.4 230.8 Q 346.4 228.3, 345.7 227.0 Q 344.9 225.7, 343.6 225.7 Q 342.2 225.7, 341.4 227.0 Q 340.7 228.3, 340.7 230.8 Q 340.7 233.3, 341.4 234.6 Q 342.2 235.9, 343.6 235.9 " fill="#000000"/>
<path class="legend" d="M 350.1 235.4 L 351.9 235.4 L 351.9 237.2 L 350.1 237.2 L 350.1 235.4 " fill="#000000"/>
<path class="legend" d="M 358.4 237.3 Q 356.0 237.3, 354.8 235.6 Q 353.7 233.8, 353.7 230.8 Q 353.7 227.7, 354.8 226.0 Q 356.0 224.3, 358.4 224.3 Q 360.7 224.3, 361.9 226.0 Q 363.0 227.7, 363.0 230.8 Q 363.0 233.8, 361.8 235.6 Q 360.7 237.3, 358.4 237.3 M 358.4 235.9 Q 359.7 235.9, 360.5 234.6 Q 361.2 233.3, 361.2 230.8 Q 361.2 228.3, 360.5 227.0 Q 359.7 225.7, 358.4 225.7 Q 357.0 225.7, 356.2 227.0 Q 355.5 228.3, 355.5 230.8 Q 355.5 233.3, 356.2 234.6 Q 357.0 235.9, 358.4 235.9 " fill="#000000"/>
<path class="legend" d="M 369.5 237.3 Q 367.2 237.3, 366.0 235.6 Q 364.8 233.8, 364.8 230.8 Q 364.8 227.7, 366.0 226.0 Q 367.2 224.3, 369.5 224.3 Q 371.9 224.3, 373.0 226.0 Q 374.2 227.7, 374.2 230.8 Q 374.2 233.8, 373.0 235.6 Q 371.9 237.3, 369.5 237.3 M 369.5 235.9 Q 370.9 235.9, 371.6 234.6 Q 372.4 233.3, 372.4 230.8 Q 372.4 228.3, 371.6 227.0 Q 370.9 225.7, 369.5 225.7 Q 368.1 225.7, 367.4 227.0 Q 366.6 228.3, 366.6 230.8 Q 366.6 233.3, 367.4 234.6 Q 368.1 235.9, 369.5 235.9 " fill="#000000"/>
<path class="legend" d="M 380.7 237.3 Q 378.3 237.3, 377.2 235.6 Q 376.0 233.8, 376.0 230.8 Q 376.0 227.7, 377.2 226.0 Q 378.3 224.3, 380.7 224.3 Q 383.0 224.3, 384.2 226.0 Q 385.3 227.7, 385.3 230.8 Q 385.3 233.8, 384.2 235.6 Q 383.0 237.3, 380.7 237.3 M 380.7 235.9 Q 382.1 235.9, 382.8 234.6 Q 383.5 233.3, 383.5 230.8 Q 383.5 228.3, 382.8 227.0 Q 382.1 225.7, 380.7 225.7 Q 379.3 225.7, 378.5 227.0 Q 377.8 228.3, 377.8 230.8 Q 377.8 233.3, 378.5 234.6 Q 379.3 235.9, 380.7 235.9 " fill="#000000"/>
<path class="legend" d="M 392.2 229.2 Q 393.3 229.2, 394.2 229.7 Q 395.0 230.2, 395.5 231.1 Q 396.0 231.9, 396.0 233.1 Q 396.0 234.3, 395.5 235.3 Q 394.9 236.2, 393.9 236.8 Q 393.0 237.3, 391.7 237.3 Q 389.5 237.3, 388.3 235.8 Q 387.2 234.2, 387.2 231.2 Q 387.2 227.8, 388.6 226.0 Q 390.0 224.3, 392.7 224.3 Q 393.5 224.3, 394.2 224.4 Q 394.9 224.6, 395.5 225.0 L 394.8 226.2 Q 393.9 225.7, 392.7 225.7 Q 390.9 225.7, 390.0 226.9 Q 389.1 228.0, 389.0 230.4 Q 389.6 229.8, 390.4 229.5 Q 391.3 229.2, 392.2 229.2 M 391.7 235.8 Q 392.4 235.8, 393.0 235.5 Q 393.6 235.1, 393.9 234.5 Q 394.2 233.8, 394.2 233.1 Q 394.2 231.9, 393.6 231.3 Q 392.9 230.6, 391.8 230.6 Q 391.1 230.6, 390.3 231.0 Q 389.5 231.3, 389.0 231.8 Q 389.1 233.9, 389.7 234.9 Q 390.4 235.8, 391.7 235.8 " fill="#000000"/>
<path class="legend" d="M 404.3 225.9 L 397.7 225.9 L 397.7 224.4 L 406.1 224.4 L 406.1 225.7 L 401.0 237.2 L 399.2 237.2 L 404.3 225.9 " fill="#000000"/>
</g>
    <g transform="translate(900, 0) scale(1 1) translate(0, 0) scale(0.6 0.6) "><!-- END OF HEADER -->
<rect style="opacity:1.0;fill:#FFFFFF;stroke:none" width="500.0" height="250.0" x="0.0" y="0.0"> </rect>
<path class="bond-0 atom-0 atom-1" d="M 237.3,34.1 L 231.7,60.9" style="fill:none;fill-rule:evenodd;stroke:#FF0000;stroke-width:2.0px;stroke-linecap:butt;stroke-linejoin:miter;stroke-opacity:1"/>
<path class="bond-0 atom-0 atom-1" d="M 231.7,60.9 L 226.2,87.7" style="fill:none;fill-rule:evenodd;stroke:#000000;stroke-width:2.0px;stroke-linecap:butt;stroke-linejoin:miter;stroke-opacity:1"/>
<path class="bond-0 atom-0 atom-1" d="M 227.9,32.2 L 222.4,59.0" style="fill:none;fill-rule:evenodd;stroke:#FF0000;stroke-width:2.0px;stroke-linecap:butt;stroke-linejoin:miter;stroke-opacity:1"/>
<path class="bond-0 atom-0 atom-1" d="M 222.4,59.0 L 216.8,85.8" style="fill:none;fill-rule:evenodd;stroke:#000000;stroke-width:2.0px;stroke-linecap:butt;stroke-linejoin:miter;stroke-opacity:1"/>
<path class="bond-1 atom-1 atom-2" d="M 222.1,84.1 L 161.5,104.1" style="fill:none;fill-rule:evenodd;stroke:#000000;stroke-width:2.0px;stroke-linecap:butt;stroke-linejoin:miter;stroke-opacity:1"/>
<path class="bond-2 atom-2 atom-3" d="M 161.5,104.1 L 113.9,61.8" style="fill:none;fill-rule:evenodd;stroke:#000000;stroke-width:2.0px;stroke-linecap:butt;stroke-linejoin:miter;stroke-opacity:1"/>
<path class="bond-2 atom-2 atom-3" d="M 151.1,107.6 L 111.7,72.6" style="fill:none;fill-rule:evenodd;stroke:#000000;stroke-width:2.0px;stroke-linecap:butt;stroke-linejoin:miter;stroke-opacity:1"/>
<path class="bond-3 atom-3 atom-4" d="M 113.9,61.8 L 53.4,81.8" style="fill:none;fill-rule:evenodd;stroke:#000000;stroke-width:2.0px;stroke-linecap:butt;stroke-linejoin:miter;stroke-opacity:1"/>
<path class="bond-4 atom-4 atom-5" d="M 53.4,81.8 L 40.5,144.3" style="fill:none;fill-rule:evenodd;stroke:#000000;stroke-width:2.0px;stroke-linecap:butt;stroke-linejoin:miter;stroke-opacity:1"/>
<path class="bond-4 atom-4 atom-5" d="M 61.6,89.2 L 51.0,140.8" style="fill:none;fill-rule:evenodd;stroke:#000000;stroke-width:2.0px;stroke-linecap:butt;stroke-linejoin:miter;stroke-opacity:1"/>
<path class="bond-5 atom-5 atom-6" d="M 40.5,144.3 L 88.1,186.7" style="fill:none;fill-rule:evenodd;stroke:#000000;stroke-width:2.0px;stroke-linecap:butt;stroke-linejoin:miter;stroke-opacity:1"/>
<path class="bond-6 atom-6 atom-7" d="M 88.1,186.7 L 148.7,166.6" style="fill:none;fill-rule:evenodd;stroke:#000000;stroke-width:2.0px;stroke-linecap:butt;stroke-linejoin:miter;stroke-opacity:1"/>
<path class="bond-6 atom-6 atom-7" d="M 90.4,175.8 L 140.4,159.3" style="fill:none;fill-rule:evenodd;stroke:#000000;stroke-width:2.0px;stroke-linecap:butt;stroke-linejoin:miter;stroke-opacity:1"/>
<path class="bond-7 atom-1 atom-8" d="M 222.1,84.1 L 241.4,101.3" style="fill:none;fill-rule:evenodd;stroke:#000000;stroke-width:2.0px;stroke-linecap:butt;stroke-linejoin:miter;stroke-opacity:1"/>
<path class="bond-7 atom-1 atom-8" d="M 241.4,101.3 L 260.7,118.5" style="fill:none;fill-rule:evenodd;stroke:#0000FF;stroke-width:2.0px;stroke-linecap:butt;stroke-linejoin:miter;stroke-opacity:1"/>
<path class="bond-8 atom-8 atom-9" d="M 268.6,137.6 L 266.0,163.8" style="fill:none;fill-rule:evenodd;stroke:#0000FF;stroke-width:2.0px;stroke-linecap:butt;stroke-linejoin:miter;stroke-opacity:1"/>
<path class="bond-8 atom-8 atom-9" d="M 266.0,163.8 L 263.4,189.9" style="fill:none;fill-rule:evenodd;stroke:#000000;stroke-width:2.0px;stroke-linecap:butt;stroke-linejoin:miter;stroke-opacity:1"/>
<path class="bond-9 atom-9 atom-10" d="M 263.4,189.9 L 321.8,215.5" style="fill:none;fill-rule:evenodd;stroke:#000000;stroke-width:2.0px;stroke-linecap:butt;stroke-linejoin:miter;stroke-opacity:1"/>
<path class="bond-9 atom-9 atom-10" d="M 273.6,183.9 L 319.3,204.0" style="fill:none;fill-rule:evenodd;stroke:#000000;stroke-width:2.0px;stroke-linecap:butt;stroke-linejoin:miter;stroke-opacity:1"/>
<path class="bond-10 atom-10 atom-11" d="M 321.8,215.5 L 364.2,167.9" style="fill:none;fill-rule:evenodd;stroke:#000000;stroke-width:2.0px;stroke-linecap:butt;stroke-linejoin:miter;stroke-opacity:1"/>
<path class="bond-11 atom-11 atom-12" d="M 364.2,167.9 L 428.0,167.5" style="fill:none;fill-rule:evenodd;stroke:#000000;stroke-width:2.0px;stroke-linecap:butt;stroke-linejoin:miter;stroke-opacity:1"/>
<path class="bond-11 atom-11 atom-12" d="M 369.7,158.3 L 422.4,157.9" style="fill:none;fill-rule:evenodd;stroke:#000000;stroke-width:2.0px;stroke-linecap:butt;stroke-linejoin:miter;stroke-opacity:1"/>
<path class="bond-12 atom-12 atom-13" d="M 428.0,167.5 L 459.5,112.1" style="fill:none;fill-rule:evenodd;stroke:#000000;stroke-width:2.0px;stroke-linecap:butt;stroke-linejoin:miter;stroke-opacity:1"/>
<path class="bond-13 atom-13 atom-14" d="M 459.5,112.1 L 427.3,57.0" style="fill:none;fill-rule:evenodd;stroke:#000000;stroke-width:2.0px;stroke-linecap:butt;stroke-linejoin:miter;stroke-opacity:1"/>
<path class="bond-13 atom-13 atom-14" d="M 448.5,112.1 L 421.8,66.6" style="fill:none;fill-rule:evenodd;stroke:#000000;stroke-width:2.0px;stroke-linecap:butt;stroke-linejoin:miter;stroke-opacity:1"/>
<path class="bond-14 atom-14 atom-15" d="M 427.3,57.0 L 363.5,57.4" style="fill:none;fill-rule:evenodd;stroke:#000000;stroke-width:2.0px;stroke-linecap:butt;stroke-linejoin:miter;stroke-opacity:1"/>
<path class="bond-15 atom-15 atom-16" d="M 363.5,57.4 L 332.0,112.8" style="fill:none;fill-rule:evenodd;stroke:#000000;stroke-width:2.0px;stroke-linecap:butt;stroke-linejoin:miter;stroke-opacity:1"/>
<path class="bond-15 atom-15 atom-16" d="M 369.1,67.0 L 343.0,112.8" style="fill:none;fill-rule:evenodd;stroke:#000000;stroke-width:2.0px;stroke-linecap:butt;stroke-linejoin:miter;stroke-opacity:1"/>
<path class="bond-16 atom-7 atom-2" d="M 148.7,166.6 L 161.5,104.1" style="fill:none;fill-rule:evenodd;stroke:#000000;stroke-width:2.0px;stroke-linecap:butt;stroke-linejoin:miter;stroke-opacity:1"/>
<path class="bond-17 atom-16 atom-8" d="M 332.0,112.8 L 305.3,118.7" style="fill:none;fill-rule:evenodd;stroke:#000000;stroke-width:2.0px;stroke-linecap:butt;stroke-linejoin:miter;stroke-opacity:1"/>
<path class="bond-17 atom-16 atom-8" d="M 305.3,118.7 L 278.7,124.5" style="fill:none;fill-rule:evenodd;stroke:#0000FF;stroke-width:2.0px;stroke-linecap:butt;stroke-linejoin:miter;stroke-opacity:1"/>
<path class="bond-18 atom-16 atom-11" d="M 332.0,112.8 L 364.2,167.9" style="fill:none;fill-rule:evenodd;stroke:#000000;stroke-width:2.0px;stroke-linecap:butt;stroke-linejoin:miter;stroke-opacity:1"/>
<path d="M 219.0,85.1 L 222.1,84.1 L 223.0,84.9" style="fill:none;stroke:#000000;stroke-width:2.0px;stroke-linecap:butt;stroke-linejoin:miter;stroke-opacity:1;"/>
<path d="M 116.3,63.9 L 113.9,61.8 L 110.9,62.8" style="fill:none;stroke:#000000;stroke-width:2.0px;stroke-linecap:butt;stroke-linejoin:miter;stroke-opacity:1;"/>
<path d="M 56.4,80.8 L 53.4,81.8 L 52.7,84.9" style="fill:none;stroke:#000000;stroke-width:2.0px;stroke-linecap:butt;stroke-linejoin:miter;stroke-opacity:1;"/>
<path d="M 41.1,141.2 L 40.5,144.3 L 42.9,146.4" style="fill:none;stroke:#000000;stroke-width:2.0px;stroke-linecap:butt;stroke-linejoin:miter;stroke-opacity:1;"/>
<path d="M 85.7,184.5 L 88.1,186.7 L 91.2,185.7" style="fill:none;stroke:#000000;stroke-width:2.0px;stroke-linecap:butt;stroke-linejoin:miter;stroke-opacity:1;"/>
<path d="M 145.6,167.6 L 148.7,166.6 L 149.3,163.5" style="fill:none;stroke:#000000;stroke-width:2.0px;stroke-linecap:butt;stroke-linejoin:miter;stroke-opacity:1;"/>
<path d="M 263.5,188.6 L 263.4,189.9 L 266.3,191.2" style="fill:none;stroke:#000000;stroke-width:2.0px;stroke-linecap:butt;stroke-linejoin:miter;stroke-opacity:1;"/>
<path d="M 318.9,214.2 L 321.8,215.5 L 323.9,213.1" style="fill:none;stroke:#000000;stroke-width:2.0px;stroke-linecap:butt;stroke-linejoin:miter;stroke-opacity:1;"/>
<path d="M 424.8,167.5 L 428.0,167.5 L 429.5,164.7" style="fill:none;stroke:#000000;stroke-width:2.0px;stroke-linecap:butt;stroke-linejoin:miter;stroke-opacity:1;"/>
<path d="M 457.9,114.8 L 459.5,112.1 L 457.9,109.3" style="fill:none;stroke:#000000;stroke-width:2.0px;stroke-linecap:butt;stroke-linejoin:miter;stroke-opacity:1;"/>
<path d="M 428.9,59.8 L 427.3,57.0 L 424.1,57.1" style="fill:none;stroke:#000000;stroke-width:2.0px;stroke-linecap:butt;stroke-linejoin:miter;stroke-opacity:1;"/>
<path d="M 366.7,57.4 L 363.5,57.4 L 362.0,60.2" style="fill:none;stroke:#000000;stroke-width:2.0px;stroke-linecap:butt;stroke-linejoin:miter;stroke-opacity:1;"/>
<path class="atom-0" d="M 226.7 21.7 Q 226.7 17.3, 228.8 14.9 Q 230.9 12.5, 234.9 12.5 Q 238.9 12.5, 241.1 14.9 Q 243.2 17.3, 243.2 21.7 Q 243.2 26.1, 241.1 28.6 Q 238.9 31.0, 234.9 31.0 Q 231.0 31.0, 228.8 28.6 Q 226.7 26.1, 226.7 21.7 M 234.9 29.0 Q 237.7 29.0, 239.2 27.2 Q 240.7 25.3, 240.7 21.7 Q 240.7 18.1, 239.2 16.4 Q 237.7 14.5, 234.9 14.5 Q 232.2 14.5, 230.7 16.3 Q 229.2 18.1, 229.2 21.7 Q 229.2 25.3, 230.7 27.2 Q 232.2 29.0, 234.9 29.0 " fill="#FF0000"/>
<path class="atom-8" d="M 265.7 117.4 L 271.6 127.0 Q 272.2 127.9, 273.2 129.6 Q 274.1 131.4, 274.1 131.5 L 274.1 117.4 L 276.5 117.4 L 276.5 135.5 L 274.1 135.5 L 267.7 125.0 Q 267.0 123.8, 266.2 122.4 Q 265.4 121.0, 265.2 120.6 L 265.2 135.5 L 262.9 135.5 L 262.9 117.4 L 265.7 117.4 " fill="#0000FF"/>
<path class="legend" d="M 95.4 224.4 L 99.6 231.2 Q 100.0 231.8, 100.7 233.0 Q 101.3 234.2, 101.4 234.3 L 101.4 224.4 L 103.1 224.4 L 103.1 237.2 L 101.3 237.2 L 96.8 229.8 Q 96.3 228.9, 95.8 227.9 Q 95.2 226.9, 95.1 226.6 L 95.1 237.2 L 93.4 237.2 L 93.4 224.4 L 95.4 224.4 " fill="#000000"/>
<path class="legend" d="M 109.0 224.4 Q 111.2 224.4, 112.3 225.4 Q 113.4 226.4, 113.4 228.2 Q 113.4 229.9, 112.2 230.9 Q 111.1 231.9, 109.0 231.9 L 107.0 231.9 L 107.0 237.2 L 105.2 237.2 L 105.2 224.4 L 109.0 224.4 M 109.0 230.5 Q 110.2 230.5, 110.9 229.9 Q 111.6 229.3, 111.6 228.2 Q 111.6 227.0, 110.9 226.4 Q 110.3 225.9, 109.0 225.9 L 107.0 225.9 L 107.0 230.5 L 109.0 230.5 " fill="#000000"/>
<path class="legend" d="M 124.3 237.2 L 122.9 233.4 L 117.9 233.4 L 116.6 237.2 L 114.9 237.2 L 119.3 224.4 L 121.4 224.4 L 126.0 237.2 L 124.3 237.2 M 118.4 232.0 L 122.4 232.0 L 120.4 226.2 L 118.4 232.0 " fill="#000000"/>
<path class="legend" d="M 127.3 235.2 Q 127.5 235.2, 128.1 235.5 Q 128.7 235.7, 129.3 235.9 Q 130.0 236.0, 130.6 236.0 Q 131.8 236.0, 132.5 235.5 Q 133.2 234.9, 133.2 233.8 Q 133.2 233.1, 132.9 232.7 Q 132.5 232.3, 132.0 232.0 Q 131.4 231.8, 130.5 231.5 Q 129.4 231.2, 128.7 230.9 Q 128.1 230.6, 127.6 229.9 Q 127.1 229.2, 127.1 228.0 Q 127.1 226.4, 128.2 225.4 Q 129.3 224.4, 131.4 224.4 Q 132.9 224.4, 134.6 225.2 L 134.2 226.5 Q 132.7 225.9, 131.5 225.9 Q 130.3 225.9, 129.6 226.4 Q 128.9 226.9, 128.9 227.8 Q 128.9 228.5, 129.2 228.9 Q 129.6 229.3, 130.1 229.6 Q 130.6 229.8, 131.5 230.1 Q 132.7 230.4, 133.3 230.8 Q 134.0 231.1, 134.5 231.9 Q 135.0 232.6, 135.0 233.8 Q 135.0 235.6, 133.8 236.6 Q 132.7 237.5, 130.7 237.5 Q 129.6 237.5, 128.7 237.2 Q 127.8 237.0, 126.8 236.6 L 127.3 235.2 " fill="#000000"/>
<path class="legend" d="M 137.0 235.2 Q 137.2 235.2, 137.7 235.5 Q 138.3 235.7, 139.0 235.9 Q 139.7 236.0, 140.3 236.0 Q 141.5 236.0, 142.2 235.5 Q 142.9 234.9, 142.9 233.8 Q 142.9 233.1, 142.6 232.7 Q 142.2 232.3, 141.7 232.0 Q 141.1 231.8, 140.2 231.5 Q 139.1 231.2, 138.4 230.9 Q 137.7 230.6, 137.3 229.9 Q 136.8 229.2, 136.8 228.0 Q 136.8 226.4, 137.9 225.4 Q 139.0 224.4, 141.1 224.4 Q 142.6 224.4, 144.3 225.2 L 143.9 226.5 Q 142.3 225.9, 141.2 225.9 Q 139.9 225.9, 139.3 226.4 Q 138.6 226.9, 138.6 227.8 Q 138.6 228.5, 138.9 228.9 Q 139.3 229.3, 139.8 229.6 Q 140.3 229.8, 141.2 230.1 Q 142.3 230.4, 143.0 230.8 Q 143.7 231.1, 144.2 231.9 Q 144.7 232.6, 144.7 233.8 Q 144.7 235.6, 143.5 236.6 Q 142.3 237.5, 140.4 237.5 Q 139.2 237.5, 138.4 237.2 Q 137.5 237.0, 136.5 236.6 L 137.0 235.2 " fill="#000000"/>
<path class="legend" d="M 146.2 235.1 L 148.0 235.1 L 148.0 236.9 L 146.2 236.9 L 146.2 235.1 M 146.2 228.9 L 148.0 228.9 L 148.0 230.7 L 146.2 230.7 L 146.2 228.9 " fill="#000000"/>
<path class="legend" d="" fill="#000000"/>
<path class="legend" d="M 160.5 224.4 Q 162.6 224.4, 163.7 225.4 Q 164.8 226.4, 164.8 228.2 Q 164.8 229.9, 163.7 230.9 Q 162.6 231.9, 160.5 231.9 L 158.4 231.9 L 158.4 237.2 L 156.7 237.2 L 156.7 224.4 L 160.5 224.4 M 160.5 230.5 Q 161.7 230.5, 162.4 229.9 Q 163.0 229.3, 163.0 228.2 Q 163.0 227.0, 162.4 226.4 Q 161.7 225.9, 160.5 225.9 L 158.4 225.9 L 158.4 230.5 L 160.5 230.5 " fill="#000000"/>
<path class="legend" d="M 166.3 232.5 Q 166.3 230.3, 167.5 229.0 Q 168.6 227.7, 170.7 227.7 Q 172.8 227.7, 174.0 229.0 Q 175.1 230.3, 175.1 232.5 Q 175.1 234.8, 174.0 236.0 Q 172.8 237.3, 170.7 237.3 Q 168.6 237.3, 167.5 236.0 Q 166.3 234.8, 166.3 232.5 M 168.1 232.5 Q 168.1 234.2, 168.8 235.1 Q 169.5 236.0, 170.7 236.0 Q 172.0 236.0, 172.7 235.1 Q 173.4 234.2, 173.4 232.5 Q 173.4 230.8, 172.7 230.0 Q 172.0 229.1, 170.7 229.1 Q 169.5 229.1, 168.8 230.0 Q 168.1 230.8, 168.1 232.5 " fill="#000000"/>
<path class="legend" d="M 177.2 235.2 Q 178.0 235.6, 178.5 235.8 Q 179.1 235.9, 179.8 235.9 Q 180.6 235.9, 181.0 235.6 Q 181.5 235.2, 181.5 234.6 Q 181.5 234.2, 181.2 233.9 Q 181.0 233.6, 180.7 233.5 Q 180.4 233.4, 179.6 233.1 Q 179.5 233.1, 178.6 232.8 Q 177.8 232.5, 177.4 231.9 Q 176.9 231.3, 176.9 230.4 Q 176.9 229.3, 177.8 228.5 Q 178.7 227.7, 180.3 227.7 Q 181.0 227.7, 181.7 227.9 Q 182.3 228.1, 183.0 228.3 L 182.5 229.7 Q 181.9 229.4, 181.4 229.3 Q 180.9 229.1, 180.3 229.1 Q 179.5 229.1, 179.1 229.5 Q 178.6 229.8, 178.6 230.4 Q 178.6 230.9, 179.0 231.1 Q 179.3 231.3, 180.1 231.6 Q 180.3 231.7, 180.4 231.7 L 180.9 231.9 Q 181.6 232.2, 182.1 232.4 Q 182.5 232.7, 182.9 233.2 Q 183.2 233.7, 183.2 234.5 Q 183.2 235.9, 182.2 236.6 Q 181.3 237.3, 179.8 237.3 Q 178.9 237.3, 178.1 237.1 Q 177.4 236.9, 176.6 236.6 L 177.2 235.2 " fill="#000000"/>
<path class="legend" d="" fill="#000000"/>
<path class="legend" d="M 191.5 226.8 Q 192.0 225.6, 193.1 225.0 Q 194.2 224.3, 195.8 224.3 Q 197.7 224.3, 198.8 225.3 Q 199.8 226.4, 199.8 228.2 Q 199.8 230.1, 198.4 231.9 Q 197.1 233.6, 194.2 235.7 L 200.1 235.7 L 200.1 237.2 L 191.5 237.2 L 191.5 236.0 Q 193.8 234.3, 195.3 233.0 Q 196.7 231.7, 197.4 230.6 Q 198.0 229.5, 198.0 228.3 Q 198.0 227.1, 197.4 226.4 Q 196.8 225.7, 195.8 225.7 Q 194.7 225.7, 194.0 226.1 Q 193.4 226.5, 192.9 227.5 L 191.5 226.8 " fill="#000000"/>
<path class="legend" d="M 206.5 237.3 Q 204.1 237.3, 203.0 235.6 Q 201.8 233.8, 201.8 230.8 Q 201.8 227.7, 203.0 226.0 Q 204.1 224.3, 206.5 224.3 Q 208.8 224.3, 210.0 226.0 Q 211.1 227.7, 211.1 230.8 Q 211.1 233.8, 210.0 235.6 Q 208.8 237.3, 206.5 237.3 M 206.5 235.9 Q 207.9 235.9, 208.6 234.6 Q 209.3 233.3, 209.3 230.8 Q 209.3 228.3, 208.6 227.0 Q 207.9 225.7, 206.5 225.7 Q 205.1 225.7, 204.3 227.0 Q 203.6 228.3, 203.6 230.8 Q 203.6 233.3, 204.3 234.6 Q 205.1 235.9, 206.5 235.9 " fill="#000000"/>
<path class="legend" d="" fill="#000000"/>
<path class="legend" d="M 219.6 230.7 L 226.2 230.7 L 226.2 232.1 L 219.6 232.1 L 219.6 230.7 " fill="#000000"/>
<path class="legend" d="" fill="#000000"/>
<path class="legend" d="M 245.2 227.7 Q 246.7 227.7, 247.5 228.6 Q 248.3 229.4, 248.3 231.0 L 248.3 237.2 L 246.6 237.2 L 246.6 231.2 Q 246.6 230.1, 246.2 229.6 Q 245.8 229.1, 244.8 229.1 Q 244.0 229.1, 243.3 229.5 Q 242.7 229.8, 242.2 230.5 Q 242.3 230.7, 242.3 231.0 L 242.3 237.2 L 240.6 237.2 L 240.6 231.2 Q 240.6 230.1, 240.1 229.6 Q 239.7 229.1, 238.8 229.1 Q 238.0 229.1, 237.3 229.5 Q 236.6 229.8, 236.2 230.5 L 236.2 237.2 L 234.5 237.2 L 234.5 227.9 L 235.9 227.9 L 236.0 229.2 Q 237.3 227.7, 239.1 227.7 Q 241.3 227.7, 242.0 229.4 Q 243.2 227.7, 245.2 227.7 " fill="#000000"/>
<path class="legend" d="M 250.4 232.5 Q 250.4 230.2, 251.5 229.0 Q 252.6 227.7, 254.7 227.7 Q 256.7 227.7, 257.6 229.0 Q 258.6 230.2, 258.6 232.5 L 258.6 232.7 L 252.1 232.7 Q 252.1 234.3, 252.8 235.1 Q 253.5 236.0, 254.9 236.0 Q 255.6 236.0, 256.2 235.8 Q 256.9 235.6, 257.7 235.3 L 258.2 236.4 Q 257.3 236.9, 256.5 237.1 Q 255.6 237.3, 254.8 237.3 Q 252.7 237.3, 251.5 236.0 Q 250.4 234.8, 250.4 232.5 M 254.7 229.1 Q 253.7 229.1, 253.0 229.7 Q 252.4 230.3, 252.2 231.5 L 256.8 231.5 Q 256.7 230.2, 256.2 229.7 Q 255.7 229.1, 254.7 229.1 " fill="#000000"/>
<path class="legend" d="M 259.9 234.7 Q 259.9 233.2, 261.1 232.4 Q 262.3 231.6, 264.5 231.6 L 265.8 231.6 L 265.8 231.2 Q 265.8 230.0, 265.4 229.6 Q 264.9 229.1, 263.7 229.1 Q 263.0 229.1, 262.4 229.2 Q 261.8 229.3, 260.9 229.7 L 260.4 228.6 Q 262.1 227.7, 263.8 227.7 Q 265.7 227.7, 266.6 228.6 Q 267.5 229.4, 267.5 231.2 L 267.5 237.2 L 266.2 237.2 Q 266.2 237.1, 266.1 236.8 Q 266.1 236.5, 266.0 236.1 Q 264.7 237.4, 263.0 237.4 Q 261.6 237.4, 260.7 236.6 Q 259.9 235.9, 259.9 234.7 M 261.6 234.6 Q 261.6 235.3, 262.0 235.7 Q 262.5 236.0, 263.3 236.0 Q 264.0 236.0, 264.7 235.7 Q 265.4 235.4, 265.8 234.8 L 265.8 232.8 L 264.6 232.8 Q 263.1 232.8, 262.3 233.3 Q 261.6 233.7, 261.6 234.6 " fill="#000000"/>
<path class="legend" d="M 274.4 227.7 Q 275.9 227.7, 276.7 228.6 Q 277.5 229.4, 277.5 231.0 L 277.5 237.2 L 275.8 237.2 L 275.8 231.2 Q 275.8 230.1, 275.3 229.6 Q 274.9 229.1, 274.0 229.1 Q 273.1 229.1, 272.4 229.5 Q 271.7 229.8, 271.3 230.5 L 271.3 237.2 L 269.6 237.2 L 269.6 227.9 L 271.0 227.9 L 271.2 229.2 Q 272.4 227.7, 274.4 227.7 " fill="#000000"/>
<path class="legend" d="" fill="#000000"/>
<path class="legend" d="M 286.7 235.2 Q 286.8 235.2, 287.4 235.5 Q 288.0 235.7, 288.6 235.9 Q 289.3 236.0, 290.0 236.0 Q 291.2 236.0, 291.9 235.5 Q 292.6 234.9, 292.6 233.8 Q 292.6 233.1, 292.2 232.7 Q 291.9 232.3, 291.3 232.0 Q 290.8 231.8, 289.9 231.5 Q 288.8 231.2, 288.1 230.9 Q 287.4 230.6, 286.9 229.9 Q 286.4 229.2, 286.4 228.0 Q 286.4 226.4, 287.5 225.4 Q 288.6 224.4, 290.8 224.4 Q 292.3 224.4, 293.9 225.2 L 293.5 226.5 Q 292.0 225.9, 290.8 225.9 Q 289.6 225.9, 288.9 226.4 Q 288.2 226.9, 288.2 227.8 Q 288.2 228.5, 288.6 228.9 Q 288.9 229.3, 289.5 229.6 Q 290.0 229.8, 290.8 230.1 Q 292.0 230.4, 292.7 230.8 Q 293.4 231.1, 293.8 231.9 Q 294.3 232.6, 294.3 233.8 Q 294.3 235.6, 293.2 236.6 Q 292.0 237.5, 290.0 237.5 Q 288.9 237.5, 288.0 237.2 Q 287.2 237.0, 286.2 236.6 L 286.7 235.2 " fill="#000000"/>
<path class="legend" d="M 295.9 224.4 L 297.6 224.4 L 297.6 229.8 L 304.1 229.8 L 304.1 224.4 L 305.8 224.4 L 305.8 237.2 L 304.1 237.2 L 304.1 231.3 L 297.6 231.3 L 297.6 237.2 L 295.9 237.2 L 295.9 224.4 " fill="#000000"/>
<path class="legend" d="M 317.4 237.2 L 316.1 233.4 L 311.0 233.4 L 309.8 237.2 L 308.0 237.2 L 312.4 224.4 L 314.5 224.4 L 319.1 237.2 L 317.4 237.2 M 311.5 232.0 L 315.6 232.0 L 313.5 226.2 L 311.5 232.0 " fill="#000000"/>
<path class="legend" d="M 323.7 224.4 Q 325.9 224.4, 327.0 225.4 Q 328.1 226.4, 328.1 228.2 Q 328.1 229.9, 327.0 230.9 Q 325.9 231.9, 323.7 231.9 L 321.7 231.9 L 321.7 237.2 L 320.0 237.2 L 320.0 224.4 L 323.7 224.4 M 323.7 230.5 Q 325.0 230.5, 325.7 229.9 Q 326.3 229.3, 326.3 228.2 Q 326.3 227.0, 325.7 226.4 Q 325.0 225.9, 323.7 225.9 L 321.7 225.9 L 321.7 230.5 L 323.7 230.5 " fill="#000000"/>
<path class="legend" d="M 329.6 235.1 L 331.4 235.1 L 331.4 236.9 L 329.6 236.9 L 329.6 235.1 M 329.6 228.9 L 331.4 228.9 L 331.4 230.7 L 329.6 230.7 L 329.6 228.9 " fill="#000000"/>
<path class="legend" d="" fill="#000000"/>
<path class="legend" d="M 344.8 237.3 Q 342.4 237.3, 341.3 235.6 Q 340.1 233.8, 340.1 230.8 Q 340.1 227.7, 341.3 226.0 Q 342.4 224.3, 344.8 224.3 Q 347.1 224.3, 348.3 226.0 Q 349.4 227.7, 349.4 230.8 Q 349.4 233.8, 348.3 235.6 Q 347.1 237.3, 344.8 237.3 M 344.8 235.9 Q 346.2 235.9, 346.9 234.6 Q 347.6 233.3, 347.6 230.8 Q 347.6 228.3, 346.9 227.0 Q 346.2 225.7, 344.8 225.7 Q 343.4 225.7, 342.7 227.0 Q 341.9 228.3, 341.9 230.8 Q 341.9 233.3, 342.7 234.6 Q 343.4 235.9, 344.8 235.9 " fill="#000000"/>
<path class="legend" d="M 351.3 235.4 L 353.1 235.4 L 353.1 237.2 L 351.3 237.2 L 351.3 235.4 " fill="#000000"/>
<path class="legend" d="M 359.6 237.3 Q 357.2 237.3, 356.1 235.6 Q 354.9 233.8, 354.9 230.8 Q 354.9 227.7, 356.1 226.0 Q 357.2 224.3, 359.6 224.3 Q 361.9 224.3, 363.1 226.0 Q 364.3 227.7, 364.3 230.8 Q 364.3 233.8, 363.1 235.6 Q 361.9 237.3, 359.6 237.3 M 359.6 235.9 Q 361.0 235.9, 361.7 234.6 Q 362.5 233.3, 362.5 230.8 Q 362.5 228.3, 361.7 227.0 Q 361.0 225.7, 359.6 225.7 Q 358.2 225.7, 357.5 227.0 Q 356.7 228.3, 356.7 230.8 Q 356.7 233.3, 357.5 234.6 Q 358.2 235.9, 359.6 235.9 " fill="#000000"/>
<path class="legend" d="M 370.8 237.3 Q 368.4 237.3, 367.2 235.6 Q 366.1 233.8, 366.1 230.8 Q 366.1 227.7, 367.2 226.0 Q 368.4 224.3, 370.8 224.3 Q 373.1 224.3, 374.3 226.0 Q 375.4 227.7, 375.4 230.8 Q 375.4 233.8, 374.2 235.6 Q 373.1 237.3, 370.8 237.3 M 370.8 235.9 Q 372.1 235.9, 372.9 234.6 Q 373.6 233.3, 373.6 230.8 Q 373.6 228.3, 372.9 227.0 Q 372.1 225.7, 370.8 225.7 Q 369.4 225.7, 368.6 227.0 Q 367.9 228.3, 367.9 230.8 Q 367.9 233.3, 368.6 234.6 Q 369.4 235.9, 370.8 235.9 " fill="#000000"/>
<path class="legend" d="M 381.9 237.3 Q 379.6 237.3, 378.4 235.6 Q 377.3 233.8, 377.3 230.8 Q 377.3 227.7, 378.4 226.0 Q 379.6 224.3, 381.9 224.3 Q 384.3 224.3, 385.4 226.0 Q 386.6 227.7, 386.6 230.8 Q 386.6 233.8, 385.4 235.6 Q 384.3 237.3, 381.9 237.3 M 381.9 235.9 Q 383.3 235.9, 384.0 234.6 Q 384.8 233.3, 384.8 230.8 Q 384.8 228.3, 384.0 227.0 Q 383.3 225.7, 381.9 225.7 Q 380.5 225.7, 379.8 227.0 Q 379.1 228.3, 379.1 230.8 Q 379.1 233.3, 379.8 234.6 Q 380.5 235.9, 381.9 235.9 " fill="#000000"/>
<path class="legend" d="M 393.4 229.2 Q 394.5 229.2, 395.4 229.7 Q 396.3 230.2, 396.8 231.1 Q 397.3 231.9, 397.3 233.1 Q 397.3 234.3, 396.7 235.3 Q 396.2 236.2, 395.2 236.8 Q 394.2 237.3, 393.0 237.3 Q 390.7 237.3, 389.5 235.8 Q 388.4 234.2, 388.4 231.2 Q 388.4 227.8, 389.8 226.0 Q 391.2 224.3, 394.0 224.3 Q 394.7 224.3, 395.4 224.4 Q 396.1 224.6, 396.7 225.0 L 396.0 226.2 Q 395.1 225.7, 394.0 225.7 Q 392.2 225.7, 391.3 226.9 Q 390.3 228.0, 390.2 230.4 Q 390.9 229.8, 391.7 229.5 Q 392.5 229.2, 393.4 229.2 M 393.0 235.8 Q 393.7 235.8, 394.2 235.5 Q 394.8 235.1, 395.1 234.5 Q 395.5 233.8, 395.5 233.1 Q 395.5 231.9, 394.8 231.3 Q 394.2 230.6, 393.1 230.6 Q 392.3 230.6, 391.5 231.0 Q 390.8 231.3, 390.2 231.8 Q 390.3 233.9, 391.0 234.9 Q 391.6 235.8, 393.0 235.8 " fill="#000000"/>
<path class="legend" d="M 399.6 235.7 L 402.4 235.7 L 402.4 226.2 L 399.3 227.1 L 398.9 226.1 L 402.8 224.3 L 404.1 224.6 L 404.1 235.7 L 406.6 235.7 L 406.6 237.2 L 399.6 237.2 L 399.6 235.7 " fill="#000000"/>
</g>
  </g>
</svg>
